/* XPM */
static char *anjuta_linemark_16_xpm[] = {
/* columns rows colors chars-per-pixel */
"16 16 49 1",
"  c #396C08",
". c #3A6C08",
"X c #3E730A",
"o c #43790E",
"O c #44790F",
"+ c #447A0F",
"@ c #4A7E18",
"# c #50821F",
"$ c #5FA31D",
"% c #61A71E",
"& c #6CAD2E",
"* c #70A937",
"= c #79B83C",
"- c #7AB93E",
"; c #74AA40",
": c #8AE234",
"> c #81B250",
", c #8CB961",
"< c #92BD6A",
"1 c #88C150",
"2 c #8EC559",
"3 c #93E444",
"4 c #9BE651",
"5 c #9EE757",
"6 c #9BC970",
"7 c #9DC972",
"8 c #A7E966",
"9 c #A9E96A",
"0 c #B0E879",
"q c #A6CD80",
"w c #B4E980",
"e c #B6EA84",
"r c #BAE98C",
"t c #CDF2A7",
"y c #D4F4B5",
"u c #D6F3B9",
"i c #D7F4BA",
"p c #D9F5BE",
"a c #DDF5C6",
"s c #DEF4C7",
"d c #E2F7CD",
"f c #E3F5D0",
"g c #E6F6D5",
"h c #E5F8D2",
"j c #E9F7DB",
"k c #E9F9D8",
"l c #EDF9E1",
"z c #F3FBEB",
"x c None",
/* pixels */
"xxxxxxxxxxxxxxxx",
"xxxxxx    xxxxxx",
"xxxxxx &q.xxxxxx",
"xxxxxx *> xxxxxx",
"xxxxxX+76+Xxxxxx",
"xxxxX,flzj<Xxxxx",
"x   @spdkhg# ..x",
"x %%1utyuys2%% x",
"x $&-04895e-$% x",
"x  .Or3::3ro   x",
"xxxxo*r00r;Xxxxx",
"xxxxx.o==+Xxxxxx",
"xxxxxx %% xxxxxx",
"xxxxxx.%% xxxxxx",
"xxxxxx    xxxxxx",
"xxxxxxxxxxxxxxxx"
};
