/* XPM */
static char * breakpoint_disabled_xpm[] = {
"16 16 33 1",
" 	c None",
".	c #2C3738",
"+	c #313B3C",
"@	c #363F3C",
"#	c #394445",
"$	c #3F4642",
"%	c #4C4E4B",
"&	c #555754",
"*	c #656764",
"=	c #6C706D",
"-	c #717578",
";	c #757A7D",
">	c #7B7E7B",
",	c #848D88",
"'	c #8A8C89",
")	c #90928F",
"!	c #909497",
"~	c #959C98",
"{	c #9EA09D",
"]	c #99A29E",
"^	c #9CA1A3",
"/	c #A2A4A1",
"(	c #A1ABA6",
"_	c #AAACA9",
":	c #ABB2A7",
"<	c #B3B5B2",
"[	c #AFB7AE",
"}	c #BDBFBC",
"|	c #C0BFB6",
"1	c #C6C8C5",
"2	c #CDCFCB",
"3	c #DBDDD9",
"4	c #E6E8E5",
"                ",
"     11}}}<     ",
"    4^;;;;_3    ",
"   4!.....$_3   ",
"  4!.....@%&_3  ",
" 2^......$%&&</ ",
" 2>(>][>,]*:_)/ ",
" 2'~#.]#]=':){/ ",
" 2-=].]#]=)|{)/ ",
" 1'(,.]+{:*_&){ ",
" 1^+...@%&&&&<{ ",
"  4!...$%&&&_3  ",
"   4!.+$&&&_3   ",
"    4^>'))<3    ",
"     <<<__/     ",
"                "};
