/* XPM */
static char * linemarker_xpm[] = {
"16 16 17 1",
" 	c None",
".	c #A7CC88",
"+	c #93C167",
"@	c #D8F3BE",
"#	c #BDEA91",
"$	c #A5E268",
"%	c #519810",
"&	c #C9EFA8",
"*	c #F0F8DF",
"=	c #AFE679",
"-	c #88D93C",
";	c #8CC353",
">	c #79D51D",
",	c #509B03",
"'	c #79BB32",
")	c #6ED317",
"!	c #5AAB00",
"                ",
"                ",
"                ",
"                ",
"      ..+       ",
"     .@@#$%     ",
"    +&**&=-%    ",
"    ;#@@&$>,    ",
"    '$=#=-),    ",
"    !----))%    ",
"     !))))%     ",
"      %,%%      ",
"                ",
"                ",
"                ",
"                "};
