/* XPM */
static char * program_counter_xpm[] = {
"16 16 17 1",
" 	c None",
".	c #644500",
"+	c #5A4A0E",
"@	c #5D4D00",
"#	c #765300",
"$	c #755D00",
"%	c #846513",
"&	c #906906",
"*	c #777023",
"=	c #8F7700",
"-	c #938225",
";	c #C29D00",
">	c #B3A026",
",	c #C5B231",
"'	c #D6B913",
")	c #E9D036",
"!	c #FAE548",
"                ",
"                ",
"          .     ",
"          #.    ",
"          #!-   ",
".%%%%%%%%%-!!>  ",
"&))))))))))!!!, ",
"&)))))))))))))),",
"%''''''''''''''>",
"#;;;;;;;;;;;;;= ",
".#########$;;=  ",
"          #;$   ",
"          #.    ",
"          .     ",
"                ",
"                "};
