/* XPM */
static char * unknown_xpm[] = {
"16 16 100 2",
"  	c None",
". 	c #B4A889",
"+ 	c #B2A688",
"@ 	c #A89D80",
"# 	c #9B9176",
"$ 	c #9A9075",
"% 	c #8F866D",
"& 	c #B6AA8B",
"* 	c #FBF9EB",
"= 	c #E8E4D5",
"- 	c #E3DECF",
"; 	c #EEE9D8",
"> 	c #ECE5D4",
", 	c #938A71",
"' 	c #AFA486",
") 	c #E8E3D5",
"! 	c #E2DECE",
"~ 	c #DDD8C8",
"{ 	c #D8D3C2",
"] 	c #D3CDBC",
"^ 	c #BAB39F",
"/ 	c #E2DDCE",
"( 	c #DCD8C8",
"_ 	c #D7D2C1",
": 	c #D2CDBB",
"< 	c #CDC7B5",
"[ 	c #DCD7C7",
"} 	c #D7D1C1",
"| 	c #D1CCBB",
"1 	c #CCC6B4",
"2 	c #C7C1AE",
"3 	c #C2BBA8",
"4 	c #BCB6A2",
"5 	c #A9A390",
"6 	c #837B64",
"7 	c #D6D1C0",
"8 	c #D1CBBA",
"9 	c #CBC6B4",
"0 	c #C6C0AE",
"a 	c #C1BBA7",
"b 	c #BCB5A1",
"c 	c #B6B09B",
"d 	c #A29B88",
"e 	c #D0CAB9",
"f 	c #CBC5B3",
"g 	c #C6BFAD",
"h 	c #C0BAA7",
"i 	c #BBB4A1",
"j 	c #B6AF9A",
"k 	c #B1A994",
"l 	c #9C9682",
"m 	c #CAC4B2",
"n 	c #C5BFAC",
"o 	c #C0B9A6",
"p 	c #BAB4A0",
"q 	c #B5AE9A",
"r 	c #B0A994",
"s 	c #ABA38D",
"t 	c #97907B",
"u 	c #C4BEAB",
"v 	c #BFB9A5",
"w 	c #B5AE99",
"x 	c #AFA893",
"y 	c #AAA28D",
"z 	c #A59D87",
"A 	c #928A75",
"B 	c #BEB8A4",
"C 	c #B9B29E",
"D 	c #B4AD98",
"E 	c #AFA792",
"F 	c #A9A28C",
"G 	c #A49C86",
"H 	c #9F9780",
"I 	c #8D8570",
"J 	c #B8B29D",
"K 	c #B3AC97",
"L 	c #AEA791",
"M 	c #A9A18B",
"N 	c #A39C85",
"O 	c #9E967F",
"P 	c #999179",
"Q 	c #877F69",
"R 	c #B3AB97",
"S 	c #ADA690",
"T 	c #A8A08A",
"U 	c #A39B84",
"V 	c #9E957E",
"W 	c #8F8871",
"X 	c #918971",
"Y 	c #837B63",
"Z 	c #9B9377",
"` 	c #9E9784",
" .	c #99927E",
"..	c #948D78",
"+.	c #908872",
"@.	c #8B836D",
"#.	c #857E67",
"$.	c #888068",
"%.	c #847C65",
"&.	c #7F7760",
"                                ",
"        . + @ @ # $ %           ",
"      & * = - ; > , = %         ",
"      ' ) ! ~ { ] % ^ ^ %       ",
"      @ / ( _ : < % % % %       ",
"      @ [ } | 1 2 3 4 5 6       ",
"      @ 7 8 9 0 a b c d 6       ",
"      @ e f g h i j k l 6       ",
"      @ m n o p q r s t 6       ",
"      @ u v ^ w x y z A 6       ",
"      @ B C D E F G H I 6       ",
"      @ J K L M N O P Q 6       ",
"      @ R S T U V W X Y 6       ",
"      Z `  ...+.@.#.$.Y 6       ",
"        6 6 6 6 6 6 %.&.        ",
"                                "};
