/* XPM */
static char *anjuta_breakpoint_disabled_16_xpm[] = {
/* columns rows colors chars-per-pixel */
"16 16 20 1",
"  c #5C3566",
". c #684071",
"X c #6A4473",
"o c #6F4A78",
"O c #633C6C",
"+ c #643D6D",
"@ c #E2BDE6",
"# c #E6C3EA",
"$ c #EBDAEF",
"% c #ECCEF0",
"& c #ECD8F0",
"* c #F9DCFC",
"= c #EEE1F2",
"- c #FBE8FE",
"; c #FCF1FF",
": c #603869",
"> c #613C6B",
", c #633C6C",
"< c #60396A",
"1 c None",
/* pixels */
"1111111111111111",
"11111+.   >11111",
"1111+o=;;=o>1111",
"111Oo=;;;;$o,111",
"11,o=;;;;;;$o>11",
"1,o=;;;;;;;-$oO1",
"1 $;;;;;-;---% 1",
"1 ;;;;;;-----* 1",
"1 ;;;;-----*** 1",
"1 $;;;----***# 1",
"1:o$----****#X:1",
"11>o&--****#X:11",
"111,o&****@X<111",
"1111Oo%**@.<1111",
"11111O    <11111",
"1111111111111111"
};
