/* XPM */
static char *anjuta_breakpoint_enabled_16_xpm[] = {
/* columns rows colors chars-per-pixel */
"16 16 25 1",
"  c #A70101",
". c #A50202",
"X c #B31B1B",
"o c #B61F1F",
"O c #B62222",
"+ c #B82828",
"@ c #BC3737",
"# c #EC1C1C",
"$ c #EE2929",
"% c #F13838",
"& c #F34848",
"* c #F45757",
"= c #F46666",
"- c #F87777",
"; c #FA8686",
": c #FB9797",
"> c #F8A7A7",
", c #FBB6B6",
"< c #FDC7C7",
"1 c #FCD8D8",
"2 c #FEE6E6",
"3 c #A70303",
"4 c #A70202",
"5 c #A60404",
"6 c None",
/* pixels */
"6666666666666666",
"666663....366666",
"66665@2221@36666",
"6665@11<111@3666",
"665@1<,,,,<1@366",
"65@1,>>>,>>,1@46",
"6.<>::::::;;:<.6",
"6.1;;;;--==**<.6",
"6.1--=**&&*&&<.6",
"6.,-&&&&&&%&=,.6",
"63O,=%%%%%$=>O 6",
"664O>=$$$$*>O 66",
"6664+>&##*>o4666",
"6666 +>,,:X46666",
"66666 ....366666",
"6666666666666666"
};
