/* XPM */
static char *anjuta_bookmark_16_xpm[] = {
/* columns rows colors chars-per-pixel */
"16 16 40 1",
"  c #2D2E2F",
". c #2E3436",
"X c #33393B",
"o c #A80404",
"O c #8B0F10",
"+ c #AF1717",
"@ c #A50707",
"# c #AA1918",
"$ c #AF1616",
"% c #AB211E",
"& c #AE2D2C",
"* c #B83B38",
"= c #AD1010",
"- c #C53C37",
"; c #BB4139",
": c #BB5A53",
"> c #C2554E",
", c #C75853",
"< c #D75A59",
"1 c #E85959",
"2 c #C56767",
"3 c #C17272",
"4 c #EB6A6A",
"5 c gray60",
"6 c #A9A9A9",
"7 c gray",
"8 c #D08989",
"9 c #EF8C8C",
"0 c #D3A3A3",
"q c #CEC9C9",
"w c #D3CECE",
"e c #DAD9D9",
"r c #EADBDB",
"t c #F2DDDD",
"y c #E7E6E6",
"u c #F1E7E7",
"i c #F8F8F8",
"p c #373B3D",
"a c #A50101",
"s c None",
/* pixels */
"sa=+$$$ossssssss",
"s$29999%ssssssss",
"pO&4114# ..X..Xp",
" r#<--<@tiiiiiiX",
".t#>**,@q55555i.",
".t#,*-,@qyyyyyi.",
".t#,--,@q55667i.",
".t#,-*,@wyyeyui.",
".t#:;;,@e6666yi.",
".t#::::@eeeeyyi.",
".t%:&&:@y66766i.",
".r@#*&#@eeeeeei.",
".t@3yy:@yiiiiii.",
".t0yyii8uiiiiii.",
"XiiiiiiiiiiiiiiX",
"pX............Xp"
};
