/* XPM */
static char * bookmark_xpm[] = {
"16 16 27 1",
" 	c None",
".	c #000200",
"+	c #290F0D",
"@	c #B0B2AF",
"#	c #191815",
"$	c #2F302E",
"%	c #6C6B66",
"&	c #D0D2CE",
"*	c #F2F4F1",
"=	c #E4795E",
"-	c #E1593D",
";	c #DE4F2D",
">	c #C04428",
",	c #DEE0DC",
"'	c #FDFFFC",
")	c #E49988",
"!	c #CE6C55",
"~	c #E6846D",
"{	c #C6573D",
"]	c #A1A3A0",
"^	c #E16346",
"/	c #979894",
"(	c #80817E",
"_	c #E04019",
":	c #E8EAE6",
"<	c #9A9688",
"[	c #A19E90",
" ...+...+@#$%   ",
".&*.=-;->.,,&$  ",
".*'.)))=!.@*'@$ ",
".''.~==={+]*''@%",
".''.~^^^>./....$",
".''.=;;;>+]@((%#",
".''.=__;>.*@@@@#",
".''.=___>.:****#",
".''#~^-->.:@]@@.",
".'*.~^^^!#,::,:.",
".'*.)~.!!#*@@@@.",
".'*.).@.>.:****.",
".'*/.(//.(:]@]@.",
".&,,,,,&,&:::&<.",
".<[</[[<</<</<%.",
" .............. "};
