/* XPM */
static char * breakpoint_enabled_xpm[] = {
"16 16 30 1",
" 	c None",
".	c #A5A7A4",
"+	c #D1D8CD",
"@	c #F59B9B",
"#	c #F57072",
"$	c #F78C8C",
"%	c #EF2624",
"&	c #DD0B0F",
"*	c #E67F80",
"=	c #E5171D",
"-	c #D20407",
";	c #CD0000",
">	c #F13739",
",	c #E88E8F",
"'	c #BDBCB3",
")	c #F67776",
"!	c #FAD4D5",
"~	c #F5B8BA",
"{	c #FBE5E6",
"]	c #F8D9D8",
"^	c #D31E1B",
"/	c #F7C1C1",
"(	c #DE6263",
"_	c #EF272B",
":	c #F8C8C6",
"<	c #E15557",
"[	c #EEAEAD",
"}	c #F06A68",
"|	c #E15D5C",
"1	c #D6242A",
"                ",
"     ......     ",
"    +@####@+    ",
"   +$%%%%%&*+   ",
"  +$%%%%%=-;*+  ",
" .@>%%%%%=-;;,' ",
" .)!~!{!~]^!/(' ",
" .$/>_{>:<[!**' ",
" .}$!_]>/<[!,|' ",
" .$!~_]%//1!;<' ",
" .@_%%%=--;;;,' ",
"  +$%%%&-;;;*+  ",
"   +$%=&;;;*+   ",
"    +@}|<<,+    ",
"     ''''''     ",
"                "};
