/* XPM */
static char * block_select_xpm[] = {
"24 24 2 1",
" 	c None",
".	c #000000",
"                        ",
"                        ",
"                        ",
"                        ",
"    ...........         ",
"                        ",
"    . . . . . . . .     ",
"                        ",
"       ...  .......     ",
"       .    .......     ",
"    ...                 ",
"       .    .......     ",
"       ...  .......     ",
"                        ",
"    . . . . . . . .     ",
"                        ",
"    .............       ",
"                        ",
"    ...........         ",
"                        ",
"                        ",
"                        ",
"                        ",
"                        "};
