/* XPM */
static char * indent_set_xpm[] = {
"24 24 2 1",
" 	c None",
".	c #000000",
"                        ",
"                        ",
"                        ",
"                        ",
"    ...........         ",
"                        ",
"    . . . . . . . .     ",
"                        ",
"     ...    .......     ",
"        .   .......     ",
"     ...                ",
"     .      .......     ",
"     .      .......     ",
"                        ",
"    . . . . . . . .     ",
"                        ",
"    .............       ",
"                        ",
"    ...........         ",
"                        ",
"                        ",
"                        ",
"                        ",
"                        "};
