/* XPM */
static char * file_xpm[] = {
"16 16 60 1",
" 	c None",
".	c #000000",
"+	c #494945",
"@	c #C7C7B1",
"#	c #FFFFEA",
"$	c #FFFFE7",
"%	c #F3F3D8",
"&	c #DDDDC8",
"*	c #E0E0C8",
"=	c #FFFFE5",
"-	c #ABABAC",
";	c #E5E5CA",
">	c #DCDCC6",
",	c #D9D9C1",
"'	c #E1E1C9",
")	c #EBEBD3",
"!	c #F4F4DC",
"~	c #373731",
"{	c #CCCCCB",
"]	c #C3C3C5",
"^	c #DFDFC7",
"/	c #E8E8D0",
"(	c #FFFFE6",
"_	c #FDFDE1",
":	c #D1D1CB",
"<	c #E4E4CA",
"[	c #E4E4CC",
"}	c #ECECD3",
"|	c #EFEFD6",
"1	c #F3F3DA",
"2	c #FFFFF8",
"3	c #CFCFB7",
"4	c #E7E7CF",
"5	c #E8E8CF",
"6	c #EEEED5",
"7	c #F2F2D9",
"8	c #F4F4DB",
"9	c #FFFFF1",
"0	c #FFFFEC",
"a	c #DBDBC4",
"b	c #E4E4CD",
"c	c #E9E9D1",
"d	c #F5F5DC",
"e	c #FFFFFF",
"f	c #FDFDE4",
"g	c #E6E6CE",
"h	c #F0F0D7",
"i	c #F3F3D9",
"j	c #FFFFFA",
"k	c #FBFBE1",
"l	c #EAEAD1",
"m	c #F7F7DE",
"n	c #FFFFF6",
"o	c #FFFFE8",
"p	c #F1F1D8",
"q	c #F9F9DE",
"r	c #FCFCE2",
"s	c #FFFFEB",
"t	c #BFBFAB",
"u	c #FFFFF2",
"                ",
"                ",
"       ..+      ",
"     ..@#.      ",
"   ..$%&*=.     ",
"  .-.;>,')!~    ",
"  .{].^*/)(_.   ",
"  .:..<[}|12.   ",
"  ..3[45678(9.  ",
"   .0abc|7d=ef. ",
"   .0g4)hi(j..  ",
"    .kl6mno.    ",
"    .pqrst.     ",
"     .eu..      ",
"      ..        ",
"                "};
