/* XPM */
static char * ofolder_xpm[] = {
"16 16 7 1",
" 	c None",
".	c #9494FF",
"+	c #FFFFFF",
"@	c #BDBDBD",
"#	c #6363CE",
"$	c #808080",
"%	c #A0A0A0",
"                ",
"                ",
"   .....        ",
"  .+++++.       ",
" .+.@.@.+###### ",
" .+@.@.@.+++++# ",
" .+.@.@.@.@.@.#$",
"############.@#$",
"#+++++++++@#%.#$",
" #.@.@.@.@.@#@#$",
" #@.@.@.@.@.###$",
"  #@.@.@.@.@.##$",
"  #############$",
"   $$$$$$$$$$$$$",
"                ",
"                "};
