/* XPM */
static char * private_xpm[] = {
"16 16 2 1",
" 	c None",
".	c #E22626",
"                ",
"                ",
"   ......       ",
"   ......       ",
"   ......       ",
"   ......       ",
"   ......       ",
"   ......       ",
"   ......       ",
"   ......       ",
"   ......       ",
"   ......       ",
"   ......       ",
"   ......       ",
"                ",
"                "};
