/* XPM */
static char * scanner_xpm[] = {
"48 48 62 1",
" 	c None",
".	c #8E8279",
"+	c #8E8E8E",
"@	c #9E9A9E",
"#	c #494D49",
"$	c #383830",
"%	c #594538",
"&	c #795941",
"*	c #100C08",
"=	c #594130",
"-	c #303028",
";	c #595951",
">	c #694930",
",	c #413020",
"'	c #966549",
")	c #B68661",
"!	c #8E6141",
"~	c #A67959",
"{	c #614130",
"]	c #9E6949",
"^	c #382818",
"/	c #202018",
"(	c #696D69",
"_	c #AE8261",
":	c #A68261",
"<	c #715138",
"[	c #F7C7AE",
"}	c #DFBA96",
"|	c #C7A279",
"1	c #D7AE8E",
"2	c #513828",
"3	c #302018",
"4	c #DFBA8E",
"5	c #865D41",
"6	c #695138",
"7	c #D7A279",
"8	c #BE9271",
"9	c #C79671",
"0	c #594128",
"a	c #967961",
"b	c #B68E69",
"c	c #695541",
"d	c #A68661",
"e	c #C79A71",
"f	c #A67151",
"g	c #795138",
"h	c #866951",
"i	c #796141",
"j	c #493428",
"k	c #9E7151",
"l	c #EFDFCF",
"m	c #A66949",
"n	c #D7AA86",
"o	c #865941",
"p	c #000000",
"q	c #201410",
"r	c #201810",
"s	c #493830",
"t	c #101008",
"u	c #080400",
"v	c #EFBEA6",
"w	c #DFB296",
"                                                ",
"                                                ",
"                                                ",
"                                                ",
"                                .+              ",
"                            @#$%&**=-#@         ",
"                          @;>,')!~{~]^/$        ",
"                         (%_):<[}|%1:!2,$@      ",
"                       @$3~1145|1|6478<90*.     ",
"                       a:~0}}b~c|dc9d~~e<2*+    ",
"                     @%')}a>}d_=)fghdib4{!^$    ",
"                     $jkl}d6h)f5gf!gf>|a!9<*+   ",
"                    #kb5a18~2'ff{fm{f{_6|9>2%   ",
"                   (6n44ch9fm2!5>>!2]{f6|dgo-   ",
"                   -<}l1d6of!52<>2222>o!d<|k^+  ",
"                  .k!&919f><!<2^pq3r*r2fi9|'2h  ",
"                 +{8nd{~)f]{{2p3ko95!02'ce_>>#  ",
"                 $>1}7~=5f5g2q^k4>|5!]0,~ch|o$  ",
"                @j>5n4nf{=5<q,967c'0]<<3>a4_>p  ",
"                h_9|ian8]<2{*_4'gh{2<{f{6da{0p  ",
"                s|l[ei>~]!>,>>~923tqq>o2^6de<p  ",
"               +0&|}|_]{go<3b1&2q,'>o*{<rd|:0u  ",
"               h__i~|n)'>2>^>h>^,)>{o,<2r{6g>p  ",
"               =8l4~=o)''g23e~>u{!3r3,,>,)|9<p  ",
"              (<1v4edo{g!g23h6,tg2p>q02=q{6{2$  ",
"              $g~44|_fm>2>221'jp,{uo0^0{o)|f<-  ",
" +;+$.       (%8b6h9n~]5g0^^i{>*rou>{3>0=5k>,#  ",
"  #h%#      @/|l}496>o]5g<,2e_2rp22tq><qkdhg^(  ",
"  #=#j.     .s|l44|dfo2{<g02)6o0u3>,'2r0=~_g*.  ",
"  (a$]% @(#-tu^~74e_fm5g222q{9822p3,2trh|~>,u@  ",
"  +<%!<-='~))~/3f)e19]'o<>2qknhg023uuq&hi852#   ",
"   %]2f:}[[l[v~s*ogo_9boo<>33g{b>~{~>:6be>2*+   ",
"   #,>_dllllll})=ru^{<<<g<<,u^~7<16eh8b{'<q(    ",
"   $!bbf9[[[[[lve)&sr*t33^,3qp2g>|%1_>n'2,$     ",
"  ./)}w))evv}vvv[[}9kcc5c%$$-ct3{!2b]>o>3r@     ",
"(/*>c73aw9wwwwwww}vv}n9b9))_'!c-tr^222rpp$      ",
".$3q>bwwwwwwwwwwwwwww}}vv[vww11dc$-3--%csr#     ",
" .#$>f8777wwwww1778877wwwwwww77|88daa9|ch%/-+   ",
"  +/%c555!''k''!5o%cc!]b888)f''5h!b)))b7w1a^u;@ ",
"  uuruttt/t-%%%-/-$rt3-0%cc%s3///3%%--c!k))_<ru(",
" @+.....;#$tt$-(@    +($-tpu-##$$#$#p/*t^/s^02p/",
"                                       (######( ",
"                                                ",
"                                                ",
"                                                ",
"                                                ",
"                                                ",
"                                                "};
