/* XPM */
static char * struct_xpm[] = {
"16 16 51 1",
" 	c None",
".	c #FFD068",
"+	c #FFCA6F",
"@	c #FBF1DF",
"#	c #FF9D00",
"$	c #FEC959",
"%	c #FFCC7A",
"&	c #FFC765",
"*	c #FDFCF8",
"=	c #FFD484",
"-	c #F79A00",
";	c #F8A003",
">	c #FEC55D",
",	c #F6CD85",
"'	c #F8E0B1",
")	c #F5C16C",
"!	c #F4A411",
"~	c #FEC562",
"{	c #FFCE61",
"]	c #F9E8C8",
"^	c #FCEFDD",
"/	c #F7DBA7",
"(	c #F6C567",
"_	c #F7A929",
":	c #FDC35B",
"<	c #F0A219",
"[	c #EC9B07",
"}	c #FF9E00",
"|	c #FFC766",
"1	c #F3B94E",
"2	c #FCC85B",
"3	c #F5C97C",
"4	c #F2B44C",
"5	c #F0AC39",
"6	c #F0A72C",
"7	c #FFB11F",
"8	c #FFA300",
"9	c #ED9E11",
"0	c #F3AB26",
"a	c #FA9F0A",
"b	c #FEC664",
"c	c #F3B954",
"d	c #F1AD40",
"e	c #F0A82A",
"f	c #EDA523",
"g	c #F7A306",
"h	c #F7A205",
"i	c #EEA72D",
"j	c #F0A934",
"k	c #EDA526",
"l	c #F79E00",
"                ",
"                ",
"                ",
"     .   +      ",
"     @#  $   %  ",
"    &*=- @#  ;  ",
"   >,')!~*=-    ",
" {]^/(_:,')<[   ",
"  }|12]^/34567  ",
"   890abcdefg   ",
"    hig89jkl    ",
"     7  hig     ",
"         7      ",
"                ",
"                ",
"                "};
