/* XPM */
static char * class_logo_xpm[] = {
"63 63 4 1",
" 	c None",
".	c #DFDFDF",
"+	c #000000",
"@	c #FFFFFF",
".+.+.+.+.+.+.+.+.+.+.+.+.+.+.+.+.+.+.+.+.+.+.+.+.+.+.+.+.+.+.+.",
"+.+.+.+.+.+.+.+.+.+.+.+.+.+.+.+.+.+.+.+.+.+.+.+.+.+.+.+.+.+.+.+",
".+.+.+.+.+.+.+.+.+.+.+.+.+.+.+.+.+.+.+.+.+.+.+.+.+.+.+.+.+.+.+.",
"+.+.........................................................+.+",
".+..+.+.+.+.+.+.+.+.+.+.+.+.+.+.+.+.+.+.+.+.+.+.+.+.+.+.+.+..+.",
"+.+.........................................................+.+",
".+..+.+.+.+.+.+.+.+.+.+.+.+.+.+.+.+.+.+.+.+.+.+.+.+.+.+.+.+..+.",
"+.+.........................................................+.+",
".+..+.+.+.+.+.+.+.+.@@+.+.+.+.+.+.+.+.+.+.+.+.+.+.+.+.+.+.+..+.",
"+.+................@@@@.....................................+.+",
".+..+.+.+.+.+.+.+.@@@@@@+.+.+.+.+.+.+.+.+.+.+.+.+.+.+.+.+.+..+.",
"+.+..............@@@..@@@...................................+.+",
".+..+.+.+.+.+.+.@@@.+.+@@@+.+.+.+.+.+.+.+.+.+.+.+.+.+.+.+.+..+.",
"+.+............@@@......@@@.................................+.+",
".+..+.+.+.+.+.@@@.+.+.+.+@@@+.+.+.+.+.+.+.+.+.+.+.+.+.+.+.+..+.",
"+.+..........@@@..........@@@...............................+.+",
".+..+.+.+.+.@@@.+.+.+.+.+.+@@@+.+.+.+.+.+.+.+.+.+.+.+.+.+.+..+.",
"+.+........@@@..............@@@...............@@............+.+",
".+..+.+.+.@@@.+.+.+.+.+.+.+.@@@.+.+.+.+.+.+.+@@@@.+.+.+.+.+..+.",
"+.+......@@@...............@@@..............@@@@@@..........+.+",
".+..+.+.@@@.+.+.+.+.+.+.+.@@@.+.+.+.+.+.+.+@@@+.@@@.+.+.+.+..+.",
"+.+.....@@@..............@@@..............@@@....@@@........+.+",
".+..+.+.+@@@+.+.+.+.+.+.@@@.+.+.+.+.+.+.+@@@+.+.+.@@@.+.+.+..+.",
"+.+.......@@@..........@@@@@@@@@@@@@@@@@@@@........@@@......+.+",
".+..+.+.+.+@@@+.+.+.+.@@@@@@@@@@@@@@@@@@@@+.+.+.+.+@@@+.+.+..+.",
"+.+.........@@@......@@@........@@....@@@.........@@@.......+.+",
".+..+.+.+.+.+@@@+.+.@@@.+.+.+.+.@@+.+@@@+.+.+.+.+@@@+.+.+.+..+.",
"+.+...........@@@..@@@..........@@...@@@........@@@.........+.+",
".+..+.+.+.+.+.+@@@@@@.+.+.+.+.+.@@+.+.@@@.+.+.+@@@+.+.+.+.+..+.",
"+.+.............@@@@............@@.....@@@....@@@...........+.+",
".+..+.+.+.+.+.+.+@@.+.+.+.+.+.+.@@+.+.+.@@@.+@@@+.+.+.+.+.+..+.",
"+.+.............................@@.......@@@@@@.............+.+",
".+..+.+.+.+.+.+.+.+.+.+.+.+.+.+.@@+.+.+.+.@@@@+.+.+.+.+.+.+..+.",
"+.+.............................@@.........@@...............+.+",
".+..+.+.+.+.+.+.+.+.+.+.+.+.+.+.@@+.+.+.+.+.+.+.+.+.+.+.+.+..+.",
"+.+.............................@@..........................+.+",
".+..+.+.+.+.+.+.+.+.+.+.+.+.+.+.@@+.+.+.+.+.+.+.+.+.+.+.+.+..+.",
"+.+.............................@@.........@@...............+.+",
".+..+.+.+.+.+.+.+.+.+.+.+.+.+.+.@@+.+.+.+.@@@@+.+.+.+.+.+.+..+.",
"+.+.............................@@.......@@@@@@.............+.+",
".+..+.+.+.+.+.+.+.+.+.+.+.+.+.+.@@@@@@@@@@@.+@@@+.+.+.+.+.+..+.",
"+.+.............................@@@@@@@@@@....@@@...........+.+",
".+..+.+.+.+.+.+.+.+.+.+.+.+.+.+.+.+.+.@@@.+.+.+@@@+.+.+.+.+..+.",
"+.+..................................@@@........@@@.........+.+",
".+..+.+.+.+.+.+.+.+.+.+.+.+.+.+.+.+.@@@.+.+.+.+.@@@.+.+.+.+..+.",
"+.+................................@@@.........@@@..........+.+",
".+..+.+.+.+.+.+.+.+.+.+.+.+.+.+.+.@@@.+.+.+.+.@@@.+.+.+.+.+..+.",
"+.+...............................@@@........@@@............+.+",
".+..+.+.+.+.+.+.+.+.+.+.+.+.+.+.+.+@@@+.+.+.@@@.+.+.+.+.+.+..+.",
"+.+.................................@@@....@@@..............+.+",
".+..+.+.+.+.+.+.+.+.+.+.+.+.+.+.+.+.+@@@+.@@@.+.+.+.+.+.+.+..+.",
"+.+...................................@@@@@@................+.+",
".+..+.+.+.+.+.+.+.+.+.+.+.+.+.+.+.+.+.+@@@@.+.+.+.+.+.+.+.+..+.",
"+.+.....................................@@..................+.+",
".+..+.+.+.+.+.+.+.+.+.+.+.+.+.+.+.+.+.+.+.+.+.+.+.+.+.+.+.+..+.",
"+.+.........................................................+.+",
".+..+.+.+.+.+.+.+.+.+.+.+.+.+.+.+.+.+.+.+.+.+.+.+.+.+.+.+.+..+.",
"+.+.........................................................+.+",
".+..+.+.+.+.+.+.+.+.+.+.+.+.+.+.+.+.+.+.+.+.+.+.+.+.+.+.+.+..+.",
"+.+.........................................................+.+",
".+.+.+.+.+.+.+.+.+.+.+.+.+.+.+.+.+.+.+.+.+.+.+.+.+.+.+.+.+.+.+.",
"+.+.+.+.+.+.+.+.+.+.+.+.+.+.+.+.+.+.+.+.+.+.+.+.+.+.+.+.+.+.+.+",
".+.+.+.+.+.+.+.+.+.+.+.+.+.+.+.+.+.+.+.+.+.+.+.+.+.+.+.+.+.+.+."};
