/* XPM */
static char * an_tag_xpm[] = {
"22 22 14 1",
" 	c None",
".	c #000000",
"+	c #D3938F",
"@	c #F0B293",
"#	c #EDD4D2",
"$	c #F9E0D4",
"%	c #703213",
"&	c #80B2D4",
"*	c #A7261F",
"=	c #53130F",
"-	c #CCE0EE",
";	c #E16427",
">	c #003254",
",	c #0065A9",
"                      ",
"                      ",
"                      ",
"         ....         ",
"       ........  .    ",
"     ++..@    ....    ",
"    +#..@$%   ....    ",
"   +##.@$$$%&&....    ",
"   +*=.$$$%&-.....    ",
"   +*=.;;%&--->>      ",
"   +*=.;;%&,,>>>      ",
"   +*=@;;%&,,>>>      ",
"   +*=@;;%&,,>>>      ",
"   +*=@;;%&,,>>>      ",
"   +*=@;;%&,,>>>      ",
"   +*=@;;%&,,>>>      ",
"   +*=@;;%&,,>>>      ",
"   +*=@;;%&,,>>       ",
"       ;;%&,,>        ",
"                      ",
"                      ",
"                      "};
