/* XPM */
static char * anjuta_icon_xpm[] = {
"50 50 647 2",
"  	c None",
". 	c #8D8E8F",
"+ 	c #BCBFC1",
"@ 	c #E9EFF2",
"# 	c #E0E8ED",
"$ 	c #D5E0E6",
"% 	c #CBD8E0",
"& 	c #C5D4DC",
"* 	c #C2D2DB",
"= 	c #C0D1DA",
"- 	c #BDCFD8",
"; 	c #B8CBD5",
"> 	c #AEC3CF",
", 	c #9EB8C6",
"' 	c #728793",
") 	c #4B5B63",
"! 	c #283237",
"~ 	c #808486",
"{ 	c #B4B9BC",
"] 	c #E6ECF0",
"^ 	c #E8EEF1",
"/ 	c #E2EAEE",
"( 	c #D9E3E8",
"_ 	c #CFDCE2",
": 	c #CBD9E0",
"< 	c #CCDAE1",
"[ 	c #CAD8DF",
"} 	c #C7D6DE",
"| 	c #C0D0D9",
"1 	c #B4C7D2",
"2 	c #A1B9C7",
"3 	c #88A7B8",
"4 	c #6C91A6",
"5 	c #456577",
"6 	c #263F4C",
"7 	c #122128",
"8 	c #50616A",
"9 	c #7B8E9A",
"0 	c #A4BCCA",
"a 	c #AEC4D0",
"b 	c #B0C5D1",
"c 	c #ABC2CE",
"d 	c #A0BAC8",
"e 	c #9AB5C4",
"f 	c #9DB7C5",
"g 	c #A2BBC9",
"h 	c #AAC1CD",
"i 	c #B5C9D4",
"j 	c #C1D1DA",
"k 	c #CBD9E1",
"l 	c #D1DDE4",
"m 	c #D2DEE4",
"n 	c #CCD9E1",
"o 	c #BECFD8",
"p 	c #A8BFCC",
"q 	c #8DABBC",
"r 	c #6C93A8",
"s 	c #487993",
"t 	c #285065",
"u 	c #122F3F",
"v 	c #051721",
"w 	c #00283E",
"x 	c #003857",
"y 	c #004972",
"z 	c #004A74",
"A 	c #004B75",
"B 	c #10567D",
"C 	c #2D6B8D",
"D 	c #5285A1",
"E 	c #79A0B6",
"F 	c #9BB7C7",
"G 	c #A8C0CD",
"H 	c #A1BBC9",
"I 	c #8CABBC",
"J 	c #6C94AA",
"K 	c #4A7A95",
"L 	c #2C6482",
"M 	c #165374",
"N 	c #06354E",
"O 	c #002032",
"P 	c #00121C",
"Q 	c #002A41",
"R 	c #003A5B",
"S 	c #004D77",
"T 	c #004E7A",
"U 	c #004F7B",
"V 	c #004F7C",
"W 	c #00507D",
"X 	c #00517E",
"Y 	c #095782",
"Z 	c #1C648C",
"` 	c #307296",
" .	c #437F9F",
"..	c #5288A6",
"+.	c #4F84A1",
"@.	c #3C7494",
"#.	c #286485",
"$.	c #155578",
"%.	c #053751",
"&.	c #002033",
"*.	c #002E47",
"=.	c #004165",
"-.	c #005685",
";.	c #005889",
">.	c #00598B",
",.	c #005A8C",
"'.	c #035C8D",
").	c #0C6190",
"!.	c #166793",
"~.	c #1B6993",
"{.	c #1B668F",
"].	c #186087",
"^.	c #0F567D",
"/.	c #054C72",
"(.	c #00334E",
"_.	c #00111B",
":.	c #00070B",
"<.	c #001725",
"[.	c #002D46",
"}.	c #00466B",
"|.	c #006297",
"1.	c #006196",
"2.	c #026296",
"3.	c #086496",
"4.	c #0D6696",
"5.	c #0D6291",
"6.	c #0D5E8B",
"7.	c #0A5984",
"8.	c #05527C",
"9.	c #004A73",
"0.	c #003451",
"a.	c #002134",
"b.	c #001926",
"c.	c #002F4A",
"d.	c #0068A1",
"e.	c #0168A0",
"f.	c #03689F",
"g.	c #06679C",
"h.	c #066498",
"i.	c #066193",
"j.	c #045B8B",
"k.	c #025582",
"l.	c #004E79",
"m.	c #003553",
"n.	c #002235",
"o.	c #00111C",
"p.	c #001825",
"q.	c #002F49",
"r.	c #024D75",
"s.	c #076EA7",
"t.	c #096FA7",
"u.	c #0A6FA6",
"v.	c #0A6DA3",
"w.	c #06689D",
"x.	c #026195",
"y.	c #015B8C",
"z.	c #005583",
"A.	c #003554",
"B.	c #01080C",
"C.	c #041B28",
"D.	c #09364F",
"E.	c #13577D",
"F.	c #1D7DB2",
"G.	c #1B7DB2",
"H.	c #187AAF",
"I.	c #1476AB",
"J.	c #0B6EA3",
"K.	c #04669B",
"L.	c #026092",
"M.	c #015A8B",
"N.	c #005482",
"O.	c #003959",
"P.	c #002438",
"Q.	c #00121D",
"R.	c #060B0D",
"S.	c #16252D",
"T.	c #284757",
"U.	c #396D89",
"V.	c #4594BF",
"W.	c #3188B7",
"X.	c #1D7CB0",
"Y.	c #0D72A9",
"Z.	c #0369A1",
"`.	c #00639A",
" +	c #005E93",
".+	c #003B5C",
"++	c #002539",
"@+	c #000509",
"#+	c #0C0E0F",
"$+	c #282F33",
"%+	c #455761",
"&+	c #5F8396",
"*+	c #71AECE",
"=+	c #4C98C2",
"-+	c #2B86B7",
";+	c #1377AE",
">+	c #046CA6",
",+	c #0067A0",
"'+	c #006399",
")+	c #005D8F",
"!+	c #003E60",
"~+	c #00263B",
"{+	c #00131E",
"]+	c #484A4B",
"^+	c #777B7D",
"/+	c #A8AEB1",
"(+	c #DAE3E9",
"_+	c #D0DDE3",
":+	c #CAD8E0",
"<+	c #C6D5DD",
"[+	c #C3D2DB",
"}+	c #C3D3DC",
"|+	c #C6D6DF",
"1+	c #CEDCE4",
"2+	c #D9E3EA",
"3+	c #E4EBF0",
"4+	c #EDF2F6",
"5+	c #F0F4F7",
"6+	c #E8F0F5",
"7+	c #D3E4EE",
"8+	c #B2D1E2",
"9+	c #84B8D3",
"0+	c #579EC5",
"a+	c #3088B8",
"b+	c #1478AE",
"c+	c #046EA8",
"d+	c #0069A3",
"e+	c #00669E",
"f+	c #006095",
"g+	c #00273D",
"h+	c #868787",
"i+	c #BBBCBE",
"j+	c #F2F5F7",
"k+	c #D7E2E8",
"l+	c #CFDCE3",
"m+	c #CAD8E1",
"n+	c #C8D7E0",
"o+	c #CBDAE2",
"p+	c #D1DEE6",
"q+	c #DAE5EB",
"r+	c #E3EBF0",
"s+	c #EAF0F4",
"t+	c #DDE9F1",
"u+	c #C2DAE8",
"v+	c #9DC5DB",
"w+	c #71ACCD",
"x+	c #4695C0",
"y+	c #2682B5",
"z+	c #0F75AE",
"A+	c #046EA9",
"B+	c #006AA4",
"C+	c #006298",
"D+	c #004266",
"E+	c #00141F",
"F+	c #878787",
"G+	c #BEBEBF",
"H+	c #F8FAFB",
"I+	c #F3F6F8",
"J+	c #EBF0F3",
"K+	c #E1E9ED",
"L+	c #D4DFE5",
"M+	c #C5D6DE",
"N+	c #BACDD7",
"O+	c #B1C7D2",
"P+	c #A4BDCB",
"Q+	c #A6BECA",
"R+	c #A6BFCC",
"S+	c #A6C1D0",
"T+	c #A6C3D3",
"U+	c #9FC1D3",
"V+	c #8FBAD1",
"W+	c #7AAFCC",
"X+	c #60A1C4",
"Y+	c #4492BC",
"Z+	c #2A84B5",
"`+	c #1679AF",
" @	c #0972AC",
".@	c #026DA8",
"+@	c #006BA6",
"@@	c #00649B",
"#@	c #004369",
"$@	c #002940",
"%@	c #001420",
"&@	c #000609",
"*@	c #878889",
"=@	c #BDBEC0",
"-@	c #F7F9FA",
";@	c #F9FAFB",
">@	c #F4F7F9",
",@	c #EAF0F3",
"'@	c #D9E4E9",
")@	c #BCCFD9",
"!@	c #8FB0C1",
"~@	c #6390A9",
"{@	c #3B7493",
"]@	c #1A5D82",
"^@	c #054F77",
"/@	c #004C76",
"(@	c #00507C",
"_@	c #005888",
":@	c #015E91",
"<@	c #05669A",
"[@	c #096CA2",
"}@	c #0B70A8",
"|@	c #0B72AB",
"1@	c #0A73AC",
"2@	c #0670AB",
"3@	c #006BA7",
"4@	c #00456B",
"5@	c #B5B9BB",
"6@	c #EFF3F5",
"7@	c #F1F4F6",
"8@	c #EAEFF3",
"9@	c #D6E2E9",
"0@	c #ACC5D4",
"a@	c #7AA3BB",
"b@	c #4B83A2",
"c@	c #23688F",
"d@	c #085581",
"e@	c #005788",
"f@	c #005B8D",
"g@	c #005F94",
"h@	c #0268A0",
"i@	c #046BA4",
"j@	c #046DA7",
"k@	c #046FAA",
"l@	c #797D80",
"m@	c #ADB3B5",
"n@	c #DFE8ED",
"o@	c #D4E3EB",
"p@	c #B9D1DE",
"q@	c #8AB3CA",
"r@	c #5A94B4",
"s@	c #3079A1",
"t@	c #116492",
"u@	c #005C8F",
"v@	c #005E92",
"w@	c #00669F",
"x@	c #026AA3",
"y@	c #026EA9",
"z@	c #0069A4",
"A@	c #6C7478",
"B@	c #9BA6AC",
"C@	c #C4D6DF",
"D@	c #A9C5D5",
"E@	c #7EABC3",
"F@	c #518FB1",
"G@	c #2978A3",
"H@	c #0C6799",
"I@	c #00466C",
"J@	c #002C43",
"K@	c #001622",
"L@	c #00060A",
"M@	c #001724",
"N@	c #002F48",
"O@	c #044D76",
"P@	c #0971AA",
"Q@	c #0971AB",
"R@	c #00659D",
"S@	c #00446A",
"T@	c #5F6B72",
"U@	c #8A99A2",
"V@	c #ADC5D3",
"W@	c #99BBCD",
"X@	c #77A7C1",
"Y@	c #5091B4",
"Z@	c #297AA7",
"`@	c #0D6B9E",
" #	c #004871",
".#	c #001623",
"+#	c #000000",
"@#	c #00070A",
"##	c #01304A",
"$#	c #085078",
"%#	c #0F75AD",
"&#	c #0F76AE",
"*#	c #0D75AD",
"=#	c #0570AA",
"-#	c #52626A",
";#	c #778C98",
">#	c #99B8C8",
",#	c #8EB3C7",
"'#	c #74A6C1",
")#	c #5395B9",
"!#	c #3182AE",
"~#	c #1473A7",
"{#	c #046BA3",
"]#	c #006AA5",
"^#	c #004B74",
"/#	c #002E48",
"(#	c #03324B",
"_#	c #0F5479",
":#	c #1A7AAF",
"<#	c #1A7BB0",
"[#	c #1A7CB1",
"}#	c #1579AF",
"|#	c #0872AC",
"1#	c #425763",
"2#	c #607F91",
"3#	c #7CA8C1",
"4#	c #6FA5C2",
"5#	c #5999BD",
"6#	c #3D8BB6",
"7#	c #217CAD",
"8#	c #0A6FA7",
"9#	c #016CA6",
"0#	c #016BA6",
"a#	c #001723",
"b#	c #011927",
"c#	c #09364E",
"d#	c #17597D",
"e#	c #2380B3",
"f#	c #2381B4",
"g#	c #1F7FB3",
"h#	c #1579B0",
"i#	c #344F5E",
"j#	c #4E758A",
"k#	c #669BB8",
"l#	c #5998BA",
"m#	c #458FB8",
"n#	c #2E84B4",
"o#	c #1678AD",
"p#	c #036EA8",
"q#	c #006CA8",
"r#	c #02080C",
"s#	c #091E29",
"t#	c #143C52",
"u#	c #256182",
"v#	c #3489B7",
"w#	c #2E87B7",
"x#	c #2582B5",
"y#	c #197BB1",
"z#	c #0A72AC",
"A#	c #00456C",
"B#	c #2C4A5A",
"C#	c #436E86",
"D#	c #5492B3",
"E#	c #4790B7",
"F#	c #3589B7",
"G#	c #03090D",
"H#	c #0D202B",
"I#	c #1A3F53",
"J#	c #2D6584",
"K#	c #3D8DB8",
"L#	c #3389B7",
"M#	c #2783B5",
"N#	c #1F4459",
"O#	c #326783",
"P#	c #4289B0",
"Q#	c #3888B3",
"R#	c #2C83B2",
"S#	c #0B72AA",
"T#	c #016BA5",
"U#	c #004971",
"V#	c #0D222D",
"W#	c #1C4256",
"X#	c #316887",
"Y#	c #4291BC",
"Z#	c #388DBB",
"`#	c #2D86B7",
" $	c #0B73AC",
".$	c #102734",
"+$	c #1D455A",
"@$	c #2F6785",
"#$	c #3D89B3",
"$$	c #3488B5",
"%$	c #2983B5",
"&$	c #00486F",
"*$	c #002B44",
"=$	c #001521",
"-$	c #12232D",
";$	c #244456",
">$	c #3A6B87",
",$	c #4B92B9",
"'$	c #3F8DB8",
")$	c #2F86B6",
"!$	c #1D7DB1",
"~$	c #0F2733",
"{$	c #2F6684",
"]$	c #3C89B3",
"^$	c #3387B5",
"/$	c #2883B4",
"($	c #0068A0",
"_$	c #00476E",
":$	c #002B42",
"<$	c #001520",
"[$	c #172730",
"}$	c #44718B",
"|$	c #5599BE",
"1$	c #3289B8",
"2$	c #1E7EB3",
"3$	c #0A72AB",
"4$	c #0F2633",
"5$	c #1D4459",
"6$	c #002A42",
"7$	c #1D2C34",
"8$	c #375160",
"9$	c #517A91",
"0$	c #64A3C5",
"a$	c #4F99C1",
"b$	c #378DBB",
"c$	c #0D2533",
"d$	c #1A4258",
"e$	c #2A6483",
"f$	c #3787B2",
"g$	c #3086B5",
"h$	c #2682B4",
"i$	c #263137",
"j$	c #455964",
"k$	c #618496",
"l$	c #74ACCA",
"m$	c #589EC3",
"n$	c #3B8FBC",
"o$	c #006BA5",
"p$	c #0069A2",
"q$	c #00659C",
"r$	c #072231",
"s$	c #113D56",
"t$	c #1D5D7F",
"u$	c #297FAE",
"v$	c #2580B1",
"w$	c #1F7EB1",
"x$	c #2E363A",
"y$	c #51616A",
"z$	c #76909E",
"A$	c #97BFD5",
"B$	c #7DB2CF",
"C$	c #5CA1C6",
"D$	c #3B8EBC",
"E$	c #1C7DB2",
"F$	c #0771AB",
"G$	c #001E2E",
"H$	c #043550",
"I$	c #0B5278",
"J$	c #1472A6",
"K$	c #1475AB",
"L$	c #1276AE",
"M$	c #0E75AD",
"N$	c #0770AA",
"O$	c #31383C",
"P$	c #57656C",
"Q$	c #7B93A0",
"R$	c #78AFCD",
"S$	c #549CC3",
"T$	c #056FA9",
"U$	c #001D2D",
"V$	c #00324E",
"W$	c #014B74",
"X$	c #0669A0",
"Y$	c #066DA6",
"Z$	c #066FA9",
"`$	c #363A3C",
" %	c #5F696D",
".%	c #8799A2",
"+%	c #AAC9D9",
"@%	c #8CB9D1",
"#%	c #69A7C9",
"$%	c #4593BF",
"%%	c #00324D",
"&%	c #0068A2",
"*%	c #006DA9",
"=%	c #3C3E3F",
"-%	c #676E72",
";%	c #8F9DA7",
">%	c #B0CCDC",
",%	c #6BA6C7",
"'%	c #4994BD",
")%	c #2B84B5",
"!%	c #001E2F",
"~%	c #004D78",
"{%	c #131313",
"]%	c #3E3F3F",
"^%	c #6E7273",
"/%	c #939FA6",
"(%	c #ADC8D8",
"_%	c #7FADC6",
":%	c #5395B8",
"<%	c #2E81AF",
"[%	c #1877AB",
"}%	c #0C73AB",
"|%	c #0871AB",
"1%	c #003452",
"2%	c #004063",
"3%	c #000508",
"4%	c #101111",
"5%	c #3B3C3C",
"6%	c #747576",
"7%	c #ACAFB1",
"8%	c #CFDDE4",
"9%	c #919DA3",
"0%	c #638091",
"a%	c #35667F",
"b%	c #105073",
"c%	c #044D75",
"d%	c #0A71A9",
"e%	c #056498",
"f%	c #186A97",
"g%	c #35799E",
"h%	c #5C8FAB",
"i%	c #87ABBE",
"j%	c #AEC5D1",
"k%	c #C6D5DE",
"l%	c #C5D4DD",
"m%	c #9EBAC9",
"n%	c #729DB5",
"o%	c #3F6579",
"p%	c #194E6A",
"q%	c #064D75",
"r%	c #0C70A7",
"s%	c #0C72AB",
"t%	c #0C74AD",
"u%	c #00446B",
"v%	c #002A40",
"w%	c #186B99",
"x%	c #34799F",
"y%	c #568CAA",
"z%	c #78A0B6",
"A%	c #81A4B7",
"B%	c #6F96AC",
"C%	c #52849F",
"D%	c #306E90",
"E%	c #0D415D",
"F%	c #002439",
"G%	c #002C45",
"H%	c #001F30",
"I%	c #00679F",
"J%	c #005786",
"K%	c #00527F",
"L%	c #00304B",
"M%	c #005A8B",
"N%	c #005585",
"O%	c #004F7A",
"P%	c #003B5B",
"Q%	c #00263C",
"R%	c #001826",
"S%	c #00304A",
"T%	c #002B43",
"U%	c #001522",
"V%	c #001C2C",
"W%	c #003450",
"X%	c #004D79",
"Y%	c #00598A",
"Z%	c #00466D",
"`%	c #001B2A",
" &	c #004C77",
".&	c #006197",
"+&	c #00466E",
"                                                                                                    ",
"                                                                                                    ",
"                                                                                                    ",
"                        . + @ # $ % & * * * * * * * = - ; > , ' ) !                                 ",
"                        ~ { ] ^ / ( _ : : : : < < : [ } | 1 2 3 4 5 6 7                             ",
"                        8 9 0 a b c d e f g h i j k l m n o p q r s t u v                           ",
"                        w x y z z z A z z z z z B C D E F G H I J K L M N O P                       ",
"                        Q R S T U U V W W W X X X X W Y Z `  ...+.@.#.$.%.&.P                       ",
"                        *.=.-.;.>.,.,.,.,.,.,.,.,.,.,.,.,.'.).!.~.{.].^./.(.O _.                    ",
"                                                :.<.[.}.|.1.2.3.4.5.6.7.8.9.0.a.P                   ",
"                                                  :.b.c.9.d.e.f.g.h.i.j.k.l.m.n.o.                  ",
"                                                    :.p.q.r.s.t.u.v.w.x.y.z.T A.n.P                 ",
"                                                    B.C.D.E.F.G.H.I.J.K.L.M.N.O.P.Q.                ",
"                                                      R.S.T.U.V.W.X.Y.Z.`. +;..+++Q.@+              ",
"                                                      #+$+%+&+*+=+-+;+>+,+'+)+!+~+{+@+              ",
"                          ]+^+/+(+_+:+<+[+}+|+1+2+3+4+5+6+7+8+9+0+a+b+c+d+e+f+=.g+{+@+              ",
"                        h+i+j+@ # k+l+m+n+n+o+p+q+r+s+s+t+u+v+w+x+y+z+A+B+,+C+D+w E+@+              ",
"                      F+G+H+I+J+K+L+M+N+O+G P+Q+R+S+T+U+V+W+X+Y+Z+`+ @.@+@d.@@#@$@%@&@              ",
"                  *@=@-@;@>@,@'@)@!@~@{@]@^@A /@l.(@N._@:@<@[@}@|@1@2@.@3@d+e+4@Q %@&@              ",
"                ~ 5@6@7@8@9@0@a@b@c@d@W V W W W X N.e@f@g@`.h@i@j@A+k@.@3@d+e+4@Q %@&@              ",
"                l@m@n@o@p@q@r@s@t@,.,.,.,.,.,.,.f@u@v@1.@@w@x@j@A+k@k@y@3@z@e+4@$@%@&@              ",
"              A@B@k C@D@E@F@G@H@f+C+'+I@J@K@L@        L@M@N@O@P@Q@ @ @A++@d+R@S@$@%@&@              ",
"              T@U@V@W@X@Y@Z@`@@@R@e+ #[..#L@+#        @#p.##$#%#&#&#*#=#3@z@e+4@$@%@&@              ",
"            -#;#>#,#'#)#!#~#{#B+]#^#/#M@L@+#+#        @#p.(#_#:#<#[#}#|#3@z@e+4@$@%@&@              ",
"            1#2#3#4#5#6#7#8#9#0#^#*.a#&@+#+#          :.b#c#d#e#f#g#h#Q@+@d+R@S@$@%@&@              ",
"            i#j#k#l#m#n#o#p#q#+@9.[.K@&@+#+#          r#s#t#u#v#w#x#y#z#q#B+w@A#Q %@&@              ",
"            B#C#D#E#F#e#%#y@q#+@9.[.K@&@+#            G#H#I#J#K#L#M#[#z#3@z@e+4@$@%@&@              ",
"            N#O#P#Q#R#X.S#q#3@T#U#[.K@&@+#              V#W#X#Y#Z#`#F. $3@z@e+4@$@%@&@              ",
"          .$+$@$#$$$%$[#z#q#+@d+&$*$=$&@+#              -$;$>$,$'$)$!$|@3@z@e+4@$@%@&@              ",
"          ~$+${$]$^$/$y# @q#B+($_$:$<$&@                [$B#}$|$Y+1$2$3$+@d+R@S@$@%@&@              ",
"          4$5${$#$$$%$[#3$+@d+w@I@6$<$&@                7$8$9$0$a$b$g#z#3@z@e+4@$@%@&@              ",
"          c$d$e$f$g$h$y#z#q#B+w@A#Q E+@+                i$j$k$l$m$n$g# @o$p$q$S@$@%@&@              ",
"          r$s$t$u$v$w$}#|#3@z@e+4@$@E+@+              x$y$z$A$B$C$D$E$F$3@z@e+4@Q %@&@              ",
"          G$H$I$J$K$L$M$N$+@d+R@S@$@E+@+              O$P$Q$A$R$S$1$`+T$+@d+R@S@$@%@&@              ",
"          U$V$W$X$Y$Z$2@k@3@z@w@I@Q %@@+            `$ %.%+%@%#%$%y+z+k@3@z@e+4@$@%@&@              ",
"          U$%%y q$&%+@q#*%3@z@e+4@$@E+@+          =%-%;%>%V+,%'%)%`+ @y@3@z@e+4@$@%@&@              ",
"            !%0.~%z@3@*%q#3@d+e+4@Q E+@+      {%]%^%/%(%_%:%<%[%}%|%2@.@+@d+R@S@Q %@&@              ",
"            !%1%~%z@3@*%*%3@z@e+g@2%~+P 3%4%5%6%7%8%9%0%a%b%c%u.d%3$1@=#q#B+w@A#Q %@&@              ",
"              G$0.l.+@q#*%3@z@e+e%f%g%h%i%j%k%l%m%n%o%p%=.I@q%r%s%t%t%=#3@z@R@u%v%%@@+              ",
"              !%0.~%B+q#q#+@d+R@e%w%x%y%z%A%B%C%D%E%F%w G%q.9.d+3@q#*%*%3@z@e+A#Q %@&@              ",
"                H%m.U q#q#3@d+I%C+u@J%K%~%/@/@~%(@R ~+6$*.L%/@3@*%*%*%*%3@z@e+I@6$=$L@              ",
"                  !%m.U *%q#B+d.@@g@M%N%X O%O%X P%Q%%@M@R%S%/@+@q#*%*%q#+@d+R@A#T%U%L@              ",
"                      V%W%X%+@d+e+C+v@f@Y%;.Y%2%$@U%L@:.R%c.^#B++@q#*%*%3@z@e+Z%*$K@L@              ",
"                          `%V$ &d+I%@@.&S@T%K@L@      :.R%c.9.&%]#3@q#q#+@d+R@+&G%.#                ",
"                                                                                                    ",
"                                                                                                    ",
"                                                                                                    ",
"                                                                                                    ",
"                                                                                                    ",
"                                                                                                    "};
