/* XPM */
static char *magick[] = {
/* columns rows colors chars-per-pixel */
"48 48 208 2",
"   c black",
".  c #101010",
"X  c #101020",
"o  c #102010",
"O  c #102020",
"+  c #201010",
"@  c #301010",
"#  c #201020",
"$  c #301020",
"%  c #202010",
"&  c #203010",
"*  c #302010",
"=  c #303010",
"-  c #202020",
";  c #202030",
":  c #203020",
">  c #302020",
",  c #302030",
"<  c #303020",
"1  c gray19",
"2  c #304020",
"3  c #304030",
"4  c #403010",
"5  c #503010",
"6  c #402020",
"7  c #403020",
"8  c #403030",
"9  c #502020",
"0  c #503020",
"q  c #503030",
"w  c #603010",
"e  c #703010",
"r  c #602020",
"t  c #603020",
"y  c #603030",
"u  c #703020",
"i  c #703030",
"p  c #403040",
"a  c #504010",
"s  c #404020",
"d  c #404030",
"f  c #405020",
"g  c #405030",
"h  c #504020",
"j  c #504030",
"k  c #505020",
"l  c #505030",
"z  c #506030",
"x  c #604010",
"c  c #704010",
"v  c #604020",
"b  c #604030",
"n  c #605020",
"m  c #605030",
"M  c #704020",
"N  c #704030",
"B  c #705020",
"V  c #705030",
"C  c #606030",
"Z  c #607030",
"A  c #706030",
"S  c #707030",
"D  c gray25",
"F  c #405040",
"G  c #504040",
"H  c #505040",
"J  c #505050",
"K  c #506040",
"L  c #506050",
"P  c #605040",
"I  c #605050",
"U  c #705040",
"Y  c #606040",
"T  c #606050",
"R  c #607050",
"E  c #706040",
"W  c #706050",
"Q  c #707040",
"!  c #707050",
"~  c #606060",
"^  c #707060",
"/  c gray44",
"(  c #708050",
")  c #708060",
"_  c #708070",
"`  c #803010",
"'  c #903010",
"]  c #803020",
"[  c #803030",
"{  c #903020",
"}  c #903030",
"|  c #a03020",
" . c #a03030",
".. c #b03020",
"X. c #b03030",
"o. c #804010",
"O. c #904010",
"+. c #804020",
"@. c #804030",
"#. c #805020",
"$. c #904020",
"%. c #904030",
"&. c #905020",
"*. c #905030",
"=. c #906020",
"-. c #a04010",
";. c #a05010",
":. c #b04010",
">. c #b05010",
",. c #a04020",
"<. c #a04030",
"1. c #a05020",
"2. c #a05030",
"3. c #b04020",
"4. c #b04030",
"5. c #b05020",
"6. c #b05030",
"7. c #b06020",
"8. c #b07020",
"9. c #b07030",
"0. c #806050",
"q. c #807040",
"w. c #906040",
"e. c #906050",
"r. c #907050",
"t. c #807060",
"y. c #807070",
"u. c #907060",
"i. c #907070",
"p. c #a06040",
"a. c #a07050",
"s. c #a06060",
"d. c #a07060",
"f. c #c03020",
"g. c #c04020",
"h. c #c04030",
"j. c #c05020",
"k. c #c05030",
"l. c #c06020",
"z. c #c06030",
"x. c #c07030",
"c. c #c07040",
"v. c #807080",
"b. c #b08020",
"n. c #808050",
"m. c #808060",
"M. c #808070",
"N. c #809070",
"B. c #908060",
"V. c #909060",
"C. c #909070",
"Z. c #a09050",
"A. c #a08070",
"S. c #b09060",
"D. c #a0b070",
"F. c #b0a060",
"G. c #b0c070",
"H. c #c08030",
"J. c #c08040",
"K. c #c09040",
"L. c #c0a040",
"P. c #c0a050",
"I. c #c0b050",
"U. c #d0a050",
"Y. c #c0a060",
"T. c #c0b060",
"R. c #c0b070",
"E. c #d0b070",
"W. c #c0c060",
"Q. c #c0c070",
"!. c #d0c070",
"~. c #808080",
"^. c #809080",
"/. c #908080",
"(. c #908090",
"). c #909080",
"_. c #909090",
"`. c #90a080",
"'. c #90a090",
"]. c #90b090",
"[. c #a09080",
"{. c #a09090",
"}. c #a090a0",
"|. c #a0a080",
" X c #a0a090",
".X c #a0b090",
"XX c #b0a080",
"oX c #b0a090",
"OX c #b0b080",
"+X c #b0b090",
"@X c #a0a0a0",
"#X c #a0b0a0",
"$X c #b0a0a0",
"%X c gray69",
"&X c #b0c0b0",
"*X c #c0b080",
"=X c #d0b080",
"-X c #c0b0a0",
";X c #c0b0b0",
":X c #d0b0a0",
">X c #c0c080",
",X c #d0c080",
"<X c #d0d080",
"1X c #c0c0b0",
"2X c #c0c0d0",
"3X c #d0c0c0",
"4X c #d0e0d0",
"5X c None",
/* pixels */
"5X5X5X5X5X5X5X5X5X5X5X5X5X5X5X5X5X5X5X5X5X5X5X5X5X5X.X- g 1X5X5X5X5X5XH 5X5X5X5X5X5X5X5X5X5X5X5X",
"5X5X5X5X5X5X5X5X5X5X5X5X5X5X5X5X5X5X5X5X5X5X5X5X5X1 1 5X5X5X5X5X5X5X5X@XS.5X5X5X5X5X5X5X5X5X5X5X",
"5X5X5X5X5X5X5X5X5X5X5X5X5X5X5X5X5X5X5X5X5X5X5X5X: - l 5X5X5X5X5X5X5X_ - : 5X5X5X5X5X5X5X5X5X5X5X",
"5X5X5X5X5X5X5X5X5X5X5X5X5X5X5X5X5X5X5X5X5X5X5X5X> : q Y T {.5X5X5X! > % - 5X5X5X5X X{.oXI 5X5X5X",
"5X5X5X5X5X5X5X5X5X5X5X5X5X5X5X5X5X5X5X5X5X5X/ I 3 G T H F 1 3 I /./.% - o D ~ D F ( 5X5X5X5X5X5X",
"5X5X5X5X5X5X5X5X5X5X5X5X5X5X5X5X5X5X5Xp.%.2.2.#.0.n.G d 8 ! I < - - G : # % - R ;X5X5X5X5X5X5X5X",
"5X5X5X5X5X5X5X5X5X5X5X5X5X5X5X5X5X@.+.,.,.,.,.3.1.> o 1 d H < - o - % - 3 - o 1 &X5X5X5X5X5X5X5X",
"5X5X5X5X5X5X5X5X5X5X5X5X5X5X5X*.u ,.3.5.3.>.f.:.3.1.0 % # & + % + % + o + o # < 1 5X5X5X5X5X5XC.",
"5X5X5X5X5X5X5X5X5X5X5X5X5X5Xe.t #.6.5.5.5.g.3.g.3.4.&.- o F.3 - o # o # o # o - 3 5X5X5X@X@X).8 ",
"5X5X5X5X5X5X5X5X5X5X5X5X5Xw.t +.3.5.k.7.j.5.g.:.g.3.,.* > <XXX% # o # o + o # < d '.$X+X[.`.8 & ",
"5X5X5X5X5X5X5X5X5X5X@X- h t +.6.8.K.K.9.8.j.5.j.3.] % > < R.>X^ K H o X o # 3 D 3 T `._.&X(.: D.",
"5X5X5X5X5X5X5X< - : # 0 u &.z.P.=XW.U.b.l.7.g.j.3.o.6 4 v % 6 s 0.l # % + o d d G < y. X{.& 5X5X",
"5X5X5X5X5X5X5X5X5Xs.v u =.c.I.,X4X3XR.x.7.6.5.,.#.5.7.2.% - ,.3.&.@.s - o < K H d ; _ {.: @X5X5X",
"5X5X5X5X5X5X5X5X5Xt u &.z.H.E.!.=XL.J.7.j.1.{ 7.j.:.3.>.3.,.| -.| ,.3.&.$.7 8 d 8 % ^ : 8 5X5X5X",
"5X5X5X5X5X5X5X5Xa.u M +.9.J.T.Y.I.H.8.j.7.,.1.5.5.3.3.3.1.,.$.| +.] +.+.1.+.< 1 : - Y > - 5X5X5X",
"5X5X5X5X5X5X5X:X%.M { 1.6.H.c.H.x.7.j.>.,.1.g.j.g.>.3.:.3.-.| ` r w u e ] o.u 7 - % > % s 5X5X5X",
"5X5X5X5X5X5X-X7 % > h <.5.6.7.j.7.5.1.$.7.5.5.g.3.3.,.,.,.,.+.t 0 t 0 0 5 t M $.h - % ! ].5X5X5X",
"5X5X5X5X5X5X- % + % # % 3.j.j.j.g.1.,.5.g.j.j.>.3.-.3.-.| +.{ c r 5 9 4 9 5 u c $.7 W N.5X5X5X5X",
"5X5X5X5X5X$Xo # o - : - +.3.3.3.$.,.5.g.5.k.5.3.,.3.1.{ $.] t u v 0 4 6 7 0 w t $.+.l M.5X5X5X5X",
"5X5X5X5X5XE # % - % > % 0 5.g.3.$.5.g.g.g.j.g.3.3.;.,.$.{ o.u 5 t 5 0 4 6 4 t v ,.o.n M.[.5X5X5X",
"5X5X5X5X5X1 o - - - - # < 4.5.3.$.3.5.g.5.h.5.3.,.,.1.$.+.t 0 t 4 0 0 6 4 0 0 u &.<.k M.C.5X5X5X",
"5X5X5X5Xu.% # % , % # o 6 ,.3.o.g.5.g.5.g.5.3.5.3.$.,.O.u w r 5 t 5 9 4 9 4 0 w { 1.m M./.5X5X5X",
"5X5X5X5Xd - o - - - o # ,.,.+.,.5.g.3.h.5.3.5.,.,.,.+.{ M t t 0 7 0 7 0 7 0 h t +.,.Q v._ 5X5X5X",
"5X5X5X5X8 o # - 6 +.| ,...O.] j.g.3.f.3.3.3.3.,.6 % @ * > * 9 5 9 4 6 4 6 4 r e +.M t.).).5X5X5X",
"5X5X5X5X0 - : 8 M <.,...,.} $.g.3.X.3...,.4.,.u o # o # o # % 7 4 6 7 6 = 7 h t $.t L /.^.5X5X5X",
"5X5X5X5Xt 0 q t { ,...-.| $.k.3.f.3.f.:...,.| % + . + . + . + % 6 6 6 * 6 7 t x $.* 8 C./.5X5X5X",
"5X5X5X5Xv t v u $.| ,. .$.,.,.3.3.3.3...,.3.= X o . o X o + o X = 6 < > < 6 0 u M + Z /.N.5X5X5X",
"5X5X5X5Xu v u +.| ,...,.{ 1.g.3...3...3...-.+ . + . + o + o + o $ * 6 * 6 4 u o.u o q.M.M.5X5X5X",
"5X5X5X5Xv i B $.+.| ,.| $.4.3.3.3.3.,.3.,.| o + o X o + o # o # % > < 6 7 6 M ,.v # V./.N.5X5X5X",
"5X5X5X5X@.u u c { ,.| ,.| ,.| ,...,.| -.| | @ . + . + o + . + o > 6 6 4 6 5 ,.1.@ % [.)./.5X5X5X",
"5X5X5X5XP M v @.$.,.$.{ 1.,.$.,.,.,.,.,.$.| 4 X o . o X o . o # < 7 < 7 7 t 1.+.o - `.}.`.5X5X5X",
"5X5X5X5Xq M t +.{ $.| ` 3.-.| ,.3.,...,.| ,.u % + o + . + o + % 7 = 6 7 0 v 5.M - % /.).5X5X5X5X",
"5X5X5XH o q v t M { $.$.,.} $.<.$.| $.$.$.{ M 0 o X o # o # o > % 6 7 0 0 $.h m O - )./.5X5X5X5X",
"5X5Xp % r.@.u w { ] { w | { | $.| $.] ' | $.u 5 + . + o + o > * 6 7 7 x { #.E d # h /.5X5X5X5X5X",
"F T G.@X5Xd.v t M u M t $.,.$.{ +.{ M u M t t t 7 > % - : 7 < > < 7 h +.#.m ).J o R ).5X5X5X5X5X",
"> f 5X5X5XoXu t ] M u t | $.| $.] e u w r w u 5 0 4 9 4 0 4 6 4 0 4 u #.u Q i.< - C.{.5X5X5X5X5X",
": Q.5X5X5X5Xh [ +.] M t +.%.+.] t u t t 0 0 0 t 7 6 7 0 4 7 < 7 0 t M ] h / d - 2 {.5X5X5X5X5X5X",
"*X5X5X5X5X5X5Xv $.u t v u { ] w t 5 u 5 r t 0 a 6 0 0 7 9 4 0 5 $.1.@.m i.M.p ( ). X5X5X5X5X5X5X",
"Y 5X5X5X5X5X5X5XE ,.u t M ] v t v 0 v t v 0 7 0 7 0 0 0 s t v @.&.0 C y.) M.N.~.'.5X5X5X5X5X5X5X",
"@X5X5X5X5X5X5X5X@Xm u t u t u t u t u t t v t 0 t w u +.] +.&.h W m./.M.y.M._.5X5X5X5X5X5X5X5X5X",
"5X5X5X5X5X5X5X5X5X Xj b M [ M u M ] M t v y M t t ] M ,.1.%.s P M.M._ ).M.).].5X5X5X5X5X5X5X5X5X",
"5X5X5X5X5X5X5X5X5X5X).s ] $.{ u { $.| M ] M { M u $.%.,.,.4 - C y.M./.).).`.5X5X5X5X5X5X5X5X5X5X",
"5X5X5X5X5X5X5X5X5X5X5X5X`.U M %.$.2.1.<.+.%.&.*.&.M 7 7 & - z ~.N./.)._.'.@X5X5X5X5X5X5X5X5X5X5X",
"5X5X5X5X5X5X5X5X5X5X5X5X5X5X5X+XB.E V V b h N A U A A.d - : ).).).|.).).@X5X5X5X5X5X5X5X5X5X5X5X",
"5X5X5X5X5X5X5X5X5X5X5X5X5X5X5X5X5X5X5X5X5X5X5X5X5X5XM.- - 8 5X}.#X@X`.5X5X5X5X5X5X5X5X5X5X5X5X5X",
"5X5X5X5X5X5X5X5X5X5X5X5X5X5X5X5X5X5X5X5X5X5X5X5X5X5Xv.: # S 5X5X5X%X/.5X5X5X5X5X5X5X5X5X5X5X5X5X",
"5X5X5X5X5X5X5X5X5X5X5X5X5X5X5X5X5X5X5X5X5X5X5X5X5X5X5X1 - OX5X5X5X2X X5X5X5X5X5X5X5X5X5X5X5X5X5X",
"5X5X5X5X5X5X5X5X5X5X5X5X5X5X5X5X5X5X5X5X5X5X5X5X5X5X5XT - Z.5X5X5X5X`.5X5X5X5X5X5X5X5X5X5X5X5X5X"
};
