/* XPM */
static char *magick[] = {
/* columns rows colors chars-per-pixel */
"48 48 145 2",
"   c #004265",
".  c #00446a",
"X  c #004a73",
"o  c #004e79",
"O  c #00517e",
"+  c #235e7d",
"@  c #2e627f",
"#  c #005482",
"$  c #005887",
"%  c #005a8c",
"&  c #005e91",
"*  c #1c5f83",
"=  c #006195",
"-  c #006399",
";  c #066a9f",
":  c #0c6697",
">  c #0e6798",
",  c #09689c",
"<  c #1c658c",
"1  c #126591",
"2  c #166997",
"3  c #1c6892",
"4  c #1a6c99",
"5  c #0067a0",
"6  c #006aa4",
"7  c #006da9",
"8  c #086ca3",
"9  c #0a73ac",
"0  c #1672a5",
"q  c #1376ac",
"w  c #1874a6",
"e  c #1e77a8",
"r  c #1479b0",
"t  c #1a7cb2",
"y  c #206083",
"u  c #286c92",
"i  c #24729d",
"p  c #2c759d",
"a  c #317599",
"s  c #2c7fad",
"d  c #327fa9",
"f  c #407d9e",
"g  c #4b7a93",
"h  c #4b7d98",
"j  c #2481b5",
"k  c #2e84b4",
"l  c #2b86b8",
"z  c #2e88b9",
"x  c #3281ac",
"c  c #3984ac",
"v  c #3286b3",
"b  c #328aba",
"n  c #3a8ab5",
"m  c #3a8dbc",
"M  c #3e90bc",
"N  c #4a809e",
"B  c #4085ab",
"V  c #4288ae",
"C  c #4e8bac",
"Z  c #418eb8",
"A  c #4191bc",
"S  c #4e91b6",
"D  c #4892ba",
"F  c #4e98bf",
"G  c #5286a2",
"H  c #568dab",
"J  c #5c8ca6",
"K  c #5d8ea9",
"L  c #5e91ae",
"P  c #5290b2",
"I  c #5094b9",
"U  c #5d9bbd",
"Y  c #6693ac",
"T  c #6b91a7",
"R  c #6b94ab",
"E  c #6496b1",
"W  c #7298ad",
"Q  c #6ca0bd",
"!  c #79a5bd",
"~  c #4494c0",
"^  c #4c99c2",
"/  c #539cc3",
"(  c #589cc1",
")  c #5ba1c7",
"_  c #65a4c6",
"`  c #64a6ca",
"'  c #6ca6c5",
"]  c #6baacc",
"[  c #72a4c0",
"{  c #74aac7",
"}  c #71adcd",
"|  c #7aadc9",
" . c #7ab0ce",
".. c #7ab3d2",
"X. c #86a7b9",
"o. c #8dacbd",
"O. c #92aebe",
"+. c #80b2cd",
"@. c #8ab0c5",
"#. c #8db5cb",
"$. c #8cbcd6",
"%. c #92b1c2",
"&. c #90b8ce",
"*. c #9ab5c4",
"=. c #9eb8c7",
"-. c #9ebccc",
";. c #92bbd2",
":. c #9abfd3",
">. c #a5becb",
",. c #a8beca",
"<. c #9bc3d9",
"1. c #abc1ce",
"2. c #a5c4d4",
"3. c #a4c7db",
"4. c #a3cadf",
"5. c #acc6d4",
"6. c #aacbdd",
"7. c #b2c7d2",
"8. c #b3c8d4",
"9. c #b4cedc",
"0. c #b8ccd6",
"q. c #bcced8",
"w. c #bed4df",
"e. c #bcd8e7",
"r. c #c0c0c0",
"t. c #c2d2db",
"y. c #c8d6de",
"u. c #c4d6e0",
"i. c #c0dae9",
"p. c #c8d7e0",
"a. c #ccdae1",
"s. c #d1dde4",
"d. c #d4e0e7",
"f. c #d4e3ec",
"g. c #d9e3e9",
"h. c #dee8ee",
"j. c #e0e9ed",
"k. c #e5edf1",
"l. c #e9eef2",
"z. c #ecf1f5",
"x. c #f0f4f6",
"c. c #f3f6f8",
"v. c #f6f8fa",
"b. c #fafbfc",
"n. c None",
/* pixels */
"n.n.n.n.n.n.n.n.n.n.n.n.n.n.n.n.n.n.n.n.n.n.n.n.n.n.n.n.n.n.n.n.n.n.n.n.n.n.n.n.n.n.n.n.n.n.n.n.",
"n.n.n.n.n.n.n.n.n.n.n.n.n.n.n.n.n.n.n.n.n.n.n.n.n.n.n.n.n.n.n.n.n.n.n.n.n.n.n.n.n.n.n.n.n.n.n.n.",
"n.n.n.n.n.n.n.n.n.n.n.n.n.n.n.n.n.n.n.n.n.n.n.n.n.n.n.n.n.n.n.n.n.n.n.n.n.n.n.n.n.n.n.n.n.n.n.n.",
"n.n.n.n.n.n.n.n.n.n.n.n.n.x.b.v.j.s.t.t.t.t.t.t.t.t.t.t.t.q.7.,.O.W n.n.n.n.n.n.n.n.n.n.n.n.n.n.",
"n.n.n.n.n.n.n.n.n.n.n.n.n.t.l.b.b.j.a.a.a.y.a.a.a.a.a.a.y.y.q.,.O.T g @ n.n.n.n.n.n.n.n.n.n.n.n.",
"n.n.n.n.n.n.n.n.n.n.n.n.n.T o.8.s.q.*.*.*.*.=.,.8.t.s.g.g.s.y.7.O.R g + . n.n.n.n.n.n.n.n.n.n.n.",
"n.n.n.n.n.n.n.n.n.n.n.n.n.. X X X o X X X o X X X X o G %.0.t.1.%.W h +       n.n.n.n.n.n.n.n.n.",
"n.n.n.n.n.n.n.n.n.n.n.n.n.X o o o o O O o O O O O O O O O o a L E L h y . . . n.n.n.n.n.n.n.n.n.",
"n.n.n.n.n.n.n.n.n.n.n.n.n.o # $ % % % % % % % % % % % % % % % % 1 p a < o . .   n.n.n.n.n.n.n.n.",
"n.n.n.n.n.n.n.n.n.n.n.n.n.n.n.n.n.n.n.n.n.n.n.n.n.n.n.- - - & - = > 4 3 O o X X   n.n.n.n.n.n.n.",
"n.n.n.n.n.n.n.n.n.n.n.n.n.n.n.n.n.n.n.n.n.n.n.n.n.n.n.n.6 6 6 5 - 8 , > % O o X . n.n.n.n.n.n.n.",
"n.n.n.n.n.n.n.n.n.n.n.n.n.n.n.n.n.n.n.n.n.n.n.n.n.n.n.n.n.6 6 6 q q 8 ; - % # o X . n.n.n.n.n.n.",
"n.n.n.n.n.n.n.n.n.n.n.n.n.n.n.n.n.n.n.n.n.n.n.n.n.n.n.n.n.q r t z j 9 ; ; & % # o X n.n.n.n.n.n.",
"n.n.n.n.n.n.n.n.n.n.n.n.n.n.n.n.n.n.n.n.n.n.n.n.n.n.n.n.n.n.` ` ^ b q 6 6 5 & % O X n.n.n.n.n.n.",
"n.n.n.n.n.n.n.n.n.n.n.n.n.n.n.n.n.n.n.n.n.n.n.n.n.n.n.n.n.n.e.4...^ r 7 7 6 - & $ o n.n.n.n.n.n.",
"n.n.n.n.n.n.n.n.n.n.n.n.n.n.n.x.j.g.s.y.t.t.t.t.p.f.l.v.b.v.k.i.$./ r 7 7 6 6 - % O n.n.n.n.n.n.",
"n.n.n.n.n.n.n.n.n.n.n.n.n.b.b.v.x.j.s.a.p.p.p.p.a.f.k.v.v.x.f.4.} m r 7 7 7 6 - & # n.n.n.n.n.n.",
"n.n.n.n.n.n.n.n.n.n.n.n.b.b.b.b.c.j.s.y.0.5.,.>.*.>.7.5.3.:.+._ A j 9 7 7 7 6 5 & % n.n.n.n.n.n.",
"n.n.n.n.n.n.n.n.n.n.x.v.b.b.b.b.j.p.>.Y * X X o X o o # $ & - 8 r r 9 7 7 7 6 6 - % n.n.n.n.n.n.",
"n.n.n.n.n.n.n.n.n.j.l.x.b.b.l.p.@.u O o O O O o O O O $ % - - 5 6 9 9 7 7 7 6 6 - % n.n.n.n.n.n.",
"n.n.n.n.n.n.n.n.n.s.j.l.x.f.<.H % % % % % % % % % % % = = - 5 6 7 9 9 7 7 7 7 5 - % n.n.n.n.n.n.",
"n.n.n.n.n.n.n.n.7.y.d.j.a.#.B % = - - - - - n.n.n.n.n.n.n.n.6 6 7 t r 7 7 7 6 5 - % n.n.n.n.n.n.",
"n.n.n.n.n.n.n.n.,.5.t.t.#.V - - - 5 5 5 5 n.n.n.n.n.n.n.n.n.6 7 9 l t 7 7 7 7 5 - % n.n.n.n.n.n.",
"n.n.n.n.n.n.n.X.*.>.5.&.S w 5 5 7 6 7 6 n.n.n.n.n.n.n.n.n.n.6 6 t M l 7 7 7 7 5 - % n.n.n.n.n.n.",
"n.n.n.n.n.n.n.T ! @.$.{ s 8 6 7 7 7 ; n.n.n.n.n.n.n.n.n.n.n.6 q b M z 7 7 7 6 5 - % n.n.n.n.n.n.",
"n.n.n.n.n.n.n.G E [ | U q 7 7 7 6 7 5 n.n.n.n.n.n.n.n.n.n.n.e k M ^ b 7 7 7 7 6 - % n.n.n.n.n.n.",
"n.n.n.n.n.n.n.h H U _ A 9 7 7 7 7 6 5 n.n.n.n.n.n.n.n.n.n.n.x n A / b 7 7 7 7 5 - % n.n.n.n.n.n.",
"n.n.n.n.n.n.n.a c S ( n 7 7 7 6 7 6 ; n.n.n.n.n.n.n.n.n.n.n.x m ^ ) m 7 7 7 7 5 - % n.n.n.n.n.n.",
"n.n.n.n.n.n.n.p c D / b 7 7 7 7 6 5 - n.n.n.n.n.n.n.n.n.n.n.B S ( ) n 7 7 7 7 5 - % n.n.n.n.n.n.",
"n.n.n.n.n.n.n.p c D / z 7 7 7 7 6 - = n.n.n.n.n.n.n.n.n.n.n.P U _ ` b 7 7 7 6 5 - % n.n.n.n.n.n.",
"n.n.n.n.n.n.n.p c D / b 7 7 7 6 5 - = n.n.n.n.n.n.n.n.n.n.n.Q { ..] b 7 7 7 7 5 - % n.n.n.n.n.n.",
"n.n.n.n.n.n.n.i x Z ^ b 7 7 7 7 6 - % n.n.n.n.n.n.n.n.n.n.n.#.&.$.} z 7 7 7 7 - - % n.n.n.n.n.n.",
"n.n.n.n.n.n.n.2 e v M l 7 7 7 7 5 - % n.n.n.n.n.n.n.n.n.n.2.2.4.<.] j 7 7 7 7 5 - % n.n.n.n.n.n.",
"n.n.n.n.n.n.n.% , q j j 7 7 7 6 5 - % n.n.n.n.n.n.n.n.n.n.9.9.6.$.( t 7 7 7 6 5 - % n.n.n.n.n.n.",
"n.n.n.n.n.n.n.% - 5 9 r 7 7 7 7 5 - & n.n.n.n.n.n.n.n.n.s.t.9.<.} m r 7 7 7 7 5 - % n.n.n.n.n.n.",
"n.n.n.n.n.n.n.% = 5 6 7 7 7 7 7 5 - % n.n.n.n.n.n.n.n.l.g.9.;.' A j 9 7 7 7 7 5 - % n.n.n.n.n.n.",
"n.n.n.n.n.n.n.n.- 5 7 7 7 7 7 6 6 - % n.n.n.n.n.n.n.b.l.a.! c w 9 r 9 7 7 7 6 5 - % n.n.n.n.n.n.",
"n.n.n.n.n.n.n.n.- 5 7 7 7 7 7 7 5 - % o n.n.n.n.c.b.b.a.J n.- 5 6 t t 7 7 7 7 6 - % n.n.n.n.n.n.",
"n.n.n.n.n.n.n.n.n.5 6 7 7 7 7 7 5 - % < J %.t.g.j.s.o.o # n.= 5 7 j t 7 7 7 7 5 - $ n.n.n.n.n.n.",
"n.n.n.n.n.n.n.n.n.- 6 7 7 7 7 6 5 - % 3 K o.1.,.h X o # n.n.- 6 6 7 7 7 7 7 7 5 - % n.n.n.n.n.n.",
"n.n.n.n.n.n.n.n.n.n.6 7 7 7 7 6 6 - = # o o X X o o # $ n.n.5 7 7 7 7 7 7 7 7 5 - % n.n.n.n.n.n.",
"n.n.n.n.n.n.n.n.n.n.n.7 7 7 7 7 6 - - % # o o o o # % n.n.n.5 6 7 7 7 7 7 7 6 5 - % n.n.n.n.n.n.",
"n.n.n.n.n.n.n.n.n.n.n.n.n.7 7 7 6 5 - & % $ $ $ % & n.n.n.n.5 5 6 7 7 7 7 7 7 5 - % n.n.n.n.n.n.",
"n.n.n.n.n.n.n.n.n.n.n.n.n.n.n.7 7 6 5 - - & & n.n.n.n.n.n.n.- 5 6 6 7 7 7 7 6 5 - % n.n.n.n.n.n.",
"n.n.n.n.n.n.n.n.n.n.n.n.n.n.n.n.n.n.n.n.n.n.n.n.n.n.n.n.n.n.n.n.n.n.n.n.n.n.n.n.n.n.n.n.n.n.n.n.",
"n.n.n.n.n.n.n.n.n.n.n.n.n.n.n.n.n.n.n.n.n.n.n.n.n.n.n.n.n.n.n.n.n.n.n.n.n.n.n.n.n.n.n.n.n.n.n.n.",
"n.n.n.n.n.n.n.n.n.n.n.n.n.n.n.n.n.n.n.n.n.n.n.n.n.n.n.n.n.n.n.n.n.n.n.n.n.n.n.n.n.n.n.n.n.n.n.n.",
"n.n.n.n.n.n.n.n.n.n.n.n.n.n.n.n.n.n.n.n.n.n.n.n.n.n.n.n.n.n.n.n.n.n.n.n.n.n.n.n.n.n.n.n.n.n.n.n."
};
