/* XPM */
static char * autocomplete_xpm[] = {
"22 22 4 1",
" 	c None",
".	c #726751",
"+	c #FFFFFF",
"@	c #000000",
"                      ",
"                      ",
"                      ",
"                      ",
"                      ",
"       .........      ",
"      .         .     ",
"     .           .    ",
"    ...............   ",
"    .+@@@@@@@@@@@+.   ",
"    .+++++++++++++.   ",
"    .+@@@@@@@@@+++.   ",
"    .+++++++++++++.   ",
"    .+@@@@@@@+++++.   ",
"    .+++++++++++++.   ",
"    .+@@@@@@@@@@@+.   ",
"    ...............   ",
"                      ",
"                      ",
"                      ",
"                      ",
"                      "};
