/* XPM */
static char *magick[] = {
/* columns rows colors chars-per-pixel */
"22 22 4 1",
"  c black",
". c #105292",
"X c #c0c0c0",
"o c None",
/* pixels */
"oooooooooooooooooooooo",
"oooooooooooooooooooooo",
"oooooooooooooooooooooo",
"oooooooooooooooooooooo",
"ooooooo    ooooooooooo",
"oooooo   ooooooooooooo",
"oooooo   ooooooooo.ooo",
"oooooo   oooooooo..ooo",
"oooooo   ooooooo...ooo",
"oooooo   oooooo....ooo",
"oooo    oooooo.....ooo",
"oooooo   ooooo.....ooo",
"oooooo   oooooo....ooo",
"oooooo   ooooooo...ooo",
"oooooo   oooooooo..ooo",
"oooooo   ooooooooo.ooo",
"ooooooo    ooooooooooo",
"oooooooooooooooooooooo",
"oooooooooooooooooooooo",
"oooooooooooooooooooooo",
"oooooooooooooooooooooo",
"oooooooooooooooooooooo"
};
