/* XPM */
static char * bookmark_last_xpm[] = {
"22 22 3 1",
" 	c None",
".	c #105292",
"+	c #000000",
"                      ",
"                      ",
"                      ",
"                      ",
"     .        + +     ",
"     ..       + +     ",
"     ...      + +     ",
"     ....     + +     ",
"     .....    + +     ",
"     ......   + +     ",
"     .......  + +     ",
"     ......   + +     ",
"     .....    + +     ",
"     ....     + +     ",
"     ...      + +     ",
"     ..       + +     ",
"     .        + +     ",
"                      ",
"                      ",
"                      ",
"                      ",
"                      "};
