/* XPM */
static char * bookmark_first_xpm[] = {
"22 22 3 1",
" 	c None",
".	c #000000",
"+	c #28458E",
"                      ",
"                      ",
"                      ",
"                      ",
"    . .         +     ",
"    . .        ++     ",
"    . .       +++     ",
"    . .      ++++     ",
"    . .     +++++     ",
"    . .    ++++++     ",
"    . .   +++++++     ",
"    . .    ++++++     ",
"    . .     +++++     ",
"    . .      ++++     ",
"    . .       +++     ",
"    . .        ++     ",
"    . .         +     ",
"                      ",
"                      ",
"                      ",
"                      ",
"                      "};
