/* XPM */
static char * breakpoint_xpm[] = {
"22 22 20 1",
" 	c None",
".	c #000000",
"+	c #0000FF",
"@	c #303030",
"#	c #BFB6A9",
"$	c #7F6140",
"%	c #BF986A",
"&	c #FFCF94",
"*	c #3F2A16",
"=	c #BFA57E",
"-	c #FFE4AE",
";	c #FFEDB4",
">	c #FFC280",
",	c #FFB56C",
"'	c #7F6E54",
")	c #FF0000",
"!	c #FFDCA8",
"~	c #FFD79A",
"{	c #7F542C",
"]	c #BF8B56",
"                      ",
"                      ",
"                      ",
"                      ",
"            .......   ",
"            .++@++.   ",
"            .......   ",
"            .+++++.   ",
"            .+++++.   ",
"            .+++++.   ",
"        #$  .......   ",
"       %&*  .+++++.   ",
"     *=&*.....++++.   ",
"   *%-;;>>>>,'.))).   ",
"   '---!''*...)))).   ",
"   '!!!~{{* .+++++.   ",
"   $>&!~>,. .+++++.   ",
"   *],~%'*  .+++++.   ",
"     .{{*   .......   ",
"                      ",
"                      ",
"                      "};
