/* XPM */
static char *magick[] = {
/* columns rows colors chars-per-pixel */
"22 22 12 1",
"  c gray29",
". c #006eaa",
"X c #b9b9b9",
"o c #c0c0c0",
"O c gray81",
"+ c #cfcfd0",
"@ c #d0cfcf",
"# c gainsboro",
"$ c #e8e9e9",
"% c #f5f6f6",
"& c white",
"* c None",
/* pixels */
"**********************",
"**********************",
"**********************",
"***         **********",
"*** ....... **********",
"***         **********",
"*** XXXo@#$ **********",
"*** XXo+#$% **********",
"*** Xo+#$%& **********",
"*** o+#$%&& **********",
"*** @#$%&&         ***",
"***        ....... ***",
"**********         ***",
"********** XXXoO#$ ***",
"********** XXo+#$% ***",
"********** Xo+#$%& ***",
"********** o+#$%&& ***",
"********** +#$%&&& ***",
"**********         ***",
"**********************",
"**********************",
"**********************"
};
