/* XPM */
static char *magick[] = {
/* columns rows colors chars-per-pixel */
"22 22 21 1",
"  c #394248",
". c gray29",
"X c gray44",
"o c #1c60ab",
"O c #929292",
"+ c #9b9b9b",
"@ c #a3a3a3",
"# c #b1b0b0",
"$ c #bababa",
"% c #c0c0c0",
"& c #cbcbcb",
"* c #d0cfd0",
"= c #d3d4d3",
"- c #dbdbdb",
"; c #e2e2e2",
": c #e7e7e8",
"> c #ebebeb",
", c #f2f3f3",
"< c #f8f7f8",
"1 c #fdfdfd",
"2 c None",
/* pixels */
"2222222222222222222222",
"2222222222222222222222",
"2222222222222222222222",
"222                222",
"222 oooooooooooooo 222",
"222 oooooooooooooo 222",
"222                222",
"222 $$$$$$$%%%&*=- 222",
"222 $$$$$$%%&*=--; 222",
"222 $$$$%%&&==--;> 222",
"222 $$%#O+O%--;>>, 222",
"222 $%%O+XX+;:>,<< 222",
"222 %&*+X1X.*@+@;1 222",
"222 *==+XX.@@+XX@1 222",
"222 =--&+.@=+X1X.1 222",
"222 -;:>,,<1@XX.@1 222",
"222 ;>,,<111;@.@;1 222",
"222 >,<11111111111 222",
"222                222",
"2222222222222222222222",
"2222222222222222222222",
"2222222222222222222222"
};
