/* XPM */
static char * build_xpm[] = {
"22 22 16 1",
" 	c None",
".	c #000000",
"+	c #0000FF",
"@	c #FFFFFF",
"#	c #FCFCF4",
"$	c #989898",
"%	c #E3E3E3",
"&	c #7E7E79",
"*	c #868684",
"=	c #7F7E62",
"-	c #10100E",
";	c #7B7A77",
">	c #121210",
",	c #24231E",
"'	c #24241C",
")	c #4C4C38",
"                      ",
"                      ",
"                      ",
"                      ",
"    ...............   ",
"    .+++++++++++++.   ",
"    .+++++++++++++.   ",
"    ...............   ",
"    .@@@@@@....@@@.   ",
"    .@@@@@.@@@@.@@.   ",
"    .#@@@@.@@.@.@@.   ",
"    .@.....$@@%.@@.   ",
"    .@.@@@..&*.=@@.   ",
"    -..@.@;...@@@@.   ",
"    .@.@@..@@@@@@@.   ",
"    .@..>,'@@@@@@@.   ",
"    .@@).@@@@@@@@@.   ",
"    ...............   ",
"                      ",
"                      ",
"                      ",
"                      "};
