/* XPM */
static char * build_stop_xpm[] = {
"22 22 11 1",
" 	c None",
".	c #FF0000",
"+	c #000000",
"@	c #0000FF",
"#	c #FFFFFF",
"$	c #FE0000",
"%	c #AA0000",
"&	c #A60000",
"*	c #B30000",
"=	c #AE0000",
"-	c #BF0000",
"                      ",
"                      ",
"                      ",
"         ....         ",
"   ++++..++++..       ",
"   +@..@@@@@+  ..     ",
"   +#.######+ ...     ",
"   +$####++++%.++.+   ",
"   +.####+@@&.%@@..   ",
"   $#####+#*.&####.   ",
"   $##++++%.*+++##.   ",
"   $##+@@*.%@@@+##.   ",
"   $+++#&.#####+##.   ",
"    . +%.&#####+#..   ",
"    . =.%######+#.+   ",
"     ..-#######+.++   ",
"     ..########..     ",
"      +..++++..+      ",
"         ....         ",
"                      ",
"                      ",
"                      "};
