/* XPM */
static char * build_all_xpm[] = {
"22 22 4 1",
" 	c None",
".	c #000000",
"+	c #0000FF",
"@	c #FFFFFF",
"                      ",
"                      ",
"                      ",
"                      ",
"   ..........         ",
"   .++++++++.         ",
"   .@@@@@@@@.         ",
"   .@@@@@..........   ",
"   .@@@@@.++++++++.   ",
"   .@@@@@.@@@@@@@@.   ",
"   .@@..........@@.   ",
"   .@@.++++++++.@@.   ",
"   ....@@@@@@@@.@@.   ",
"      .@@@@@@@@.@@.   ",
"      .@@@@@@@@.@@.   ",
"      .@@@@@@@@....   ",
"      .@@@@@@@@.      ",
"      ..........      ",
"                      ",
"                      ",
"                      ",
"                      "};
