/* XPM */
static char *magick[] = {
/* columns rows colors chars-per-pixel */
"18 18 30 1",
"  c #394248",
". c #ab231b",
"X c #ae281f",
"o c #ae2920",
"O c #b12d25",
"+ c #b4342c",
"@ c #b63830",
"# c #bb423a",
"$ c #bf4840",
"% c #c24e46",
"& c #c6544c",
"* c #c95a53",
"= c #cd615a",
"- c #d0675f",
"; c #d26a63",
": c #d7746c",
"> c #d8766f",
", c #db7c75",
"< c #de817a",
"1 c #e0837c",
"2 c #e38b84",
"3 c #e69089",
"4 c #e9968e",
"5 c #ec9b94",
"6 c #f0a39c",
"7 c #f2a6a0",
"8 c #f5aca5",
"9 c #c0c0c0",
"0 c white",
"q c None",
/* pixels */
"qqqqqqqqqqqqqqqqqq",
"qqqq          qqqq",
"qqq 8888007654 qqq",
"qq 88808005032, qq",
"q 8808060030,,:; q",
"q 8806050010>;;= q",
"q 86050200:0-=*& q",
"q 65020,00;0*&0# q",
"q 4300000000%00+ q",
"q 2100000000#00O q",
"q ,:00000000+0o. q",
"q ;;0000000000.. q",
"q =*000000000... q",
"q &%000000000... q",
"q $#000.0000.... q",
"qq +Oo......... qq",
"qqq            qqq",
"qqqqqqqqqqqqqqqqqq"
};
