/* XPM */
static char * calltip_xpm[] = {
"22 22 5 1",
" 	c None",
".	c #000000",
"+	c #D8D856",
"@	c #FFD000",
"#	c #99993D",
"                      ",
"                      ",
"                      ",
"                      ",
"                      ",
"       ........       ",
"      .+@@@@@@+.      ",
"     .+@@@@@@@@+.     ",
"     .@@+####+@@+.    ",
"    .+@@@@@@@@@@@.    ",
"    .@+###+####+@.    ",
"    .@@@@@@@@@@@@.    ",
"    .+@@+####+@@+.    ",
"     .+@@@@@@@@+.     ",
"      .@@@@@@@+.      ",
"     .@@@@+....       ",
"    .......           ",
"                      ",
"                      ",
"                      ",
"                      ",
"                      "};
