/* XPM */
static char *magick[] = {
/* columns rows colors chars-per-pixel */
"22 22 26 1",
"  c black",
". c gray29",
"X c #f4c13e",
"o c #f4c343",
"O c #f5c44a",
"+ c #f5c750",
"@ c #f6c954",
"# c #f6ca5c",
"$ c #f6cd63",
"% c #f7cf6a",
"& c #f7d16f",
"* c #f8d47a",
"= c #f9d783",
"- c #f9d883",
"; c #f9db8e",
": c #f9dc93",
"> c #fadf98",
", c #fae09d",
"< c #fae2a2",
"1 c #fbe5ab",
"2 c #fbe7b2",
"3 c #fce8b7",
"4 c #fceabd",
"5 c #c0c0c0",
"6 c #fdecc3",
"7 c None",
/* pixels */
"7777777777777777777777",
"7777777777777777777777",
"7777777777777777777777",
"7777777777777777777777",
"7777777........7777777",
"77777..66666664..77777",
"77777.666666421,.77777",
"7777.6666431<>;-*.7777",
"7777.66        %#.7777",
"7777.31<>;-*&$#+O.7777",
"7777.,:    #@OoXX.7777",
"7777.-*&$#+OoXXXX.7777",
"7777.%#     XXXXX.7777",
"7777.+OXXXXXXXXXX.7777",
"7777.XX        XX.7777",
"77777.XXXXXXXXXX.77777",
"77777..XXXXXXXX..77777",
"7777777........7777777",
"7777777777777777777777",
"7777777777777777777777",
"7777777777777777777777",
"7777777777777777777777"
};
