/* XPM */
static char * cfolder_xpm[] = {
"16 16 7 1",
" 	c None",
".	c #9494FF",
"+	c #BDBDBD",
"@	c #6363CE",
"#	c #E3E3E3",
"$	c #808080",
"%	c #CECEFF",
"                ",
"                ",
"   .....        ",
"  .+.+.+.       ",
" .+.+.+.+@@@@@@ ",
" .############@ ",
" .#.+.+.+.+.+.@$",
" .#+%+%+%+%+%+@$",
" .#.+.+.+.+.+.@$",
" .#+%+%+%+%+%+@$",
" .#.+.+.+.+.+.@$",
" .#+%+%+%+%+%+@$",
" @@@@@@@@@@@@@@$",
"  $$$$$$$$$$$$$$",
"                ",
"                "};
