/* XPM */
static char * small_close_xpm[] = {
"12 9 16 1",
" 	c None",
".	c #B6B2BE",
"+	c #BEBAC6",
"@	c #AEAAB6",
"#	c #4E5052",
"$	c #828486",
"%	c #EEEEF2",
"&	c #22262A",
"*	c #121212",
"=	c #A6A2AE",
"-	c #020302",
";	c #626466",
">	c #424242",
",	c #72767A",
"'	c #1A1A1A",
")	c #6A6E72",
"            ",
"   .  +@    ",
"   #$%&*=   ",
"    -#-;    ",
"    ;->     ",
"    >--,    ",
"   .*$'-)   ",
"   #= @*#   ",
"            "};
