/* XPM */
static char * close_project_xpm[] = {
"22 22 3 1",
" 	c None",
".	c #0000FF",
"+	c #000000",
"                      ",
"                      ",
"                      ",
"            ......    ",
"             ..  ..   ",
"             ..  ..   ",
"       +    +.. ...   ",
"       ++  ++....     ",
"        ++ ++..       ",
"        +++++..       ",
"         +++ ..       ",
"         +++....      ",
"        ++++++        ",
"        ++ ++++       ",
"       ++   ++++      ",
"       +     ++       ",
"                      ",
"                      ",
"                      ",
"                      ",
"                      ",
"                      "};
