/* XPM */
static char * close_project_xpm[] = {
"22 22 8 1",
" 	c None",
".	c #000000",
"+	c #8989FF",
"@	c #A1A1A1",
"#	c #7171AD",
"$	c #C0C0C0",
"%	c #808080",
"&	c #ADADFF",
"                      ",
"                      ",
"                      ",
"                      ",
"     ..               ",
"      ..     ..       ",
"       .    ....      ",
"   ++++..  .....      ",
"   +@+@+.. ...        ",
"  +@+@+@####.         ",
"  +$$$$$$$$#          ",
"  +$+@+@+@+#%         ",
"  +$@&@&@&@#%.        ",
"  +$+@+@+@+#%..       ",
"  +$@&@&@&@#%...      ",
"  ##########%....     ",
"   %%%%%%%%%% ...     ",
"    ..                ",
"                      ",
"                      ",
"                      ",
"                      "};
