/* XPM */
static char * compile_xpm[] = {
"22 22 13 1",
" 	c None",
".	c #000000",
"+	c #BABABA",
"@	c #C0C0C0",
"#	c #C8C7C7",
"$	c #CCCBCC",
"%	c #D3D2D3",
"&	c #DBDBDB",
"*	c #EBEBEB",
"=	c #F3F3F3",
"-	c #C7C7C8",
";	c #E2E3E3",
">	c #FEFEFE",
"                      ",
"                      ",
"                      ",
"                      ",
"      .       .       ",
"      .       .       ",
"      .       .       ",
"    .....   .....     ",
"     ...     ...      ",
"      .       .       ",
"                      ",
"   ................   ",
"   .++++++@@#$%%&&.   ",
"   .+...........*=.   ",
"   .-$%%&&;;*==>>>.   ",
"   .&.....=>>>>>>>.   ",
"   .*==>>>>>>>>>>>.   ",
"   .>>>>>>>>>>>>>>.   ",
"   ................   ",
"                      ",
"                      ",
"                      "};
