/* XPM */
static char * compile_xpm[] = {
"22 22 8 1",
" 	c None",
".	c #00007F",
"+	c #000080",
"@	c #000000",
"#	c #FFFFFF",
"$	c #FEFEFE",
"%	c #7A7A7A",
"&	c #797979",
"                      ",
"                      ",
"                      ",
"                      ",
"     .     .     .    ",
"     .     .     .    ",
"     .     .     .    ",
"     .     .     .    ",
"     .     .     .    ",
"     .     .     .    ",
"    +..   ...   ..+   ",
"     .     .     .    ",
"                      ",
"   @@@@@@@@@@@@@@@@   ",
"   @#############$@   ",
"   @##############@   ",
"   @##%&%%###%%%%#@   ",
"   @@@@@@@@@@@@@@@@   ",
"                      ",
"                      ",
"                      ",
"                      "};
