/* XPM */
static char * configure_xpm[] = {
"22 22 4 1",
" 	c None",
".	c #000000",
"+	c #8ACE8A",
"@	c #7F7F7F",
"                      ",
"                      ",
"                      ",
"                      ",
"      .. .....        ",
"     .++.+++++.       ",
"     .+++++++++.      ",
"     .+@.++++..+.     ",
"      .. ....@ ..     ",
"          ...   .     ",
"          ...         ",
"          ...         ",
"          ...         ",
"          ...         ",
"          ...         ",
"          ...         ",
"          ...         ",
"          ...         ",
"                      ",
"                      ",
"                      ",
"                      "};
