/* XPM */
static char *magick[] = {
/* columns rows colors chars-per-pixel */
"22 22 19 1",
"  c black",
". c gray29",
"X c #1c60ab",
"o c #bababa",
"O c #bfc0bf",
"+ c #c0c0c0",
"@ c #cbcbcb",
"# c #d3d3d3",
"$ c #d8d8d7",
"% c #dbdbdb",
"& c #dfe0e0",
"* c #e0dfdf",
"= c #e4e3e3",
"- c #ebebeb",
"; c #f0eff0",
": c #f3f3f3",
"> c #f8f8f7",
", c #fdfdfd",
"< c None",
/* pixels */
"<<<<<<<<<<<<<<<<<<<<<<",
"<<<<<<<<<<<<<<<<<<<<<<",
"<<<<<<<<<<<<<<<<<<<<<<",
"<<<................<<<",
"<<<.XXXXXXXXXXXXXX.<<<",
"<<<.XXXXXXXXXXXXXX.<<<",
"<<<................<<<",
"<<<.ooooooooo++++@.<<<",
"<<<.o oooo++++@@##.<<<",
"<<<.oo oo+++@###$$.<<<",
"<<<.oo +@@@##$$%%=.<<<",
"<<<.+ @@@##$%%==--.<<<",
"<<<.@@##$%%===--::.<<<",
"<<<.#$$%*===-::>>,.<<<",
"<<<.%*===;:::>,,,,.<<<",
"<<<.==-;;:>>,,,,,,.<<<",
"<<<.-:::>,,,,,,,,,.<<<",
"<<<.:>,,,,,,,,,,,,.<<<",
"<<<................<<<",
"<<<<<<<<<<<<<<<<<<<<<<",
"<<<<<<<<<<<<<<<<<<<<<<",
"<<<<<<<<<<<<<<<<<<<<<<"
};
