/* XPM */
static char *magick[] = {
/* columns rows colors chars-per-pixel */
"22 22 16 1",
"  c black",
". c gray29",
"X c gray61",
"o c #bababa",
"O c #c0bfc0",
"+ c #c0c0c0",
"@ c #cccccc",
"# c #d0cfcf",
"$ c #d4d4d4",
"% c #d7d7d8",
"& c #dcdcdc",
"* c #e3e3e3",
"= c #ebebeb",
"- c #f4f3f3",
"; c #fefefe",
": c None",
/* pixels */
"::::::::::::::::::::::",
"::::::::::::::::::::::",
"::::::::::::::::::::::",
"::::...........:::::::",
"::::.oooooooo+.X::::::",
"::::.ooooo++++.XX:::::",
"::::.oo++  +@@....::::",
"::::.+++@  @$$%&&.::::",
"::::.@@@@  $%&&**.::::",
"::::.@$$%  &***==.::::",
"::::.$%&&  ====-=.::::",
"::::.&*      --;;.::::",
"::::.===    -;;;;.::::",
"::::.==--  ;;;;;;.::::",
"::::.--;;;;;;;;;;.::::",
"::::.;;;;;;;;;;;;.::::",
"::::.;;;;;;;;;;;;.::::",
"::::.;;;;;;;;;;;;.::::",
"::::..............::::",
"::::::::::::::::::::::",
"::::::::::::::::::::::",
"::::::::::::::::::::::"
};
