/* XPM */
static char * continue_xpm[] = {
"22 22 5 1",
" 	c None",
".	c #FF0000",
"+	c #000000",
"@	c #FFFF00",
"#	c #A9A9A9",
"                      ",
"                      ",
"                      ",
"     ..++++++++       ",
"     ..+@@@@@@+#      ",
"     ..+@@@@@@+@#     ",
"     ..+@@@@@@+++#    ",
"     ..+@@+++@@@@#    ",
"     ..+@@@@@@@@@#    ",
"     ..+@@+++++@@#    ",
"     ..+@@@@@@@@@#    ",
"     ..+@@+++++@@#    ",
"     ..+@@@@@@@@@#    ",
"   . ..+.@+++++@@#    ",
"   ......+@@@@@@@#    ",
"    ....+@+++++@@#    ",
"     ..+@@@@@@@@@#    ",
"      ++@@@@@@@@@#    ",
"       ###########    ",
"                      ",
"                      ",
"                      "};
