/* XPM */
static char * copy_xpm[] = {
"22 22 86 1",
" 	c None",
".	c #000000",
"+	c #5D5D54",
"@	c #5D5D53",
"#	c #060607",
"$	c #65655B",
"%	c #D1D1BC",
"&	c #FAFAE2",
"*	c #4C4C49",
"=	c #BFBFBC",
"-	c #DEDECC",
";	c #FAFADE",
">	c #929284",
",	c #101010",
"'	c #A5A594",
")	c #6F6F70",
"!	c #B0B0AA",
"~	c #CCCCB8",
"{	c #E2E2CB",
"]	c #FFFFFB",
"^	c #262625",
"/	c #A0A099",
"(	c #AEAE98",
"_	c #FFFFE8",
":	c #767668",
"<	c #E4E4CB",
"[	c #DFDFC5",
"}	c #FFFFFF",
"|	c #CCCCC3",
"1	c #EDEDD4",
"2	c #D9D9C3",
"3	c #494941",
"4	c #F2F2D7",
"5	c #E4E4CE",
"6	c #E1E1CA",
"7	c #DFDFC7",
"8	c #070701",
"9	c #B0B09F",
"0	c #E2E2C8",
"a	c #FCFCDE",
"b	c #606056",
"c	c #32322C",
"d	c #D0D0BA",
"e	c #EDEDD6",
"f	c #E0E0C9",
"g	c #E2E2C9",
"h	c #EFEFD7",
"i	c #EEEED7",
"j	c #EEEED6",
"k	c #45453D",
"l	c #FBFBE1",
"m	c #E5E5CF",
"n	c #E9E9D1",
"o	c #F3F3DA",
"p	c #F1F1D9",
"q	c #DFDFC8",
"r	c #E1E1C9",
"s	c #E6E6CD",
"t	c #FDFDE0",
"u	c #F4F4D8",
"v	c #DDDDC7",
"w	c #FFFFED",
"x	c #FCFCE1",
"y	c #FAFADF",
"z	c #7E7E70",
"A	c #DDDDC6",
"B	c #E3E3CD",
"C	c #E7E7D0",
"D	c #6A6A5F",
"E	c #8A8A7A",
"F	c #D2D2BD",
"G	c #7E7E71",
"H	c #FFFFEA",
"I	c #EAEAD3",
"J	c #FFFFE5",
"K	c #FFFFE7",
"L	c #DBDBC5",
"M	c #A6A695",
"N	c #FFFFFC",
"O	c #FFFFE4",
"P	c #C7C7B2",
"Q	c #757569",
"R	c #1B1B18",
"S	c #EDEDD5",
"T	c #5E5E54",
"U	c #2C2C26",
"                      ",
"                      ",
"                      ",
"                      ",
"       ...            ",
"      .+@#            ",
"    ..$%&.    .       ",
"    *=.-;>. .,'.      ",
"   .)!.~{].^/(_:.     ",
"  . ...<[}.}.|12.     ",
"   .34567}.}890ab.    ",
"   .cdefg}...hgijk.   ",
"    ..lmn}.opqrstu.   ",
"     .vwxy.zxABCo}D.  ",
"     .EFG...H1IJKLM.  ",
"      ...  ..NOPQR.   ",
"            .STU.     ",
"         .. ..        ",
"      ......          ",
"         ..           ",
"                      ",
"                      "};
