/* XPM */
static char *magick[] = {
/* columns rows colors chars-per-pixel */
"22 22 15 1",
"  c black",
". c gray29",
"X c #81180f",
"o c #bbbaba",
"O c #c0c0c0",
"+ c #cbcbcc",
"@ c #d2d2d2",
"# c #dbdbdb",
"$ c gray89",
"% c #e7e8e8",
"& c #e8e8e7",
"* c #ebebeb",
"= c #f4f4f3",
"- c #fefefe",
"; c None",
/* pixels */
";;;;;;;;;;;;;;;;;;;;;;",
";;;;;;;;;;;;;;;;;;;;;;",
";;;;;;;;;;;;;;;;;;;;;;",
";;;................;;;",
";;;.ooooooOOOO+++@.;;;",
";;;.ooOO   @@####$.;;;",
";;;.++@@ ## $$&**=.;;;",
";;;.###$ && ===---.;;;",
";;;.%**= =- ------.;;;",
";;;.==-- -- ------.;;;",
";;;.----   -------.;;;",
";;;.--------------.;;;",
";;;................;;;",
";;;.ooooOO+@#$*=--.;;;",
";;;.oXXXXXXXXXXX--.;;;",
";;;.oO+##$&=------.;;;",
";;;.+XXXXX--------.;;;",
";;;.#$*=----------.;;;",
";;;................;;;",
";;;;;;;;;;;;;;;;;;;;;;",
";;;;;;;;;;;;;;;;;;;;;;",
";;;;;;;;;;;;;;;;;;;;;;"
};
