/* XPM */
static char * debug_xpm[] = {
"22 22 55 1",
" 	c None",
".	c #000000",
"+	c #2F2F2F",
"@	c #C5C5C4",
"#	c #9B9B9B",
"$	c #999999",
"%	c #979797",
"&	c #959595",
"*	c #949494",
"=	c #929292",
"-	c #909090",
";	c #8E8E8E",
">	c #8C8C8C",
",	c #8A8A8A",
"'	c #898989",
")	c #878787",
"!	c #A2A2A1",
"~	c #0000FF",
"{	c #FFFA00",
"]	c #D4D4D2",
"^	c #D2D2D0",
"/	c #D0D0CE",
"(	c #CFCFCD",
"_	c #CCCCCA",
":	c #CACAC8",
"<	c #A2A2A0",
"[	c #B3B3B1",
"}	c #AFAFAD",
"|	c #BFBFBD",
"1	c #999997",
"2	c #B8B8B6",
"3	c #B4B4B2",
"4	c #B0B0AE",
"5	c #ADADAB",
"6	c #A9A9A7",
"7	c #A5A5A3",
"8	c #E4E4E2",
"9	c #FFFFFF",
"0	c #B6B6B5",
"a	c #BCBCBA",
"b	c #808080",
"c	c #A0A09E",
"d	c #9E9E9C",
"e	c #AFAFAE",
"f	c #A1A1A0",
"g	c #9A9A98",
"h	c #C6C6C4",
"i	c #C7C7C6",
"j	c #91918F",
"k	c #979795",
"l	c #C3C3C1",
"m	c #A1A1A1",
"n	c #9E9E9E",
"o	c #939391",
"p	c #8F8F8D",
"                      ",
"                      ",
"                      ",
"   ...............+   ",
"   .@#$%&*=-;>,')!.   ",
"   .#~~~~{{{~~~~~].   ",
"   .$~~~~~{~{~~~~^.   ",
"   .%~~~~~{~{~~~~/.   ",
"   .&~~~~~{~{~~~~(.   ",
"   .*~~~~{{{~~~~~_.   ",
"   .=~~~~~~~~~~~~:.   ",
"   ................   ",
"   .^<:[}|1234567<.   ",
"   .890.9ab34}99cd.   ",
"   .:..e999459.9fg.   ",
"   .hb|i...j699..k.   ",
"   .lba.94.67mn..o.   ",
"   .|92hl597<dgkop.   ",
"   ................   ",
"                      ",
"                      ",
"                      "};
