/* XPM */
static char * debug_stop_xpm[] = {
"22 22 50 1",
" 	c None",
".	c #000000",
"+	c #FF0000",
"@	c #2F2F2F",
"#	c #C5C5C4",
"$	c #9B9B9B",
"%	c #999999",
"&	c #949494",
"*	c #929292",
"=	c #909090",
"-	c #8E8E8E",
";	c #898989",
">	c #878787",
",	c #A2A2A1",
"'	c #0000FF",
")	c #FFFA00",
"!	c #D4D4D2",
"~	c #D2D2D0",
"{	c #FE0000",
"]	c #AA0000",
"^	c #A60000",
"/	c #B30000",
"(	c #CCCCCA",
"_	c #CACAC8",
":	c #A2A2A0",
"<	c #B3B3B1",
"[	c #999997",
"}	c #B8B8B6",
"|	c #B4B4B2",
"1	c #B0B0AE",
"2	c #ADADAB",
"3	c #A9A9A7",
"4	c #A5A5A3",
"5	c #FFFFFF",
"6	c #B6B6B5",
"7	c #808080",
"8	c #AFAFAD",
"9	c #A0A09E",
"0	c #AE0000",
"a	c #A1A1A0",
"b	c #C6C6C4",
"c	c #BF0000",
"d	c #91918F",
"e	c #979795",
"f	c #C3C3C1",
"g	c #A1A1A1",
"h	c #9E9E9E",
"i	c #939391",
"j	c #BFBFBD",
"k	c #8F8F8D",
"                      ",
"                      ",
"                      ",
"   ......++++.....@   ",
"   .#$%++&*=-++;>,.   ",
"   .$++'')))'''++!.   ",
"   .%+'''')')'+++~.   ",
"   .{''''')')]+''+.   ",
"   .+''''')'^+]''++   ",
"   {&''''))/+^'''(+   ",
"   {*''''']+/''''_+   ",
"   {...../+]......+   ",
"   {~:_<^+[}|1234:+   ",
"   .+56]+^7|18559++   ",
"   .+.0+]55125.5a+.   ",
"   .b++c...d355.+e.   ",
"   .f++.51.34gh++i.   ",
"   .j5}++254:++eik.   ",
"   ......++++......   ",
"                      ",
"                      ",
"                      "};
