/* XPM */
static char * dock_xpm[] = {
"22 22 5 1",
" 	c None",
".	c #FFFFFF",
"+	c #000000",
"@	c #C7C6C7",
"#	c #85BCBC",
"                      ",
"                      ",
"         .+++@        ",
"        @+   @+       ",
"        @+   @+       ",
"    +++++++++@++++    ",
"    +........@+...    ",
"    +........@+...    ",
"    +....++..@+...    ",
"    +....+@..@+...    ",
"    +.###+@##@+###    ",
"    +....+@..@+...    ",
"    +....+@..@+...    ",
"    +....+@..@+...    ",
"    +....+@..@+...    ",
"    +....+@++.+...    ",
"    +.####+@@+####    ",
"    +......++.....    ",
"    +.............    ",
"    +.............    ",
"                      ",
"                      "};
