/* XPM */
static char *magick[] = {
/* columns rows colors chars-per-pixel */
"22 22 16 1",
"  c black",
". c gray29",
"X c gray44",
"o c gray61",
"O c #b9b9ba",
"+ c #c0c0c0",
"@ c #cccccc",
"# c #d3d3d3",
"$ c #d7d8d8",
"% c #dcdcdc",
"& c #e3e3e3",
"* c #ebebeb",
"= c #f3f3f3",
"- c #f8f8f7",
"; c #fdfdfd",
": c None",
/* pixels */
"::::::::::::::::::::::",
"::::::::::::::::::::::",
"::::::::::::::::::::::",
"::::......X ...:::::::",
"::::.OOOO X ++.o::::::",
"::::.OOX OX @@.oo:::::",
"::::.OOX +X @#....::::",
"::::.OOX @X #%%&*.::::",
"::::.OOX @X %&&&*.::::",
"::::.++@X  %%&*=-.::::",
"::::.@@@#XX&&**--.::::",
"::::.@##%%&**=--;.::::",
"::::.##%%&**--;;;.::::",
"::::.%%&&*=--;;;;.::::",
"::::.%&*==--;;;;;.::::",
"::::.&**=-;;;;;;;.::::",
"::::.**--;;;;;;;;.::::",
"::::.=-;;;;;;;;;;.::::",
"::::..............::::",
"::::::::::::::::::::::",
"::::::::::::::::::::::",
"::::::::::::::::::::::"
};
