/* XPM */
static char * error_next_xpm[] = {
"22 22 3 1",
" 	c None",
".	c #000000",
"+	c #FF0000",
"                      ",
"                      ",
"                      ",
"                      ",
"           .          ",
"           ..         ",
"           ...        ",
"           ....       ",
"      +++++.....      ",
"      ++++++.....     ",
"      +++++++.....    ",
"      ++++++.....     ",
"      +++++.....      ",
"           ....       ",
"           ...        ",
"           ..         ",
"           .          ",
"                      ",
"                      ",
"                      ",
"                      ",
"                      "};
