/* XPM */
static char *magick[] = {
/* columns rows colors chars-per-pixel */
"22 22 23 1",
"  c black",
". c #394248",
"X c #b72618",
"o c #95989b",
"O c #b1b5b8",
"+ c #b6babc",
"@ c #babdc0",
"# c #bdc1c3",
"$ c #c0c0c0",
"% c #c2c5c8",
"& c #c6c9cc",
"* c #cbcecf",
"= c #cbced0",
"- c #cfd2d4",
"; c #d0d2d4",
": c #d4d6d8",
"> c #dadcdd",
", c #e2e4e5",
"< c #eaecec",
"1 c #eeeff0",
"2 c #f4f4f5",
"3 c #fefefe",
"4 c None",
/* pixels */
"4444444444444444444444",
"4444444444444444444444",
"4444444444444444444444",
"4444...........4444444",
"4444.OOOOOOOO+.o444444",
"4444.OOOOOO+O+.oo44444",
"4444.OOOOO++$%....4444",
"4444.OO+++#%&*;:>.4444",
"4444.+++$%&=;:>>>.4444",
"4444.@$%&=;:>>,,<.4444",
"4444.%XXXXXXXXXX2.4444",
"4444.=X        X3.4444",
"4444.:XXXXXXXXXX3.4444",
"4444.,,,<12233333.4444",
"4444.,<        33.4444",
"4444.<22      333.4444",
"4444.2333    3333.4444",
"4444.33333  33333.4444",
"4444..............4444",
"4444444444444444444444",
"4444444444444444444444",
"4444444444444444444444"
};
