/* XPM */
static char *magick[] = {
/* columns rows colors chars-per-pixel */
"22 22 22 1",
"  c black",
". c #394248",
"X c #b72618",
"o c #95989b",
"O c #b1b5b8",
"+ c #b6babc",
"@ c #babdc0",
"# c #bec1c4",
"$ c #c0c0c0",
"% c #c2c5c8",
"& c #c7c9cc",
"* c #cbced0",
"= c #cfd2d4",
"- c #d0d2d4",
"; c #d4d6d8",
": c #dadcdd",
"> c #e2e4e5",
", c #ebeced",
"< c #eeeff0",
"1 c #f4f4f5",
"2 c #fefefe",
"3 c None",
/* pixels */
"3333333333333333333333",
"3333333333333333333333",
"3333333333333333333333",
"3333...........3333333",
"3333.+OOOOOOO+.o333333",
"3333.OOOOO  ++.oo33333",
"3333.OOOO    %....3333",
"3333.OOO      ;;:.3333",
"3333.++        ::.3333",
"3333.+#%&*-;;>>>,.3333",
"3333.%XXXXXXXXXX1.3333",
"3333.*X        X2.3333",
"3333.;XXXXXXXXXX2.3333",
"3333.:>,,,1122222.3333",
"3333.>,,112222222.3333",
"3333.,<1222222222.3333",
"3333.112222222222.3333",
"3333.222222222222.3333",
"3333..............3333",
"3333333333333333333333",
"3333333333333333333333",
"3333333333333333333333"
};
