/* XPM */
static char * exec_xpm[] = {
"22 22 23 1",
" 	c None",
".	c #000000",
"+	c #ACA57B",
"@	c #B4AA7B",
"#	c #BDB283",
"$	c #B4AE83",
"%	c #BDB683",
"&	c #C5BA8B",
"*	c #C5BE8B",
"=	c #CDBE8B",
"-	c #C5B68B",
";	c #CDC294",
">	c #D5C694",
",	c #D5CA94",
"'	c #CDC694",
")	c #CDC28B",
"!	c #D5CE94",
"~	c #D5CE9C",
"{	c #8B8162",
"]	c #C5B683",
"^	c #83795A",
"/	c #837D5A",
"(	c #7B7552",
"                      ",
"                      ",
"                      ",
"                      ",
"          ...         ",
"       . .++@. .      ",
"      .#..###..$.     ",
"     .%&***===*-#.    ",
"      .=;>>,,>'=.     ",
"     .&)>,!~~!,'..    ",
"    .#&)>!&{*~,>=].   ",
"    .#&)>,^#/~,'*%.   ",
"    .#&)>,>(),,;&#.   ",
"     ..=',,'>,'=..    ",
"      .*)''>';=&.     ",
"     .%&*=)=*&-#@.    ",
"      .%..&&%..@.     ",
"       . .##$. .      ",
"          ...         ",
"                      ",
"                      ",
"                      "};
