/* XPM */
static char *magick[] = {
/* columns rows colors chars-per-pixel */
"22 22 22 1",
"  c gray29",
". c #006eaa",
"X c #b72618",
"o c #bbbbbb",
"O c #c0c0bf",
"+ c #c0c0c0",
"@ c #c7c7c8",
"# c #cbcbcb",
"$ c #d0cfcf",
"% c #d3d3d3",
"& c #d7d8d7",
"* c #dbdbdb",
"= c #dfe0df",
"- c #dfe0e0",
"; c #e3e3e3",
": c #e7e8e7",
"> c #e8e7e7",
", c #ececec",
"< c #f3f3f3",
"1 c #f7f8f7",
"2 c #fdfdfd",
"3 c None",
/* pixels */
"3333333333333333333333",
"3333333333333333333333",
"3333333333333333333333",
"333                333",
"333 .............. 333",
"333 .............. 333",
"333                333",
"333 ooooO@@##%&**- 333",
"333 oo++@@$%%**-;> 333",
"333 ++@##X%&*-;>,, 333",
"333 @@#$%XX-->,,<1 333",
"333 #$%&*XXX>,<<<2 333",
"333 %&**-XXXX<<222 333",
"333 ***>>XXXX22222 333",
"333 *;>>,XXX222222 333",
"333 >,,<1XX2222222 333",
"333 ,<<11X22222222 333",
"333 <1122222222222 333",
"333                333",
"3333333333333333333333",
"3333333333333333333333",
"3333333333333333333333"
};
