/* XPM */
static char * execute_xpm[] = {
"22 22 65 1",
" 	c None",
".	c #000000",
"+	c #AEAEAD",
"@	c #ADADAC",
"#	c #A1A19F",
"$	c #01A8AD",
"%	c #00ADB2",
"&	c #00A3A7",
"*	c #009799",
"=	c #008D8E",
"-	c #037C7C",
";	c #B3B3B2",
">	c #A6A6A5",
",	c #AAAAA9",
"'	c #BABAB0",
")	c #BBBBAF",
"!	c #BCBBAF",
"~	c #BCBBAE",
"{	c #BBBBAE",
"]	c #BBBAAD",
"^	c #BBBAAC",
"/	c #B9B8AC",
"(	c #B1B1AE",
"_	c #FEFCB7",
":	c #FDFCBA",
"<	c #FEFDB8",
"[	c #FEFCB5",
"}	c #FDFCB9",
"|	c #FEFCB4",
"1	c #BFBFBF",
"2	c #AAAAAA",
"3	c #B6B6B7",
"4	c #939169",
"5	c #FDFCB8",
"6	c #FEFCB6",
"7	c #C6C48D",
"8	c #C3C28E",
"9	c #969692",
"0	c #9D9D9C",
"a	c #92928C",
"b	c #CBCBCB",
"c	c #A6A6A8",
"d	c #B0B0B2",
"e	c #8A8962",
"f	c #B6B6B6",
"g	c #A9A9A9",
"h	c #B3B3B4",
"i	c #969696",
"j	c #8F8E67",
"k	c #ADADAD",
"l	c #969695",
"m	c #979798",
"n	c #898760",
"o	c #8E8D66",
"p	c #888760",
"q	c #C0C0C0",
"r	c #9F9F9D",
"s	c #B1B1B3",
"t	c #82815F",
"u	c #818171",
"v	c #9A9A9A",
"w	c #878561",
"x	c #8B8A61",
"y	c #8D8C63",
"z	c #8C8A61",
"                      ",
"                      ",
"                      ",
"   ................   ",
"   .+@#.$%&*=-.;>,.   ",
"   ................   ",
"   .')!!~~~{]^^^/(.   ",
"   .______________.   ",
"   ._:<_[_.....___.   ",
"   ._}_[|_.123.4__.   ",
"   ._567_8.2.90.__.   ",
"   ._..a...bcd.e__.   ",
"   ._.fgh...i..j__.   ",
"   ._.k.lm.n.op___.   ",
"   ._.qrs.t_______.   ",
"   ._u.v..w_______.   ",
"   .__x.yz________.   ",
"   .______________.   ",
"   ................   ",
"                      ",
"                      ",
"                      "};
