/* XPM */
static char *file_html_xpm[] = {
/* columns rows colors chars-per-pixel */
"17 17 18 1",
"  c #002e4b",
". c gray29",
"X c gray61",
"o c #bababa",
"O c #c0c0c0",
"+ c #c7c8c8",
"@ c #cbcbcb",
"# c #cfd0d0",
"$ c #d0cfcf",
"% c #d3d3d3",
"& c #dcdcdc",
"* c #e4e4e3",
"= c #ebebeb",
"- c #eff0ef",
"; c #f3f3f3",
": c #f7f8f7",
"> c #fefefe",
", c None",
/* pixels */
",............,,,,",
",.oooooooooO.X,,,",
",.oooooooO+@.XX,,",
",.ooooooo@@%....,",
",.ooooO+@$%%**=.,",
",.oooO+@$&&**=-.,",
",.oo+@@%&&*=-;:.,",
",.O+@$ && =;;:>.,",
",.+@   *=   >>>.,",
",.$   *==;   >>.,",
",.   *=-::>   >.,",
",.*   ;:>>   >>.,",
",.*=   >>   >>>.,",
",.=;:> >> >>>>>.,",
",.::>>>>>>>>>>>.,",
",.>>>>>>>>>>>>>.,",
",...............,"
};
