/* XPM */
static char *file_icon_xpm[] = {
/* width height num_colors chars_per_pixel */
"    17    17      5            1",
/* colors */
"  c None",
"X c #000000",
"r c #ff0000",
"b c #00ff00",
"g c #0000ff",
/* pixels */
"                 ",
"XXXXXXXXXXXXXXXX ",
"X              X ",
"X      rr      X ",
"X     rrrr     X ",
"X     rrrr     X ",
"X      rr   g  X ",
"X          gg  X ",
"X  bbbb   ggg  X ",
"X  bbbb  gggg  X ",
"X  bbbb   ggg  X ",
"X  bbbb    gg  X ",
"X           g  X ",
"X              X ",
"XXXXXXXXXXXXXXXX ",
"                 ",
"                 "
};
