/* XPM */
static char * file_cpp_xpm[] = {
"16 16 26 1",
" 	c None",
".	c #000000",
"+	c #FFFFFF",
"@	c #A9ACAF",
"#	c #1C1A1B",
"$	c #B1B4B7",
"%	c #BEC0C3",
"&	c #D0D2D3",
"*	c #E2E4E5",
"=	c #AFB2B4",
"-	c #CDCFD0",
";	c #E1E2E3",
">	c #F1F2F3",
",	c #CBCDCF",
"'	c #DFE0E2",
")	c #EDEDEE",
"!	c #ADB0B2",
"~	c #BABCBF",
"{	c #EFEFF0",
"]	c #FBFCFB",
"^	c #B9BBBE",
"/	c #DCDDDF",
"(	c #D8DADB",
"_	c #F9F8F9",
":	c #E9EAEB",
"<	c #F8F7F8",
"                ",
"                ",
"   ........     ",
"   .++++++.     ",
"   .+@##@$...   ",
"   .+#@@$%&*.   ",
"   .+#@=%-;>.   ",
"   .+@##,')+.   ",
"   .+!~,'{]+.   ",
"   .+^#/)#++.   ",
"   .+######+.   ",
"   .+(#_+#++.   ",
"   .+:<+++++.   ",
"   ..........   ",
"                ",
"                "};
