/* XPM */
static char * file_i18n_xpm[] = {
"16 16 35 1",
" 	c None",
".	c #1C1A1B",
"+	c #901F36",
"@	c #93253B",
"#	c #9C374B",
"$	c #A85061",
"%	c #B66B7A",
"&	c #C48894",
"*	c #D3A7B0",
"=	c #982F44",
"-	c #A34457",
";	c #AF5F6F",
">	c #BE7B89",
",	c #CD9AA4",
"'	c #DCB7BF",
")	c #94273E",
"!	c #9E3B4F",
"~	c #A95365",
"{	c #B76F7E",
"]	c #C68D99",
"^	c #D6ABB3",
"/	c #E3C7CD",
"(	c #912137",
"_	c #9A3247",
":	c #A4485B",
"<	c #B16373",
"[	c #C0808D",
"}	c #CF9EA8",
"|	c #DDBBC2",
"1	c #EBD6DB",
"2	c #BA7382",
"3	c #C8929C",
"4	c #D7AFB7",
"5	c #E5CBD1",
"6	c #F1E4E7",
"                ",
"                ",
"   ....         ",
"   .+++......   ",
"   .++@#$%&*.   ",
"   .++=-;>,'.   ",
"   .+)!~{]^/.   ",
"   .(_:<[}|1.   ",
"   ....23456.   ",
"   .   ......   ",
"   .            ",
"   .            ",
"   .            ",
"   .            ",
"                ",
"                "};
