/* XPM */
static char * file_file_xpm[] = {
"16 16 17 1",
" 	c None",
".	c #1E281E",
"+	c #564D3C",
"@	c #253225",
"#	c #222D22",
"$	c #1D271D",
"%	c #040604",
"&	c #C4B291",
"*	c #F5DEB3",
"=	c #000000",
"-	c #2C3B2C",
";	c #050805",
">	c #897A5F",
",	c #2B3A2B",
"'	c #334533",
")	c #344534",
"!	c #030403",
"                ",
"   .+++++@#$    ",
"  %+&****=*&-   ",
"  ;>*****=**&,  ",
"  ;>*****=+**'  ",
"  ;>*******==)  ",
"  ;>*********+  ",
"  ;>*=====***>  ",
"  ;>**===****>  ",
"  ;>*********>  ",
"  ;>*=====***>  ",
"  ;>**===****>  ",
"  ;>*********>  ",
"  ;>*********>  ",
"  !+>>>>>>>>>+  ",
"                "};
