/* XPM */
static char *file_cpp_xpm[] = {
/* columns rows colors chars-per-pixel */
"16 16 25 1",
"  c #0c447b",
". c #394248",
"X c #95989b",
"o c #b1b5b8",
"O c #b5b9bc",
"+ c #b8bbbe",
"@ c #babec0",
"# c #bdc1c3",
"$ c #c0c0c0",
"% c #c5c7ca",
"& c #c5c8ca",
"* c #c8cbcd",
"= c #ccced0",
"- c #d2d4d6",
"; c #d6d8da",
": c #d9dbdd",
"> c #dddfe0",
", c #e2e3e4",
"< c #e7e8e9",
"1 c #ebeced",
"2 c #efeff0",
"3 c #eef0f0",
"4 c #f4f4f4",
"5 c #fdfdfd",
"6 c None",
/* pixels */
"6...........6666",
"6.oooooO+@#.X666",
"6.oooO+###&.XX66",
"6.oO+@#$&*=....6",
"6.++$%&**--;:>.6",
"6.$%&   -;::,,.6",
"6.&*     ,, <1.6",
"6.*   :> ,   4.6",
"6.-  >,,<13 44.6",
"6.:  ,<1144455.6",
"6.,  114455 55.6",
"6.<   45 5   5.6",
"6.34     55 55.6",
"6.445   555555.6",
"6.555555555555.6",
"6..............6"
};
