/* XPM */
static char * fv_text_xpm[] = {
"16 16 73 1",
" 	c None",
".	c #585858",
"+	c #3D3D3D",
"@	c #464646",
"#	c #5F5F5E",
"$	c #80807F",
"%	c #AFAFAF",
"&	c #B1B1B0",
"*	c #6B6B6A",
"=	c #636363",
"-	c #A0A0A0",
";	c #9B9B9B",
">	c #B0B0B0",
",	c #ADADAC",
"'	c #ACACAC",
")	c #A9A9A8",
"!	c #181818",
"~	c #919190",
"{	c #777777",
"]	c #787F86",
"^	c #9AA8A8",
"/	c #848F82",
"(	c #919079",
"_	c #979796",
":	c #656565",
"<	c #6D6D6D",
"[	c #818384",
"}	c #9BB0B3",
"|	c #F4F5D2",
"1	c #E7E7C3",
"2	c #CAC490",
"3	c #737161",
"4	c #A0A09F",
"5	c #1E1E1E",
"6	c #7E7E7E",
"7	c #959DA5",
"8	c #4D81B3",
"9	c #9CAD99",
"0	c #BDB287",
"a	c #5D6D6F",
"b	c #37444A",
"c	c #8D8D8D",
"d	c #7F7F7F",
"e	c #717171",
"f	c #BBBDC0",
"g	c #3A6491",
"h	c #AFB197",
"i	c #767E6E",
"j	c #274155",
"k	c #2E3D48",
"l	c #C5C5C4",
"m	c #3B3B3B",
"n	c #393939",
"o	c #555555",
"p	c #000000",
"q	c #1A2833",
"r	c #56595A",
"s	c #B7B7B7",
"t	c #CDCDCD",
"u	c #A1A1A1",
"v	c #AAAAAA",
"w	c #B8B8B8",
"x	c #D3D3D3",
"y	c #747474",
"z	c #141414",
"A	c #606060",
"B	c #A7A7A7",
"C	c #A3A3A3",
"D	c #B5B5B5",
"E	c #727272",
"F	c #646464",
"G	c #F4F4F4",
"H	c #525252",
"                ",
"                ",
"        .+      ",
"    @#$%&*      ",
"   =-;>,')!     ",
"   ~{]^/(_:     ",
"   <[}|12345    ",
"   67890abcd    ",
"   efghijk~lm   ",
"  nneoepqrstu   ",
"  oeoovnowxyzp  ",
"    AvBCDEzpp   ",
"    FG%Hppp     ",
"     pppp       ",
"                ",
"                "};
