/* XPM */
static char * file_i18n_xpm[] = {
"16 16 14 1",
" 	c None",
".	c #808080",
"+	c #000000",
"@	c #FFFFFF",
"#	c #C0C0C0",
"$	c #800000",
"%	c #008000",
"&	c #FF0000",
"*	c #FF00FF",
"=	c #008080",
"-	c #0000FF",
";	c #808000",
">	c #FFFF00",
",	c #000080",
"        ...     ",
"      ..+@#..   ",
"    $$@%++@#@.  ",
"  $$&*.$+#%=#@. ",
"  +&&+@&+#-%@#. ",
"  ;;&++&+#%-#@#.",
"+;>@;+#&+#==-#=.",
"+;>@>+#&+##---%.",
"+;>@>+#++#---%. ",
"+;++>+# +#---=. ",
"++  ++# +#,--.  ",
"    ++# +#,+.   ",
"     +# +#+     ",
"     +# +#      ",
"     +# +#      ",
"                "};
