/* XPM */
static char *file_cpp_xpm[] = {
/* columns rows colors chars-per-pixel */
"16 16 31 1",
"  c black",
". c #1c1a1b",
"X c #a9acaf",
"o c #adb0b2",
"O c #afb2b4",
"+ c #b0b3b5",
"@ c #b1b4b7",
"# c #b9bbbe",
"$ c #babcbf",
"% c #bdc0c1",
"& c #bec0c3",
"* c #cbcdcf",
"= c #cdcfd0",
"- c #ced0d2",
"; c #d0d2d3",
": c #d8dadb",
"> c #dcdddf",
", c #dddfe0",
"< c #dfe0e2",
"1 c #e1e2e3",
"2 c #e2e4e5",
"3 c #e9eaeb",
"4 c #ededee",
"5 c #efeff0",
"6 c #f0f0f1",
"7 c #f1f2f3",
"8 c #f8f7f8",
"9 c #f9f8f9",
"0 c #fbfcfb",
"q c #fdfdfc",
"w c white",
/* pixels */
"wwwwwwwwwwwwwwww",
"wwwwwwwwwwwwwwww",
"www        wwwww",
"www wwwwww wwwww",
"www wX..X@   www",
"www w.XX@&;2 www",
"www w.XO&=17 www",
"www wX..*<4w www",
"www wo$*<50w www",
"www w#.>4.ww www",
"www w......w www",
"www w:.9w.ww www",
"www w38wwwww www",
"www          www",
"wwwwwwwwwwwwwwww",
"wwwwwwwwwwwwwwww"
};
