/* XPM */
static char *file_icon_xpm[] = {
/* columns rows colors chars-per-pixel */
"17 17 18 1",
"  c #005f43",
". c gray29",
"X c #005286",
"o c #3e7ca3",
"O c #ab231b",
"+ c gray61",
"@ c #bababa",
"# c #c0c0c0",
"$ c #cbcbcb",
"% c #cfd0cf",
"& c #d4d4d4",
"* c #dbdbdb",
"= c #e3e3e3",
"- c #e7e8e7",
"; c #ebeceb",
": c #f3f3f3",
"> c #fefefe",
", c None",
/* pixels */
",............,,,,",
",.@@@@@@@@@#.+,,,",
",.@@@@@@@@##.++,,",
",.@@@@@@@#$$....,",
",.@@@@# #$%&**=.,",
",.@@@#   &&**=-.,",
",.@@#     *=-;;.,",
",.#$$%&&*==-;::.,",
",.$$&&**=-;:::>.,",
",.&&&*=-;;:::>>.,",
",.&OOOO;::oo>>>.,",
",.*OOOO;:oXXo>>.,",
",.-OOOO>>oXXo>>.,",
",.-OOOO>>>oo>>>.,",
",.::>>>>>>>>>>>.,",
",.>>>>>>>>>>>>>.,",
",...............,"
};
