/* XPM */
static char * file_h_xpm[] = {
"16 16 27 1",
" 	c None",
".	c #000000",
"+	c #FFFFFF",
"@	c #A9ACAF",
"#	c #B1B4B7",
"$	c #BEC0C3",
"%	c #D0D2D3",
"&	c #E2E4E5",
"*	c #1C1A1B",
"=	c #AFB2B4",
"-	c #CDCFD0",
";	c #E1E2E3",
">	c #F1F2F3",
",	c #BCBDC0",
"'	c #C8CACC",
")	c #DFE0E2",
"!	c #EDEDEE",
"~	c #ADB0B2",
"{	c #FBFCFB",
"]	c #B9BBBE",
"^	c #DCDDDF",
"/	c #EBEDED",
"(	c #D8DADB",
"_	c #EAEBEC",
":	c #F9F8F9",
"<	c #E9EAEB",
"[	c #F8F7F8",
"                ",
"                ",
"   ........     ",
"   .++++++.     ",
"   .+@@@@#...   ",
"   .+@@@#$%&.   ",
"   .+@*=$-;>.   ",
"   .+@*,')!+.   ",
"   .+~***>{+.   ",
"   .+]*^!*++.   ",
"   .+'*/{*++.   ",
"   .+(_:++++.   ",
"   .+<[+++++.   ",
"   ..........   ",
"                ",
"                "};
