/* XPM */
static char *file_file_xpm[] = {
/* columns rows colors chars-per-pixel */
"16 16 25 1",
"  c black",
". c #394248",
"X c #95989b",
"o c #b1b5b8",
"O c #b5b9bc",
"+ c #b8bbbe",
"@ c #babec0",
"# c #bdc1c3",
"$ c #c0c0c0",
"% c #c5c7ca",
"& c #c5c8ca",
"* c #c8cbcd",
"= c #ccced0",
"- c #cfd2d3",
"; c #d2d4d6",
": c #d6d8da",
"> c #d9dbdd",
", c #dddfe0",
"< c #e2e3e4",
"1 c #e7e8e9",
"2 c #ebeced",
"3 c #eef0f0",
"4 c #f4f4f5",
"5 c #fdfdfd",
"6 c None",
/* pixels */
"6...........6666",
"6.oooooO+@#.X666",
"6.oooO++#%%.XX66",
"6.oO+@#%&**....6",
"6.+      ;;>:<.6",
"6.$%%**;;:>><<.6",
"6.&         12.6",
"6.*;;:>,<<1234.6",
"6.;         44.6",
"6.>,<<12344555.6",
"6.<         55.6",
"6.122445555555.6",
"6.2    5555555.6",
"6.455555555555.6",
"6.555555555555.6",
"6..............6"
};
