/* XPM */
static char *file_h_xpm[] = {
/* columns rows colors chars-per-pixel */
"16 16 33 1",
"  c black",
". c #1c1a1b",
"X c #a9acaf",
"o c #adb0b2",
"O c #afb2b4",
"+ c #b0b3b5",
"@ c #b1b4b7",
"# c #b9bbbe",
"$ c #bcbdc0",
"% c #bdc0c1",
"& c #bec0c3",
"* c #c8cacc",
"= c #cdcfd0",
"- c #ced0d2",
"; c #d0d2d3",
": c #d8dadb",
"> c #dcdddf",
", c #dfe0e2",
"< c #e1e2e3",
"1 c #e2e4e5",
"2 c #e9eaeb",
"3 c #eaebec",
"4 c #ebeded",
"5 c #ededee",
"6 c #efeff0",
"7 c #f0f0f1",
"8 c #f1f2f3",
"9 c #f8f7f8",
"0 c #f9f8f9",
"q c #f9fafa",
"w c #fbfcfb",
"e c #fdfdfc",
"r c white",
/* pixels */
"rrrrrrrrrrrrrrrr",
"rrrrrrrrrrrrrrrr",
"rrr        rrrrr",
"rrr rrrrrr rrrrr",
"rrr rXXXX@   rrr",
"rrr rXXX@&;1 rrr",
"rrr rX.O&=<8 rrr",
"rrr rX.$*,5r rrr",
"rrr ro...8wr rrr",
"rrr r#.>5.rr rrr",
"rrr r*.4w.rr rrr",
"rrr r:30rrrr rrr",
"rrr r29rrrrr rrr",
"rrr          rrr",
"rrrrrrrrrrrrrrrr",
"rrrrrrrrrrrrrrrr"
};
