/* XPM */
static char *file_file_xpm[] = {
/* columns rows colors chars-per-pixel */
"16 16 26 1",
"  c black",
". c #4b4c4f",
"X c #a9acaf",
"o c #adb0b2",
"O c #afb2b4",
"+ c #b1b4b7",
"@ c #babcbf",
"# c #bdc0c1",
"$ c #bec0c3",
"% c #c8cacc",
"& c #cbcdcf",
"* c #ced0d2",
"= c #d0d2d3",
"- c #dadbdc",
"; c #dddfe0",
": c #e1e2e3",
"> c #e2e4e5",
", c #e9eaeb",
"< c #ebeded",
"1 c #efeff0",
"2 c #f1f2f3",
"3 c #f8f7f8",
"4 c #f9fafa",
"5 c #fbfcfb",
"6 c #fdfdfc",
"7 c white",
/* pixels */
"7777777777777777",
"7777777777777777",
"777        77777",
"777 777777 77777",
"777 7XXXX+   777",
"777 7....$*: 777",
"777 7XXO#*:2 777",
"777 7......7 777",
"777 7o@&;257 777",
"777 7......7 777",
"777 7%-<4777 777",
"777 7......7 777",
"777 7,377777 777",
"777          777",
"7777777777777777",
"7777777777777777"
};
