/* XPM */
static char *file_html_xpm[] = {
/* columns rows colors chars-per-pixel */
"16 16 31 1",
"  c black",
". c #1c1a1b",
"X c #a9acaf",
"o c #b1b4b7",
"O c #babcbf",
"+ c #bcbdc0",
"@ c #bdc0c1",
"# c #bec0c3",
"$ c #c8cacc",
"% c #cbcdcf",
"& c #cdcfd0",
"* c #ced0d2",
"= c #d0d2d3",
"- c #d8dadb",
"; c #dcdddf",
": c #dddfe0",
"> c #dfe0e2",
", c #e1e2e3",
"< c #e2e4e5",
"1 c #e9eaeb",
"2 c #eaebec",
"3 c #ededee",
"4 c #efeff0",
"5 c #f0f0f1",
"6 c #f1f2f3",
"7 c #f8f7f8",
"8 c #f9fafa",
"9 c #fafbfb",
"0 c #fbfcfb",
"q c #fdfdfc",
"w c white",
/* pixels */
"wwwwwwwwwwwwwwww",
"wwwwwwwwwwwwwwww",
"www        wwwww",
"www wwwwww wwwww",
"www wXXXXo   www",
"www wXX..#=< www",
"www wX..#*,6 www",
"www w..+%>3w www",
"www w.O%>40w www",
"www w..;30ww www",
"www w$..8www www",
"www w-2..www www",
"www w17wwwww www",
"www          www",
"wwwwwwwwwwwwwwww",
"wwwwwwwwwwwwwwww"
};
