/* XPM */
static char *file_h_xpm[] = {
/* columns rows colors chars-per-pixel */
"16 16 16 1",
"  c #002e4b",
". c gray29",
"X c gray61",
"o c #bababa",
"O c #c0c0c0",
"+ c #c7c7c8",
"@ c #c7c8c8",
"# c #cccccc",
"$ c #d3d3d3",
"% c #dbdbdb",
"& c #dfe0df",
"* c #e3e3e3",
"= c #ebebeb",
"- c #f3f3f3",
"; c #fdfdfd",
": c None",
/* pixels */
":...........::::",
":.ooooooooo.X:::",
":.oooooooo+.XX::",
":.ooooOOO+@....:",
":.ooO  @##$$%%.:",
":.O+@  #$$$%%%.:",
":.@@#  %$%&&**.:",
":.#$$  %&&**==.:",
":.$%%  &  =-=-.:",
":.%&&      --;.:",
":.&*=  --  -;;.:",
":.==-  -;  ;;;.:",
":.---  ;;  ;;;.:",
":.--;  ;;  ;;;.:",
":.;;;;;;;;;;;;.:",
":..............:"
};
