/* XPM */
static char * file_pix_xpm[] = {
"16 16 17 1",
" 	c None",
".	c #BAD9EC",
"+	c #96C5E2",
"@	c #2784BB",
"#	c #80B9DB",
"$	c #2989C3",
"%	c #FFF25E",
"&	c #13405C",
"*	c #CEE8E3",
"=	c #ADD9D0",
"-	c #516662",
";	c #68B6A3",
">	c #008464",
",	c #003E2F",
"'	c #007055",
")	c #003327",
"!	c #00251C",
"                ",
"                ",
"  .++++++++++@  ",
"  #$$$$$$$%$$&  ",
"  #$$$$$$%%%$&  ",
"  #$$$$$$$%$$&  ",
"  #$$$$$$$$$$&  ",
"  #$$$$$$$$$$&  ",
"  *==========-  ",
"  ;>>>>>>>>>>,  ",
"  ;>>>>>>>>>>,  ",
"  ;>>>>>>>>>>,  ",
"  ;>>>>>>>>>>,  ",
"  '))))))))))!  ",
"                ",
"                "};
