/* XPM */
static char *file_icon_xpm[] = {
/* columns rows colors chars-per-pixel */
"16 16 20 1",
"  c black",
". c #002d5f",
"X c #005d47",
"o c #6f1814",
"O c #a9acaf",
"+ c #adb0b2",
"@ c #b1b4b7",
"# c #b9bbbe",
"$ c #babcbf",
"% c #c8cacc",
"& c #c9cbce",
"* c #d8dadb",
"= c #e2e4e5",
"- c #e9eaeb",
"; c #f1f2f3",
": c #f8f7f8",
"> c #fafbfb",
", c #fbfcfb",
"< c #fdfdfc",
"1 c white",
/* pixels */
"1111111111111111",
"1111111111111111",
"111        11111",
"111 111111 11111",
"111 1111O@   111",
"111 1XX1111= 111",
"111 1XX11o1; 111",
"111 1111ooo1 111",
"111 1+$11o>1 111",
"111 1#&11>11 111",
"111 1&11.111 111",
"111 1*1...11 111",
"111 1-:11111 111",
"111          111",
"1111111111111111",
"1111111111111111"
};
