/* XPM */
static char * file_h_xpm[] = {
"16 16 55 1",
" 	c None",
".	c #070907",
"+	c #608060",
"@	c #7AA37A",
"#	c #7AA27A",
"$	c #729872",
"%	c #202B20",
"&	c #597659",
"*	c #1A231A",
"=	c #0B0F0B",
"-	c #97C997",
";	c #FFFF00",
">	c #F4FC17",
",	c #334433",
"'	c #81AC81",
")	c #7FA97F",
"!	c #192119",
"~	c #2D3C2D",
"{	c #384A38",
"]	c #465D46",
"^	c #425842",
"/	c #0E130E",
"(	c #E0F747",
"_	c #88B688",
":	c #99CC99",
"<	c #111611",
"[	c #597759",
"}	c #283528",
"|	c #263326",
"1	c #A1D6A1",
"2	c #A7DFA7",
"3	c #1E271E",
"4	c #3F553F",
"5	c #030403",
"6	c #A4DBA4",
"7	c #567356",
"8	c #B2EDB2",
"9	c #000000",
"0	c #93C393",
"a	c #1F291F",
"b	c #4F694F",
"c	c #A8E0A8",
"d	c #8AB88A",
"e	c #6C906C",
"f	c #6C8F6C",
"g	c #87B487",
"h	c #80AA80",
"i	c #95C795",
"j	c #DFF746",
"k	c #273427",
"l	c #040504",
"m	c #364836",
"n	c #445B44",
"o	c #475E47",
"p	c #405540",
"                ",
"  .+@###$%&*    ",
"  =-;;;;>,;'*   ",
"  =-;;;;>,;;)!  ",
"  =-;;;;>~{]^/  ",
"  =-;;;(;_@#$!  ",
"  =-;:<[;;;;>}  ",
"  =-;;|[12;;>}  ",
"  =-;;|3456;;}  ",
"  =-;;|7890;>}  ",
"  =-;;abc9d;>}  ",
"  =-;1efgeh;>}  ",
"  =-;;;;;;;;>}  ",
"  =i;;;;;;;;jk  ",
"  lmnnnnnnonp/  ",
"                "};
