/* XPM */
static char * file_c_xpm[] = {
"16 16 27 1",
" 	c None",
".	c #000000",
"+	c #FFFFFF",
"@	c #A9ACAF",
"#	c #B1B4B7",
"$	c #4B4C4F",
"%	c #BEC0C3",
"&	c #D0D2D3",
"*	c #E2E4E5",
"=	c #AFB2B4",
"-	c #BDC0C1",
";	c #CED0D2",
">	c #F1F2F3",
",	c #CBCDCF",
"'	c #E1E2E3",
")	c #EAEBEC",
"!	c #ADB0B2",
"~	c #BABCBF",
"{	c #FBFCFB",
"]	c #B9BBBE",
"^	c #C9CBCE",
"/	c #FAFBFB",
"(	c #DADBDC",
"_	c #D8DADB",
":	c #F9F8F9",
"<	c #E9EAEB",
"[	c #F8F7F8",
"                ",
"                ",
"   ........     ",
"   .++++++.     ",
"   .+@..@#...   ",
"   .+.$@#%&*.   ",
"   .+.$=-;*>.   ",
"   .+@..,')+.   ",
"   .+!~,..{+.   ",
"   .+]^.$/++.   ",
"   .+^(.$+++.   ",
"   .+_):..++.   ",
"   .+<[+++++.   ",
"   ..........   ",
"                ",
"                "};
