/* XPM */
static char * file_c_xpm[] = {
"16 16 75 1",
" 	c None",
".	c #1E281E",
"+	c #395440",
"@	c #3D5F49",
"#	c #3B5C47",
"$	c #253225",
"%	c #222D22",
"&	c #1D271D",
"*	c #040604",
"=	c #416B54",
"-	c #57D8B2",
";	c #55DBB4",
">	c #55DAB4",
",	c #56DAB4",
"'	c #000000",
")	c #4A7F64",
"!	c #4D9E7F",
"~	c #2B3E2E",
"{	c #050805",
"]	c #468469",
"^	c #48E2BE",
"/	c #4EA283",
"(	c #50E0BA",
"_	c #4CB796",
":	c #2A3C2D",
"<	c #456B52",
"[	c #4EAA8A",
"}	c #4FA686",
"|	c #334635",
"1	c #56C6A1",
"2	c #344534",
"3	c #3DC2A3",
"4	c #29816C",
"5	c #2C8B75",
"6	c #3BB295",
"7	c #54D2AD",
"8	c #487F64",
"9	c #309980",
"0	c #081915",
"a	c #3AB79A",
"b	c #3CBE9F",
"c	c #0C2721",
"d	c #3FC8A8",
"e	c #4C9779",
"f	c #47E1BD",
"g	c #071713",
"h	c #206756",
"i	c #34A58B",
"j	c #42CFAE",
"k	c #4B9879",
"l	c #44D5B3",
"m	c #287E6A",
"n	c #0A221C",
"o	c #1B5749",
"p	c #43D4B2",
"q	c #39B497",
"r	c #0A211C",
"s	c #216857",
"t	c #287F6B",
"u	c #194F42",
"v	c #3EC5A6",
"w	c #47E0BC",
"x	c #3CBEA0",
"y	c #3DC0A1",
"z	c #478367",
"A	c #49E2BD",
"B	c #4C9778",
"C	c #030403",
"D	c #344F3D",
"E	c #54A584",
"F	c #54B18F",
"G	c #54B391",
"H	c #54B290",
"I	c #54AF8D",
"J	c #3B5D48",
"                ",
"   .+@@@#$%&    ",
"  *=-;>>,')!~   ",
"  {]^^^^^'/(_:  ",
"  {]^^^^^'<[}|  ",
"  {]^^^^^1'''2  ",
"  {]^^34567;,8  ",
"  {]^90abcd^^e  ",
"  {]fgh^^ij^^k  ",
"  {]l'm^^^^^^k  ",
"  {]^no^^pq^^e  ",
"  {]^qrstuv^^e  ",
"  {]^^wxyf^^^e  ",
"  {zA^^^^^^^^B  ",
"  CDEFFFFFGHIJ  ",
"                "};
