/* XPM */
static char * file_cpp_xpm[] = {
"16 16 39 1",
" 	c None",
".	c #1E281E",
"+	c #3C503C",
"@	c #425842",
"#	c #405540",
"$	c #253225",
"%	c #222D22",
"&	c #1D271D",
"*	c #040604",
"=	c #496149",
"-	c #82C182",
";	c #00FF00",
">	c #000000",
",	c #638463",
"'	c #2C3B2C",
")	c #050805",
"!	c #577457",
"~	c #00FE00",
"{	c #749A74",
"]	c #2B3A2B",
"^	c #4A634A",
"/	c #334533",
"(	c #344534",
"_	c #557155",
":	c #02FE02",
"<	c #668766",
"[	c #03FD03",
"}	c #567456",
"|	c #04FE04",
"1	c #658665",
"2	c #030403",
"3	c #374A37",
"4	c #6D936D",
"5	c #6FA46F",
"6	c #71A371",
"7	c #6CA66C",
"8	c #6DA56D",
"9	c #749D74",
"0	c #415641",
"                ",
"   .+@@@#$%&    ",
"  *=-;;;;>;,'   ",
"  )!;;;;~>;;{]  ",
"  )!;;;;;>^;;/  ",
"  )!;;;;;;;>>(  ",
"  )!;;;;;;>;;_  ",
"  )!;>>;;>>>:<  ",
"  )!>;;>;;>;;<  ",
"  )!>;;;;;;;[<  ",
"  )!>;;>;;>;:<  ",
"  )!;>>;;>>>:<  ",
"  )!;;;;;;>;:<  ",
"  )};;;;;;;;|1  ",
"  234556657890  ",
"                "};
