/* XPM */
static char * find_replace_xpm[] = {
"22 22 5 1",
" 	c None",
".	c #000000",
"+	c #0000FF",
"@	c #FFFFFF",
"#	c #C0C0C0",
"                      ",
"                      ",
"                      ",
"                      ",
"     ....+++++++      ",
"     .@@@@@++@@++     ",
"     .@@@@@++@@++     ",
"     .@@@@@++@@++     ",
"     .@@@@@++++       ",
"     .@@...++@++      ",
"     .@..@@++@@++     ",
"     .@.@@@++@@+++    ",
"     .@.@+++++@.++    ",
"     .@#.@@@..@.      ",
"     .@@#....@..      ",
"     .@@@@@@@.@.      ",
"     .@@@@@@@@.@.     ",
"     ...........@.    ",
"                .     ",
"                      ",
"                      ",
"                      "};
