/* XPM */
static char * find_xpm[] = {
"22 22 8 1",
" 	c None",
".	c #000000",
"+	c #FFFFFF",
"@	c #D3D3D3",
"#	c #800000",
"$	c #FF0000",
"%	c #B0C4DE",
"&	c #BEBEBE",
"                      ",
"                      ",
"                      ",
"     ........         ",
"     .++++++..        ",
"     .++++++.@.       ",
"     .+#++++....      ",
"     ++##++++++.      ",
"   #####$+++....      ",
"   #$$$$$#+.%%%%.     ",
"   #$$$$$$#%%%%%%.    ",
"   #$$$$$#.%%%%%%.    ",
"   #####$+.%%%%%%.    ",
"     ++##+.%%%%%%.    ",
"     .+#+++.%%%%.&    ",
"     .++++++....&..   ",
"     .+++++++++. ...  ",
"     ...........  ..  ",
"                      ",
"                      ",
"                      ",
"                      "};
