/* XPM */
static char * find_xpm[] = {
"22 22 156 2",
"  	c None",
". 	c #30302A",
"+ 	c #1D1D1A",
"@ 	c #3D3D34",
"# 	c #DDDDC7",
"$ 	c #000000",
"% 	c #343430",
"& 	c #41413B",
"* 	c #C6C6B1",
"= 	c #FFFFEA",
"- 	c #F4F4DD",
"; 	c #5C5C56",
"> 	c #3B3B34",
", 	c #5C5C50",
"' 	c #C3C3B0",
") 	c #F4F4DA",
"! 	c #E7E7D0",
"~ 	c #DFDFC4",
"{ 	c #EEEED7",
"] 	c #DFDFC8",
"^ 	c #383834",
"/ 	c #2B2B2B",
"( 	c #39393C",
"_ 	c #9B9B8D",
": 	c #F7F7DA",
"< 	c #E5E5CE",
"[ 	c #D9D9C2",
"} 	c #D7D7C1",
"| 	c #DBDBC3",
"1 	c #E2E2CA",
"2 	c #F8F8DD",
"3 	c #A0A092",
"4 	c #000003",
"5 	c #5A5A5A",
"6 	c #949494",
"7 	c #7F7F74",
"8 	c #E3E3C8",
"9 	c #D9D9C1",
"0 	c #D5D5BE",
"a 	c #DDDDC5",
"b 	c #E0E0C8",
"c 	c #EEEED6",
"d 	c #F2F2DA",
"e 	c #7A7A6F",
"f 	c #626262",
"g 	c #FFFFFF",
"h 	c #656564",
"i 	c #AAAA93",
"j 	c #E4E4CD",
"k 	c #EAEAD2",
"l 	c #FFFFE6",
"m 	c #FFFFFD",
"n 	c #FFFFFE",
"o 	c #FFFFF0",
"p 	c #FFFFF1",
"q 	c #DFDFC7",
"r 	c #3B3B33",
"s 	c #5C5C57",
"t 	c #69696A",
"u 	c #56564E",
"v 	c #D7D7C0",
"w 	c #CECEB8",
"x 	c #34342F",
"y 	c #59594E",
"z 	c #EEEED5",
"A 	c #626258",
"B 	c #777774",
"C 	c #CCCCC8",
"D 	c #51514B",
"E 	c #CBCBB2",
"F 	c #D4D4BD",
"G 	c #10100D",
"H 	c #88887A",
"I 	c #E6E6CA",
"J 	c #CBCBB4",
"K 	c #62625B",
"L 	c #3D3D38",
"M 	c #FCFCE0",
"N 	c #56564B",
"O 	c #2D2D24",
"P 	c #C6C6AF",
"Q 	c #FFFFEC",
"R 	c #3A3A34",
"S 	c #8E8E7C",
"T 	c #FFFFF2",
"U 	c #BBBBA6",
"V 	c #5A5A4F",
"W 	c #78786A",
"X 	c #FAFADE",
"Y 	c #35352D",
"Z 	c #2E2E2E",
"` 	c #D0D0C2",
" .	c #EEEED4",
"..	c #C7C7AF",
"+.	c #B4B49C",
"@.	c #AEAE9A",
"#.	c #AFAF9C",
"$.	c #505048",
"%.	c #3F3F36",
"&.	c #FFFFF7",
"*.	c #2A2A26",
"=.	c #32322F",
"-.	c #C2C2B3",
";.	c #EEEED2",
">.	c #FFFFED",
",.	c #AFAF9A",
"'.	c #EEEEDF",
").	c #ADAD98",
"!.	c #A6A693",
"~.	c #A3A391",
"{.	c #515149",
"].	c #5A5A51",
"^.	c #ECECD2",
"/.	c #8E8E7E",
"(.	c #0C0C0B",
"_.	c #5D5D52",
":.	c #F6F6DC",
"<.	c #FFFFE4",
"[.	c #6F6F65",
"}.	c #B5B5A4",
"|.	c #A9A996",
"1.	c #888878",
"2.	c #2B2B27",
"3.	c #8D8D7E",
"4.	c #3C3C37",
"5.	c #5B5B58",
"6.	c #DADAC5",
"7.	c #FBFBE1",
"8.	c #E6E6CD",
"9.	c #59594F",
"0.	c #53534A",
"a.	c #3F3F3B",
"b.	c #3F3F38",
"c.	c #4A4A47",
"d.	c #292923",
"e.	c #616157",
"f.	c #131317",
"g.	c #A6A697",
"h.	c #FCFCE2",
"i.	c #9A9A88",
"j.	c #646459",
"k.	c #818172",
"l.	c #9A9A90",
"m.	c #1E1E21",
"n.	c #D3D3BC",
"o.	c #FAFADF",
"p.	c #FFFFF6",
"q.	c #EDEDD4",
"r.	c #919183",
"s.	c #FFFFEE",
"t.	c #FAFAE2",
"u.	c #717164",
"v.	c #161612",
"w.	c #0E0E0A",
"x.	c #FFFFE8",
"y.	c #141413",
"                                            ",
"                                            ",
"                        .                   ",
"                    + @ # $                 ",
"                % & * = - ;                 ",
"          $ > , ' ) ! ~ { ] ^               ",
"        / ( _ : < [ } | 1 2 3 4             ",
"        5 6 7 8 9 0 9 a b c d e             ",
"        f g h i j k l m n o p q r           ",
"        s g t u v w x $ $ y z n A           ",
"        B C D E F G H I J K L M g N         ",
"        $ O P Q R S T n P U V W g X Y       ",
"        Z `  .o $ ..g +.@.#.$.%.g &.g *.    ",
"        =.-.;.>.$ ,.'.).!.~.{.].g ^./.(.    ",
"          _.:.<.[.u }.U |.1.2.3.o 4.$       ",
"          5.6.7.8.9.0.a.b.c.$ d.e.          ",
"          f.g.>.h.^.i.j.k.l.m.$ $           ",
"            > n.7.o.p.g q.,   $ $ $         ",
"            $ r.s.p t.u.v.      $ $ $       ",
"              w.x.o.y.            $ $       ",
"                $ $                         ",
"                                            "};
