/* XPM */
static char * find_replace_xpm[] = {
"22 22 171 2",
"  	c None",
". 	c #100E06",
"+ 	c #090905",
"@ 	c #7C6D3C",
"# 	c #F1D276",
"$ 	c #524828",
"% 	c #484840",
"& 	c #756638",
"* 	c #D6BD6A",
"= 	c #37311A",
"- 	c #292924",
"; 	c #48483F",
"> 	c #FFFFFC",
", 	c #000000",
"' 	c #7E6E3F",
") 	c #DABD6A",
"! 	c #39321B",
"~ 	c #35352E",
"{ 	c #59594F",
"] 	c #C3C3AE",
"^ 	c #FFFFFB",
"/ 	c #727675",
"( 	c #6E5B28",
"_ 	c #DEC56D",
": 	c #35301A",
"< 	c #2B2B27",
"[ 	c #747466",
"} 	c #B9B9A6",
"| 	c #EDEED9",
"1 	c #FEFFED",
"2 	c #4B5154",
"3 	c #7F6C33",
"4 	c #D4BA5E",
"5 	c #0F0A00",
"6 	c #151515",
"7 	c #565659",
"8 	c #7B7B73",
"9 	c #FBFBDC",
"0 	c #E5E3CA",
"a 	c #E6E9D3",
"b 	c #FFEFB4",
"c 	c #4E3900",
"d 	c #2A1D00",
"e 	c #9DA098",
"f 	c #04040B",
"g 	c #232322",
"h 	c #CBCBCC",
"i 	c #4E4E48",
"j 	c #E0E0C6",
"k 	c #D9D8C4",
"l 	c #E4E7D2",
"m 	c #1D180E",
"n 	c #B3B5A8",
"o 	c #B7BAA9",
"p 	c #FFFFFF",
"q 	c #B2B2A0",
"r 	c #1E1E1E",
"s 	c #8E8E8D",
"t 	c #7E7E6C",
"u 	c #E8E8CE",
"v 	c #FAFAE0",
"w 	c #F6F6DE",
"x 	c #FFFFEC",
"y 	c #FFFFF1",
"z 	c #FCFCDF",
"A 	c #5E5E54",
"B 	c #1C1C18",
"C 	c #A1A19D",
"D 	c #343433",
"E 	c #C5C5AF",
"F 	c #D5D5BD",
"G 	c #414139",
"H 	c #23231F",
"I 	c #DEDEC7",
"J 	c #A7A793",
"K 	c #2C2C2A",
"L 	c #E5E5E0",
"M 	c #44443F",
"N 	c #C8C8AC",
"O 	c #D4D4BC",
"P 	c #2C2C26",
"Q 	c #7F7F71",
"R 	c #FCFCE2",
"S 	c #F8F8DC",
"T 	c #8C8C7E",
"U 	c #0E0E0E",
"V 	c #DBDBC4",
"W 	c #A8A895",
"X 	c #191916",
"Y 	c #BEBEA8",
"Z 	c #FFFFE6",
"` 	c #64645B",
" .	c #707063",
"..	c #F7F7E6",
"+.	c #FFFFF8",
"@.	c #C4C4B0",
"#.	c #BFBFAB",
"$.	c #767669",
"%.	c #404038",
"&.	c #FFFFE3",
"*.	c #707067",
"=.	c #070707",
"-.	c #111111",
";.	c #C3C3B7",
">.	c #F4F4D9",
",.	c #2D2D27",
"'.	c #868675",
").	c #C6C6B2",
"!.	c #AEAE9B",
"~.	c #A8A897",
"{.	c #808072",
"].	c #FFFFF3",
"^.	c #5B5B53",
"/.	c #131314",
"(.	c #9D9D91",
"_.	c #F7F7DA",
":.	c #FEFEE1",
"<.	c #43433C",
"[.	c #767666",
"}.	c #E9E9D9",
"|.	c #B8B8A4",
"1.	c #A6A695",
"2.	c #A0A08F",
"3.	c #7A7A6D",
"4.	c #ECECD1",
"5.	c #848475",
"6.	c #262622",
"7.	c #FBFBE1",
"8.	c #FBFBE0",
"9.	c #9C9C8B",
"0.	c #4A4A44",
"a.	c #9D9D8E",
"b.	c #BCBCA9",
"c.	c #B0B09E",
"d.	c #8E8E80",
"e.	c #2B2B24",
"f.	c #4C4C44",
"g.	c #FFFFFD",
"h.	c #595952",
"i.	c #3B3B3A",
"j.	c #C1C1B2",
"k.	c #FDFDE3",
"l.	c #EBEBD2",
"m.	c #4B4B42",
"n.	c #2D2D28",
"o.	c #20201C",
"p.	c #4D4D49",
"q.	c #18181F",
"r.	c #727267",
"s.	c #707068",
"t.	c #FFFFF9",
"u.	c #FAFAE2",
"v.	c #F1F1D8",
"w.	c #BABAA7",
"x.	c #8C8C7D",
"y.	c #9B9B8B",
"z.	c #C5C5B5",
"A.	c #212124",
"B.	c #1F1F1C",
"C.	c #A2A292",
"D.	c #FFFFE8",
"E.	c #F6F6DD",
"F.	c #FFFFF0",
"G.	c #FFFFE4",
"H.	c #44443C",
"I.	c #5D5D55",
"J.	c #FFFFEE",
"K.	c #FFFFF4",
"L.	c #828275",
"M.	c #0C0C0C",
"N.	c #DEDEC8",
"                                            ",
"                              . +           ",
"                            @ # $           ",
"                    %     & * =             ",
"                - ; > , ' ) !               ",
"          , ~ { ] ^ / ( _ :                 ",
"      , < [ } | 1 2 3 4 5 ,                 ",
"    6 7 8 9 0 a b c d , e f                 ",
"    g h i j k l m , n o p q ,               ",
"    r p s t u v w x p p y z A               ",
"    B p C D E F G , , H I p J ,             ",
"    K L M N O P Q R S T U V p W ,           ",
"    , X Y Z `  ...+.@.#.$.%.p &.*.=.        ",
"    -.;.>.Z ,.'.p ).!.~.{., p ].p ^.        ",
"    /.(._.:.<.[.}.|.1.2.3.H p 4.5.H         ",
"      6.7.8.9.0.a.b.c.d.e.f.g.h.,           ",
"      i.j.k.l.5.m.n.o.p.q., r.              ",
"        s.t.u.v.w.x.y.z.A., ,               ",
"        B.C.D.E.F.p G.H.  , , ,             ",
"          I.J.K.Z L.M.      , , ,           ",
"          , a.N.,             , ,           ",
"                                            "};
