/* XPM */
static char * fold_open_xpm[] = {
"22 22 3 1",
" 	c None",
".	c #000000",
"+	c #0000FF",
"                      ",
"                      ",
"                      ",
"                      ",
"    .....   ......    ",
"                      ",
"      +               ",
"     +++              ",
"    ++ ++   .....     ",
"   +     +  .....     ",
"                      ",
"                      ",
"   +     +  .....     ",
"    ++ ++   .....     ",
"     +++              ",
"      +               ",
"                      ",
"    .....   ......    ",
"                      ",
"                      ",
"                      ",
"                      "};
