/* XPM */
static char *magick[] = {
/* columns rows colors chars-per-pixel */
"22 22 15 1",
"  c gray29",
". c #006eaa",
"X c #ab231b",
"o c #b9b9b9",
"O c #c0c0c0",
"+ c #c7c7c8",
"@ c #cbcbcb",
"# c #d2d2d3",
"$ c #dbdbda",
"% c #e0dfdf",
"& c #e3e3e3",
"* c #ebeaeb",
"= c #f3f3f3",
"- c #fefefe",
"; c None",
/* pixels */
";;;;;;;;;;;;;;;;;;;;;;",
";;;;;;;;;;;;;;;;;;;;;;",
";;;;;;;;;;;;;;;;;;;;;;",
";;;                ;;;",
";;; .............. ;;;",
";;;                ;;;",
";;; ooooooooXooooo ;;;",
";;; ooooooooXooooo ;;;",
";;; oooooO++XOO+@@ ;;;",
";;; ooo++@#$X##$$$ ;;;",
";;; o++@#$&&X$&&&* ;;;",
";;; XXXXXXXXX*===- ;;;",
";;; $%&*==--X----- ;;;",
";;; &*=-----X----- ;;;",
";;; =-------X----- ;;;",
";;; --------X----- ;;;",
";;; --------X----- ;;;",
";;; --------X----- ;;;",
";;;                ;;;",
";;;;;;;;;;;;;;;;;;;;;;",
";;;;;;;;;;;;;;;;;;;;;;",
";;;;;;;;;;;;;;;;;;;;;;"
};
