/* XPM */
static char * debug_xpm[] = {
"22 22 13 1",
" 	c None",
".	c #000000",
"+	c #FFFFFF",
"@	c #C0C0C0",
"#	c #0000C0",
"$	c #000080",
"%	c #808080",
"&	c #00C0C0",
"*	c #FFFFC0",
"=	c #C0C0FF",
"-	c #A0A0A4",
";	c #00FFFF",
">	c #008080",
"                      ",
"                      ",
"                      ",
"                      ",
"    ...............   ",
"    .+.@######.@+..   ",
"    ....$$$$$$.....   ",
"    .%...&.......%.   ",
"    .%*+=+*****.%%.   ",
"    .%+&&******.-%.   ",
"   ...........*.-%.   ",
"   .;;;;;;;;;.*.+%.   ",
"   .>>>>>>>>>.*.%%.   ",
"    ..........*..%.   ",
"    .%*********.-%.   ",
"    .%*********..%.   ",
"    .%*********.%%.   ",
"    ...............   ",
"                      ",
"                      ",
"                      ",
"                      "};
