/* XPM */
static char * function_xpm[] = {
"16 16 6 1",
" 	c None",
".	c #240000",
"+	c #000000",
"@	c #FCFC80",
"#	c #E0BC38",
"$	c #F0DC5C",
" ........       ",
".        .      ",
".        .      ",
" ........ ++    ",
"         +@@++  ",
"        +@@@@@+ ",
"       +@@@@@#+ ",
"    ++ +$$@@##+ ",
"   +@@++$$$###+ ",
"  +@@@@@+$$##+  ",
" +@@@@@#++$#+   ",
" +$$@@##+ ++    ",
" +$$$###+       ",
" +$$$##+        ",
"  ++$#+         ",
"    ++          "};
