/* XPM */
static char *fv_autofile_xpm[] = {
/* columns rows colors chars-per-pixel */
"22 22 13 1",
"  c black",
". c #734301",
"X c #e97c11",
"o c #f0a55b",
"O c gray61",
"+ c #bbbbbb",
"@ c #f8d5b4",
"# c #c0c0c0",
"$ c #dfe0e0",
"% c #e0e0df",
"& c gray88",
"* c white",
"= c None",
/* pixels */
"======================",
"======================",
"======================",
"=====   =     ========",
"==== OOO OOOOO  ======",
"==== +++++++++++ =====",
"==== $%% %&&&  && ====",
"==== *** ****   * ====",
"=====   =     ==  ====",
"=========.....=== ====",
"=========.Xo@.========",
"=========.Xo@.========",
"=========.Xo@.========",
"=========.Xo@.========",
"=========.Xo@.========",
"=========.Xo@.========",
"=========.Xo@.========",
"=========.Xo@.========",
"=========.....========",
"======================",
"======================",
"======================"
};
