/* XPM */
static char * fv_core_xpm[] = {
"16 16 89 1",
" 	c None",
".	c #2A2B29",
"+	c #2A2D29",
"@	c #A7ADA6",
"#	c #6F756B",
"$	c #585B52",
"%	c #888C7F",
"&	c #989D94",
"*	c #72756B",
"=	c #575A51",
"-	c #51534A",
";	c #626458",
">	c #909385",
",	c #9D9F93",
"'	c #A6A89E",
")	c #9B9D94",
"!	c #8B8D83",
"~	c #75776C",
"{	c #5F6156",
"]	c #56584D",
"^	c #8E9183",
"/	c #ADAFA7",
"(	c #BBBCB5",
"_	c #B8B9B1",
":	c #BCBEB6",
"<	c #B6B8B1",
"[	c #676961",
"}	c #55574D",
"|	c #4C4E44",
"1	c #474941",
"2	c #86897C",
"3	c #A4A5A0",
"4	c #999A95",
"5	c #9B9D96",
"6	c #91938C",
"7	c #92938F",
"8	c #7E7F79",
"9	c #52544A",
"0	c #44463E",
"a	c #3E3F38",
"b	c #808377",
"c	c #747571",
"d	c #80817C",
"e	c #A3A59D",
"f	c #7E8077",
"g	c #6D6E6B",
"h	c #575852",
"i	c #4A4C43",
"j	c #40423B",
"k	c #383A33",
"l	c #74766B",
"m	c #74766D",
"n	c #AFB0AB",
"o	c #959790",
"p	c #6E7167",
"q	c #4B4C43",
"r	c #43443C",
"s	c #3F403B",
"t	c #373933",
"u	c #616359",
"v	c #686960",
"w	c #92938E",
"x	c #62645C",
"y	c #484943",
"z	c #4D4F47",
"A	c #44453F",
"B	c #393A34",
"C	c #33342F",
"D	c #32332E",
"E	c #56574F",
"F	c #3C3A34",
"G	c #3F2220",
"H	c #512827",
"I	c #312622",
"J	c #282824",
"K	c #2B2C28",
"L	c #2E2F2A",
"M	c #754645",
"N	c #88494B",
"O	c #812F31",
"P	c #403531",
"Q	c #31312D",
"R	c #2E2F29",
"S	c #924A4C",
"T	c #915253",
"U	c #6C1D1D",
"V	c #3F3F38",
"W	c #762324",
"X	c #591313",
"                ",
"                ",
"                ",
"       .+       ",
"       @#$      ",
"      %&*=-;    ",
"     >,')!~{]   ",
"    ^/(_:<[}|1  ",
"    234567890a  ",
"    bcdefghijk  ",
"    lmnop|qrst  ",
"    uvwxyzABCD  ",
"     EFGHIJKL   ",
"      MNOPQR    ",
"      STUV      ",
"       WX       "};
