/* XPM */
static char * fv_doc_xpm[] = {
"16 16 26 1",
" 	c None",
".	c #000000",
"+	c #FFFFFF",
"@	c #A9ACAF",
"#	c #B1B4B7",
"$	c #1C1A1B",
"%	c #BEC0C3",
"&	c #D0D2D3",
"*	c #E2E4E5",
"=	c #CED0D2",
"-	c #E1E2E3",
";	c #F1F2F3",
">	c #BCBDC0",
",	c #CBCDCF",
"'	c #DFE0E2",
")	c #EDEDEE",
"!	c #BABCBF",
"~	c #EFEFF0",
"{	c #FBFCFB",
"]	c #DCDDDF",
"^	c #C8CACC",
"/	c #F9FAFA",
"(	c #D8DADB",
"_	c #EAEBEC",
":	c #E9EAEB",
"<	c #F8F7F8",
"                ",
"                ",
"   ........     ",
"   .++++++.     ",
"   .+@@@@#...   ",
"   .+@@$$%&*.   ",
"   .+@$$%=-;.   ",
"   .+$$>,')+.   ",
"   .+$!,'~{+.   ",
"   .+$$]){++.   ",
"   .+^$$/+++.   ",
"   .+(_$$+++.   ",
"   .+:<+++++.   ",
"   ..........   ",
"                ",
"                "};
