/* XPM */
static char * fv_exec_xpm[] = {
"13 16 134 2",
"  	c None",
". 	c #D2D2D2",
"+ 	c #E3E4E3",
"@ 	c #E5E5E5",
"# 	c #E6E6E6",
"$ 	c #E7E7E7",
"% 	c #E8E8E8",
"& 	c #E6E5E5",
"* 	c #DDDDDD",
"= 	c #C2C2C2",
"- 	c #DDDCDD",
"; 	c #F5F5F5",
"> 	c #F4F4F4",
", 	c #D9D9D9",
"' 	c #C9C9C9",
") 	c #E6E7E7",
"! 	c #FCFCFC",
"~ 	c #FFFFFF",
"{ 	c #FEFEFE",
"] 	c #CDCDCD",
"^ 	c #EEEEEE",
"/ 	c #B8B8B8",
"( 	c #C1C3C3",
"_ 	c #9EA19F",
": 	c #BFBFBF",
"< 	c #FBFBFB",
"[ 	c #D0D0D0",
"} 	c #DDDDDC",
"| 	c #BDBDBD",
"1 	c #BBBEBD",
"2 	c #E2E2E2",
"3 	c #DCDDDD",
"4 	c #BFC2C1",
"5 	c #8B8D8C",
"6 	c #F3F3F3",
"7 	c #FDFDFD",
"8 	c #D3D3D3",
"9 	c #DEDDDE",
"0 	c #B1B1B1",
"a 	c #B4B7B6",
"b 	c #CCCDCD",
"c 	c #B4B4B4",
"d 	c #D0D2D2",
"e 	c #9FA2A1",
"f 	c #D0D1D0",
"g 	c #F8F8F8",
"h 	c #D4D4D4",
"i 	c #DEDEDE",
"j 	c #9A9D9C",
"k 	c #C4C6C5",
"l 	c #E1E2E2",
"m 	c #989A99",
"n 	c #A6A6A6",
"o 	c #ABACAC",
"p 	c #B5B6B5",
"q 	c #E0E0E0",
"r 	c #E1E1E1",
"s 	c #909191",
"t 	c #A4A7A5",
"u 	c #C1C3C2",
"v 	c #ABACAB",
"w 	c #A1A2A2",
"x 	c #D6D8D8",
"y 	c #B5B9B7",
"z 	c #D7D7D7",
"A 	c #DCDCDC",
"B 	c #EFEFEF",
"C 	c #E3E3E3",
"D 	c #C3C4C3",
"E 	c #B6B6B6",
"F 	c #A0A0A0",
"G 	c #B6B8B7",
"H 	c #D9DADA",
"I 	c #C9CCCB",
"J 	c #9B9F9E",
"K 	c #D8D8D8",
"L 	c #DBDBDA",
"M 	c #ECEDED",
"N 	c #F0F0F0",
"O 	c #C4C5C4",
"P 	c #A4A8A6",
"Q 	c #C8CACA",
"R 	c #BBBBBB",
"S 	c #DBDCDC",
"T 	c #AAADAC",
"U 	c #C8C8C8",
"V 	c #E9E9E9",
"W 	c #F0F1F0",
"X 	c #DADAD9",
"Y 	c #B5B6B6",
"Z 	c #898B8A",
"` 	c #D5D7D7",
" .	c #D5D6D5",
"..	c #D1D1D1",
"+.	c #B8BBBA",
"@.	c #7B7C7C",
"#.	c #8A8B8A",
"$.	c #A6A7A7",
"%.	c #AAAAAA",
"&.	c #D5D5D5",
"*.	c #E4E4E4",
"=.	c #CECFCE",
"-.	c #AEB0AF",
";.	c #B0B3B2",
">.	c #AAABAB",
",.	c #E4E3E3",
"'.	c #F4F4F3",
").	c #D1D1D0",
"!.	c #C0C0C0",
"~.	c #A3A6A5",
"{.	c #C2C4C3",
"].	c #C6C6C6",
"^.	c #C6C8C7",
"/.	c #F1F1F1",
"(.	c #CFCFCF",
"_.	c #D3D2D3",
":.	c #DFDFDF",
"<.	c #D6D6D6",
"[.	c #B5B8B7",
"}.	c #DADBDB",
"|.	c #A8A8A8",
"1.	c #CACBCB",
"2.	c #EBEBEB",
"3.	c #CCCCCC",
"4.	c #D2D3D3",
"5.	c #DFE0E0",
"6.	c #C1C0C0",
"7.	c #EAEAEA",
"8.	c #C1C1C1",
"9.	c #C7C7C7",
"0.	c #CACACA",
"a.	c #CCCBCC",
"b.	c #C9CAC9",
"c.	c #B6B6B5",
". + @ # $ % % % % % & * = ",
"- ; > , ' ) ! ~ ~ ~ { ; ] ",
"* ^ / ] ( _ : { ~ ~ ~ < [ ",
"} | 1 2 3 4 5 6 ~ ~ ~ 7 8 ",
"9 0 a b c d e f g 7 ~ { h ",
"i : j k 3 l m n o p q { h ",
"i r s t u v w i x y m ^ z ",
"A B C D E F G H . I J [ K ",
"L M N ; g O P Q R S T U z ",
"K V B W X Y Z 1 ` l w  .h ",
"z $ V R ..+.@.#.$.%.= ; 8 ",
"&.*.=.-.A f ;.>.q ,.'.> ).",
"h 2 !.~.{.].^.$./.N B N (.",
"_.:.<.s [.}.|.1.^ ^ 2.2.3.",
"4.i 5.] >.%.6.# 7.7.V % ' ",
"8.].].9.U U 0.a.3.3.1.b.c."};
