/* XPM */
static char *fv_exec_xpm[] = {
/* columns rows colors chars-per-pixel */
"22 22 52 1",
"  c #464232",
". c #4b4735",
"X c #4e4934",
"o c #534e3b",
"O c #56523d",
"+ c gray29",
"@ c #504f4f",
"# c #676249",
"$ c #6d684f",
"% c #6a685e",
"& c #76715b",
"* c #797353",
"= c #626264",
"- c #74736d",
"; c #78776f",
": c #7b786d",
"> c #89815d",
", c #8d8661",
"< c #9c936b",
"1 c #a1976a",
"2 c #a39a6f",
"3 c #b2a778",
"4 c #b7ad7f",
"5 c #9c9b96",
"6 c gray61",
"7 c #b7ad80",
"8 c #bbb180",
"9 c #b1b1b1",
"0 c #bababa",
"q c #bfbfc0",
"w c #c8be8d",
"e c #d1c592",
"r c #d4c995",
"t c #d9cc96",
"y c #d9ce99",
"u c #dfd39c",
"i c #e1d59c",
"p c #e6daa1",
"a c #c0c0c0",
"s c #c5c5c8",
"d c #cbcbcb",
"f c #cecfd2",
"g c #d4d4d3",
"h c #dcdcdc",
"j c #dedee0",
"k c #e4e4e4",
"l c #e7e8e7",
"z c gray92",
"x c #f2f2f2",
"c c #f8f8f7",
"v c #fefefe",
"b c None",
/* pixels */
"bbbbbbbbbbbbbbbbbbbbbb",
"bbbbbbbbbbbbbbbbbbbbbb",
"bbbbbbbbbbbbbbbbbbbbbb",
"bbbb+++++++++++bbbbbbb",
"bbbb+00000asdf+5bbbbbb",
"bbbb+000aaddfg+56bbbbb",
"bbbb+00sddfghj++++bbbb",
"bbbb+asl:+2#=5vxc+bbbb",
"bbbb+df-1<e42*scv+bbbb",
"bbbb+gg:8ieyiX9vv+bbbb",
"bbbb+hj3te<4yiXvv+bbbb",
"bbbb+jl$4u4wy,%vv+bbbb",
"bbbb+zx=1urrtofvv+bbbb",
"bbbb+xc5* t>o&hvv+bbbb",
"bbbb+cvvs9O%sjvvv+bbbb",
"bbbb+vvvvvvvvvvvv+bbbb",
"bbbb+vvvvvvvvvvvv+bbbb",
"bbbb+vvvvvvvvvvvv+bbbb",
"bbbb++++++++++++++bbbb",
"bbbbbbbbbbbbbbbbbbbbbb",
"bbbbbbbbbbbbbbbbbbbbbb",
"bbbbbbbbbbbbbbbbbbbbbb"
};
