/* XPM */
static char * fv_image_xpm[] = {
"16 16 73 1",
" 	c None",
".	c #585858",
"+	c #3E3E3E",
"@	c #464646",
"#	c #5F5F5E",
"$	c #80807F",
"%	c #AFAFAF",
"&	c #B1B1B0",
"*	c #6B6B6A",
"=	c #636363",
"-	c #A0A0A0",
";	c #9B9B9B",
">	c #B1B1B1",
",	c #AEAEAE",
"'	c #A9A9A8",
")	c #1C1C1C",
"!	c #919190",
"~	c #777777",
"{	c #858E8D",
"]	c #7DCFB7",
"^	c #6DE288",
"/	c #8FD67B",
"(	c #ADB2A7",
"_	c #696968",
":	c #6D6D6D",
"<	c #8A8A8A",
"[	c #5EBAE1",
"}	c #4EEFED",
"|	c #64F087",
"1	c #A8FA50",
"2	c #CFE66B",
"3	c #232323",
"4	c #7E7E7E",
"5	c #B3B6C0",
"6	c #4D7AFC",
"7	c #8EA6DE",
"8	c #C6C6C6",
"9	c #E1CA86",
"0	c #FBCD4E",
"a	c #C0C0BF",
"b	c #838383",
"c	c #717171",
"d	c #DBDBDB",
"e	c #775BF9",
"f	c #AC68F4",
"g	c #E2A4D2",
"h	c #F66C6C",
"i	c #F58D62",
"j	c #CACACA",
"k	c #C6C6C5",
"l	c #414140",
"m	c #393939",
"n	c #8E8E8E",
"o	c #555555",
"p	c #52262D",
"q	c #E0C0C0",
"r	c #D3D3D3",
"s	c #CDCDCD",
"t	c #A4A4A4",
"u	c #AAAAAA",
"v	c #4C4C4C",
"w	c #E1E1E1",
"x	c #D7D7D6",
"y	c #797979",
"z	c #171717",
"A	c #5C5C5C",
"B	c #A8A8A8",
"C	c #9C9C9C",
"D	c #757575",
"E	c #000000",
"F	c #666666",
"G	c #F4F4F4",
"H	c #ABABAB",
"                ",
"                ",
"        .+      ",
"    @#$%&*      ",
"   =-;>&,')     ",
"   !~{]^/(_     ",
"   :<[}|12>3    ",
"   4567890ab    ",
"   cdefghijkl   ",
"  mnmmmopqrst   ",
"  oucnonvwxyz   ",
"    AuBtCDzE    ",
"    FGHvEE      ",
"     EEE        ",
"                ",
"                "};
