/* XPM */
static char * fv_image_xpm[] = {
"16 16 18 1",
" 	c None",
".	c #000000",
"+	c #FFFFFF",
"@	c #A9ACAF",
"#	c #B1B4B7",
"$	c #005D47",
"%	c #E2E4E5",
"&	c #6F1814",
"*	c #F1F2F3",
"=	c #ADB0B2",
"-	c #BABCBF",
";	c #FAFBFB",
">	c #B9BBBE",
",	c #C9CBCE",
"'	c #002D5F",
")	c #D8DADB",
"!	c #E9EAEB",
"~	c #F8F7F8",
"                ",
"                ",
"   ........     ",
"   .++++++.     ",
"   .++++@#...   ",
"   .+$$++++%.   ",
"   .+$$++&+*.   ",
"   .++++&&&+.   ",
"   .+=-++&;+.   ",
"   .+>,++;++.   ",
"   .+,++'+++.   ",
"   .+)+'''++.   ",
"   .+!~+++++.   ",
"   ..........   ",
"                ",
"                "};
