/* XPM */
static char *fv_source_xpm[] = {
/* columns rows colors chars-per-pixel */
"16 16 32 1",
"  c black",
". c #4b4c4f",
"X c #a9acaf",
"o c #adb0b2",
"O c #afb2b4",
"+ c #b0b3b5",
"@ c #b1b4b7",
"# c #b9bbbe",
"$ c #babcbf",
"% c #bdc0c1",
"& c #bec0c3",
"* c #c8cacc",
"= c #c9cbce",
"- c #cbcdcf",
"; c #cdcfd0",
": c #ced0d2",
"> c #d0d2d3",
", c #d8dadb",
"< c #dadbdc",
"1 c #dfe0e2",
"2 c #e1e2e3",
"3 c #e2e4e5",
"4 c #e9eaeb",
"5 c #eaebec",
"6 c #f0f0f1",
"7 c #f1f2f3",
"8 c #f8f7f8",
"9 c #f9f8f9",
"0 c #fafbfb",
"q c #fbfcfb",
"w c #fdfdfc",
"e c white",
/* pixels */
"eeeeeeeeeeeeeeee",
"eeeeeeeeeeeeeeee",
"eee        eeeee",
"eee eeeeee eeeee",
"eee eX  X@   eee",
"eee e .X@&>3 eee",
"eee e .O%:37 eee",
"eee eX  -25e eee",
"eee eo$-  qe eee",
"eee e#= .0ee eee",
"eee e=< .eee eee",
"eee e,59  ee eee",
"eee e48eeeee eee",
"eee          eee",
"eeeeeeeeeeeeeeee",
"eeeeeeeeeeeeeeee"
};
