/* XPM */
static char * fv_unknown_xpm[] = {
"16 16 23 1",
" 	c None",
".	c #000000",
"+	c #FFFFFF",
"@	c #A9ACAF",
"#	c #B1B4B7",
"$	c #4B4C4F",
"%	c #BEC0C3",
"&	c #CED0D2",
"*	c #E1E2E3",
"=	c #AFB2B4",
"-	c #BDC0C1",
";	c #F1F2F3",
">	c #ADB0B2",
",	c #BABCBF",
"'	c #CBCDCF",
")	c #DDDFE0",
"!	c #FBFCFB",
"~	c #C8CACC",
"{	c #DADBDC",
"]	c #EBEDED",
"^	c #F9FAFA",
"/	c #E9EAEB",
"(	c #F8F7F8",
"                ",
"                ",
"   ........     ",
"   .++++++.     ",
"   .+@@@@#...   ",
"   .+$$$$%&*.   ",
"   .+@@=-&*;.   ",
"   .+$$$$$$+.   ",
"   .+>,');!+.   ",
"   .+$$$$$$+.   ",
"   .+~{]^+++.   ",
"   .+$$$$$$+.   ",
"   .+/(+++++.   ",
"   ..........   ",
"                ",
"                "};
