/* XPM */
static char * goto_xpm[] = {
"22 22 15 1",
" 	c None",
".	c #020202",
"+	c #030303",
"@	c #050505",
"#	c #FEFEFE",
"$	c #2B2B2B",
"%	c #070707",
"&	c #303030",
"*	c #2A2A2A",
"=	c #0000ED",
"-	c #171717",
";	c #000000",
">	c #010101",
",	c #0000FF",
"'	c #393939",
"                      ",
"                      ",
"                      ",
"       .++++++        ",
"      @#######$       ",
"      %########&      ",
"      %#########*     ",
"      %###=#####-;    ",
"      %##########>    ",
"      %##########;    ",
"      ;####,,####;    ",
"    ,,,,,,,,,,###;    ",
"    ,,,,,,,,,,,##;    ",
"    ,,,,,,,,,,###;    ",
"      ;####,,####;    ",
"      ;##########;    ",
"      %##########;    ",
"      %##########;    ",
"      .';;;;;;;;;;    ",
"                      ",
"                      ",
"                      "};
