/* XPM */
static char * goto_xpm[] = {
"22 22 80 1",
" 	c None",
".	c #121617",
"+	c #0B0F12",
"@	c #1D1F20",
"#	c #100E0D",
"$	c #AE9B93",
"%	c #9A8278",
"&	c #846D63",
"*	c #060E10",
"=	c #1A1E1E",
"-	c #FEEDE7",
";	c #FFFFFF",
">	c #FFFFF8",
",	c #E6C1B2",
"'	c #584B47",
")	c #090E12",
"!	c #000000",
"~	c #110A0B",
"{	c #1B1F22",
"]	c #FFF6EE",
"^	c #E2B7A4",
"/	c #E1B7A1",
"(	c #7D6C60",
"_	c #738266",
":	c #E5F5D8",
"<	c #FAFEF3",
"[	c #F6FBF1",
"}	c #94AC83",
"|	c #FFE2D0",
"1	c #D7B19F",
"2	c #E7BAA7",
"3	c #6A584E",
"4	c #2E3824",
"5	c #B2C59E",
"6	c #C8E1B3",
"7	c #5E6D54",
"8	c #FFE5D1",
"9	c #DEB8A7",
"0	c #E5B9A3",
"a	c #6F5D54",
"b	c #BDBDBA",
"c	c #C7DEB2",
"d	c #57634A",
"e	c #69735C",
"f	c #FFE8D4",
"g	c #E2B8A3",
"h	c #79635B",
"i	c #060E12",
"j	c #90938E",
"k	c #DCEBCE",
"l	c #B5CDA1",
"m	c #889A75",
"n	c #313528",
"o	c #6C7B61",
"p	c #DAB09C",
"q	c #887063",
"r	c #030C11",
"s	c #5A5D58",
"t	c #F9FFEA",
"u	c #B2C89E",
"v	c #ACC394",
"w	c #98AA86",
"x	c #525D47",
"y	c #565F4A",
"z	c #181E21",
"A	c #181D20",
"B	c #444344",
"C	c #C6CFBD",
"D	c #BED3A8",
"E	c #AEC499",
"F	c #727F65",
"G	c #515150",
"H	c #BDC9AF",
"I	c #9BAC8A",
"J	c #393C2F",
"K	c #454741",
"L	c #79856B",
"M	c #080806",
"N	c #252A21",
"O	c #10110D",
"                      ",
"                      ",
"                      ",
"                      ",
"                      ",
"            .+        ",
"          @#$%&*      ",
"          =-;>,')     ",
"       !!!!~{]^/(     ",
"      !_:<[}!|123     ",
"       !4567!890a     ",
"     !!b;cde!fghi     ",
"    !j;klmno!pqr      ",
"   s;tuvwx!y!zA       ",
"    BCDEF! !!         ",
"     GHIJ!            ",
"      KLM             ",
"       NO             ",
"                      ",
"                      ",
"                      ",
"                      "};
