/* XPM */
static char * graph_xpm[] = {
"22 22 18 1",
" 	c None",
".	c #000000",
"+	c #FFFFFF",
"@	c #FAFAFA",
"#	c #FEFEFE",
"$	c #FF0000",
"%	c #F7F7F7",
"&	c #FFFEFE",
"*	c #FF1717",
"=	c #FE5858",
"-	c #FE0A0A",
";	c #FE1919",
">	c #FE1A1A",
",	c #FFF9F9",
"'	c #FEF9F9",
")	c #F93F3F",
"!	c #F94242",
"~	c #FBFAFA",
"                      ",
"                      ",
"  ..................  ",
"  .+++@..####..++++.  ",
"  .+++@..####..++++.  ",
"  .$++@..####..++++.  ",
"  .$+@%..@@@@..+@@@.  ",
"  .$................  ",
"  .$................  ",
"  .$$$@..####..+&&&.  ",
"  .+$$@..####.$$$$+.  ",
"  .+$$+..#+$$$$$*$+.  ",
"  .+$$$..#=-$..++$$.  ",
"  ...$$...$$$....$$.  ",
"  ....$...$$......$.  ",
"  .+++$$$$$$+..+++$.  ",
"  .+++$;>+++#..++,$.  ",
"  .+++')!####..++++.  ",
"  .+++~..####..++++.  ",
"  ..................  ",
"                      ",
"                      "};
