/* XPM */
static char *magick[] = {
/* columns rows colors chars-per-pixel */
"22 22 56 1",
"  c gray29",
". c #105292",
"X c #ba3427",
"o c #ba3629",
"O c #bb392c",
"+ c #bd3d31",
"@ c #bf4337",
"# c #bb463a",
"$ c #c1453a",
"% c #c34a3e",
"& c #c04c41",
"* c #c7574c",
"= c #c55c53",
"- c #c85d52",
"; c #c77067",
": c #ce746b",
"> c #cb7b73",
", c #cc857e",
"< c #d5867e",
"1 c #bf9c99",
"2 c #bfa09c",
"3 c #bababa",
"4 c #cb8c86",
"5 c #d68c85",
"6 c #d98d86",
"7 c #db928b",
"8 c #de9c96",
"9 c #dda39d",
"0 c #cebebd",
"q c #daada8",
"w c #d3b6b2",
"e c #dcb7b3",
"r c #e5b0ab",
"t c #e5b9b4",
"y c #e2bdba",
"u c #c0c0c0",
"i c #cacacb",
"p c #d0cfcf",
"a c #d0cfd0",
"s c #d4d3d3",
"d c #d9d6d6",
"f c #dbdada",
"g c #ebcecc",
"h c #e5d0ce",
"j c #e5d5d4",
"k c #f1d4d1",
"l c #e0e0df",
"z c #e4e3e3",
"x c gray92",
"c c #f1eded",
"v c #f8edeb",
"b c #f3f3f3",
"n c #f7f8f7",
"m c #f9f5f5",
"M c #fefefe",
"N c None",
/* pixels */
"NNNNNNNNNNNNNNNNNNNNNN",
"NNNNNNNNNNNNNNNNNNNNNN",
"NNNNNNNNNNNNNNNNNNNNNN",
"NNN                NNN",
"NNN .............. NNN",
"NNN .............. NNN",
"NNN                NNN",
"NNN 3333333319uiip NNN",
"NNN 33333uui#oasdd NNN",
"NNN uuuuiiauo#wfzz NNN",
"NNN iiiaasf4;4>zxx NNN",
"NNN aaddflz&ejOxbn NNN",
"NNN ffo>zxh+bm-tMM NNN",
"NNN zq-@yb5<nMr6MM NNN",
"NNN c:9g+v$kMMMMMM NNN",
"NNN mOvM8*%MMMMMMM NNN",
"NNN m6MMM-7MMMMMMM NNN",
"NNN MMMMMMMMMMMMMM NNN",
"NNN                NNN",
"NNNNNNNNNNNNNNNNNNNNNN",
"NNNNNNNNNNNNNNNNNNNNNN",
"NNNNNNNNNNNNNNNNNNNNNN"
};
