/* XPM */
static char * handle_hide_xpm[] = {
"6 6 26 1",
" 	c None",
".	c #E30000",
"+	c #920000",
"@	c #850000",
"#	c #E40000",
"$	c #8E0000",
"%	c #E90000",
"&	c #AF0000",
"*	c #890000",
"=	c #E60000",
"-	c #970000",
";	c #F20000",
">	c #F30000",
",	c #B10000",
"'	c #AC0000",
")	c #EE0000",
"!	c #EF0000",
"~	c #AD0000",
"{	c #940000",
"]	c #E70000",
"^	c #7C0000",
"/	c #7B0000",
"(	c #E20000",
"_	c #A30000",
":	c #8D0000",
"<	c #720000",
".+  @#",
"$%&*=-",
" *;>, ",
" ')!~ ",
"{]^/(_",
"]:  <("};
