/* XPM */
static char *magick[] = {
/* columns rows colors chars-per-pixel */
"6 6 9 1",
"  c #780000",
". c #8a0000",
"X c #940000",
"o c #aa0000",
"O c #b10000",
"+ c #e60000",
"@ c #f20000",
"# c white",
"$ c None",
/* pixels */
"+X$$.+",
".+O.+X",
"$.@@O$",
"$O+@o$",
"X+  +o",
"+.$$ +"
};
