/* XPM */
static char * handle_undock_xpm[] = {
"6 6 2 1",
" 	c None",
".	c #0000FF",
".  ...",
".    .",
".... .",
".... .",
".    .",
".  ..."};
