/* XPM */
static char *magick[] = {
/* columns rows colors chars-per-pixel */
"22 22 99 2",
"   c black",
".  c #033c61",
"X  c #00416c",
"o  c #0e4263",
"O  c #004471",
"+  c #034873",
"@  c #004b7c",
"#  c #164462",
"$  c #104c73",
"%  c #1b4f71",
"&  c #23465d",
"*  c #24516e",
"=  c #2d526a",
"-  c #295c7d",
";  c #335d78",
":  c #516b7b",
">  c #004e80",
",  c #005185",
"<  c #00548a",
"1  c #085281",
"2  c #095b8f",
"3  c #005993",
"4  c #005d99",
"5  c #135781",
"6  c #1f5a81",
"7  c #09639b",
"8  c #15608f",
"9  c #156090",
"0  c #16689c",
"q  c #0063a3",
"w  c #0068aa",
"e  c #0a6aa5",
"r  c #0a6ead",
"t  c #006bb1",
"y  c #0b73b4",
"u  c #186fa7",
"i  c #1974ad",
"p  c #1a77b4",
"a  c #1a7ab7",
"s  c #22648e",
"d  c #2e668b",
"f  c #256c9b",
"g  c #386785",
"h  c #327097",
"j  c #2774a5",
"k  c #297aad",
"l  c #297eb3",
"z  c #3577a2",
"x  c #486e86",
"c  c #517f9d",
"v  c #5c7c90",
"b  c #3c87b5",
"n  c #3e8cbd",
"m  c #4d82a5",
"M  c #538eb5",
"N  c #6f8898",
"B  c #71818d",
"V  c #7a8f9c",
"C  c #688ca3",
"Z  c #7997a9",
"A  c #7099b4",
"S  c #74a2bf",
"D  c #78a9c9",
"F  c #8b9aa4",
"G  c #8ea4b2",
"H  c #8baabe",
"J  c #92a6b2",
"K  c #94aebf",
"L  c #a1abb1",
"P  c #a6b3bb",
"I  c #8fb2c8",
"U  c #99bcd3",
"Y  c #acbcc7",
"T  c #adbfcb",
"R  c #b8c1c6",
"E  c #bdc6cd",
"W  c #b0c5d4",
"Q  c #b2ccdc",
"!  c #c0c0c0",
"~  c #c7cccf",
"^  c #c0cbd2",
"/  c #cacfd3",
"(  c #c3d0d8",
")  c #cdd4d8",
"_  c #d0d7dc",
"`  c #d8dcde",
"'  c #cedae3",
"]  c #dadee1",
"[  c #d4e1ea",
"{  c #dae2e6",
"}  c #dce4e9",
"|  c #e1e6e9",
" . c #e5e8eb",
".. c #ebeced",
"X. c #eaeff3",
"o. c #eaf0f4",
"O. c #f4f5f6",
"+. c #fafbfb",
"@. c None",
/* pixels */
"@.@.@.@.@.@.@.@.@.@.@.@.@.@.@.@.@.@.@.@.@.@.",
"@.@.@.@.@.@.@.@.@.@.@.@.@.@.@.@.@.@.@.@.@.@.",
"@.@.@.@.@.@.@.@.@.@.@.@.@.@.@.@.@.@.@.@.@.@.",
"@.@.@.@.@.@.@.@...O.+.+.+...@.@.@.@.@.@.@.@.",
"@.@.@.@.@.@./ `  .O.+.+.O. .] / @.@.@.@.@.@.",
"@.@.@.@.@.L R )  .O.    O. ._ E P @.@.@.@.@.",
"@.@.@.@.B F P E { O.    O.} ( Y J V @.@.@.@.",
"@.@.@.@.: N G T ' X.+.+.o.' W K Z v @.@.@.@.",
"@.@.@.& = x C I W [       Q I A m g ; @.@.@.",
"@.@.@.& * - d m S U       D M z h d - @.@.@.",
"@.@.@.# % - s f j b     n l k j f s 6 @.@.@.",
"@.@.@.. $ 1 9 0 u i     a p i u 0 9 5 @.@.@.",
"@.@.@.. + 1 2 7 e r     y y r e 7 2 1 @.@.@.",
"@.@.@.. O > < 4 w w     t t w q 4 < > @.@.@.",
"@.@.@.@.O > < 3 4 w     w w w 4 3 < @.@.@.@.",
"@.@.@.@.. + , 3             w 4 3 , @.@.@.@.",
"@.@.@.@.@.+ @ <             4 3 < @.@.@.@.@.",
"@.@.@.@.@.@.+ @ < 3 3 4 4 3 3 < @.@.@.@.@.@.",
"@.@.@.@.@.@.@.@.> , < < < < @.@.@.@.@.@.@.@.",
"@.@.@.@.@.@.@.@.@.@.@.@.@.@.@.@.@.@.@.@.@.@.",
"@.@.@.@.@.@.@.@.@.@.@.@.@.@.@.@.@.@.@.@.@.@.",
"@.@.@.@.@.@.@.@.@.@.@.@.@.@.@.@.@.@.@.@.@.@."
};
