/* XPM */
static char * inspect_xpm[] = {
"22 22 8 1",
" 	c None",
".	c #00005F",
"+	c #00008E",
"@	c #0000BE",
"#	c #7F7FDE",
"$	c #FFFFFF",
"%	c #3F3FCE",
"&	c #BFBFEE",
"                      ",
"                      ",
"                      ",
"         ....         ",
"       +@@@@@@+       ",
"      @@@@#$#@@@      ",
"     @@@@@#$#@@@@     ",
"    +@@@@@@@@@@@@+    ",
"    @@@@#$$$#@@@@@    ",
"   .@@@@%#&$#@@@@@.   ",
"   .@@@@@@#$#@@@@@.   ",
"   .@@@@@@#$#@@@@@.   ",
"   .@@@@@@#$#@@@@@.   ",
"    @@@@@@#$#@@@@@    ",
"    +@@@@@#$#@@@@+    ",
"     @@@%#&$&#@@@     ",
"      @@#$$$$$@@      ",
"       +@@@@@@+       ",
"         ....         ",
"                      ",
"                      ",
"                      "};
