/* XPM */
static char * breakpoints_xpm[] = {
"22 22 19 1",
" 	c None",
".	c #808080",
"+	c #C0C0C0",
"@	c #404040",
"#	c #C0C000",
"$	c #FFFF00",
"%	c #1C2024",
"&	c #B8C0C8",
"*	c #84909C",
"=	c #808000",
"-	c #404000",
";	c #384048",
">	c #687078",
",	c #ABAFB3",
"'	c #54606C",
")	c #979FA7",
"!	c #000000",
"~	c #CFCFCF",
"{	c #DFDFDF",
"                      ",
"                      ",
"                      ",
"                      ",
"            .....+    ",
"           @#$$$#.    ",
"          @#$$$#%&    ",
"         @#$$$#%*     ",
"        @#$$$#%*      ",
"       @#$$$$===-     ",
"       -==$$$$$-;     ",
"        @#$$$#%>,     ",
"       @#$$$=%*       ",
"      .#$$$-')        ",
"      +!##%',         ",
"      @#=%*~          ",
"     @#-',{           ",
"    .=%',             ",
"     ;*~              ",
"                      ",
"                      ",
"                      "};
