/* XPM */
static char *magick[] = {
/* columns rows colors chars-per-pixel */
"48 48 9 1",
"  c #261b05",
". c #5e310f",
"X c #535240",
"o c #b25e1d",
"O c #e5a11f",
"+ c #f4cd4c",
"@ c #eddcc6",
"# c white",
"$ c None",
/* pixels */
"@@@@@@@@@+@++++++++++++++++++++++++++O+O+O+O+O+ ",
"@@@@@@@@@@@+@+@+++++++++++++++++++++++++++++O+  ",
"@@ooOoOOOOOOOOOOOOOOOOOOOOOOOOOOOOoOoOooooooo.  ",
"@@oOooOoOoOoOOOOOOOOOOOOOOOOOoOOoOoOo.oo.oooo.  ",
"@@OooOoOoOOOOoOOOOOOOOOOOOOOoOOOoOoOo@Oo..ooo.  ",
"@@ooOoOoo.. .ooOOOOOOOOOOOOOOOOoOOOo@@+Xo..oo.  ",
"@@OoOoo..oo... oOOOOOOOOOOOOOOoOOoo@@O.oo.. o.  ",
"@@oOoO.oooooo XoOOOOOOOOOOOoOOOoOo@@+ ooo.. o.  ",
"@@OoOo.oO+OO.o+..OOOOOOOOOOOOOOOo@@O.ooo .. o.  ",
"@@oOo.oo+@Ooo@.. OOOOOOOOOOOOOOo@@+ ooo ..  o.  ",
"@@OOo.ooO+oo@o.. OOOOOOOOOOOOOo@@O.ooo ..  oo   ",
"@@OoO.ooO.O@Oo.  OOOOOOOOOOOOo@@+ ooo ..  oo    ",
"@+OOo..o.o@oo....OOOOOOOOOOOo@@O.ooo ..  oo ..  ",
"@@oOO.. o+oo... .OOOOOOOOOOo@@+ ooo ..  oo. .   ",
"@@OOOo..+.....  OOOOOOOOOOo@@O.ooo ..  oo. . .  ",
"+@OoOOoo.....  OOOOOOOOOOo@@+ ooo ..  oO .. .   ",
"@+OOOOOO..   oOOOOO+OOO+o@@O.ooo ..  oO.... .   ",
"@@OOOOOOOOOOOOOOO+OOO+Oo+@+ ooo ..  OO .. . X   ",
"@+OOOoOOOOOOOOOOOOOOOOXXoooooo ..  oO.... . .   ",
"+@OOOOOOOOO+OO+O+O+O+Xoo. ..o...  OO.... .. .   ",
"@+OOOOOOOOOOOO+OOO+O+X@+o. ....  Oo.. ..... .   ",
"+@OOOOOOOOO+OO+O+O+O+X+@oo  ..  OO...X X. X .   ",
"@+OOOOOOO+OO+O++O+O+OO Xoo..   OO ...... .. .   ",
"+@OOOOOOOOO+O+O++O+O+   ....  OO..X..... .. ..  ",
"@+OOOOOOOO+OO+OOO+O+X@   ..  OO.......... . o.  ",
"++OOOOOOO+OO+O+O+++X@X  O   OOO....... X . oo.  ",
"@+OOOOOOOO+O+O++OO@@   OOOOOOOO..X.. .... ooo.  ",
"++OOOOOOO+OOO+O++@$X  O+O+OOOOOO.....X.. oooo.  ",
"++OOOOO+OO+O+OO+$@$  OOOOOOOOOO...... ..ooooo.  ",
"++OOOOOOO+OO+O+@@$X +O+O+OOOOO.........oooooo.  ",
"++OOOOOOOO+O+O$@$  +OOOOOOOOO.....O. .ooOoooo.  ",
"++OOOOOOOO+OO@@$X +O+O+O+OOO.X.X.O......ooooo.  ",
"++OOOOO+OOOO$@$$ +OO+OOOOOO.....o.o.o... Oooo   ",
"++OOOOOOO+O@@$X ++O+OO+OOO.....O.ooOooo .Oooo.  ",
"++OOOOOOOO$@$  +OOOOOOOOO.....Oo.oO+Oo.o+ .oo   ",
"+@OOOOOOO@@$XXO+O+OO+OOO...o.OO.oo+@+oo@.. oo.  ",
"++OOOOOO@X$$ O+OOOO+OOO.....OOO.ooO+oo@o.. oo.  ",
"++OOOOO@@@X +OOOO+OOOO...o.OOoO ooO.O@Oo.. oo   ",
"++OOOO@@$X OOOOOOOOOO.o...OOOOO..o.o@oo.. .oo   ",
"+@OOO@@$X XOO+OO+OOO...X.OOOOoO.. o+oo... ..o.  ",
"++OO@@$X  OOOOOOOOO.....OOOOoOOO .+.....  Ooo   ",
"+@OX@$X XOOOOOOOOO...o.OOOOOOOOooo.....  O.oo.  ",
"@+OOX  OOOOOOOOOO.....OOOOoOoOoOoO..  ..oooo..  ",
"+@OOO OOOOOOOOOO...X.OOOOOOOOOOooOoooooooo.oo   ",
"@+OOOOOOOOOOOOO......OOOOOoOoOoOooooooooooo.o   ",
"+@oo.o.o.oo.oo.......................... . ..   ",
"@............      ..... . .. .                 ",
".......... ...   ... .   .                      "
};
