/* XPM */
static char * ledgreennew_xpm[] = {
"16 16 130 2",
"  	c None",
". 	c #000000",
"+ 	c #2C0E08",
"@ 	c #662117",
"# 	c #89281D",
"$ 	c #982B1D",
"% 	c #94291D",
"& 	c #772218",
"* 	c #572F23",
"= 	c #571D14",
"- 	c #8C2A1E",
"; 	c #A22D20",
"> 	c #B12D20",
", 	c #BA2F1E",
"' 	c #BD321F",
") 	c #B72E1E",
"! 	c #A92B1E",
"~ 	c #742218",
"{ 	c #531C13",
"] 	c #8A2A1E",
"^ 	c #A52D20",
"/ 	c #BA2D1F",
"( 	c #CC361E",
"_ 	c #D6421F",
": 	c #DB4C20",
"< 	c #D95333",
"[ 	c #C8361E",
"} 	c #B02B1E",
"| 	c #772318",
"1 	c #290D0A",
"2 	c #7C271D",
"3 	c #9D2E21",
"4 	c #B62D20",
"5 	c #CC2E1E",
"6 	c #DD401E",
"7 	c #EB7325",
"8 	c #F5AB44",
"9 	c #EB6D24",
"0 	c #DB421D",
"a 	c #C52D1C",
"b 	c #A82A1D",
"c 	c #42130D",
"d 	c #541D15",
"e 	c #872B20",
"f 	c #A62E21",
"g 	c #C02D1F",
"h 	c #D6311D",
"i 	c #E74A1E",
"j 	c #F5952B",
"k 	c #FFFFFF",
"l 	c #F7B145",
"m 	c #E5491E",
"n 	c #D0301C",
"o 	c #B52C1E",
"p 	c #7A2318",
"q 	c #67221A",
"r 	c #8E2C20",
"s 	c #AC2F21",
"t 	c #C42D1F",
"u 	c #D82C1B",
"v 	c #E83E1B",
"w 	c #F26B21",
"x 	c #F9B150",
"y 	c #F58C3F",
"z 	c #E63D1B",
"A 	c #D32C1A",
"B 	c #B92C1E",
"C 	c #93281C",
"D 	c #68231B",
"E 	c #8E2C21",
"F 	c #AA2F22",
"G 	c #C22E20",
"H 	c #D62A1C",
"I 	c #E33119",
"J 	c #ED4524",
"K 	c #F0511B",
"L 	c #ED5520",
"M 	c #E13119",
"N 	c #D02A1B",
"O 	c #B72C1E",
"P 	c #91281D",
"Q 	c #571F15",
"R 	c #892C1F",
"S 	c #A42F23",
"T 	c #BB2F22",
"U 	c #CE2C1E",
"V 	c #E45846",
"W 	c #E22917",
"X 	c #E52B17",
"Y 	c #E12817",
"Z 	c #D7281A",
"` 	c #C72B1D",
" .	c #AF2D1F",
"..	c #77241A",
"+.	c #2C100A",
"@.	c #7D2A1F",
"#.	c #992F22",
"$.	c #B03022",
"%.	c #C12E20",
"&.	c #CD2C1E",
"*.	c #D52A1C",
"=.	c #D6291B",
"-.	c #D32A1C",
";.	c #C92B1D",
">.	c #B92E20",
",.	c #A02C1F",
"'.	c #41140D",
").	c #591F17",
"!.	c #892D21",
"~.	c #9F3023",
"{.	c #C32E1F",
"].	c #BF2E1F",
"^.	c #B52E20",
"/.	c #A42D21",
"(.	c #712419",
"_.	c #5E2117",
":.	c #8A2E21",
"<.	c #9A3023",
"[.	c #A63023",
"}.	c #AC3023",
"|.	c #AD3022",
"1.	c #A82F21",
"2.	c #70241A",
"3.	c #31110B",
"4.	c #6A241B",
"5.	c #882C20",
"6.	c #922E21",
"7.	c #8C2D20",
"8.	c #74271C",
"9.	c #3A130D",
"          . . . . .             ",
"      . + @ # $ % & * .         ",
"    . = - ; > , ' ) ! ~ .       ",
"    { ] ^ / ( _ : < [ } |       ",
"  1 2 3 4 5 6 7 8 9 0 a b c     ",
"  d e f g h i j k l m n o p     ",
"  q r s t u v w x y z A B C     ",
"  D E F G H I J K L M N O P     ",
"  Q R S T U V W X Y Z `  ...    ",
"  +.@.#.$.%.&.*.=.-.;.>.,.'.    ",
"    ).!.~.$.T G {.].^./.(.      ",
"    . _.:.<.[.}.|.1.3 2..       ",
"      . 3.4.5.6.7.8.9..         ",
"          . . . . .             ",
"                                ",
"                                "};
