/* XPM */
static char * ledred_xpm[] = {
"16 16 5 1",
" 	c None",
".	c #000000",
"+	c #808080",
"@	c #FF0000",
"#	c #FF8C8C",
"     .....      ",
"   ..+++++..    ",
"  .+++++++++.   ",
" .+++@@@@@+++.  ",
" .++@@@@@@@++.  ",
".++@@####@@@++. ",
".++@@####@@@++. ",
".++@@####@@@++. ",
".++@@####@@@++. ",
".++@@@@@@@@@++. ",
" .++@@@@@@@++.  ",
" .+++@@@@@+++.  ",
"  .+++++++++.   ",
"   ..+++++..    ",
"     .....      ",
"                "};
