/* XPM */
static char *list_unselect_xpm[] = {
/* columns rows colors chars-per-pixel */
"16 16 14 1",
"  c gray29",
". c #bbbbbb",
"X c #bfbfc0",
"o c #c0c0c0",
"O c #cbcacb",
"+ c #d0d0cf",
"@ c #d4d4d4",
"# c #dbdbdb",
"$ c #e0e0df",
"% c #e3e3e3",
"& c #ebebeb",
"* c #f3f3f3",
"= c #fefefe",
"- c None",
/* pixels */
"----------------",
"-              -",
"-              -",
"-  .....oOOOO  -",
"-  ..oOOOO@@#  -",
"-  OOO@@@###$  -",
"-  @@@##%%%&&  -",
"-  #$%%%&&***  -",
"-  %%&&***===  -",
"-  &**=======  -",
"-  ==========  -",
"-  ==========  -",
"-  ==========  -",
"-              -",
"-              -",
"----------------"
};
