/* XPM */
static char *list_select_xpm[] = {
/* columns rows colors chars-per-pixel */
"16 16 14 1",
"  c gray29",
". c #105292",
"X c #bababa",
"o c #c0c0c0",
"O c #cacaca",
"+ c #d3d3d3",
"@ c #dcdddd",
"# c #e4e4e4",
"$ c #ececec",
"% c #eff0f0",
"& c #f3f3f3",
"* c #f8f8f7",
"= c #fdfdfd",
"- c None",
/* pixels */
"----------------",
"-              -",
"-            ...",
"-  XXXXXXXoO...-",
"-  XXXXXXOO....-",
"-  XXXooOO.....-",
"-  X..OO+....  -",
"-  o........$  -",
"-  O.......%&  -",
"-  +@.....&*=  -",
"-  @@#...*===  -",
"-  ##$%.*====  -",
"-  $%&*======  -",
"-              -",
"-              -",
"----------------"
};
