/* XPM */
static char * list_select_xpm[] = {
"16 16 4 1",
" 	c None",
".	c #0000FF",
"+	c #000000",
"@	c #FFFFFF",
"                ",
"                ",
"  ............  ",
"  ..........+++ ",
"  ..@@@@@@@++++ ",
"  ..@@@@@@+++++ ",
"  ..++@@@++++.  ",
"  ..++++++++..  ",
"  ..+++++++@..  ",
"  ..@+++++@@..  ",
"  ..@@+++@@@..  ",
"  ..@@@+@@@@..  ",
"  ............  ",
"  ............  ",
"                ",
"                "};
