/* XPM */
static char * mini_term_xpm[] = {
"16 16 17 1",
" 	c None",
".	c #4A4A4A",
"+	c #1C60AB",
"@	c #BABABA",
"#	c #C0C0C0",
"$	c #CBCBCB",
"%	c #000000",
"&	c #D3D3D3",
"*	c #D8D8D7",
"=	c #DBDBDB",
"-	c #E4E3E3",
";	c #EBEBEB",
">	c #F3F3F3",
",	c #E0DFDF",
"'	c #F8F8F7",
")	c #FDFDFD",
"!	c #F0EFF0",
"................",
".++++++++++++++.",
".++++++++++++++.",
"................",
".@@@@@@@@@####$.",
".@%@@@@####$$&&.",
".@@%@@###$&&&**.",
".@@%#$$$&&**==-.",
".#%$$$&&*==--;;.",
".$$&&*==---;;>>.",
".&**=,---;>>'').",
".=,---!>>>')))).",
".--;!!>'')))))).",
".;>>>'))))))))).",
".>')))))))))))).",
"................"};
