/* XPM */
static char * mini_dock_xpm[] = {
"16 16 38 1",
" 	c None",
".	c #252525",
"+	c #000000",
"@	c #3B3A3B",
"#	c #6D6D6D",
"$	c #6C6C6C",
"%	c #242424",
"&	c #454445",
"*	c #3B3B3B",
"=	c #A2A2A2",
"-	c #B6B5B6",
";	c #323232",
">	c #5C5C5C",
",	c #FFFFFF",
"'	c #E9E9E9",
")	c #D0D0D0",
"!	c #E0DFE0",
"~	c #8B8B8B",
"{	c #414141",
"]	c #C6DFDF",
"^	c #A6CECE",
"/	c #5A7070",
"(	c #909090",
"_	c #B8C9CA",
":	c #333636",
"<	c #E7E7E7",
"[	c #D8D8D8",
"}	c #3C3C3C",
"|	c #E2EFEF",
"1	c #D2E6E6",
"2	c #889C9C",
"3	c #696E6E",
"4	c #484848",
"5	c #797979",
"6	c #536464",
"7	c #AFB4B4",
"8	c #C9DADA",
"9	c #F4F4F4",
"                ",
"       .+@      ",
"      #  $%     ",
"      &+ $%     ",
"   *=====-;==   ",
"   >,,'),!*,,   ",
"   >,,~{,!*,,   ",
"   >]^/(^_:^^   ",
"   >,,~(,!*,,   ",
"   >,,~(,!*,,   ",
"   >,,~(<[},,   ",
"   >|12345611   ",
"   >|11745811   ",
"   >,,,,<9,,,   ",
"   ;~~~~~~~~~   ",
"                "};
