/* XPM */
static char *magick[] = {
/* columns rows colors chars-per-pixel */
"16 16 31 1",
"  c #0c1115",
". c #394248",
"X c #95989b",
"o c #b1b5b8",
"O c #b5b9bb",
"+ c #b8bbbe",
"@ c #babec1",
"# c #bdc1c3",
"$ c #c0c0c0",
"% c #c3c6c8",
"& c #c5c9cb",
"* c #c9ccce",
"= c #cbced0",
"- c #cdd0d2",
"; c #d1d3d5",
": c #d3d6d8",
"> c #d6d8da",
", c #dadcdd",
"< c #dddfe0",
"1 c #dfe0e1",
"2 c #e2e3e5",
"3 c #e5e7e8",
"4 c #e7e8e9",
"5 c #eaebec",
"6 c #eeeff0",
"7 c #eff1f1",
"8 c #f3f3f4",
"9 c #f7f7f8",
"0 c #f7f8f8",
"q c #fefefe",
"w c None",
/* pixels */
"w.... . ....wwww",
"w.ooo o ooO.Xwww",
"w.ooo O +++.XXww",
"w.OO+ + ##$....w",
"w.## $% &***--.w",
"w.%& *= --;:>>.w",
"w.-- ;: >>,,11.w",
"w.>>,  ,122235.w",
"w.,22222444588.w",
"w.244558788880.w",
"w.588888000qqq.w",
"w.9000qqqqqqqq.w",
"w.qqqqqqqqqqqq.w",
"w.qqqqqqqqqqqq.w",
"w.qqqqqqqqqqqq.w",
"w..............w"
};
