/* XPM */
static char * mini_find_xpm[] = {
"16 16 6 1",
" 	c None",
".	c #000000",
"+	c #FFFFFF",
"@	c #0000FF",
"#	c #C0C0FF",
"$	c #C0C0C0",
"                ",
"  ...........   ",
" .+++++++++++.  ",
" .++++++++@#+.  ",
" .+++++++++@+.  ",
" .++++$...$++.  ",
" .+++$.+++.$+.  ",
" .+++.+#+#+.+.  ",
" .+++.+@@++.+.  ",
" .+++.++@#+.+.  ",
" .@#+$.+++..+.  ",
" .+@++$....+..  ",
" .+++++++++.+.  ",
" .++@#++++++.+. ",
"  ............+.",
"              .+"};
