/* XPM */
static char * mini_build_xpm[] = {
"16 16 9 1",
" 	c None",
".	c #000000",
"+	c #C0C0C0",
"@	c #0000C0",
"#	c #FFFFFF",
"$	c #000080",
"%	c #808080",
"&	c #FFFFC0",
"*	c #A0A0A4",
"                ",
" .............. ",
" ..+@@@@@@@.+#. ",
" ...$$$$$$$.... ",
" .++++++++++++. ",
" .%............ ",
" .%&&&&&+..+.%. ",
" .%&&&&&.++..*. ",
" .%&&&&&.+#..*. ",
" .%&&+..+..+.#. ",
" .%&&.++.&&&.%. ",
" .%&&.+#.&&&... ",
" .%&&+..+&&&.*. ",
" .%&&&&&&&&&... ",
" .............. ",
"                "};
