/* XPM */
static char * mini_cvs_xpm[] = {
"16 16 16 1",
" 	c None",
".	c #36454D",
"+	c #E2E3E5",
"@	c #9FA8AE",
"#	c #A3ABB1",
"$	c #A9B1B7",
"%	c #B1B7BC",
"&	c #B8BEC3",
"*	c #C0C6C9",
"=	c #008C6F",
"-	c #C8CDD0",
";	c #D1D3D7",
">	c #D8DADC",
",	c #F2F3F4",
"'	c #0460A4",
")	c #005BA1",
"                ",
"                ",
"  .....         ",
"  .++++.        ",
"  .+@#$+...     ",
"  .+%&*+.==..   ",
"  .+-;>+.===.   ",
"  .+,+++.==').  ",
"  .+++++.==)).  ",
"  .+++++.==)).  ",
"  .......==)).  ",
"     .)))=)).   ",
"     ..))))..   ",
"       ....     ",
"                ",
"                "};
