/* XPM */
static char * mini_locals_xpm[] = {
"16 16 41 1",
" 	c None",
".	c #36454D",
"+	c #E2E3E5",
"@	c #9FA8AE",
"#	c #A3ABB1",
"$	c #A9B1B7",
"%	c #1D2878",
"&	c #B1B7BC",
"*	c #B8BEC3",
"=	c #C0C6C9",
"-	c #09104C",
";	c #656EBD",
">	c #CCCCCC",
",	c #D1D3D7",
"'	c #838ED7",
")	c #8590D8",
"!	c #8892D9",
"~	c #8B96DC",
"{	c #8E96DD",
"]	c #DEDFE2",
"^	c #8994DA",
"/	c #909ADF",
"(	c #969FE2",
"_	c #979FE3",
":	c #929CE0",
"<	c #9CA4E5",
"[	c #A1A8E8",
"}	c #A2AAE9",
"|	c #9DA5E6",
"1	c #A7AFEC",
"2	c #AEB4EF",
"3	c #AFB5F0",
"4	c #AAB1EE",
"5	c #B6BBF4",
"6	c #BABFF5",
"7	c #BCBFF7",
"8	c #C1C5FA",
"9	c #C7CAFC",
"0	c #C2C6FA",
"a	c #CCCEFF",
"b	c #D0D2FF",
"                ",
"                ",
"  .....         ",
"  .++++.        ",
"  .+@#$+.%%%%   ",
"  .+&*=--;;;%%  ",
"  .+>,-')!~;{%  ",
"  .+]+-^{/(;_%  ",
"  .+++-:_<[;}%  ",
"  .+++-|}12;3%  ",
"  ....-4356;7%  ",
"      -5789;%   ",
"      -09ab-    ",
"       ----     ",
"                ",
"                "};
