/* XPM */
static char * mini_debug_xpm[] = {
"16 16 7 1",
" 	c None",
".	c #000000",
"+	c #C0C0C0",
"@	c #0000FF",
"#	c #FFFFFF",
"$	c #FFFA00",
"%	c #585858",
"                ",
"  ............  ",
" .++++++++++++. ",
" .+@@@@@@@@@@#. ",
" .+@@@$$@@@@@#. ",
" .+@@@$@$@@@@#. ",
" .+@@@$@$@@@@#. ",
" .+@@@$$@@@@@#. ",
" .+@@@@@@@@@@#. ",
" .+++++++++++#. ",
" .+%+++%++###+. ",
" .+++%+%++#+%+. ",
" .+%+%++++#%%+. ",
" .++++++++++++. ",
"  ............  ",
"                "};
