/* XPM */
static char *magick[] = {
/* columns rows colors chars-per-pixel */
"16 16 58 1",
"  c #0c1115",
". c #394248",
"X c #81180f",
"o c #b1b5b8",
"O c #b3b7b9",
"+ c #b5b8bb",
"@ c #b6babd",
"# c #b7babc",
"$ c #b7babd",
"% c #b7bbbe",
"& c #babdc1",
"* c #bbbdc0",
"= c #bdc1c3",
"- c #bec1c4",
"; c #c0c4c6",
": c #c1c4c6",
"> c #c4c7c9",
", c #c6c9cc",
"< c #c7c9cc",
"1 c #c7cacd",
"2 c #cacecf",
"3 c #cbcdd0",
"4 c #ced1d2",
"5 c #d0d2d4",
"6 c #d2d3d6",
"7 c #d5d7d8",
"8 c #d5d7d9",
"9 c #d8dadb",
"0 c #d8dadc",
"q c #dbddde",
"w c #dbdddf",
"e c #dfe0e1",
"r c #e0e2e3",
"t c #e1e2e4",
"y c #e1e3e4",
"u c #e1e4e4",
"i c #e5e6e8",
"p c #e6e6e8",
"a c #e9eaeb",
"s c #e9ebeb",
"d c #eaeaeb",
"f c #e9eaec",
"g c #ecedee",
"h c #eceeee",
"j c #f0f0f1",
"k c #f2f3f3",
"l c #f2f3f4",
"z c #f3f4f4",
"x c #f6f6f7",
"c c #f8f9f9",
"v c #f9fafb",
"b c gray98",
"n c #fafafb",
"m c #fbfbfc",
"M c gray99",
"N c #fdfdfd",
"B c #fdfefd",
"V c white",
/* pixels */
"................",
".oooo@=<59edzvV.",
".oo@-   efzbVVV.",
".@-<50 d nVVVVV.",
".<50ys v VVVVVV.",
".9edz   VVVVVVV.",
".dlbVVVVVVVVVVV.",
"................",
".oooooooo@%*=:>.",
".o            8.",
".&-:>134580qeyp.",
".3            x.",
".0eypdsjkxbbVVV.",
".hXXXXXXXVVVVVV.",
".VVVVVVVVVVVVVV.",
"................"
};
