/* XPM */
static char *magick[] = {
/* columns rows colors chars-per-pixel */
"16 16 74 1",
"  c black",
". c #394248",
"X c gray29",
"o c #5a95cf",
"O c #659cd2",
"+ c #75a6d7",
"@ c #b9b9b9",
"# c #bababb",
"$ c #bcbcbc",
"% c #bdbdbe",
"& c #bebdbe",
"* c #87b2dc",
"= c #88b2dc",
"- c #9abfe1",
"; c #accae7",
": c #bfd5ed",
"> c #bed6ec",
", c #c0c0bf",
"< c #c0c0c0",
"1 c gray76",
"2 c #c4c5c4",
"3 c #c4c5c5",
"4 c #c5c5c4",
"5 c gray78",
"6 c #c9cac9",
"7 c #cac9c9",
"8 c #cacaca",
"9 c gray80",
"0 c #cccccd",
"q c gray81",
"w c #d1d1d2",
"e c #d1d2d2",
"r c #d2d2d1",
"t c gray83",
"y c #d4d5d4",
"u c #d7d7d7",
"i c #d9dada",
"p c #dadada",
"a c gainsboro",
"s c gray87",
"d c #dededf",
"f c #dfdfdf",
"g c #d1e2f2",
"h c #e1e1e0",
"j c #e1e1e1",
"k c #e4e3e3",
"l c #e4e3e4",
"z c #e4e4e3",
"x c #e6e6e6",
"c c #e7e6e7",
"v c #e9e9e9",
"b c #ebecec",
"n c #ecebec",
"m c #ececec",
"M c #eeeeee",
"N c #efeeee",
"B c #e4eef7",
"V c #f1f1f1",
"C c #f3f4f3",
"Z c #f4f3f4",
"A c #f4f4f3",
"S c #f4f4f4",
"D c #f6f6f6",
"F c #f4f7fb",
"G c #f4f8fb",
"H c #f8f8f8",
"J c gray98",
"K c #fafafb",
"L c #fafbfa",
"P c gray99",
"I c #fdfdfd",
"U c #fefefd",
"Y c #fefefe",
"T c white",
/* pixels */
"XXXXXXXXXXXXXXXX",
"X@@...@@@@$$113X",
"X@.TTG.$$&13580X",
"X.FBg:;.3860qrtX",
"X.:;-=+.0qwruisX",
"X.*+Ooo.tupssjjX",
"X8.ooo. ssjzcvnX",
"Xwt...   zbnnVZX",
"Xisfjzz   VZZHJX",
"XjzxvnVV   JTTTX",
"XvbMVAZJL  TTTTX",
"XVCZJLLPTTTTTTTX",
"XHJLTTTTTTTTTTTX",
"XTTTTTTTTTTTTTTX",
"XTTTTTTTTTTTTTTX",
"XXXXXXXXXXXXXXXX"
};
