/* XPM */
static char *magick[] = {
/* columns rows colors chars-per-pixel */
"16 16 87 1",
"  c #0c1115",
". c gray29",
"X c #105292",
"o c #985a03",
"O c #e0810c",
"+ c #b1b5b8",
"@ c #b2b6b8",
"# c #b2b6b9",
"$ c #b3b7ba",
"% c #b4b7ba",
"& c #b4b8bb",
"* c #b5b9bc",
"= c #b6b9bd",
"- c #b7bbbe",
"; c #b8bbbe",
": c #b9bdbf",
"> c #babdc0",
", c #bbbec1",
"< c #bcbfc2",
"1 c #bcc0c2",
"2 c #bdc1c3",
"3 c #bec1c4",
"4 c #bfc3c5",
"5 c #c0c3c5",
"6 c #c1c5c7",
"7 c #c1c5c8",
"8 c #c3c6c8",
"9 c #c5c8ca",
"0 c #c5c8cb",
"q c #c7cacb",
"w c #cacbce",
"e c #c9ccce",
"r c #cacdcf",
"t c #ccced0",
"y c #cdcfd1",
"u c #cdd0d1",
"i c #cfd2d4",
"p c #d0d1d3",
"a c #d1d3d4",
"s c #d3d5d7",
"d c #d4d6d8",
"f c #d5d8d9",
"g c #d6d8da",
"h c #d8dadc",
"j c #dadcdd",
"k c #dcdedf",
"l c #dddee0",
"z c #dfe0e1",
"x c #e0e1e2",
"c c #e2e3e4",
"v c #e3e4e5",
"b c #e3e4e6",
"n c #e5e7e7",
"m c #e6e7e8",
"M c #e7e8e9",
"N c #e8e9eb",
"B c #e9ebec",
"V c #eceded",
"C c #edeeee",
"Z c #edeeef",
"A c gray94",
"S c #f0f0f1",
"D c #f1f1f2",
"F c #f0f2f2",
"G c #f1f3f3",
"H c #f3f3f4",
"J c #f3f4f4",
"K c #f4f4f5",
"L c #f5f5f6",
"P c #f5f6f6",
"I c #f6f7f7",
"U c #f7f6f7",
"Y c #f7f8f8",
"T c #f8f8f9",
"R c #f9f9f9",
"E c #f9f9fa",
"W c gray98",
"Q c #fafafb",
"! c #fbfbfb",
"~ c #fbfbfc",
"^ c #fbfcfc",
"/ c #fcfdfd",
"( c #fdfdfd",
") c #fdfefd",
"_ c #fefefe",
"` c #fefeff",
"' c white",
/* pixels */
"................",
".XXXXXXXXXXXXXX.",
".XXXXXXXXXXXXXX.",
"................",
".++++++%&:,59qr.",
".+++&&;,569wrad.",
".+&&,2OOOOisgjl.",
".:259OooooOkxvN.",
".80ruOo  oOmBZD.",
".riagOooooODPPY.",
".ggkxbOOOOPY(((.",
".xbmBCDPYQ(((((.",
".NCDPPY((((((((.",
".GPI(((((((((((.",
".Y(((((((((((((.",
"................"
};
