/* XPM */
static char * new_file_xpm[] = {
"22 22 150 2",
"  	c None",
". 	c #30302A",
"+ 	c #1D1D1A",
"@ 	c #3D3D34",
"# 	c #DDDDC7",
"$ 	c #000000",
"% 	c #343430",
"& 	c #41413B",
"* 	c #C6C6B1",
"= 	c #FFFFEA",
"- 	c #F4F4DD",
"; 	c #5C5C56",
"> 	c #3B3B34",
", 	c #5C5C50",
"' 	c #C3C3B0",
") 	c #F4F4DA",
"! 	c #E7E7D0",
"~ 	c #DFDFC4",
"{ 	c #EEEED7",
"] 	c #DFDFC8",
"^ 	c #383834",
"/ 	c #2B2B2B",
"( 	c #39393C",
"_ 	c #9B9B8D",
": 	c #F7F7DA",
"< 	c #E5E5CE",
"[ 	c #D9D9C2",
"} 	c #D7D7C1",
"| 	c #DBDBC3",
"1 	c #E2E2CA",
"2 	c #F8F8DD",
"3 	c #A0A092",
"4 	c #000003",
"5 	c #5A5A5A",
"6 	c #949494",
"7 	c #7F7F74",
"8 	c #E3E3C8",
"9 	c #DADAC1",
"0 	c #D7D7BF",
"a 	c #DCDCC4",
"b 	c #E0E0C8",
"c 	c #E4E4CC",
"d 	c #F1F1D9",
"e 	c #F3F3DC",
"f 	c #7A7A6F",
"g 	c #626262",
"h 	c #FFFFFF",
"i 	c #656564",
"j 	c #AAAA93",
"k 	c #E3E3CD",
"l 	c #DADAC6",
"m 	c #DFDFC7",
"n 	c #E5E5CD",
"o 	c #E8E8D0",
"p 	c #E9E9D1",
"q 	c #FFFFE6",
"r 	c #DDDDC5",
"s 	c #3B3B35",
"t 	c #5C5C57",
"u 	c #6B6B6A",
"v 	c #56564D",
"w 	c #C3C3AE",
"x 	c #DFDFC5",
"y 	c #E3E3CA",
"z 	c #EDEDD4",
"A 	c #ECECD3",
"B 	c #EFEFD6",
"C 	c #F6F6DB",
"D 	c #FFFFEF",
"E 	c #616157",
"F 	c #777774",
"G 	c #CCCCC8",
"H 	c #52524C",
"I 	c #BCBCA5",
"J 	c #E3E3CB",
"K 	c #E6E6CE",
"L 	c #EBEBD2",
"M 	c #EEEED5",
"N 	c #F1F1D8",
"O 	c #F2F2DA",
"P 	c #FFFFE5",
"Q 	c #FFFFFC",
"R 	c #56564C",
"S 	c #2D2D24",
"T 	c #C9C9B1",
"U 	c #E2E2CB",
"V 	c #E9E9D0",
"W 	c #F3F3DA",
"X 	c #F4F4DB",
"Y 	c #FFFFEB",
"Z 	c #FAFAE0",
"` 	c #35352D",
" .	c #2E2E2E",
"..	c #D0D0C2",
"+.	c #F1F1D7",
"@.	c #E0E0C9",
"#.	c #EAEAD1",
"$.	c #F5F5DC",
"%.	c #F8F8DF",
"&.	c #FFFFFA",
"*.	c #2A2A26",
"=.	c #32322F",
"-.	c #C2C2B3",
";.	c #F0F0D5",
">.	c #DCDCC7",
",.	c #E7E7CF",
"'.	c #EEEED6",
").	c #F2F2D9",
"!.	c #F4F4DC",
"~.	c #F7F7DE",
"{.	c #EDEDD5",
"].	c #8E8E7E",
"^.	c #0C0C0B",
"/.	c #5D5D52",
"(.	c #E5E5CC",
"_.	c #F0F0D7",
":.	c #FEFEE3",
"<.	c #FFFFF1",
"[.	c #E8E8CF",
"}.	c #3F3F3A",
"|.	c #5B5B58",
"1.	c #DADAC5",
"2.	c #F0F0D8",
"3.	c #E7E7CE",
"4.	c #F5F5DD",
"5.	c #FCFCE5",
"6.	c #B5B5A2",
"7.	c #41413C",
"8.	c #131317",
"9.	c #A6A697",
"0.	c #FFFFEE",
"a.	c #F7F7DF",
"b.	c #FFFFED",
"c.	c #E8E8CE",
"d.	c #77776B",
"e.	c #4C4C44",
"f.	c #D4D4BC",
"g.	c #FAFAE2",
"h.	c #FEFEE4",
"i.	c #CCCCB7",
"j.	c #3E3E37",
"k.	c #919183",
"l.	c #FFFFF2",
"m.	c #FBFBE4",
"n.	c #727265",
"o.	c #181813",
"p.	c #0E0E0A",
"q.	c #FFFFE8",
"r.	c #FAFADF",
"s.	c #141413",
"                                            ",
"                                            ",
"                        .                   ",
"                    + @ # $                 ",
"                % & * = - ;                 ",
"          $ > , ' ) ! ~ { ] ^               ",
"        / ( _ : < [ } | 1 2 3 4             ",
"        5 6 7 8 9 0 a b c d e f             ",
"        g h i j k l m n o p q r s           ",
"        t h u v w x y z A B C D E           ",
"        F G H I 8 J K L M N O P Q R         ",
"        $ S T K U J V z N W X W Y Z `       ",
"         ...+.r @.K #.M N ) $.X %.&.h *.    ",
"        =.-.;.>.J ,.L '.).X !.~.D {.].^.    ",
"          /.2 (.n p A _.W X :.<.[.}.$       ",
"          |.1.2.3.L M N 4.Y 5.6.7.          ",
"          8.9.0.{.{.B a.b.c.d.e.            ",
"            > f.g._.h.b.i.j.                ",
"            $ k.0.l.m.n.o.                  ",
"              p.q.r.s.                      ",
"                $ $                         ",
"                                            "};
