/* XPM */
static char * new_file_xpm[] = {
"22 22 5 1",
" 	c None",
".	c #FFFFFF",
"+	c #A9A9A9",
"@	c #000000",
"#	c #FFFF02",
"                      ",
"                      ",
"                      ",
"               .      ",
"           .   .  .   ",
"            .+@.@.    ",
"   @@@@@@@@@@....@    ",
"   @#######@#@.....   ",
"   @#######@##@..@    ",
"   @#######@@@@.@.    ",
"   @##########@.  .   ",
"   @##########@.      ",
"   @##########@       ",
"   @##########@       ",
"   @##########@       ",
"   @##########@       ",
"   @##########@       ",
"   @##########@       ",
"   @@@@@@@@@@@@       ",
"                      ",
"                      ",
"                      "};
