/* XPM */
static char * open_file_xpm[] = {
"22 22 111 2",
"  	c None",
". 	c #000000",
"+ 	c #534D40",
"@ 	c #2C281E",
"# 	c #615A4B",
"$ 	c #4F493C",
"% 	c #4B422F",
"& 	c #BEB197",
"* 	c #F2EDE2",
"= 	c #F8F9F6",
"- 	c #B7BABC",
"; 	c #2E2B25",
"> 	c #8A816E",
", 	c #3A372E",
"' 	c #4F4B3D",
") 	c #6C6352",
"! 	c #514839",
"~ 	c #918366",
"{ 	c #FFFFF7",
"] 	c #FFFFF5",
"^ 	c #FFFFFF",
"/ 	c #F6F7F3",
"( 	c #24272A",
"_ 	c #4B4945",
": 	c #7B725F",
"< 	c #1C1C17",
"[ 	c #322F28",
"} 	c #D3C7AA",
"| 	c #998E79",
"1 	c #69604D",
"2 	c #83775C",
"3 	c #EEEADD",
"4 	c #FFFEF4",
"5 	c #FFFFF9",
"6 	c #222120",
"7 	c #685F4D",
"8 	c #8C836F",
"9 	c #C6BAA0",
"0 	c #292620",
"a 	c #423E36",
"b 	c #A2957D",
"c 	c #E0DACD",
"d 	c #FFFFFE",
"e 	c #827963",
"f 	c #938A74",
"g 	c #A99E87",
"h 	c #9B927D",
"i 	c #BAAE94",
"j 	c #21201B",
"k 	c #444037",
"l 	c #AFA286",
"m 	c #E1DED0",
"n 	c #9E937A",
"o 	c #A09880",
"p 	c #A99F87",
"q 	c #9C937E",
"r 	c #99907B",
"s 	c #968D78",
"t 	c #B7AB94",
"u 	c #23201B",
"v 	c #352E26",
"w 	c #EBE6D5",
"x 	c #91876C",
"y 	c #B8AD93",
"z 	c #A89E87",
"A 	c #988F7C",
"B 	c #998F7B",
"C 	c #988F7B",
"D 	c #968D79",
"E 	c #4A443A",
"F 	c #8B7F63",
"G 	c #000004",
"H 	c #908770",
"I 	c #9E9581",
"J 	c #978E7A",
"K 	c #978F7B",
"L 	c #9B927C",
"M 	c #BDB197",
"N 	c #26231F",
"O 	c #464135",
"P 	c #938873",
"Q 	c #9F9681",
"R 	c #9F9381",
"S 	c #A99F89",
"T 	c #968C79",
"U 	c #928875",
"V 	c #312E28",
"W 	c #433E34",
"X 	c #BBAE92",
"Y 	c #968B76",
"Z 	c #A29984",
"` 	c #968E79",
" .	c #706959",
"..	c #3A372F",
"+.	c #978E79",
"@.	c #988D79",
"#.	c #9E9580",
"$.	c #9F9680",
"%.	c #AAA089",
"&.	c #A59B84",
"*.	c #3F3B34",
"=.	c #5F5B4C",
"-.	c #A19680",
";.	c #AFA58D",
">.	c #B7AB92",
",.	c #403B34",
"'.	c #4A463B",
").	c #BCB196",
"!.	c #38362D",
"~.	c #403D34",
"{.	c #38332C",
"                                            ",
"                                            ",
"                                            ",
"                                            ",
"                                            ",
"                      . . + @               ",
"        .       . . # $ % & * = - . .       ",
"      ; > , . ' ) ! ~ { ] ^ / ( _ : <       ",
"      [ } | 1 2 3 4 5 ^ ^ . 6 7 8 9 0       ",
"        a b c d ^ ^ ^ . . e f g h i j       ",
"        k l m ^ ^ . . n o p q r s t u       ",
"          v w ^ . x y z A B C r D t j       ",
"          E F ^ G H I J C r K r L M N       ",
"          . O ^ G P Q r r r R S T U V       ",
"            W X . Y Q J C Z `  ....         ",
"            . +.. @.#.$.%.&.*..             ",
"              =.. -.;.>.,.'.                ",
"              . . ).!.~.                    ",
"                . {.                        ",
"                                            ",
"                                            ",
"                                            "};
