/* XPM */
static char * open_project_xpm[] = {
"22 22 7 1",
" 	c None",
".	c #0000FF",
"+	c #000000",
"@	c #FFFFFF",
"#	c #7F7F7F",
"$	c #595959",
"%	c #FFFF00",
"                      ",
"                      ",
"                      ",
"            ......    ",
"   +++++++   ..  ..   ",
"   +@@@@@++  ..  ..   ",
"   +@###@+@+ .. ...   ",
"   +@@@@@++++....     ",
"   +@####@##+..$$$$   ",
"   +@@@@@@@@+..@@@$   ",
"   +@######@+..%%%$   ",
"   +$$$$$$$$....%%$   ",
"   +$@@@@@@@@@@$+%$   ",
"   +$@%%%%%%%%%%+$$   ",
"   +@$@%%%%%%%%%$+$   ",
"   +@$@%%%%%%%%%%+$   ",
"   +++$@%%%%%%%%%$+   ",
"      $$$$$$$$$$$$+   ",
"                      ",
"                      ",
"                      ",
"                      "};
