/* XPM */
static char * open_project_xpm[] = {
"22 22 73 1",
" 	c None",
".	c #000000",
"+	c #534D40",
"@	c #2C281E",
"#	c #8989FF",
"$	c #615A4B",
"%	c #4F493C",
"&	c #4B422F",
"*	c #BEB197",
"=	c #F2EDE2",
"-	c #F8F9F6",
";	c #B7BABC",
">	c #A1A1A1",
",	c #6C6352",
"'	c #514839",
")	c #918366",
"!	c #FFFFF7",
"~	c #FFFFF5",
"{	c #FFFFFF",
"]	c #F6F7F3",
"^	c #24272A",
"/	c #4B4945",
"(	c #7B725F",
"_	c #1C1C17",
":	c #7171AD",
"<	c #222120",
"[	c #685F4D",
"}	c #8C836F",
"|	c #C6BAA0",
"1	c #292620",
"2	c #C0C0C0",
"3	c #827963",
"4	c #938A74",
"5	c #A99E87",
"6	c #9B927D",
"7	c #BAAE94",
"8	c #21201B",
"9	c #808080",
"0	c #A99F87",
"a	c #9C937E",
"b	c #99907B",
"c	c #968D78",
"d	c #B7AB94",
"e	c #23201B",
"f	c #ADADFF",
"g	c #998F7B",
"h	c #988F7B",
"i	c #968D79",
"j	c #978F7B",
"k	c #9B927C",
"l	c #BDB197",
"m	c #26231F",
"n	c #9F9381",
"o	c #A99F89",
"p	c #968C79",
"q	c #928875",
"r	c #312E28",
"s	c #A29984",
"t	c #968E79",
"u	c #706959",
"v	c #3A372F",
"w	c #A59B84",
"x	c #3F3B34",
"y	c #5F5B4C",
"z	c #A19680",
"A	c #AFA58D",
"B	c #B7AB92",
"C	c #403B34",
"D	c #4A463B",
"E	c #BCB196",
"F	c #38362D",
"G	c #403D34",
"H	c #38332C",
"                      ",
"                      ",
"                      ",
"                      ",
"                      ",
"           ..+@       ",
"   #### ..$%&*=-;..   ",
"   #>#>#,')!~{]^/(_   ",
"  #>#>#>::::{.<[}|1   ",
"  #22222222:.345678   ",
"  #2#>#>#>#:90abcde   ",
"  #2>f>f>f>:9ghbid8   ",
"  #2#>#>#>#:9bjbklm   ",
"  #2>f>f>f>:9bnopqr   ",
"  ::::::::::9stuv.    ",
"   9999999999wx.      ",
"       y.zABCD        ",
"       ..EFG          ",
"        .H            ",
"                      ",
"                      ",
"                      "};
