/* XPM */
static char * open_file_xpm[] = {
"22 22 6 1",
" 	c None",
".	c #000000",
"+	c #FFFFFF",
"@	c #7F7F7F",
"#	c #595959",
"$	c #FFFF00",
"                      ",
"                      ",
"                      ",
"                      ",
"   .......            ",
"   .+++++..           ",
"   .+@@@+.+.          ",
"   .+++++....         ",
"   .+@@@@+@@.@#####   ",
"   .++++++++.@++++#   ",
"   .+@@@@@@+.@$$$$#   ",
"   .############$$#   ",
"   .#++++++++++#.$#   ",
"   .#+$$$$$$$$$$.##   ",
"   .+#+$$$$$$$$$#.#   ",
"   .+#+$$$$$$$$$$.#   ",
"   ...#+$$$$$$$$$#.   ",
"      ############.   ",
"                      ",
"                      ",
"                      ",
"                      "};
