/* XPM */
static char * paste_xpm[] = {
"22 22 137 2",
"  	c None",
". 	c #383733",
"+ 	c #2F2E2C",
"@ 	c #494843",
"# 	c #000000",
"$ 	c #E7E3D2",
"% 	c #FFFFEA",
"& 	c #FFFFFF",
"* 	c #A5A496",
"= 	c #929587",
"- 	c #8E8B82",
"; 	c #B4B1AA",
"> 	c #F7F1DF",
", 	c #5C5A53",
"' 	c #908F82",
") 	c #B3B3A3",
"! 	c #C6C5B5",
"~ 	c #B4B2AC",
"{ 	c #8E8F8B",
"] 	c #5E5E57",
"^ 	c #3A3A3A",
"/ 	c #DDD9C9",
"( 	c #E8E5D5",
"_ 	c #F6F3DF",
": 	c #807E75",
"< 	c #8E8D8D",
"[ 	c #B3B2AB",
"} 	c #3E3C35",
"| 	c #878379",
"1 	c #D7D2C5",
"2 	c #E0DDCD",
"3 	c #86887C",
"4 	c #F1F1DC",
"5 	c #8A8A82",
"6 	c #333534",
"7 	c #7A776D",
"8 	c #A6A396",
"9 	c #D5D2C5",
"0 	c #D0CEBF",
"a 	c #D3D2C2",
"b 	c #D3CFC1",
"c 	c #FFFFF7",
"d 	c #DCDAC8",
"e 	c #C7C3B4",
"f 	c #D1CEBD",
"g 	c #D8D2C3",
"h 	c #CDCBBC",
"i 	c #DBDACA",
"j 	c #EFEDD8",
"k 	c #DBD8C8",
"l 	c #2B2B25",
"m 	c #D2D2BE",
"n 	c #E8E3D2",
"o 	c #CFCABC",
"p 	c #CFCDBE",
"q 	c #CCC9BA",
"r 	c #C8C6B6",
"s 	c #EEECD9",
"t 	c #202021",
"u 	c #BDBDB1",
"v 	c #D4D4BF",
"w 	c #FFFFE7",
"x 	c #5D5D54",
"y 	c #F6F0DF",
"z 	c #D6D3C4",
"A 	c #CBC7BB",
"B 	c #CBC9BA",
"C 	c #C6C4B6",
"D 	c #FFFFED",
"E 	c #5D5D62",
"F 	c #C8C8BF",
"G 	c #EBEBD1",
"H 	c #EFEFD7",
"I 	c #42423B",
"J 	c #E5E0D0",
"K 	c #CACAB9",
"L 	c #CAC9B9",
"M 	c #C6C3B4",
"N 	c #FFFEED",
"O 	c #FAFAF4",
"P 	c #29291E",
"Q 	c #C1C1AB",
"R 	c #DFDFC7",
"S 	c #FEFEE4",
"T 	c #5F5F54",
"U 	c #D8D5C6",
"V 	c #D4D2C2",
"W 	c #C8C9B8",
"X 	c #C4C3B3",
"Y 	c #FFFBE7",
"Z 	c #8C8C7B",
"` 	c #BFBFA9",
" .	c #EBEBD4",
"..	c #E0E0C9",
"+.	c #EFEFD8",
"@.	c #505047",
"#.	c #E0DDCA",
"$.	c #C8C4B5",
"%.	c #C0BCAC",
"&.	c #F1EFD8",
"*.	c #EDEDD5",
"=.	c #F1F1D9",
"-.	c #DFDFC8",
";.	c #E1E1CB",
">.	c #E6E6CD",
",.	c #FAFAE1",
"'.	c #F8F8DE",
").	c #0D0D0B",
"!.	c #BBB9A8",
"~.	c #CCC8B7",
"{.	c #CAC6B3",
"].	c #FEF8DF",
"^.	c #68685E",
"/.	c #FFFFE3",
"(.	c #DEDEC8",
"_.	c #E3E3CD",
":.	c #E9E9D2",
"<.	c #F9F9DE",
"[.	c #7B7B6E",
"}.	c #94917F",
"|.	c #F1ECD2",
"1.	c #FCFCE0",
"2.	c #F0F0D7",
"3.	c #FFFFEC",
"4.	c #FEFEE5",
"5.	c #A6A693",
"6.	c #030303",
"7.	c #6D6D5F",
"8.	c #FFFFE4",
"9.	c #999989",
"0.	c #3F3F3A",
"a.	c #0C0C0C",
"b.	c #171714",
"c.	c #C1C1AD",
"d.	c #252521",
"e.	c #161612",
"f.	c #232320",
"                                            ",
"                                            ",
"                                            ",
"                . + @                       ",
"          # # # $ % & #           # #       ",
"      # # # * = - ; > ,     # # # # # #     ",
"    # ' ) ! ~ { ] ^ / ( #         # #       ",
"    # & _ : < [ } | 1 2 3 #                 ",
"      # 4 5 6 7 8 9 0 a b #   #             ",
"      # c d e f g h i j k # l m #           ",
"        # n o p q r s # t u v w x #         ",
"        # y z A B C D # & E F G H I #       ",
"          # J K L M N # O P Q R S T #       ",
"          # U V W X Y # Z `  ...+.H @.#     ",
"          # # #.$.%.&.# *.=.-.;.>.,.'.).    ",
"            # !.~.{.].# ^./.(._.:.<.& [.#   ",
"            # }.|.# # # # 1.+.2.3.4.5.# #   ",
"              # # #     6.7.& 8.9.0.a.      ",
"                          b.c.d.e.          ",
"                            f.              ",
"                                            ",
"                                            "};
