/* XPM */
static char * paste_xpm[] = {
"22 22 46 1",
" 	c None",
".	c #000000",
"+	c #8D7155",
"@	c #745C45",
"#	c #010101",
"$	c #747474",
"%	c #828282",
"&	c #717171",
"*	c #868686",
"=	c #656565",
"-	c #060503",
";	c #81674D",
">	c #8C7054",
",	c #19140F",
"'	c #CC9966",
")	c #303030",
"!	c #FFFFFF",
"~	c #A9A9A9",
"{	c #2E2E2E",
"]	c #C6C6C6",
"^	c #353331",
"/	c #2A2118",
"(	c #2D2D2D",
"_	c #FCFCFC",
":	c #F0F0F0",
"<	c #161616",
"[	c #1B1209",
"}	c #080808",
"|	c #2C2C2C",
"1	c #040404",
"2	c #100A05",
"3	c #121212",
"4	c #191919",
"5	c #1A1A1A",
"6	c #171717",
"7	c #FEFEFE",
"8	c #F9F9F9",
"9	c #FAFBFB",
"0	c #FAFAFA",
"a	c #F8F8F9",
"b	c #7D5329",
"c	c #704A25",
"d	c #2A2A2A",
"e	c #2A2A29",
"f	c #292929",
"g	c #1E1E1E",
"                      ",
"                      ",
"                      ",
"    ............      ",
"   .+@#$%&&*=-;>,     ",
"   .'')!~{{]!^''/     ",
"   .'(_______:<'[     ",
"   .'}{{{{{{{|1'[     ",
"   .''''''''''''2     ",
"   .''''''.345446     ",
"   .''''''.!_7_8!.    ",
"   .''''''.!9_0a!!.   ",
"   .''''''.!!!!!!!.   ",
"   .''''''.!!...!!.   ",
"   .''''''.!!!!!!!.   ",
"   .''''''.!!9999!.   ",
"   .bbbbbc.!!ddef!.   ",
"    .......!!!!!!9.   ",
"          .gdddefff   ",
"                      ",
"                      ",
"                      "};
