/* XPM */
static char * prefs_messages_xpm[] = {
"16 16 125 2",
"  	c None",
". 	c #000000",
"+ 	c #ECECEC",
"@ 	c #ECEDEC",
"# 	c #EDEDED",
"$ 	c #EEEEEE",
"% 	c #EFEFEF",
"& 	c #F0F0F0",
"* 	c #F1F1F1",
"= 	c #F2F2F2",
"- 	c #F4F3F3",
"; 	c #F4F4F4",
"> 	c #F5F5F6",
", 	c #636363",
"' 	c #6B6B6B",
") 	c #7B7B7B",
"! 	c #808080",
"~ 	c #787878",
"{ 	c #595959",
"] 	c #949494",
"^ 	c #F5F6F6",
"/ 	c #F6F7F6",
"( 	c #676767",
"_ 	c #DBDBDB",
": 	c #F9F9F9",
"< 	c #CCCCCD",
"[ 	c #858585",
"} 	c #929393",
"| 	c #F4F4F5",
"1 	c #F6F6F6",
"2 	c #F6F6F7",
"3 	c #F7F7F8",
"4 	c #7F7F7F",
"5 	c #DCDCDC",
"6 	c #B3B4B4",
"7 	c #989491",
"8 	c #D5CEC9",
"9 	c #C5BDB9",
"0 	c #94908D",
"a 	c #F6F5F5",
"b 	c #F7F7F7",
"c 	c #F7F8F8",
"d 	c #EEEEED",
"e 	c #6C6C6C",
"f 	c #F3F2F2",
"g 	c #181B21",
"h 	c #333F49",
"i 	c #3A4C55",
"j 	c #2F3941",
"k 	c #595D64",
"l 	c #535A60",
"m 	c #717273",
"n 	c #F9F9FA",
"o 	c #9E9D9C",
"p 	c #494745",
"q 	c #1A364A",
"r 	c #194C6E",
"s 	c #134969",
"t 	c #0F4261",
"u 	c #124566",
"v 	c #0E3C58",
"w 	c #212A2F",
"x 	c #FBFBFA",
"y 	c #F0EFEF",
"z 	c #D0CFD0",
"A 	c #CDCDCD",
"B 	c #61605F",
"C 	c #6A7A83",
"D 	c #88A2B2",
"E 	c #637B8B",
"F 	c #455E6D",
"G 	c #3B5665",
"H 	c #334A57",
"I 	c #2E3234",
"J 	c #FBFBFC",
"K 	c #F0F0F1",
"L 	c #F1F2F1",
"M 	c #F2F3F3",
"N 	c #7C7C7D",
"O 	c #8A837F",
"P 	c #B0A59F",
"Q 	c #796D67",
"R 	c #544842",
"S 	c #4D413A",
"T 	c #433A34",
"U 	c #363433",
"V 	c #FCFDFD",
"W 	c #F3F2F3",
"X 	c #6F6F6F",
"Y 	c #7A7B7C",
"Z 	c #8E8F90",
"` 	c #5A5A5B",
" .	c #454647",
"..	c #4A4A4B",
"+.	c #404141",
"@.	c #333333",
"#.	c #FDFDFD",
"$.	c #F4F5F5",
"%.	c #626363",
"&.	c #6D6D6D",
"*.	c #434443",
"=.	c #3A3A3A",
"-.	c #404040",
";.	c #373737",
">.	c #2C2C2C",
",.	c #FDFEFD",
"'.	c #F3F3F3",
").	c #F4F5F4",
"!.	c #F6F5F6",
"~.	c #888888",
"{.	c #424242",
"].	c #363636",
"^.	c #343434",
"/.	c #343333",
"(.	c #303030",
"_.	c #4E4E4E",
":.	c #FEFEFF",
"<.	c #F5F4F5",
"[.	c #F8F8F8",
"}.	c #FAFAFA",
"|.	c #FBFBFB",
"1.	c #FCFDFC",
"2.	c #FEFEFE",
"3.	c #FEFFFE",
"4.	c #FFFFFF",
"                                ",
"    . . . . . . . . . . . .     ",
"  . + + @ # $ % & * = - ; > .   ",
"  . + , ' ) ! ~ { ] - ; ^ / .   ",
"  . + ( ] _ : < [ } | 1 2 3 .   ",
"  . # 4 5 6 7 8 9 0 a b c : .   ",
"  . d e f ~ g h i j k l m n .   ",
"  . $ ) o p q r s t u v w x .   ",
"  . y z A B C D E F G H I J .   ",
"  . K L M N O P Q R S T U V .   ",
"  . = W - X Y Z `  ...+.@.#..   ",
"  . f - $.e %.&.*.=.-.;.>.,..   ",
"  . '.).!.~.{.].^./.^.(._.:..   ",
"  . <.1 b [.: }.|.1.#.2.3.4..   ",
"    . . . . . . . . . . . .     ",
"                                "};
