/* XPM */
static char * preferences_xpm[] = {
"18 18 10 1",
" 	c None",
".	c #000000",
"+	c #FFFFFF",
"@	c #FFE69B",
"#	c #3D3D3D",
"$	c #FF0000",
"%	c #38300F",
"&	c #111111",
"*	c #3E3E3E",
"=	c #212121",
"                  ",
"                  ",
"        ...       ",
"     ...+++.   .  ",
"   ...+++++.  .@. ",
"  #+++++++++..@.  ",
" .+++$++++++.@.   ",
" .+++$+++++.@..   ",
" .++$$++++.@.+.   ",
"  .++++++.@.+++.  ",
"   .++++.@.++++.  ",
"   .++++%.+++++.  ",
"    .++++++++..   ",
"    &+++++++.     ",
"     *++++..      ",
"     =.+..        ",
"       .          ",
"                  "};
