/* XPM */
static char * prefs_build_xpm[] = {
"16 16 79 1",
" 	c None",
".	c #000000",
"+	c #ECECEC",
"@	c #EDECEC",
"#	c #EEEDED",
"$	c #EEEEEE",
"%	c #EFEFEF",
"&	c #EFF0F0",
"*	c #F1F1F1",
"=	c #F2F2F2",
"-	c #F3F3F3",
";	c #F4F5F4",
">	c #D9D9D9",
",	c #A8A7A7",
"'	c #636363",
")	c #010101",
"!	c #191919",
"~	c #7D7D7D",
"{	c #ABABAB",
"]	c #E8E7E7",
"^	c #F4F4F4",
"/	c #F5F6F6",
"(	c #D9D8D9",
"_	c #0D0D0D",
":	c #2D2C2B",
"<	c #E3E7ED",
"[	c #080807",
"}	c #E9E9E9",
"|	c #F7F7F7",
"1	c #ECEDEC",
"2	c #A1A1A1",
"3	c #31312F",
"4	c #989793",
"5	c #1C1C1B",
"6	c #C9C9C9",
"7	c #F8F8F8",
"8	c #EDEDED",
"9	c #6D6D6D",
"0	c #282827",
"a	c #141414",
"b	c #777877",
"c	c #F9F9F9",
"d	c #0B0B0B",
"e	c #8D8C89",
"f	c #121212",
"g	c #FAFAFB",
"h	c #232323",
"i	c #82817E",
"j	c #7D7C78",
"k	c #2D2D2D",
"l	c #FBFBFC",
"m	c #F0F0F0",
"n	c #868686",
"o	c #242423",
"p	c #0F0F0F",
"q	c #959595",
"r	c #FDFCFC",
"s	c #F0F0F1",
"t	c #A6A6A6",
"u	c #302F2E",
"v	c #1B1B1B",
"w	c #CFCFCF",
"x	c #FDFDFD",
"y	c #1A1919",
"z	c #040404",
"A	c #F6F6F6",
"B	c #FEFEFE",
"C	c #F5F5F4",
"D	c #CDCDCD",
"E	c #787778",
"F	c #D2D2D2",
"G	c #FFFFFF",
"H	c #F5F4F5",
"I	c #F6F6F5",
"J	c #F7F6F7",
"K	c #FAFAFA",
"L	c #FBFBFB",
"M	c #FCFCFC",
"N	c #FEFFFE",
"                ",
"  ............  ",
" .+++@#$%&*=-;. ",
" .++>,')!~{]^/. ",
" .+(_::<<::[}|. ",
" .123<<4444567. ",
" .890<44444abc. ",
" .$d<44..44efg. ",
" .%hi44..44jkl. ",
" .mno444444pqr. ",
" .stu444444vwx. ",
" .=][yyejyyzAB. ",
" .-C}DEfkqFABG. ",
" .HIJ7cKLMxBNG. ",
"  ............  ",
"                "};
