/* XPM */
static char * prefs_autoformat_xpm[] = {
"16 16 68 1",
" 	c None",
".	c #000000",
"+	c #ECECEC",
"@	c #ECEDEC",
"#	c #EDEDED",
"$	c #EEEEEE",
"%	c #EFEFEF",
"&	c #F0F0F0",
"*	c #F1F1F1",
"=	c #F2F2F2",
"-	c #F4F3F3",
";	c #F4F4F4",
">	c #F5F5F6",
",	c #ECECED",
"'	c #EDEDEE",
")	c #F0EFF0",
"!	c #F5F6F6",
"~	c #F6F7F6",
"{	c #F6F6F6",
"]	c #F6F6F7",
"^	c #F7F7F8",
"/	c #EFF0F0",
"(	c #F2F1F2",
"_	c #F3F3F3",
":	c #F6F5F5",
"<	c #F7F7F7",
"[	c #F7F8F8",
"}	c #F9F9F9",
"|	c #EEEEED",
"1	c #EFEFEE",
"2	c #F9F9FA",
"3	c #F3F2F2",
"4	c #F4F4F3",
"5	c #F5F5F5",
"6	c #F7F7F6",
"7	c #F8F8F9",
"8	c #FAFAFA",
"9	c #FBFBFA",
"0	c #F0EFEF",
"a	c #F1F0F1",
"b	c #FBFBFC",
"c	c #F0F0F1",
"d	c #F1F2F1",
"e	c #F2F3F3",
"f	c #F3F3F4",
"g	c #F4F5F5",
"h	c #F9F9F8",
"i	c #FBFAFB",
"j	c #FCFCFC",
"k	c #FCFDFD",
"l	c #F3F2F3",
"m	c #FDFDFD",
"n	c #F9F8F8",
"o	c #FAFAFB",
"p	c #FCFCFB",
"q	c #FDFCFD",
"r	c #FDFEFD",
"s	c #F4F5F4",
"t	c #F9FAF9",
"u	c #FCFBFB",
"v	c #FEFEFE",
"w	c #FEFEFF",
"x	c #F5F4F5",
"y	c #F8F8F8",
"z	c #FBFBFB",
"A	c #FCFDFC",
"B	c #FEFFFE",
"C	c #FFFFFF",
"                ",
"  ............  ",
" .++@#$%&*=-;>. ",
" .+,'$%)*=-;!~. ",
" .+........{]^. ",
" .#$%/*(_;:<[}. ",
" .|1.........2. ",
" .$)*=3456[789. ",
" .0a.........b. ",
" .cdefg{<h}ijk. ",
" .=l.........m. ",
" .3-g><n2opqmr. ",
" ._s...t8ujmvw. ",
" .x{<y}8zAmvBC. ",
"  ............  ",
"                "};
