/* XPM */
static char * prefs_cvs_xpm[] = {
"16 16 117 2",
"  	c None",
". 	c #000000",
"+ 	c #ECECEC",
"@ 	c #ECEDEC",
"# 	c #EDEDED",
"$ 	c #EEEEEE",
"% 	c #EFEFEF",
"& 	c #F0F0F0",
"* 	c #F1F1F1",
"= 	c #F2F2F2",
"- 	c #F4F3F3",
"; 	c #F4F4F4",
"> 	c #F5F5F6",
", 	c #ECECED",
"' 	c #EDEDEE",
") 	c #F0EFF0",
"! 	c #F1EBE9",
"~ 	c #CE9089",
"{ 	c #F6F7F6",
"] 	c #EEEDED",
"^ 	c #9A9A9A",
"/ 	c #9B9A9A",
"( 	c #E7E6E7",
"_ 	c #F1F0F1",
": 	c #F1F2F1",
"< 	c #F3F3F3",
"[ 	c #F0E8E7",
"} 	c #CD8786",
"| 	c #8A081C",
"1 	c #F7F7F8",
"2 	c #6C6A6B",
"3 	c #9E9098",
"4 	c #928B8E",
"5 	c #616261",
"6 	c #DFDEDF",
"7 	c #EFE4E2",
"8 	c #CD8A88",
"9 	c #970B27",
"0 	c #8B091F",
"a 	c #F9F9F9",
"b 	c #EEEEED",
"c 	c #102219",
"d 	c #61CE8F",
"e 	c #BBECD3",
"f 	c #51484D",
"g 	c #CDCDCD",
"h 	c #EAD5CF",
"i 	c #B0424F",
"j 	c #8E0019",
"k 	c #8D0D22",
"l 	c #F9F9FA",
"m 	c #041B0F",
"n 	c #00983D",
"o 	c #6BB48F",
"p 	c #46383F",
"q 	c #D1D1D0",
"r 	c #F5F5F5",
"s 	c #F6F3F1",
"t 	c #CD9699",
"u 	c #8B0018",
"v 	c #8E0C22",
"w 	c #FBFBFA",
"x 	c #F0EFEF",
"y 	c #222222",
"z 	c #B8BAB9",
"A 	c #A4A4A4",
"B 	c #2A2A2A",
"C 	c #D1D1D1",
"D 	c #F7F6F6",
"E 	c #F9F8F8",
"F 	c #B2656F",
"G 	c #88051A",
"H 	c #FBFBFC",
"I 	c #F0F0F1",
"J 	c #1D1C1D",
"K 	c #989798",
"L 	c #848383",
"M 	c #212121",
"N 	c #D2D2D2",
"O 	c #F7F7F7",
"P 	c #F9F9F8",
"Q 	c #FBFAFB",
"R 	c #BC7480",
"S 	c #FCFDFD",
"T 	c #181718",
"U 	c #777777",
"V 	c #6A6B6B",
"W 	c #1C1C1C",
"X 	c #D3D3D3",
"Y 	c #F8F8F8",
"Z 	c #FAFAFB",
"` 	c #FCFCFC",
" .	c #FDFDFD",
"..	c #F3F2F2",
"+.	c #111111",
"@.	c #69696A",
"#.	c #6A696A",
"$.	c #1D1D1D",
"%.	c #D3D2D2",
"&.	c #FCFCFB",
"*.	c #FDFCFD",
"=.	c #FDFEFD",
"-.	c #B0B0B0",
";.	c #151515",
">.	c #161616",
",.	c #999999",
"'.	c #F4F5F4",
").	c #FAFAFA",
"!.	c #FCFBFB",
"~.	c #FEFEFE",
"{.	c #FEFEFF",
"].	c #F5F4F5",
"^.	c #F6F6F6",
"/.	c #FBFBFB",
"(.	c #FCFDFC",
"_.	c #FEFFFE",
":.	c #FFFFFF",
"                                ",
"    . . . . . . . . . . . .     ",
"  . + + @ # $ % & * = - ; > .   ",
"  . + , ' $ % ) * = - ! ~ { .   ",
"  . + ] ^ / ( _ : < [ } | 1 .   ",
"  . # 2 3 4 5 6 < 7 8 9 0 a .   ",
"  . b c d e f g ; h i j k l .   ",
"  . $ m n o p q r s t u v w .   ",
"  . x y z A B C D 1 E F G H .   ",
"  . I J K L M N O P a Q R S .   ",
"  . = T U V W X Y a Z H `  ..   ",
"  . ..+.@.#.$.%.l Z &.*. .=..   ",
"  . < -.;.>.,.'.).!.`  .~.{..   ",
"  . ].^.O Y a )./.(. .~._.:..   ",
"    . . . . . . . . . . . .     ",
"                                "};
