/* XPM */
static char * prefs_general_xpm[] = {
"16 16 113 2",
"  	c None",
". 	c #000000",
"+ 	c #ECECEC",
"@ 	c #ECEDEC",
"# 	c #EDEDED",
"$ 	c #EEEEEE",
"% 	c #EFEFEF",
"& 	c #F0F0F0",
"* 	c #F1F1F1",
"= 	c #F2F2F2",
"- 	c #F4F3F3",
"; 	c #F4F4F4",
"> 	c #F5F5F6",
", 	c #ECECED",
"' 	c #EDEDEE",
") 	c #F0EFF0",
"! 	c #F5F6F6",
"~ 	c #F6F7F6",
"{ 	c #E4E3E3",
"] 	c #CECECE",
"^ 	c #C3C2C2",
"/ 	c #C4C3C4",
"( 	c #C5C4C5",
"_ 	c #C5C5C5",
": 	c #C6C6C6",
"< 	c #C7C7C8",
"[ 	c #D5D5D5",
"} 	c #EBEBEC",
"| 	c #F7F7F8",
"1 	c #050709",
"2 	c #000F1F",
"3 	c #001122",
"4 	c #001424",
"5 	c #001626",
"6 	c #001728",
"7 	c #05080A",
"8 	c #D6D7D7",
"9 	c #F9F9F9",
"0 	c #EEEEED",
"a 	c #C5C5C4",
"b 	c #0D151A",
"c 	c #3E83AD",
"d 	c #3377A1",
"e 	c #286C96",
"f 	c #1D628C",
"g 	c #185D86",
"h 	c #175D87",
"i 	c #081015",
"j 	c #CCCCCD",
"k 	c #F9F9FA",
"l 	c #C6C5C6",
"m 	c #201F1E",
"n 	c #C8C0BB",
"o 	c #9C938E",
"p 	c #776F6A",
"q 	c #564F49",
"r 	c #49423C",
"s 	c #4A423D",
"t 	c #0E0D0C",
"u 	c #FBFBFA",
"v 	c #F0EFEF",
"w 	c #1E1E1E",
"x 	c #B1B1B2",
"y 	c #7C7D7D",
"z 	c #5C5C5C",
"A 	c #464646",
"B 	c #434343",
"C 	c #454545",
"D 	c #0D0D0D",
"E 	c #CFCFCE",
"F 	c #FBFBFC",
"G 	c #F0F0F1",
"H 	c #C6C7C6",
"I 	c #1C1C1C",
"J 	c #A5A5A5",
"K 	c #6B6B6B",
"L 	c #4F4F4F",
"M 	c #444444",
"N 	c #D0D0D0",
"O 	c #FCFDFD",
"P 	c #C8C7C8",
"Q 	c #1A1A1A",
"R 	c #979798",
"S 	c #5B5C5C",
"T 	c #474747",
"U 	c #0C0C0C",
"V 	c #FDFDFD",
"W 	c #F3F2F2",
"X 	c #D4D4D4",
"Y 	c #101010",
"Z 	c #161617",
"` 	c #0F0F0F",
" .	c #0E0E0E",
"..	c #DCDCDC",
"+.	c #FDFEFD",
"@.	c #F3F3F3",
"#.	c #EAEBEA",
"$.	c #D6D5D6",
"%.	c #CBCBCB",
"&.	c #CCCCCC",
"*.	c #CDCECD",
"=.	c #D0CFCF",
"-.	c #FEFEFF",
";.	c #F5F4F5",
">.	c #F6F6F6",
",.	c #F7F7F7",
"'.	c #F8F8F8",
").	c #FAFAFA",
"!.	c #FBFBFB",
"~.	c #FCFDFC",
"{.	c #FEFEFE",
"].	c #FEFFFE",
"^.	c #FFFFFF",
"                                ",
"    . . . . . . . . . . . .     ",
"  . + + @ # $ % & * = - ; > .   ",
"  . + , ' $ % ) * = - ; ! ~ .   ",
"  . + { ] ^ / ( _ : < [ } | .   ",
"  . # ] 1 2 3 4 5 6 6 7 8 9 .   ",
"  . 0 a b c d e f g h i j k .   ",
"  . $ l m n o p q r s t ] u .   ",
"  . v : w x y z A B C D E F .   ",
"  . G H I J K L B M C D N O .   ",
"  . = P Q R S T B C A U N V .   ",
"  . W X Y Z ` D D D  .` ..+..   ",
"  . @.#.$.%.&.*.] =.N ..; -..   ",
"  . ;.>.,.'.9 ).!.~.V {.].^..   ",
"    . . . . . . . . . . . .     ",
"                                "};
