/* XPM */
static char * prefs_styles_xpm[] = {
"16 16 64 1",
" 	c None",
".	c #000000",
"+	c #ECECEC",
"@	c #ECEDEC",
"#	c #EDEDED",
"$	c #EEEEEE",
"%	c #EFEFEF",
"&	c #F0F0F0",
"*	c #F1F1F1",
"=	c #F2F2F2",
"-	c #F4F3F3",
";	c #F4F4F4",
">	c #F5F5F6",
",	c #ECECED",
"'	c #252525",
")	c #F6F7F6",
"!	c #F0EFF0",
"~	c #F1F0F1",
"{	c #F1F2F1",
"]	c #F3F3F3",
"^	c #F4F4F5",
"/	c #F6F6F6",
"(	c #F6F6F7",
"_	c #F7F7F8",
":	c #F2F1F2",
"<	c #F9F9F9",
"[	c #EEEEED",
"}	c #EFEFEE",
"|	c #F5F5F5",
"1	c #F7F8F7",
"2	c #F8F8F9",
"3	c #F9F9FA",
"4	c #F7F7F6",
"5	c #F7F8F8",
"6	c #FAFAFA",
"7	c #FBFBFA",
"8	c #F0EFEF",
"9	c #F1F1F2",
"0	c #F3F2F2",
"a	c #F9F8F8",
"b	c #FBFBFC",
"c	c #F0F0F1",
"d	c #F4F5F5",
"e	c #B19E50",
"f	c #FBFAFB",
"g	c #FCFCFC",
"h	c #FCFDFD",
"i	c #F3F2F3",
"j	c #F7F7F7",
"k	c #F8F8F8",
"l	c #FDFDFD",
"m	c #FAFAFB",
"n	c #FDFEFD",
"o	c #F4F5F4",
"p	c #F6F5F6",
"q	c #F9FAF9",
"r	c #FCFBFB",
"s	c #FEFEFE",
"t	c #FEFEFF",
"u	c #F5F4F5",
"v	c #FBFBFB",
"w	c #FCFDFC",
"x	c #FEFFFE",
"y	c #FFFFFF",
"                ",
"  ............  ",
" .++@#$%&*=-;>. ",
" .+,.$%''''''). ",
" .+...!~{]^/(_. ",
" .#$...:]''''<. ",
" .[}%...;|/123. ",
" .$!*=...45267. ",
" .8~90;...a37b. ",
" .c'''d/.eefgh. ",
" .=i-|/jkeeegl. ",
" .0''''''meeln. ",
" .]opjkq6rglst. ",
" .u/jk<6vwlsxy. ",
"  ............  ",
"                "};
