/* XPM */
static char * prefs_editor_xpm[] = {
"16 16 67 1",
" 	c None",
".	c #000000",
"+	c #ECECEC",
"@	c #ECEDEC",
"#	c #EDEDED",
"$	c #EEEEEE",
"%	c #EFEFEF",
"&	c #F0F0F0",
"*	c #F1F1F1",
"=	c #F2F2F2",
"-	c #F4F3F3",
";	c #F4F4F4",
">	c #F5F5F6",
",	c #252525",
"'	c #F5F6F6",
")	c #F6F7F6",
"!	c #004275",
"~	c #F4F4F5",
"{	c #F6F6F6",
"]	c #F6F6F7",
"^	c #F7F7F8",
"/	c #EFF0F0",
"(	c #F2F1F2",
"_	c #F3F3F3",
":	c #F6F5F5",
"<	c #F7F7F7",
"[	c #F7F8F8",
"}	c #F9F9F9",
"|	c #EEEEED",
"1	c #F1F0F1",
"2	c #F1F2F2",
"3	c #F7F8F7",
"4	c #F8F8F9",
"5	c #F9F9FA",
"6	c #F3F2F2",
"7	c #F4F4F3",
"8	c #F5F5F5",
"9	c #FAFAFA",
"0	c #FBFBFA",
"a	c #F0EFEF",
"b	c #F9F8F8",
"c	c #FBFBFC",
"d	c #F0F0F1",
"e	c #F1F2F1",
"f	c #F2F3F3",
"g	c #F3F3F4",
"h	c #F4F5F5",
"i	c #F9F9F8",
"j	c #FBFAFB",
"k	c #FCFCFC",
"l	c #FCFDFD",
"m	c #F3F2F3",
"n	c #FDFDFD",
"o	c #FAFAFB",
"p	c #FCFCFB",
"q	c #FDFCFD",
"r	c #FDFEFD",
"s	c #F4F5F4",
"t	c #F6F5F6",
"u	c #FEFEFF",
"v	c #F5F4F5",
"w	c #F8F8F8",
"x	c #FBFBFB",
"y	c #FCFDFC",
"z	c #FEFEFE",
"A	c #FEFFFE",
"B	c #FFFFFF",
"                ",
"  ............  ",
" .++@#$%&*=-;>. ",
" .+,,,,,,,-;'). ",
" .+,!!!!!,~{]^. ",
" .#,%/*(_,:<[}. ",
" .|,%12_;,{345. ",
" .$,*=678,[490. ",
" .a,,,,,,,b50c. ",
" .defgh{<i}jkl. ",
" .=m.........n. ",
" .6-h><b5opqnr. ",
" ._st<.......u. ",
" .v{<w}9xynzAB. ",
"  ............  ",
"                "};
