/* XPM */
static char *magick[] = {
/* columns rows colors chars-per-pixel */
"18 18 18 1",
"  c black",
". c gray29",
"X c #b36b04",
"o c gray61",
"O c #bbbbbb",
"+ c #c0c0c0",
"@ c #c7c8c8",
"# c #c8c7c7",
"$ c #cccbcb",
"% c #d3d3d3",
"& c #dbdbdb",
"* c #e0dfe0",
"= c #e3e3e3",
"- c #ebebeb",
"; c #f3f4f4",
": c #f8f8f7",
"> c #fdfdfd",
", c None",
/* pixels */
",,,,,,,,,,,,,,,,,,",
",,...........,,,,,",
",,.OOOOOOO++.o,,,,",
",,.OOOOO++#@.oo,,,",
",,.OO++##@$$....,,",
",,.++##$$%%%&&&.,,",
",,.#@@$%%%XX&&=.,,",
",,.$%%&%&XXX---.,,",
",,.&&&&&XXX---;.,,",
",,.&&&=XXX--:::.,,",
",,.&==XXX;;::>>.,,",
",,.---XX:::>>>>.,,",
",,.-  ::>>>>>>>.,,",
",,.:  >>>>>>>>>.,,",
",,.>>>>>>>>>>>>.,,",
",,.>>>>>>>>>>>>.,,",
",,..............,,",
",,,,,,,,,,,,,,,,,,"
};
