/* XPM */
static char * prefs_print_xpm[] = {
"16 16 62 1",
" 	c None",
".	c #000000",
"+	c #ECECEC",
"@	c #ECEDEC",
"#	c #EDEDED",
"$	c #EEEEEE",
"%	c #EFEFEF",
"&	c #F0F0F0",
"*	c #F1F1F1",
"=	c #F2F2F2",
"-	c #F4F3F3",
";	c #F4F4F4",
">	c #F5F5F6",
",	c #ECECED",
"'	c #EDEDEE",
")	c #888888",
"!	c #F5F6F6",
"~	c #F6F7F6",
"{	c #EEEDED",
"]	c #FFFFFF",
"^	c #F6F6F7",
"/	c #F7F7F8",
"(	c #F2F1F2",
"_	c #F3F3F3",
":	c #C6C6C6",
"<	c #F7F8F8",
"[	c #F9F9F9",
"}	c #EEEEED",
"|	c #EFEFEE",
"1	c #F5F5F5",
"2	c #F8F8F9",
"3	c #F9F9FA",
"4	c #F0EFF0",
"5	c #F4F4F3",
"6	c #F7F7F6",
"7	c #FAFAFA",
"8	c #FBFBFA",
"9	c #F0EFEF",
"0	c #F1F0F1",
"a	c #F1F1F2",
"b	c #F7F6F6",
"c	c #FBFBFC",
"d	c #F0F0F1",
"e	c #F1F2F1",
"f	c #171717",
"g	c #FCFDFD",
"h	c #F3F2F3",
"i	c #7C7C7C",
"j	c #FDFDFD",
"k	c #F3F2F2",
"l	c #FDFEFD",
"m	c #F4F5F4",
"n	c #F6F5F6",
"o	c #FEFEFE",
"p	c #FEFEFF",
"q	c #F5F4F5",
"r	c #F6F6F6",
"s	c #F7F7F7",
"t	c #F8F8F8",
"u	c #FBFBFB",
"v	c #FCFDFC",
"w	c #FEFFFE",
"                ",
"  ............  ",
" .++@#$%&*=-;>. ",
" .+,'$)))));!~. ",
" .+{$)]]]]))^/. ",
" .#$%)](_;:)<[. ",
" .}|%)]_;1:)23. ",
" .$4*)]516:)78. ",
" .90a)]1b/:)8c. ",
" .def.fffffffg. ",
" .=hf%%%%%%ifj. ",
" .k-fiiiiiiifl. ",
" ._mnfffffffop. ",
" .qrst[7uvjow]. ",
"  ............  ",
"                "};
