/* XPM */
static char * print_nocolor_xpm[] = {
"48 48 179 2",
"  	c None",
". 	c #000000",
"+ 	c #6B6B6B",
"@ 	c #7F7F7F",
"# 	c #646464",
"$ 	c #585858",
"% 	c #424242",
"& 	c #494949",
"* 	c #5E5E5E",
"= 	c #222222",
"- 	c #181818",
"; 	c #4A4A4A",
"> 	c #252525",
", 	c #676767",
"' 	c #858585",
") 	c #333333",
"! 	c #2E2E2E",
"~ 	c #484848",
"{ 	c #AEAEAE",
"] 	c #969696",
"^ 	c #1B1B1B",
"/ 	c #3D3D3D",
"( 	c #212121",
"_ 	c #888888",
": 	c #656565",
"< 	c #060606",
"[ 	c #C5C5C5",
"} 	c #B6B6B6",
"| 	c #454545",
"1 	c #909090",
"2 	c #B1B1B1",
"3 	c #777777",
"4 	c #414141",
"5 	c #A2A2A2",
"6 	c #7C7C7C",
"7 	c #717171",
"8 	c #7E7E7E",
"9 	c #A7A7A7",
"0 	c #C2C2C2",
"a 	c #999999",
"b 	c #B0B0B0",
"c 	c #8A8A8A",
"d 	c #696969",
"e 	c #363636",
"f 	c #A3A3A3",
"g 	c #797979",
"h 	c #818181",
"i 	c #5F5F5F",
"j 	c #6E6E6E",
"k 	c #B5B5B5",
"l 	c #9B9B9B",
"m 	c #6F6F6F",
"n 	c #434343",
"o 	c #8F8F8F",
"p 	c #727272",
"q 	c #ACACAC",
"r 	c #565656",
"s 	c #787878",
"t 	c #A4A4A4",
"u 	c #757575",
"v 	c #8D8D8D",
"w 	c #A6A6A6",
"x 	c #3F3F3F",
"y 	c #B7B7B7",
"z 	c #989898",
"A 	c #626262",
"B 	c #404040",
"C 	c #666666",
"D 	c #A8A8A8",
"E 	c #7B7B7B",
"F 	c #2A2A2A",
"G 	c #A5A5A5",
"H 	c #4F4F4F",
"I 	c #ABABAB",
"J 	c #848484",
"K 	c #525252",
"L 	c #0C0C0C",
"M 	c #A1A1A1",
"N 	c #6D6D6D",
"O 	c #575757",
"P 	c #515151",
"Q 	c #9E9E9E",
"R 	c #B9B9B9",
"S 	c #BBBBBB",
"T 	c #535353",
"U 	c #101010",
"V 	c #0F0F0F",
"W 	c #4B4B4B",
"X 	c #6A6A6A",
"Y 	c #4E4E4E",
"Z 	c #555555",
"` 	c #BFBFBF",
" .	c #505050",
"..	c #1A1A1A",
"+.	c #282828",
"@.	c #1E1E1E",
"#.	c #9A9A9A",
"$.	c #6C6C6C",
"%.	c #9F9F9F",
"&.	c #B4B4B4",
"*.	c #949494",
"=.	c #3C3C3C",
"-.	c #464646",
";.	c #191919",
">.	c #959595",
",.	c #545454",
"'.	c #C0C0C0",
").	c #8E8E8E",
"!.	c #9D9D9D",
"~.	c #383838",
"{.	c #313131",
"].	c #B3B3B3",
"^.	c #A0A0A0",
"/.	c #CACACA",
"(.	c #BCBCBC",
"_.	c #8B8B8B",
":.	c #919191",
"<.	c #707070",
"[.	c #616161",
"}.	c #4D4D4D",
"|.	c #1F1F1F",
"1.	c #A9A9A9",
"2.	c #B8B8B8",
"3.	c #C7C7C7",
"4.	c #8C8C8C",
"5.	c #393939",
"6.	c #272727",
"7.	c #373737",
"8.	c #474747",
"9.	c #CCCCCC",
"0.	c #B2B2B2",
"a.	c #D1D1D1",
"b.	c #C3C3C3",
"c.	c #3B3B3B",
"d.	c #747474",
"e.	c #C1C1C1",
"f.	c #CECECE",
"g.	c #D5D5D5",
"h.	c #3A3A3A",
"i.	c #1C1C1C",
"j.	c #636363",
"k.	c #7A7A7A",
"l.	c #CFCFCF",
"m.	c #D9D9D9",
"n.	c #C9C9C9",
"o.	c #CDCDCD",
"p.	c #979797",
"q.	c #7D7D7D",
"r.	c #232323",
"s.	c #AFAFAF",
"t.	c #DEDEDE",
"u.	c #ADADAD",
"v.	c #828282",
"w.	c #767676",
"x.	c #323232",
"y.	c #1D1D1D",
"z.	c #737373",
"A.	c #BDBDBD",
"B.	c #DCDCDC",
"C.	c #AAAAAA",
"D.	c #606060",
"E.	c #D7D7D7",
"F.	c #C6C6C6",
"G.	c #9C9C9C",
"H.	c #4C4C4C",
"I.	c #595959",
"J.	c #C4C4C4",
"K.	c #CBCBCB",
"L.	c #010101",
"M.	c #5B5B5B",
"N.	c #121212",
"O.	c #171717",
"P.	c #BEBEBE",
"Q.	c #151515",
"R.	c #5C5C5C",
"S.	c #303030",
"T.	c #2B2B2B",
"U.	c #2D2D2D",
"V.	c #939393",
"                                                                                                ",
"                                                                                                ",
"                                                                                                ",
"                                                                                                ",
"                                                                                                ",
"                                                                                                ",
"              . . . . . . . . . . . . . . . . . . . . . . . . . . . . . . . . . .               ",
"              . + + + + + + + + + + . @ @ @ @ @ @ @ @ @ @ . # # # # # # # # # # .               ",
"              . + + + + + + + + + + . @ @ @ @ @ @ @ @ @ @ . # # # # # # # # # # .               ",
"              . + + + + + + + + + + . @ @ @ @ @ @ @ @ @ @ . # # # # # # # # # # .               ",
"              . + + + + + + + + + + . @ @ @ @ @ @ @ @ @ @ . # # # # # # # # # # .               ",
"              . + + + + + + + + + + . @ @ @ @ @ @ @ @ @ @ . # # # # # # # # # # .               ",
"              . + + + + + + + + + + . @ @ @ @ @ @ @ @ @ @ . # # # # # # # # # # .               ",
"              . + + + + + + + + + + . @ @ @ @ @ @ @ @ @ @ . # $ % & # # # # # # .               ",
"              . + + + + + + + + + + . @ @ @ @ @ @ @ @ @ @ . * = $ - ; # # # # # .               ",
"              . + + + + + + + + + + . @ @ @ @ @ @ @ @ @ @ . > , ' ) ! # # # # # .               ",
"              . + + + + + + + + + + . @ @ @ @ @ @ @ @ @ @ . ~ { ] ^ / # # # # # .               ",
"              . . . . . . . . . . . . . . . . . . . . . . ( ' _ : < . . . . . . .               ",
"              . _ _ _ _ _ _ _ _ _ _ . [ [ [ [ [ [ [ [ } | 1 2 3 4 # 5 6 7 8 9 9 .               ",
"              . _ _ _ _ _ _ _ _ _ _ . [ [ [ [ [ [ [ 0 4 a b c d e f g 7 7 h 9 9 .               ",
"              . _ _ _ _ _ _ _ _ _ _ . [ [ [ [ [ [ [ i j k l m n ' o 7 7 p a 9 9 .               ",
"              . _ _ _ _ _ _ _ _ _ _ . [ [ [ [ [ [ q r f q s i r t u 7 7 v 9 w 9 .               ",
"              . _ _ _ _ _ _ _ _ _ _ . [ [ [ [ [ [ x a y z A B w v 7 7 u w 9 9 9 .               ",
"              . _ _ _ _ _ _ _ _ _ _ . [ [ [ [ [ r C b D E F h l 7 7 7 v 9 9 9 9 .               ",
"              . _ _ _ _ _ _ _ _ _ _ . [ [ [ [ G H I k J K L M N O P A Q w 9 9 9 .               ",
"              . _ _ _ _ _ _ _ _ _ _ . [ R * * / 9 S 1 d T . % U V W X 3 w 9 9 9 .               ",
"              . _ _ _ _ _ _ _ _ _ _ . 0 Y 8 Z v ` M @  .+ . ..+.@.L 7 7 #.9 9 9 .               ",
"              . _ _ _ _ _ _ _ _ _ _ . $.6 %.3 } &.*.A -  .- =.H -.;.7 7 >.9 9 9 .               ",
"              . . . . . . . . . . . . ,.f >.>.'.).!.~...K 3 s 4 {.. . . . . . . .               ",
"              . y y y y y y y y y y < l ].^./.(._.>.#.:.<.[.}.F |.L @ c } /././..               ",
"              . y y y y y y y y y y -.w 1.2.3.a 4.b S '.j 5.( 6.e 7.8._ o /././..               ",
"              . y y y y y y y y y 1.7 9.f 0.a.^.!.b.q G _.! }.<.X Z c._ _ /././..               ",
"              . y y y y y y y y y d.o e.e.a.f.q &.g.o 5 0.1.7 ,.h.i.j._ v /././..               ",
"              . y y y y y y y y &.k.>.].l.m.n.2 o.].p.'.2 w q.6.V = r._ 5 /././..               ",
"              . y y y y y y y y s.* !.].t.3.b.o.R b u.3.^.v.w.x.6.x.y._ _ '././..               ",
"              . y y y y y y y y >.z.A.o.B.0 a.` 2 S f.G _.{ C.q.D.D.( _ _ 2 /./..               ",
"              . y y y y y y y y n 2.3.E.o.[ F.2 (./.2 I G.w 6 N i ; W _ _ A././..               ",
"              . y y y y y y y q B 2 l.l.0 S k R f.u.u.>.:.v j.O H ~ d._ !./././..               ",
"              . y y y y y y y h ).2 f.9.&.2 [ ` s.a 1.@ @ p H.K % I._ v J./././..               ",
"              . . . . . . . . . c e.K.A.{ !.&.a 9 6 d.C + n ( L.. . . . . . . . .               ",
"                              . 2 n.e.2 2 2 1._ N M.C A % N..                                   ",
"                              O.P.b.2 2 2 u.:.X d : r > Q.                                      ",
"                              R.e.y 2 2 t 1 u X S.T.U.6.                                        ",
"                              _.S R 2 2 Q 3 d.~ O.                                              ",
"                                &.2.2 2 v g [.                                                  ",
"                                0.2.2 D V.C T.                                                  ",
"                                                                                                ",
"                                                                                                "};
