/* XPM */
static char * print_xpm[] = {
"22 22 157 2",
"  	c None",
". 	c #545454",
"+ 	c #2F2F2F",
"@ 	c #585858",
"# 	c #FFFFFF",
"$ 	c #F1F0F0",
"% 	c #828383",
"& 	c #494948",
"* 	c #49494B",
"= 	c #515151",
"- 	c #FFFEFC",
"; 	c #D4D4D2",
"> 	c #898987",
", 	c #72716E",
"' 	c #151614",
") 	c #000000",
"! 	c #E5E4E4",
"~ 	c #F0EFEC",
"{ 	c #EEECEA",
"] 	c #EBEAE8",
"^ 	c #EBEBE7",
"/ 	c #F7F6F2",
"( 	c #999893",
"_ 	c #21201E",
": 	c #616161",
"< 	c #FFFFFE",
"[ 	c #EAE8E7",
"} 	c #E7E6E3",
"| 	c #E5E3E0",
"1 	c #F1F0EC",
"2 	c #BEBDBB",
"3 	c #555654",
"4 	c #676767",
"5 	c #9A9A9B",
"6 	c #949493",
"7 	c #838381",
"8 	c #FDFCF9",
"9 	c #EDECE8",
"0 	c #EAE8E3",
"a 	c #EFF0E9",
"b 	c #5B5D5C",
"c 	c #3C3C3C",
"d 	c #DADADA",
"e 	c #F6F6F6",
"f 	c #FBFBFB",
"g 	c #E8E8E7",
"h 	c #A49FA0",
"i 	c #3B3A38",
"j 	c #3D3C39",
"k 	c #868583",
"l 	c #DADAD5",
"m 	c #ACA8A5",
"n 	c #3F3E3E",
"o 	c #6E6E6E",
"p 	c #252525",
"q 	c #191919",
"r 	c #BBBBBB",
"s 	c #E8E8E8",
"t 	c #FEFEFF",
"u 	c #FAFAFA",
"v 	c #FBFCFC",
"w 	c #F8FAFA",
"x 	c #626360",
"y 	c #221E1C",
"z 	c #22211D",
"A 	c #3A3937",
"B 	c #4E4E4D",
"C 	c #6B6B6B",
"D 	c #3D3D3D",
"E 	c #030303",
"F 	c #121212",
"G 	c #D3D3D3",
"H 	c #9D9D9D",
"I 	c #9F9F9F",
"J 	c #CCCCCC",
"K 	c #F5F5F5",
"L 	c #F9F9F9",
"M 	c #F4F4F4",
"N 	c #F7F7F7",
"O 	c #B4B4B4",
"P 	c #202020",
"Q 	c #232325",
"R 	c #444444",
"S 	c #060606",
"T 	c #151515",
"U 	c #D8D8D8",
"V 	c #B7B7B7",
"W 	c #AEAEAE",
"X 	c #9E9E9E",
"Y 	c #939393",
"Z 	c #BEBEBE",
"` 	c #E3E3E3",
" .	c #EBEBEB",
"..	c #FEFEFE",
"+.	c #212121",
"@.	c #343434",
"#.	c #3B3B3B",
"$.	c #4E4E4E",
"%.	c #070707",
"&.	c #020202",
"*.	c #868686",
"=.	c #9C9C9C",
"-.	c #BFBFBF",
";.	c #B3B3B3",
">.	c #808080",
",.	c #D5D5D5",
"'.	c #878787",
").	c #171717",
"!.	c #282828",
"~.	c #3A3A3A",
"{.	c #414141",
"].	c #4A4A4A",
"^.	c #050505",
"/.	c #0D0D0D",
"(.	c #6F6F6F",
"_.	c #6C6C6C",
":.	c #919191",
"<.	c #989898",
"[.	c #A7A7A7",
"}.	c #AFAFAF",
"|.	c #969696",
"1.	c #646464",
"2.	c #0E0E0E",
"3.	c #3E3E3E",
"4.	c #434343",
"5.	c #323232",
"6.	c #111111",
"7.	c #424242",
"8.	c #4F4F4F",
"9.	c #454545",
"0.	c #494949",
"a.	c #5F5F5F",
"b.	c #797979",
"c.	c #7E7E7E",
"d.	c #8C8C8C",
"e.	c #828282",
"f.	c #2A2A2A",
"g.	c #3F3F3F",
"h.	c #383838",
"i.	c #0B0B0B",
"j.	c #2B2B2B",
"k.	c #262626",
"l.	c #575757",
"m.	c #4D4D4D",
"n.	c #656565",
"o.	c #777777",
"p.	c #2C2C2C",
"q.	c #393939",
"r.	c #181818",
"s.	c #0C0C0C",
"t.	c #232323",
"u.	c #1A1A1A",
"v.	c #8F8F8F",
"w.	c #373737",
"x.	c #1C1C1C",
"y.	c #1D1D1D",
"z.	c #080808",
"                                            ",
"                                            ",
"                                            ",
"                      . +                   ",
"                    @ # $ % & *             ",
"                  = # # - # # ; > , '       ",
"                ) ! # ~ { ] ^ / # ( _       ",
"              ) : # < ] [ } | 1 2 3         ",
"          ) 4 5 6 7 # # 8 9 0 a b )         ",
"      ) c d e f g h i j k l # m n o p )     ",
"    q r s # # t u # v w x y z A B C D E     ",
"    F G H I J e K L M N # # # O P Q R S     ",
"    T U V W X Y Z `  .f K ..H +.@.#.$.%.    ",
"    &.*.=.r -.;.X Y >.J ,.'.).!.~.{.].^.    ",
"    /.(.{._.:.<.[.O }.|.1.2.!.3.3.4.5.&.    ",
"    6.{.7.8.9.0.a.b.c.d.e.f.g.h.c 5.i.)     ",
"      ) F j.k.R l.].m.n.o.p.q.!.r.s.        ",
"              6.t.u.a.v.*.g.w./.            ",
"                    2.x.y.z.F               ",
"                                            ",
"                                            ",
"                                            "};
