/* XPM */
static char * print_color_xpm[] = {
"48 48 412 2",
"  	c None",
". 	c #000000",
"+ 	c #9F3853",
"@ 	c #5FA087",
"# 	c #329596",
"$ 	c #2D8484",
"% 	c #236162",
"& 	c #266C6D",
"* 	c #2F8D8E",
"= 	c #143131",
"- 	c #585E53",
"; 	c #0E2122",
"> 	c #266F6F",
", 	c #1B2F2D",
"' 	c #706E5E",
") 	c #A48A67",
"! 	c #343730",
"~ 	c #184445",
"{ 	c #574E3A",
"] 	c #C8B394",
"^ 	c #BA9B72",
"/ 	c #181F1C",
"( 	c #20595A",
"_ 	c #2C2217",
": 	c #A38867",
"< 	c #AB8B66",
"[ 	c #836748",
"} 	c #080505",
"| 	c #C76849",
"1 	c #B4D6B8",
"2 	c #A6C6AA",
"3 	c #4A4C3E",
"4 	c #AF9472",
"5 	c #D9B689",
"6 	c #987A56",
"7 	c #4D4636",
"8 	c #4C7B7C",
"9 	c #78CBCD",
"0 	c #5C9B9D",
"a 	c #548D8F",
"b 	c #5D9E9F",
"c 	c #7CD1D3",
"d 	c #B1D3B5",
"e 	c #3E473C",
"f 	c #B39D7F",
"g 	c #D9B487",
"h 	c #AD8D67",
"i 	c #876D4C",
"j 	c #2E3E3D",
"k 	c #79CCCE",
"l 	c #5A9899",
"m 	c #5FA1A3",
"n 	c #576859",
"o 	c #81755C",
"p 	c #D6BA95",
"q 	c #BF9D77",
"r 	c #8F7250",
"s 	c #4A493D",
"t 	c #64A6A7",
"u 	c #6AB3B5",
"v 	c #558F90",
"w 	c #71BFC1",
"x 	c #9EBBA1",
"y 	c #61604B",
"z 	c #C1A686",
"A 	c #D1B188",
"B 	c #9A7C56",
"C 	c #766248",
"D 	c #43696A",
"E 	c #7ACDCF",
"F 	c #579294",
"G 	c #69B1B2",
"H 	c #7DD0D0",
"I 	c #3D443A",
"J 	c #B49D7E",
"K 	c #DBBB93",
"L 	c #BE9D73",
"M 	c #7F6545",
"N 	c #384844",
"O 	c #7BD0D2",
"P 	c #7BCFD1",
"Q 	c #7CD0D2",
"R 	c #4F5E51",
"S 	c #7E6A4E",
"T 	c #D4B48D",
"U 	c #CEAC82",
"V 	c #9A805C",
"W 	c #372B1E",
"X 	c #61A1A2",
"Y 	c #73C3C4",
"Z 	c #97B49B",
"` 	c #5D5641",
" .	c #CBAF8B",
"..	c #DABA90",
"+.	c #A68662",
"@.	c #635741",
"#.	c #100C09",
"$.	c #77C9CB",
"%.	c #51888A",
"&.	c #416D6E",
"*.	c #3C6667",
"=.	c #487A7C",
"-.	c #75C6C8",
";.	c #A9C9AD",
">.	c #566758",
",.	c #404337",
"'.	c #C1AB8E",
").	c #DDBF99",
"!.	c #B5956C",
"~.	c #886C4A",
"{.	c #5B5C4B",
"].	c #315253",
"^.	c #0D1413",
"/.	c #0B1313",
"(.	c #375E5F",
"_.	c #4F8586",
":.	c #589597",
"<.	c #485549",
"[.	c #988564",
"}.	c #5F604B",
"|.	c #A19779",
"1.	c #DEC4A1",
"2.	c #C9A67A",
"3.	c #A2845D",
"4.	c #615640",
"5.	c #627464",
"6.	c #201B14",
"7.	c #312A1F",
"8.	c #252017",
"9.	c #0E0C0A",
"0.	c #72C0C2",
"a.	c #647564",
"b.	c #988160",
"c.	c #BCA783",
"d.	c #8E7C60",
"e.	c #DBBC92",
"f.	c #DCB88C",
"g.	c #BA996F",
"h.	c #7D6548",
"i.	c #1B1C14",
"j.	c #49574B",
"k.	c #1E1812",
"l.	c #384039",
"m.	c #61523E",
"n.	c #5B4A32",
"o.	c #1C1C17",
"p.	c #6EBABC",
"q.	c #6C573D",
"r.	c #C1A886",
"s.	c #A99881",
"t.	c #B49A77",
"u.	c #DFC2A1",
"v.	c #B0916C",
"w.	c #C4A077",
"x.	c #483A29",
"y.	c #211C13",
"z.	c #67543E",
"A.	c #94795A",
"B.	c #957A5B",
"C.	c #54422E",
"D.	c #3F3323",
"E.	c #EED680",
"F.	c #090704",
"G.	c #B39E84",
"H.	c #C7B69F",
"I.	c #B6A28A",
"J.	c #E5CDAF",
"K.	c #DABF9F",
"L.	c #AE8F68",
"M.	c #BC996F",
"N.	c #B6A07F",
"O.	c #B29570",
"P.	c #84735D",
"Q.	c #76624C",
"R.	c #635038",
"S.	c #342C21",
"T.	c #1F211D",
"U.	c #0A0E0E",
"V.	c #6C928E",
"W.	c #769F9B",
"X.	c #9BD2CC",
"Y.	c #ACE8E2",
"Z.	c #5B4831",
"`.	c #C2AB8B",
" +	c #BCAC97",
".+	c #D9BC97",
"++	c #E2CCAD",
"@+	c #BC9E77",
"#+	c #B09069",
"$+	c #D4B88D",
"%+	c #DFC098",
"&+	c #E1C4A0",
"*+	c #877155",
"=+	c #4B3C27",
"-+	c #292519",
";+	c #282A25",
">+	c #443929",
",+	c #313D39",
"'+	c #3D5250",
")+	c #749D99",
"!+	c #7AA4A0",
"~+	c #DCC676",
"{+	c #87745C",
"]+	c #DBCEBE",
"^+	c #C0A787",
"/+	c #DBB68A",
"(+	c #E8D3BB",
"_+	c #C7A57A",
":+	c #C3A177",
"<+	c #E0C7A7",
"[+	c #CFAF89",
"}+	c #CDAA7E",
"|+	c #AF8E67",
"1+	c #3C2F20",
"2+	c #525249",
"3+	c #87755A",
"4+	c #816E53",
"5+	c #4C5E57",
"6+	c #324442",
"7+	c #978652",
"8+	c #A99276",
"9+	c #D3C5B0",
"0+	c #E0C4A2",
"a+	c #E6D2B7",
"b+	c #D5B184",
"c+	c #DBB88E",
"d+	c #E7D7C3",
"e+	c #B3936C",
"f+	c #C6A57E",
"g+	c #D6B68E",
"h+	c #CFAD84",
"i+	c #85725D",
"j+	c #6A563F",
"k+	c #483D2C",
"l+	c #18201F",
"m+	c #54726F",
"n+	c #78A29E",
"o+	c #EBD37E",
"p+	c #9D8758",
"q+	c #AB977F",
"r+	c #D1B796",
"s+	c #E8D3B7",
"t+	c #EBDCC8",
"u+	c #E6CCAC",
"v+	c #DBB688",
"w+	c #E7D0B3",
"x+	c #D0B697",
"y+	c #BD9D72",
"z+	c #E1C3A0",
"A+	c #DAB588",
"B+	c #CEAA7E",
"C+	c #9E805C",
"D+	c #302B1F",
"E+	c #12100C",
"F+	c #26251F",
"G+	c #1F2725",
"H+	c #8ABBB6",
"I+	c #E4CC7B",
"J+	c #786645",
"K+	c #B6A084",
"L+	c #D9B78D",
"M+	c #EFE0CD",
"N+	c #E4CBAB",
"O+	c #E3C6A3",
"P+	c #E7D1B4",
"Q+	c #DEBC94",
"R+	c #DAB587",
"S+	c #D4B186",
"T+	c #E3C9AB",
"U+	c #C1A47F",
"V+	c #A08565",
"W+	c #897B63",
"X+	c #33372D",
"Y+	c #32291D",
"Z+	c #3C3528",
"`+	c #1E201A",
" @	c #A3DDD7",
".@	c #C2AE68",
"+@	c #8E7D58",
"@@	c #DCC09E",
"#@	c #E8D0B3",
"$@	c #EEDDCA",
"%@	c #E2C6A2",
"&@	c #E9D4BA",
"*@	c #E0C39E",
"=@	c #DFBF97",
"-@	c #E7D0B5",
";@	c #C8AB83",
">@	c #AD8F6A",
",@	c #CFB18D",
"'@	c #D2AF83",
")@	c #9B8160",
"!@	c #7B6245",
"~@	c #71674F",
"{@	c #1F241F",
"]@	c #97CCC7",
"^@	c #584E2F",
"/@	c #D9BF97",
"(@	c #E5CBAA",
"_@	c #ECDAC3",
":@	c #E7D0B4",
"<@	c #E4C9A7",
"[@	c #E4CAA8",
"}@	c #DFC19A",
"|@	c #E6CDAF",
"1@	c #D4B083",
"2@	c #C2A076",
"3@	c #CDAB7F",
"4@	c #968263",
"5@	c #8A7050",
"6@	c #7A6244",
"7@	c #4A4F45",
"8@	c #405755",
"9@	c #A1DAD4",
"0@	c #E0C978",
"a@	c #534A2D",
"b@	c #E9D2B6",
"c@	c #E2C7A3",
"d@	c #DABC91",
"e@	c #DEBE95",
"f@	c #E5D3B7",
"g@	c #D6B285",
"h@	c #D6B184",
"i@	c #BB9970",
"j@	c #B5956D",
"k@	c #B0906B",
"l@	c #7F6648",
"m@	c #70593F",
"n@	c #5C5643",
"o@	c #3E5351",
"p@	c #638582",
"q@	c #86B5B0",
"r@	c #A8975A",
"s@	c #B59C68",
"t@	c #E8D2B5",
"u@	c #E7D0B2",
"v@	c #DBB98D",
"w@	c #E2C9A8",
"x@	c #DCC3A2",
"y@	c #D9B486",
"z@	c #C09D73",
"A@	c #D0AE82",
"B@	c #A0835F",
"C@	c #9E8360",
"D@	c #907654",
"E@	c #624E37",
"F@	c #625843",
"G@	c #384C4A",
"H@	c #4C6765",
"I@	c #A7E1DB",
"J@	c #AB8E69",
"K@	c #E2C5A1",
"L@	c #E7CEB0",
"M@	c #E0C19A",
"N@	c #D7B385",
"O@	c #BFA17C",
"P@	c #DCB98D",
"Q@	c #BF9D73",
"R@	c #D0AC7F",
"S@	c #9F7E59",
"T@	c #927957",
"U@	c #816A4B",
"V@	c #876F4F",
"W@	c #58432F",
"X@	c #2D2316",
"Y@	c #020100",
"Z@	c #E5CCAD",
"`@	c #D2AE81",
" #	c #AC8B65",
".#	c #745D42",
"+#	c #80694C",
"@#	c #7D6648",
"##	c #57442E",
"$#	c #19140C",
"%#	c #010100",
"&#	c #1D1812",
"*#	c #E1C29C",
"=#	c #D6B284",
"-#	c #B7956C",
";#	c #896E4C",
">#	c #866B4C",
",#	c #816949",
"'#	c #6E583F",
")#	c #31261A",
"!#	c #1C160E",
"~#	c #725F47",
"{#	c #E2C5A0",
"]#	c #DDBB91",
"^#	c #CCA97D",
"/#	c #B5946C",
"(#	c #947857",
"_#	c #876D4D",
":#	c #3E3122",
"<#	c #372C1F",
"[#	c #3B2E20",
"}#	c #33281B",
"|#	c #AC8F6A",
"1#	c #DEBD94",
"2#	c #C5A277",
"3#	c #987A57",
"4#	c #957754",
"5#	c #5E4A33",
"6#	c #1F1810",
"7#	c #DEBC92",
"8#	c #B29169",
"9#	c #9A7C58",
"0#	c #7C6346",
"a#	c #DBB789",
"b#	c #D1AD80",
"c#	c #B9976E",
"d#	c #846949",
"e#	c #382C1E",
"                                                                                                ",
"                                                                                                ",
"                                                                                                ",
"                                                                                                ",
"                                                                                                ",
"                                                                                                ",
"              . . . . . . . . . . . . . . . . . . . . . . . . . . . . . . . . . .               ",
"              . + + + + + + + + + + . @ @ @ @ @ @ @ @ @ @ . # # # # # # # # # # .               ",
"              . + + + + + + + + + + . @ @ @ @ @ @ @ @ @ @ . # # # # # # # # # # .               ",
"              . + + + + + + + + + + . @ @ @ @ @ @ @ @ @ @ . # # # # # # # # # # .               ",
"              . + + + + + + + + + + . @ @ @ @ @ @ @ @ @ @ . # # # # # # # # # # .               ",
"              . + + + + + + + + + + . @ @ @ @ @ @ @ @ @ @ . # # # # # # # # # # .               ",
"              . + + + + + + + + + + . @ @ @ @ @ @ @ @ @ @ . # # # # # # # # # # .               ",
"              . + + + + + + + + + + . @ @ @ @ @ @ @ @ @ @ . # $ % & # # # # # # .               ",
"              . + + + + + + + + + + . @ @ @ @ @ @ @ @ @ @ . * = - ; > # # # # # .               ",
"              . + + + + + + + + + + . @ @ @ @ @ @ @ @ @ @ . , ' ) ! ~ # # # # # .               ",
"              . + + + + + + + + + + . @ @ @ @ @ @ @ @ @ @ . { ] ^ / ( # # # # # .               ",
"              . . . . . . . . . . . . . . . . . . . . . . _ : < [ } . . . . . . .               ",
"              . | | | | | | | | | | . 1 1 1 1 1 1 1 1 2 3 4 5 6 7 8 9 0 a b c c .               ",
"              . | | | | | | | | | | . 1 1 1 1 1 1 1 d e f g h i j k l a a m c c .               ",
"              . | | | | | | | | | | . 1 1 1 1 1 1 1 n o p q r s t u a a v w c c .               ",
"              . | | | | | | | | | | . 1 1 1 1 1 1 x y z A B C D E F a a G c H c .               ",
"              . | | | | | | | | | | . 1 1 1 1 1 1 I J K L M N O G a a F P Q Q c .               ",
"              . | | | | | | | | | | . 1 1 1 1 1 R S T U V W X Y a a a G c Q c c .               ",
"              . | | | | | | | | | | . 1 1 1 1 Z `  ...+.@.#.$.%.&.*.=.-.O c c c .               ",
"              . | | | | | | | | | | . 1 ;.>.>.,.'.).!.~.{.. ].^./.(._.:.P Q c c .               ",
"              . | | | | | | | | | | . d <.[.}.|.1.2.3.4.5.. 6.7.8.9.a a 0.Q c c .               ",
"              . | | | | | | | | | | . a.b.c.d.e.f.g.h.i.j.k.l.m.n.o.a a p.c c c .               ",
"              . . . . . . . . . . . . q.r.s.t.u.v.w.x.y.z.A.B.C.D.. . . . . . . .               ",
"              . E.E.E.E.E.E.E.E.E.E.F.G.H.I.J.K.L.M.N.O.P.Q.R.S.T.U.V.W.X.Y.Y.Y..               ",
"              . E.E.E.E.E.E.E.E.E.E.Z.`. +.+++@+#+$+%+&+*+=+-+;+>+,+'+)+!+Y.Y.Y..               ",
"              . E.E.E.E.E.E.E.E.E.~+{+]+^+/+(+_+:+<+[+}+|+1+2+3+4+5+6+)+)+Y.Y.Y..               ",
"              . E.E.E.E.E.E.E.E.E.7+8+9+0+(+a+b+c+d+e+f+g+h+i+j+k+l+m+)+n+Y.Y.Y..               ",
"              . E.E.E.E.E.E.E.E.o+p+q+r+s+t+u+v+w+x+y+z+A+B+C+D+E+F+G+)+H+Y.Y.Y..               ",
"              . E.E.E.E.E.E.E.E.I+J+K+L+M+N+O+P+Q+R+S+T+U+V+W+X+Y+Z+`+)+)+ @Y.Y..               ",
"              . E.E.E.E.E.E.E.E..@+@@@#@$@%@&@*@v+=@-@;@>@,@'@)@!@~@{@)+)+]@Y.Y..               ",
"              . E.E.E.E.E.E.E.E.^@/@(@_@:@<@[@v+}@|@v+1@2@3@4@5@6@7@8@)+)+9@Y.Y..               ",
"              . E.E.E.E.E.E.E.0@a@v+b@s+c@=@d@e@f@g@h@i@j@k@l@m@n@o@p@)+q@Y.Y.Y..               ",
"              . E.E.E.E.E.E.E.r@s@v+t@u@v@v+w@x@y@z@A@B@C@D@E@F@G@H@)+n+I@Y.Y.Y..               ",
"              . . . . . . . . . J@K@L@M@N@O@P@Q@R@S@T@U@V@W@X@Y@. . . . . . . . .               ",
"                              . v+Z@K@v+v+v+`@ #5@.#+#@###$#%#                                  ",
"                              &#*#O+v+v+v+=#-#;#>#,#'#)#!#                                      ",
"                              ~#{#]#v+v+^#/#(#_#:#<#[#}#                                        ",
"                              |#=@1#v+v+2#3#4#5#6#                                              ",
"                                f.7#v+v+8#9#0#                                                  ",
"                                a#7#v+b#c#d#e#                                                  ",
"                                                                                                ",
"                                                                                                "};
