/* XPM */
static char * print_xpm[] = {
"22 22 7 1",
" 	c None",
".	c #000000",
"+	c #FFFF00",
"@	c #BEBEBE",
"#	c #0000FF",
"$	c #FFFFFF",
"%	c #FF9400",
"                      ",
"                      ",
"                      ",
"      ..........      ",
"      .++++++++.      ",
"      .+.@.++++.      ",
"      .++++++++.      ",
"      .+.@.++++.      ",
"      .++++++++.      ",
"      .+.@.@.@+.      ",
"      .++++++++.      ",
"   ................   ",
"   .##############.   ",
"   .#$$%%%%%%%%%%%.   ",
"   .#$$%%%%%%%%%%%.   ",
"   .#%%%%%%%%%%%%%.   ",
"   ................   ",
"    .%%%%%%%%%%%%.    ",
"    ..............    ",
"                      ",
"                      ",
"                      "};
