/* XPM */
static char * project_xpm[] = {
"22 22 5 1",
" 	c None",
".	c #000080",
"+	c #FFFFFF",
"@	c #000000",
"#	c #FFFF00",
"                      ",
"                      ",
"                      ",
"                      ",
"   ...............    ",
"   .+.............    ",
"   @..............    ",
"   @++++@++++++++@    ",
"   @@@@+@++++++++@    ",
"   @++++@+@@@@@++@    ",
"   @@@@+@@@###@@@@@   ",
"   @++++@@########@   ",
"   @++++@@########@   ",
"   @++++@@########@   ",
"   @++++@@########@   ",
"   @++++@@########@   ",
"   @@@@@@@########@   ",
"         @@@@@@@@@@   ",
"                      ",
"                      ",
"                      ",
"                      "};
