/* XPM */
static char *magick[] = {
/* columns rows colors chars-per-pixel */
"22 22 25 1",
"  c gray29",
". c gray44",
"X c #006eaa",
"o c #e97c11",
"O c #f2a24c",
"+ c #f3a858",
"@ c #f4b169",
"# c #f6bb7c",
"$ c gray61",
"% c #bababa",
"& c #f8c58e",
"* c #facea0",
"= c #fbd8b4",
"- c #c0c0c0",
"; c #c8c8c7",
": c #cccccc",
"> c #d3d4d4",
", c #dbdbdb",
"< c #fde1c5",
"1 c #fee8d1",
"2 c #e3e3e3",
"3 c #eaeaea",
"4 c #f2f2f2",
"5 c #fdfdfd",
"6 c None",
/* pixels */
"6666666666666666666666",
"6666666666666666666666",
"6666666666666666666666",
"666            6666666",
"666 XXXXXXXXXX 6666666",
"666            6666666",
"666 %%%%%%%;;> 6666666",
"666 %%%%;;>>>2 6666666",
"666 %--::>,,23 6666666",
"666 ;;:>>,2334 6666666",
"666 >,,23....5 6666666",
"666 2234.$$$$. 6666666",
"666 3345ooooooooooo666",
"666 5555o111<=*&#@o666",
"666     o11<=*&#@+o666",
"66666666o1<=*&#@+Oo666",
"66666666o<=*&#@+OOo666",
"66666666o=*&#@+OOOo666",
"66666666ooooooooooo666",
"6666666666666666666666",
"6666666666666666666666",
"6666666666666666666666"
};
