/* XPM */
static char *magick[] = {
/* columns rows colors chars-per-pixel */
"22 22 19 1",
"  c gray29",
". c #006eaa",
"X c #ab231b",
"o c #bababa",
"O c #c0c0c0",
"+ c #c7c8c7",
"@ c #c8c7c7",
"# c #cbcbcb",
"$ c #d3d3d3",
"% c #d8d8d7",
"& c #dbdbdb",
"* c #e2e2e2",
"= c #e8e7e8",
"- c #e8e8e7",
"; c #ececec",
": c #f4f4f4",
"> c #f8f7f7",
", c #fefefd",
"< c None",
/* pixels */
"<<<<<<<<<<<<<<<<<<<<<<",
"<<<<<<<<<<<<<<<<<<<<<<",
"<<<<<<<<<<<<<<<<<<<<<<",
"<<<                <<<",
"<<< .............. <<<",
"<<< .............. <<<",
"<<<                <<<",
"<<< oooooooooooooO <<<",
"<<< ooooooooooO@@+ <<<",
"<<< oooXXXXXX@###$ <<<",
"<<< ooOOXX@#XX$$%% <<<",
"<<< @+##XX$$XX&&** <<<",
"<<< #$$%XX&*XX==-- <<<",
"<<< %%&&XXXXX;;::> <<<",
"<<< ***=XX;XX>>>,, <<<",
"<<< -;;:XX>>XX,,,, <<<",
"<<< ::>XXXX,,XX,,, <<<",
"<<< ,,,,,,,,,,,,,, <<<",
"<<<                <<<",
"<<<<<<<<<<<<<<<<<<<<<<",
"<<<<<<<<<<<<<<<<<<<<<<",
"<<<<<<<<<<<<<<<<<<<<<<"
};
