/* XPM */
static char * reload_file_xpm[] = {
"22 22 113 2",
"  	c None",
". 	c #000000",
"+ 	c #000002",
"@ 	c #1E393E",
"# 	c #030507",
"$ 	c #7D9396",
"% 	c #C5F1FC",
"& 	c #88969A",
"* 	c #657173",
"= 	c #FFFFFF",
"- 	c #2C6D78",
"; 	c #010002",
"> 	c #717B7E",
", 	c #698386",
"' 	c #D9F7FE",
") 	c #E2E0DE",
"! 	c #9EC5CE",
"~ 	c #1B373F",
"{ 	c #6E969D",
"] 	c #BDD5DD",
"^ 	c #F0FAFD",
"/ 	c #FAFFFF",
"( 	c #D8EEF2",
"_ 	c #3B6973",
": 	c #324244",
"< 	c #ADD5DD",
"[ 	c #CBDEE3",
"} 	c #FCFFFF",
"| 	c #FFFEFD",
"1 	c #B8DCE3",
"2 	c #81B1BA",
"3 	c #C7E2E6",
"4 	c #FCFBFA",
"5 	c #F7F7F7",
"6 	c #CEE8EC",
"7 	c #3D6771",
"8 	c #070203",
"9 	c #E2F7FA",
"0 	c #FFFCFC",
"a 	c #F7F9F9",
"b 	c #C6DEE2",
"c 	c #4691A0",
"d 	c #71BFCD",
"e 	c #061517",
"f 	c #477D8A",
"g 	c #C1DDE3",
"h 	c #FFFCFA",
"i 	c #FDFBFB",
"j 	c #FEFBFA",
"k 	c #E8EFF2",
"l 	c #D1E5E8",
"m 	c #297886",
"n 	c #356F78",
"o 	c #1D3741",
"p 	c #4E7D87",
"q 	c #507781",
"r 	c #080809",
"s 	c #CDE9EB",
"t 	c #DEE8EB",
"u 	c #DFF1F1",
"v 	c #0E5766",
"w 	c #4E8894",
"x 	c #2E373B",
"y 	c #3B4142",
"z 	c #41707B",
"A 	c #4D808B",
"B 	c #5F9AA6",
"C 	c #52848D",
"D 	c #B6D5DD",
"E 	c #D0E2E6",
"F 	c #276773",
"G 	c #72ABB6",
"H 	c #485256",
"I 	c #E7E4E2",
"J 	c #DFDAD8",
"K 	c #475F64",
"L 	c #3E737C",
"M 	c #558A93",
"N 	c #3E5D67",
"O 	c #050706",
"P 	c #73B1BE",
"Q 	c #4F9AA9",
"R 	c #4F666C",
"S 	c #AEB0B2",
"T 	c #F4F0F0",
"U 	c #EEEDEC",
"V 	c #939A9D",
"W 	c #598993",
"X 	c #47727D",
"Y 	c #0F191D",
"Z 	c #80A4AC",
"` 	c #73B4C1",
" .	c #617679",
"..	c #A6D1D8",
"+.	c #F6F2F1",
"@.	c #FDFAFA",
"#.	c #BEC0C0",
"$.	c #4F686F",
"%.	c #445C62",
"&.	c #6FB2BE",
"*.	c #2B6A78",
"=.	c #8B8B89",
"-.	c #9BC4CC",
";.	c #FEFDFE",
">.	c #A0A7AA",
",.	c #375860",
"'.	c #6BB8C9",
").	c #6A8B95",
"!.	c #94A7AB",
"~.	c #2C2728",
"{.	c #0C1819",
"].	c #2F2B28",
"^.	c #080B0E",
"                                            ",
"                                            ",
"          .                                 ",
"        . . . . .                           ",
"      . . . . . . . .   + @ #               ",
"        . . .     . . . $ % .               ",
"          .     . & . . * = - ;             ",
"            . > , ' ) . . = ! .             ",
"        . ~ { ] ^ / = . . = ( _ .           ",
"      : < [ } = | = = . = = = 1 .           ",
"      . 2 3 = 4 5 = . = = = = 6 7 8         ",
"        . 9 = 0 a = = = = = b c d .         ",
"        e f g h i j = k l m n o p q r       ",
"          . s = = t u v w x y z A B .       ",
"          . C D E F G H I = J K L M N O     ",
"            . P Q R = S = T U V W X Y .     ",
"            . Z `  .= . ..+.@.#.$..         ",
"              %.&.*.= =.-.;.>.. .           ",
"              . ,.'.).= !.~..               ",
"                . {.. ].^.                  ",
"                                            ",
"                                            "};
