/* XPM */
static char *magick[] = {
/* columns rows colors chars-per-pixel */
"22 22 16 1",
"  c black",
". c #b36b04",
"X c #e0810c",
"o c #e38a1e",
"O c #e69737",
"+ c #e79837",
"@ c #eaa653",
"# c #efb46e",
"$ c #b9b9b9",
"% c #f3c289",
"& c #f7d1a6",
"* c #f8d2a6",
"= c #fbdfbf",
"- c #c0c0c0",
"; c #fee8d1",
": c None",
/* pixels */
"::::::::::::::::::::::",
"::::::::::  ::::::::::",
":::::::::    :::::::::",
"::::::::      ::::::::",
"::::::::::  ::::::::::",
"::::::::::  ::::::::::",
":::::::::.  ..::::::::",
":::::....$  $...::::::",
":::..$$$$$$$$$$$..::::",
":::.;..$$$$$....@.::::",
":::.==&.....=*%#+.::::",
":::.*&%%#@.;&%#@o.::::",
":::.%%##@+.=%#@OX.::::",
":::.##@@Oo.*#@+oX.::::",
":::..@++oX.%@+oX..::::",
":::::..oXX.#....::::::",
":::::::.....::::::::::",
"::::::::::.:::::::::::",
"::::::::::::::::::::::",
"::::::::::::::::::::::",
"::::::::::::::::::::::",
"::::::::::::::::::::::"
};
