/* XPM */
static char * remove_xpm[] = {
"22 22 9 1",
" 	c None",
".	c #000000",
"+	c #ABADA4",
"@	c #DEDABD",
"#	c #182018",
"$	c #FFFFFF",
"%	c #101410",
"&	c #313831",
"*	c #101010",
"                      ",
"                      ",
"                      ",
"           .          ",
"          ...         ",
"         .....        ",
"          ...         ",
"         .....        ",
"       ..+...@..      ",
"     ..+++...@@@#     ",
"     #$.+++@@@@...    ",
"     #$$.++@@..++.    ",
"     #$$$....++++.    ",
"     #$$$$$%+++++.    ",
"     #$$$$$%+++++.    ",
"     &$$$$$%++++..    ",
"      ..$$$%+++..     ",
"        ..$*+...      ",
"          ...         ",
"                      ",
"                      ",
"                      "};
