/* XPM */
static char * run_to_cursor_xpm[] = {
"22 22 6 1",
" 	c None",
".	c #FF0000",
"+	c #000000",
"@	c #FFFF00",
"#	c #A9A9A9",
"$	c #0000FF",
"                      ",
"                      ",
"                      ",
"     ..++++++++       ",
"     ..+@@@@@@+#      ",
"     ..+@@@@@@+@#     ",
"     ..+@@@@@@+++#    ",
"     ..+@@+++@@@@#    ",
"     ..+@@@@@@@@@#    ",
"   . ..+.@@++++@@#    ",
"   ......@@@@@@@@#    ",
"    ....+@@++++@@#    ",
"     ..+@@@@@@@@@#    ",
"   $$$$$$$$$$$$@@#    ",
"   $$$$$$$$$$$$@@#    ",
"   $$$$$$$$$$$$@@#    ",
"      ++@@@@@@@@@#    ",
"      ++@@@@@@@@@#    ",
"       ###########    ",
"                      ",
"                      ",
"                      "};
