/* XPM */
static char * save_all_xpm[] = {
"22 22 158 2",
"  	c None",
". 	c #212C32",
"+ 	c #0C110F",
"@ 	c #535B5C",
"# 	c #3F4D4D",
"$ 	c #BFE4ED",
"% 	c #384E54",
"& 	c #000000",
"* 	c #636C6E",
"= 	c #344345",
"- 	c #E6FFFF",
"; 	c #F2FEFD",
"> 	c #F3FFFF",
", 	c #49737D",
"' 	c #070809",
") 	c #60686A",
"! 	c #536466",
"~ 	c #C4DDE3",
"{ 	c #EDF9FB",
"] 	c #F1F6F9",
"^ 	c #FFFFFF",
"/ 	c #A4A4A6",
"( 	c #5C7074",
"_ 	c #23353A",
": 	c #5F787F",
"< 	c #AFC7CE",
"[ 	c #EFFCFE",
"} 	c #F4FBFC",
"| 	c #AAAAAA",
"1 	c #808080",
"2 	c #6F7879",
"3 	c #0C0E10",
"4 	c #313B3D",
"5 	c #98B2B8",
"6 	c #B3C7CC",
"7 	c #F7FFFF",
"8 	c #B5B5B5",
"9 	c #6A6A6A",
"0 	c #757C7E",
"a 	c #FCFDFF",
"b 	c #9FC0C8",
"c 	c #2D4248",
"d 	c #242728",
"e 	c #A0C1C8",
"f 	c #CADFE3",
"g 	c #C6C6C6",
"h 	c #555555",
"i 	c #48575B",
"j 	c #DDECF1",
"k 	c #4F7479",
"l 	c #090A0A",
"m 	c #3C4749",
"n 	c #E5F7FA",
"o 	c #CFCFCF",
"p 	c #535C5D",
"q 	c #B6D1D8",
"r 	c #22363A",
"s 	c #182224",
"t 	c #65919A",
"u 	c #8FA0A4",
"v 	c #D1E5E9",
"w 	c #5A7B81",
"x 	c #141715",
"y 	c #435052",
"z 	c #CFE5E8",
"A 	c #9C9C9C",
"B 	c #D8E6EA",
"C 	c #6D9FAB",
"D 	c #88BAC6",
"E 	c #28373A",
"F 	c #1D282A",
"G 	c #698D97",
"H 	c #869599",
"I 	c #212B2D",
"J 	c #BFD6DC",
"K 	c #F8F9FA",
"L 	c #DCE9EC",
"M 	c #4C8491",
"N 	c #577F8A",
"O 	c #3A5259",
"P 	c #688D95",
"Q 	c #718F97",
"R 	c #101111",
"S 	c #526165",
"T 	c #83B0BA",
"U 	c #3B5960",
"V 	c #D4EAED",
"W 	c #EDF1F3",
"X 	c #E9F2F6",
"Y 	c #366D7C",
"Z 	c #5C8791",
"` 	c #324547",
" .	c #485053",
"..	c #5E8089",
"+.	c #688991",
"@.	c #7AA3AE",
"#.	c #2A383A",
"$.	c #2B373A",
"%.	c #8BA8AE",
"&.	c #5B7A7F",
"*.	c #293436",
"=.	c #C2D7DD",
"-.	c #DDEBEA",
";.	c #4C7B87",
">.	c #749FA9",
",.	c #495A5E",
"'.	c #D5D1D1",
").	c #DDD5D3",
"!.	c #5F6F72",
"~.	c #5D838C",
"{.	c #7297A1",
"].	c #68838B",
"^.	c #0B0E0E",
"/.	c #586A6F",
"(.	c #86B4BD",
"_.	c #21373B",
":.	c #6699A5",
"<.	c #53696F",
"[.	c #FFFDFD",
"}.	c #D4D4D3",
"|.	c #EFECEB",
"1.	c #E2E1E1",
"2.	c #90999B",
"3.	c #698E95",
"4.	c #64878E",
"5.	c #2E3D40",
"6.	c #161E20",
"7.	c #5A7980",
"8.	c #5D848D",
"9.	c #3C4A4E",
"0.	c #85B2BA",
"a.	c #7E8D8E",
"b.	c #000A0F",
"c.	c #B3CED4",
"d.	c #EDEBEA",
"e.	c #F2F0F0",
"f.	c #C5C5C6",
"g.	c #697C82",
"h.	c #324447",
"i.	c #0A0C0C",
"j.	c #0D1113",
"k.	c #1D2A2B",
"l.	c #436F78",
"m.	c #7B7D7F",
"n.	c #9ABAC0",
"o.	c #F4F5F4",
"p.	c #B5BABB",
"q.	c #5C5C5D",
"r.	c #0F1313",
"s.	c #141C1E",
"t.	c #84BAC7",
"u.	c #93AAB0",
"v.	c #A3AFB0",
"w.	c #413E40",
"x.	c #303635",
"y.	c #000001",
"z.	c #474342",
"A.	c #1B2020",
"                                            ",
"                      . +                   ",
"                  @ # $ % &                 ",
"            & * = - ; > , ' & . +           ",
"        & ) ! ~ { ] ^ / ( @ # $ % &         ",
"    & _ : < [ } ^ | 1 2 = - ; > , 3         ",
"  4 5 6 7 ^ ^ 8 9 0 ! ~ { ] ^ a b c &       ",
"  d e f ^ g h i : < [ } ^ ^ ^ ^ j k l       ",
"    m n o p 5 6 7 ^ ^ ^ ^ ^ ^ ^ ^ q r       ",
"    s t u d e f ^ ^ ^ ^ ^ ^ ^ ^ ^ v w x     ",
"      y z A m n ^ ^ ^ ^ ^ ^ ^ ^ B C D E     ",
"      F G H I t J ^ ^ ^ ^ K L M N O P Q R   ",
"      & S T U y V ^ ^ W X Y Z `  ...+.@.#.  ",
"        $.%.&.*.G =.-.;.>.,.'.^ ).!.~.{.].^.",
"        & /.(._.S T :.<.[.}.^ |.1.2.3.4.5.& ",
"          6.7.8.9.%.0.a.^ b.c.d.e.f.g.h.i.& ",
"            j.k.& /.(.l.^ m.n.o.p.q.r.&     ",
"                  s.7.t.u.^ v.w.x.          ",
"                    j.k.y.z.A.              ",
"                                            ",
"                                            ",
"                                            "};
