/* XPM */
static char * save_xpm[] = {
"22 22 6 1",
" 	c None",
".	c #000000",
"+	c #0000CC",
"@	c #FFFFFF",
"#	c #000066",
"$	c #C3C3C3",
"                      ",
"                      ",
"                      ",
"                      ",
"     .............    ",
"     .+@@@@@@@@++.    ",
"     .+@.....@@++.    ",
"     .+@@@@@@@@++.    ",
"     .+@...@@@@++.    ",
"     .+@@@@@@@@++.    ",
"     .+@@@@@@@@++.    ",
"     .+++++++++++.    ",
"     .+#########+.    ",
"     .+#########+.    ",
"     .+##$$$$$##+.    ",
"     .+##$$##$##+.    ",
"     .+##$$##$##+.    ",
"     .............    ",
"                      ",
"                      ",
"                      ",
"                      "};
