/* XPM */
static char * save_project_xpm[] = {
"22 22 95 2",
"  	c None",
". 	c #212C32",
"+ 	c #0C110F",
"@ 	c #535B5C",
"# 	c #3F4D4D",
"$ 	c #BFE4ED",
"% 	c #384E54",
"& 	c #000000",
"* 	c #636C6E",
"= 	c #344345",
"- 	c #E6FFFF",
"; 	c #F2FEFD",
"> 	c #F3FFFF",
", 	c #49737D",
"' 	c #0C0E10",
") 	c #8989FF",
"! 	c #60686A",
"~ 	c #536466",
"{ 	c #C4DDE3",
"] 	c #EDF9FB",
"^ 	c #F1F6F9",
"/ 	c #FFFFFF",
"( 	c #FCFDFF",
"_ 	c #9FC0C8",
": 	c #2D4248",
"< 	c #A1A1A1",
"[ 	c #EFFCFE",
"} 	c #F4FBFC",
"| 	c #DDECF1",
"1 	c #4F7479",
"2 	c #090A0A",
"3 	c #7171AD",
"4 	c #B6D1D8",
"5 	c #22363A",
"6 	c #C0C0C0",
"7 	c #D1E5E9",
"8 	c #5A7B81",
"9 	c #141715",
"0 	c #808080",
"a 	c #D8E6EA",
"b 	c #6D9FAB",
"c 	c #88BAC6",
"d 	c #28373A",
"e 	c #ADADFF",
"f 	c #4C8491",
"g 	c #577F8A",
"h 	c #3A5259",
"i 	c #688D95",
"j 	c #718F97",
"k 	c #101111",
"l 	c #324547",
"m 	c #485053",
"n 	c #5E8089",
"o 	c #688991",
"p 	c #7AA3AE",
"q 	c #2A383A",
"r 	c #DDD5D3",
"s 	c #5F6F72",
"t 	c #5D838C",
"u 	c #7297A1",
"v 	c #68838B",
"w 	c #0B0E0E",
"x 	c #EFECEB",
"y 	c #E2E1E1",
"z 	c #90999B",
"A 	c #698E95",
"B 	c #64878E",
"C 	c #2E3D40",
"D 	c #EDEBEA",
"E 	c #F2F0F0",
"F 	c #C5C5C6",
"G 	c #697C82",
"H 	c #324447",
"I 	c #0A0C0C",
"J 	c #586A6F",
"K 	c #86B4BD",
"L 	c #436F78",
"M 	c #7B7D7F",
"N 	c #9ABAC0",
"O 	c #F4F5F4",
"P 	c #B5BABB",
"Q 	c #5C5C5D",
"R 	c #0F1313",
"S 	c #161E20",
"T 	c #5A7980",
"U 	c #84BAC7",
"V 	c #93AAB0",
"W 	c #A3AFB0",
"X 	c #413E40",
"Y 	c #303635",
"Z 	c #0D1113",
"` 	c #1D2A2B",
" .	c #000001",
"..	c #474342",
"+.	c #1B2020",
"                                            ",
"                                            ",
"                                            ",
"                          . +               ",
"                      @ # $ % &             ",
"                & * = - ; > , '             ",
"      ) ) ) ) ! ~ { ] ^ / ( _ : &           ",
"      ) < ) < ) [ } / / / / | 1 2           ",
"    ) < ) < ) < 3 3 3 3 / / / 4 5           ",
"    ) 6 6 6 6 6 6 6 6 3 / / / 7 8 9         ",
"    ) 6 ) < ) < ) < ) 3 0 / a b c d         ",
"    ) 6 < e < e < e < 3 0 f g h i j k       ",
"    ) 6 ) < ) < ) < ) 3 0 l m n o p q       ",
"    ) 6 < e < e < e < 3 0 / r s t u v w     ",
"    3 3 3 3 3 3 3 3 3 3 0 x y z A B C &     ",
"      0 0 0 0 0 0 0 0 0 0 D E F G H I &     ",
"            & J K L / M N O P Q R &         ",
"              S T U V / W X Y               ",
"                Z `  ...+.                  ",
"                                            ",
"                                            ",
"                                            "};
