/* XPM */
static char * save_file_xpm[] = {
"22 22 7 1",
" 	c None",
".	c #000000",
"+	c #0000CC",
"@	c #FFFFFF",
"#	c #666666",
"$	c #000066",
"%	c #C3C3C3",
"                      ",
"                      ",
"                      ",
"                      ",
"    .............     ",
"    .+@@@@@@@@++.#    ",
"    .+@.....@@++.#    ",
"    .+@@@@@@@@++.#    ",
"    .+@...@@@@++.#    ",
"    .+@@@@@@@@++.#    ",
"    .+@@@@@@@@++.#    ",
"    .+++++++++++.#    ",
"    .+$$$$$$$$$+.#    ",
"    .+$$$$$$$$$+.#    ",
"    .+$$%%%%%$$+.#    ",
"    .+$$%%$$%$$+.#    ",
"    .+$$%%$$%$$+.#    ",
"    .............#    ",
"     #############    ",
"                      ",
"                      ",
"                      "};
