/* XPM */
static char * save_project_xpm[] = {
"22 22 8 1",
" 	c None",
".	c #0000FF",
"+	c #000000",
"@	c #0000CC",
"#	c #FFFFFF",
"$	c #666666",
"%	c #000066",
"&	c #C3C3C3",
"                      ",
"                      ",
"                      ",
"            ......    ",
"    +++++++++..++..   ",
"    +@#######..#+..   ",
"    +@#++++++..#...   ",
"    +@#######....$    ",
"    +@#+++###..#+$    ",
"    +@#######..#+$    ",
"    +@#######..#+$    ",
"    +@@@@@@#....+$    ",
"    +@%%%%%%%%%#+$    ",
"    +@%%%%%%%%%@+$    ",
"    +@%%&&&&&%%@+$    ",
"    +@%%&&%%&%%@+$    ",
"    +@%%&&%%&%%@+$    ",
"    +++++++++++++$    ",
"     $$$$$$$$$$$$$    ",
"                      ",
"                      ",
"                      "};
