/* XPM */
static char * save_file_xpm[] = {
"22 22 132 2",
"  	c None",
". 	c #212C32",
"+ 	c #0C110F",
"@ 	c #535B5C",
"# 	c #3F4D4D",
"$ 	c #BFE4ED",
"% 	c #384E54",
"& 	c #000000",
"* 	c #636C6E",
"= 	c #344345",
"- 	c #E6FFFF",
"; 	c #F2FEFD",
"> 	c #F3FFFF",
", 	c #49737D",
"' 	c #0C0E10",
") 	c #60686A",
"! 	c #536466",
"~ 	c #C4DDE3",
"{ 	c #EDF9FB",
"] 	c #F1F6F9",
"^ 	c #FFFFFF",
"/ 	c #FCFDFF",
"( 	c #9FC0C8",
"_ 	c #2D4248",
": 	c #23353A",
"< 	c #5F787F",
"[ 	c #AFC7CE",
"} 	c #EFFCFE",
"| 	c #F4FBFC",
"1 	c #DDECF1",
"2 	c #4F7479",
"3 	c #090A0A",
"4 	c #313B3D",
"5 	c #98B2B8",
"6 	c #B3C7CC",
"7 	c #F7FFFF",
"8 	c #B6D1D8",
"9 	c #22363A",
"0 	c #242728",
"a 	c #A0C1C8",
"b 	c #CADFE3",
"c 	c #D1E5E9",
"d 	c #5A7B81",
"e 	c #141715",
"f 	c #3C4749",
"g 	c #E5F7FA",
"h 	c #D8E6EA",
"i 	c #6D9FAB",
"j 	c #88BAC6",
"k 	c #28373A",
"l 	c #182224",
"m 	c #65919A",
"n 	c #BFD6DC",
"o 	c #F8F9FA",
"p 	c #DCE9EC",
"q 	c #4C8491",
"r 	c #577F8A",
"s 	c #3A5259",
"t 	c #688D95",
"u 	c #718F97",
"v 	c #101111",
"w 	c #435052",
"x 	c #D4EAED",
"y 	c #EDF1F3",
"z 	c #E9F2F6",
"A 	c #366D7C",
"B 	c #5C8791",
"C 	c #324547",
"D 	c #485053",
"E 	c #5E8089",
"F 	c #688991",
"G 	c #7AA3AE",
"H 	c #2A383A",
"I 	c #1D282A",
"J 	c #698D97",
"K 	c #C2D7DD",
"L 	c #DDEBEA",
"M 	c #4C7B87",
"N 	c #749FA9",
"O 	c #495A5E",
"P 	c #D5D1D1",
"Q 	c #DDD5D3",
"R 	c #5F6F72",
"S 	c #5D838C",
"T 	c #7297A1",
"U 	c #68838B",
"V 	c #0B0E0E",
"W 	c #526165",
"X 	c #83B0BA",
"Y 	c #6699A5",
"Z 	c #53696F",
"` 	c #FFFDFD",
" .	c #D4D4D3",
"..	c #EFECEB",
"+.	c #E2E1E1",
"@.	c #90999B",
"#.	c #698E95",
"$.	c #64878E",
"%.	c #2E3D40",
"&.	c #2B373A",
"*.	c #8BA8AE",
"=.	c #85B2BA",
"-.	c #7E8D8E",
";.	c #000A0F",
">.	c #B3CED4",
",.	c #EDEBEA",
"'.	c #F2F0F0",
").	c #C5C5C6",
"!.	c #697C82",
"~.	c #324447",
"{.	c #0A0C0C",
"].	c #586A6F",
"^.	c #86B4BD",
"/.	c #436F78",
"(.	c #7B7D7F",
"_.	c #9ABAC0",
":.	c #F4F5F4",
"<.	c #B5BABB",
"[.	c #5C5C5D",
"}.	c #0F1313",
"|.	c #161E20",
"1.	c #5A7980",
"2.	c #84BAC7",
"3.	c #93AAB0",
"4.	c #A3AFB0",
"5.	c #413E40",
"6.	c #303635",
"7.	c #0D1113",
"8.	c #1D2A2B",
"9.	c #000001",
"0.	c #474342",
"a.	c #1B2020",
"                                            ",
"                                            ",
"                                            ",
"                          . +               ",
"                      @ # $ % &             ",
"                & * = - ; > , '             ",
"            & ) ! ~ { ] ^ / ( _ &           ",
"        & : < [ } | ^ ^ ^ ^ 1 2 3           ",
"      4 5 6 7 ^ ^ ^ ^ ^ ^ ^ ^ 8 9           ",
"      0 a b ^ ^ ^ ^ ^ ^ ^ ^ ^ c d e         ",
"        f g ^ ^ ^ ^ ^ ^ ^ ^ h i j k         ",
"        l m n ^ ^ ^ ^ o p q r s t u v       ",
"          w x ^ ^ y z A B C D E F G H       ",
"          I J K L M N O P ^ Q R S T U V     ",
"          & W X Y Z `  .^ ..+.@.#.$.%.&     ",
"            &.*.=.-.^ ;.>.,.'.).!.~.{.&     ",
"            & ].^./.^ (._.:.<.[.}.&         ",
"              |.1.2.3.^ 4.5.6.              ",
"                7.8.9.0.a.                  ",
"                                            ",
"                                            ",
"                                            "};
