/* XPM */
static char *magick[] = {
/* columns rows colors chars-per-pixel */
"22 22 18 1",
"  c gray29",
". c #006eaa",
"X c #81180f",
"o c #bababa",
"O c #bfbfc0",
"+ c #c0c0c0",
"@ c #c8c8c7",
"# c #cccccc",
"$ c #d3d3d3",
"% c #dbdbdb",
"& c #e0dfe0",
"* c #e0e0df",
"= c #e3e4e3",
"- c #ebebeb",
"; c #f3f3f3",
": c #f8f7f8",
"> c #fdfdfd",
", c None",
/* pixels */
",,,,,,,,,,,,,,,,,,,,,,",
",,,,,,,,,,,,,,,,,,,,,,",
",,,,,,,,,,,,,,,,,,,,,,",
",,,                ,,,",
",,, .............. ,,,",
",,, .............. ,,,",
",,,                ,,,",
",,, ooooooooo+@#$$ ,,,",
",,, oooooo+@@##$$% ,,,",
",,, oooo@XXXXX%&== ,,,",
",,, oo+@XX$$%X==-; ,,,",
",,, @@##XX%&==-;;: ,,,",
",,, #$$%%XXX-;;:>> ,,,",
",,, $%===-XXX>>>>> ,,,",
",,, %=--;;:>XX>>>> ,,,",
",,, --;;X>>>XX>>>> ,,,",
",,, ;;>>XXXXX>>>>> ,,,",
",,, >>>>>>>>>>>>>> ,,,",
",,,                ,,,",
",,,,,,,,,,,,,,,,,,,,,,",
",,,,,,,,,,,,,,,,,,,,,,",
",,,,,,,,,,,,,,,,,,,,,,"
};
