/* XPM */
static char * stack_xpm[] = {
"22 22 5 1",
" 	c None",
".	c #000000",
"+	c #FFFFFF",
"@	c #0000FF",
"#	c #FFFFC0",
"                      ",
"                      ",
"                      ",
"                      ",
"    ...............   ",
"    ..+@@@@@@@.++..   ",
"    ...............   ",
"    .#############.   ",
"    .####@@@@@####.   ",
"    .###@@###@@###.   ",
"    .###@@########.   ",
"    .###@@########.   ",
"    .####@@@@@####.   ",
"    .########@@###.   ",
"    .########@@###.   ",
"    .###@@###@@###.   ",
"    .####@@@@@####.   ",
"    ...............   ",
"                      ",
"                      ",
"                      ",
"                      "};
