/* XPM */
static char * stop_xpm[] = {
"18 18 8 1",
" 	c None",
".	c #FF0000",
"+	c #FE0000",
"@	c #AA0000",
"#	c #A60000",
"$	c #B30000",
"%	c #AE0000",
"&	c #BF0000",
"                  ",
"       ....       ",
"     ..    ..     ",
"   ..        ..   ",
"   .        ...   ",
"  +        @.  .  ",
"  .       #.@  .. ",
" +       $.#    . ",
" +      @.$     . ",
" +     $.@      . ",
" +    #.        . ",
"  .  @.#       .. ",
"  . %.@        .  ",
"   ..&        .   ",
"   ..        ..   ",
"     ..    ..     ",
"       ....       ",
"                  "};
