/* XPM */
static char * syntax_xpm[] = {
"22 22 6 1",
" 	c None",
".	c #808080",
"+	c #0000FF",
"@	c #FF0000",
"#	c #000000",
"$	c #FFFF00",
"                      ",
"                      ",
"                      ",
"        .....         ",
"      ..++@@@##       ",
"     .++++@@@@@#      ",
"    .+++++@@@@@@#     ",
"    .+++++@@@@@@#     ",
"   .++++++@@@@@@@#    ",
"   .++++++@@@@@@@#    ",
"   .++++++#@@@@@@#    ",
"   .++++$$$$$@@@@#    ",
"   .+++$$$$$$$@@@#    ",
"    .+$$$$$$$$$@#     ",
"    .$$$$$$$$$$$#     ",
"     .$$$$$$$$$#      ",
"      ..$$$$$##       ",
"        ..###         ",
"                      ",
"                      ",
"                      ",
"                      "};
