/* XPM */
static char *magick[] = {
/* columns rows colors chars-per-pixel */
"22 22 17 1",
"  c black",
". c #394248",
"X c #1c60ab",
"o c #f3ba20",
"O c #bababa",
"+ c #c0c0c0",
"@ c #c7c8c7",
"# c #cdcdcd",
"$ c #d4d4d4",
"% c #dcdcdb",
"& c #dfdfe0",
"* c #e3e4e3",
"= c #e8e8e7",
"- c #ebecec",
"; c #f3f3f3",
": c #fcfcfc",
"> c None",
/* pixels */
">>>>>>>>>>>>>>>>>>>>>>",
">>>>>>>>>>>>>>>>>>>>>>",
">>>>>>>>>>>>>>>>>>>>>>",
">>>................>>>",
">>>.XXXXXXXXXXXXXX.>>>",
">>>.XXXXXXXXXXXXXX.>>>",
">>>................>>>",
">>>.OOOOOO+++@##$$.>>>",
">>>.O            %.>>>",
">>>.ooooooooo$%%%*.>>>",
">>>.o       o%**=-.>>>",
">>>.ooooooooo*=--;.>>>",
">>>.$         -;;:.>>>",
">>>.$$%***--;;;:::.>>>",
">>>.%  *--;;;:::::.>>>",
">>>.ooooooooooooo:.>>>",
">>>.o           o:.>>>",
">>>.ooooooooooooo:.>>>",
">>>................>>>",
">>>>>>>>>>>>>>>>>>>>>>",
">>>>>>>>>>>>>>>>>>>>>>",
">>>>>>>>>>>>>>>>>>>>>>"
};
