/* XPM */
static char * undock_xpm[] = {
"22 22 11 1",
" 	c None",
".	c #000000",
"+	c #919191",
"@	c #262626",
"#	c #FFFFFF",
"$	c #0000FF",
"%	c #373939",
"&	c #FBFCFC",
"*	c #3C3B3C",
"=	c #767777",
"-	c #404343",
"                      ",
"                      ",
"                      ",
"          ...         ",
"         . +.         ",
"       .....@..       ",
"      .####+.##$      ",
"     .####$$$$$$$$    ",
"    .#####$$$$$$$$    ",
"    .######+%##$.     ",
"    .#&####+%###.     ",
"    .######+*###.     ",
"    .####.#+*###.     ",
"    .####.##*###.     ",
"    .####=#.-###.     ",
"    .#####..####.     ",
"    .###########.     ",
"    .###########.     ",
"    .............     ",
"                      ",
"                      ",
"                      "};
