/* XPM */
static char * undock_xpm[] = {
"22 22 146 2",
"  	c None",
". 	c #2D2D28",
"+ 	c #252521",
"@ 	c #47473E",
"# 	c #C5C5B1",
"$ 	c #000000",
"% 	c #383833",
"& 	c #4A4A43",
"* 	c #BBBBA7",
"= 	c #F6F6DC",
"- 	c #E5E5CF",
"; 	c #606059",
"> 	c #3C3C36",
", 	c #606054",
"' 	c #B9B9A7",
") 	c #E7E7CF",
"! 	c #E2E2CB",
"~ 	c #DFDFC5",
"{ 	c #E9E9D2",
"] 	c #D3D3BD",
"^ 	c #3E3E39",
"/ 	c #2A2A2A",
"( 	c #3C3C3E",
"_ 	c #949487",
": 	c #E7E7CD",
"< 	c #E0E0C9",
"[ 	c #D9D9C2",
"} 	c #D8D8C2",
"| 	c #DCDCC4",
"1 	c #E2E2CA",
"2 	c #EFEFD4",
"3 	c #9C9C8E",
"4 	c #0A0A0E",
"5 	c #575757",
"6 	c #8E8E8E",
"7 	c #86867B",
"8 	c #DBDBC2",
"9 	c #D9D9C1",
"0 	c #D8D8C0",
"a 	c #E9E9D1",
"b 	c #EEEED4",
"c 	c #F7F7DD",
"d 	c #E8E8D1",
"e 	c #79796E",
"f 	c #636363",
"g 	c #FCFCFE",
"h 	c #727270",
"i 	c #A9A994",
"j 	c #DCDCC6",
"k 	c #D9D9C4",
"l 	c #DFDFC7",
"m 	c #292925",
"n 	c #FFFFEF",
"o 	c #FFFFE7",
"p 	c #D1D1BB",
"q 	c #404038",
"r 	c #60605C",
"s 	c #FFFFFF",
"t 	c #757573",
"u 	c #6D6D62",
"v 	c #FFFFE5",
"w 	c #FFFFEE",
"x 	c #FFFFED",
"y 	c #4D4D45",
"z 	c #FFFFF7",
"A 	c #FFFFEC",
"B 	c #69695D",
"C 	c #6F6F6C",
"D 	c #BCBCB8",
"E 	c #61615A",
"F 	c #CDCDB4",
"G 	c #21211E",
"H 	c #53534C",
"I 	c #FFFFFD",
"J 	c #FFFFF2",
"K 	c #5B5B51",
"L 	c #3D3D34",
"M 	c #C3C3AD",
"N 	c #FEFEE4",
"O 	c #21211D",
"P 	c #525248",
"Q 	c #EDEDD5",
"R 	c #3F3F37",
"S 	c #313130",
"T 	c #C1C1B3",
"U 	c #E7E7CE",
"V 	c #EFEFD6",
"W 	c #32322D",
"X 	c #030303",
"Y 	c #0C0C0A",
"Z 	c #151513",
"` 	c #67675D",
" .	c #FFFFF8",
"..	c #FFFFE6",
"+.	c #2D2D29",
"@.	c #353531",
"#.	c #B8B8A9",
"$.	c #E9E9CF",
"%.	c #E7E7D0",
"&.	c #FFFFF3",
"*.	c #FFFFEB",
"=.	c #65655A",
"-.	c #FFFFE8",
";.	c #E3E3CC",
">.	c #888879",
",.	c #141412",
"'.	c #636358",
").	c #EDEDD4",
"!.	c #E4E4CC",
"~.	c #E8E8D0",
"{.	c #F3F3DA",
"].	c #43433C",
"^.	c #DBDBC4",
"/.	c #484842",
"(.	c #5B5B57",
"_.	c #D1D1BD",
":.	c #E8E8CF",
"<.	c #EBEBD2",
"[.	c #EEEED5",
"}.	c #FAFAE0",
"|.	c #FDFDE4",
"1.	c #F3F3DB",
"2.	c #B0B09E",
"3.	c #474741",
"4.	c #1B1B1E",
"5.	c #A1A192",
"6.	c #FDFDE3",
"7.	c #F0F0D7",
"8.	c #DDDDC5",
"9.	c #78786D",
"0.	c #4C4C44",
"a.	c #42423B",
"b.	c #CCCCB6",
"c.	c #F6F6DE",
"d.	c #F1F1D8",
"e.	c #F9F9E0",
"f.	c #FCFCE2",
"g.	c #C2C2AE",
"h.	c #46463E",
"i.	c #8E8E80",
"j.	c #FFFFE9",
"k.	c #EFEFD8",
"l.	c #767669",
"m.	c #24241E",
"n.	c #1A1A15",
"o.	c #252522",
"                                            ",
"                                            ",
"                        .                   ",
"                    + @ # $                 ",
"                % & * = - ;                 ",
"          $ > , ' ) ! ~ { ] ^               ",
"        / ( _ : < [ } | 1 2 3 4             ",
"        5 6 7 8 9 0 | a b c d e             ",
"        f g h i j k l ) m n o p q           ",
"        r s t u 9 v w x $ y z A B           ",
"        C D E F G $ $ $ $ $ H I J K         ",
"        $ L M N O $ $ $ $ $ $ P A Q R       ",
"        S T U V W X Y Z $ $ `  ...n A +.    ",
"        @.#.$.%.c A &.*.$ =. .v -.;.>.,.    ",
"          '.).!.!.~.).{.].z -.o ^./.$       ",
"          (._.Q :.<.[.}.|.A 1.2.3.          ",
"          4.5.6.Q [.7.= v 8.9.0.            ",
"            a.b.c.d.e.f.g.h.                ",
"            $ i.6.j.k.l.m.                  ",
"              n.d !.o.                      ",
"                Y $                         ",
"                                            "};
