/* XPM */
static char *magick[] = {
/* columns rows colors chars-per-pixel */
"22 22 29 1",
"  c #394248",
". c #1c60ab",
"X c #81180f",
"o c #b1b5b8",
"O c #b5b9bc",
"+ c #b8bbbf",
"@ c #babec1",
"# c #bdc0c3",
"$ c #c0c0c0",
"% c #c3c6c9",
"& c #c6c8cb",
"* c #c9ccce",
"= c #ced0d2",
"- c #d1d4d6",
"; c #d4d6d8",
": c #d6d9da",
"> c #d9dbdd",
", c #dddfe0",
"< c #dfe0e1",
"1 c #e1e3e4",
"2 c #e6e7e8",
"3 c #e7e8e9",
"4 c #ebeced",
"5 c #eeeff0",
"6 c #eff0f1",
"7 c #f4f4f4",
"8 c #f7f7f8",
"9 c #fefefe",
"0 c None",
/* pixels */
"0000000000000000000000",
"0000000000000000000000",
"0000000000000000000000",
"000                000",
"000 .............. 000",
"000 .............. 000",
"000                000",
"000 oooooO++#$%&*- 000",
"000 ooOO++@%&*==;> 000",
"000 OOXXXX*XXXXX>< 000",
"000 @$XX*=-;>XX134 000",
"000 &*XX;:X11XX477 000",
"000 --XX<XXX4XX889 000",
"000 >>XX3X4X8XX999 000",
"000 134XXX8XXX9999 000",
"000 447XXX9XXX9999 000",
"000 889XX999XX9999 000",
"000 99999999999999 000",
"000                000",
"0000000000000000000000",
"0000000000000000000000",
"0000000000000000000000"
};
