/* XPM */
static char * wizard_xpm[] = {
"22 22 13 1",
" 	c None",
".	c #000000",
"+	c #FFFFC0",
"@	c #808000",
"#	c #FFFF00",
"$	c #C05800",
"%	c #FFA858",
"&	c #800000",
"*	c #FFFFFF",
"=	c #C3C3C3",
"-	c #585858",
";	c #0000FF",
">	c #0000C0",
"                      ",
"                      ",
"                      ",
"       .              ",
"      .+. .@.         ",
"      .++.+#@         ",
"      .++++@.         ",
"     .++#+#.          ",
"    .++#+###.         ",
"     ..$##@##.        ",
"     .%&#@.........   ",
"    .%$.#.*********   ",
"   .%$...======----   ",
"   %$. .**.=*.=-;>>   ",
"   $.  .*=*..==-;;>   ",
"   .   .*=*..==-;>>   ",
"       .**.=*.=-;;>   ",
"       .*======****   ",
"       ............   ",
"                      ",
"                      ",
"                      "};
