/* XPM */
static char *magick[] = {
/* columns rows colors chars-per-pixel */
"22 22 16 1",
"  c black",
". c gray29",
"X c #1c60ab",
"o c #b72618",
"O c #bababa",
"+ c #c0c0c0",
"@ c #cbcbcb",
"# c #d0d0cf",
"$ c #d2d2d2",
"% c #d7d7d8",
"& c #dbdbdb",
"* c #e2e2e2",
"= c #ebebeb",
"- c #f3f3f3",
"; c #fefefe",
": c None",
/* pixels */
"::::::::::::::::::::::",
"::::::::::::::::::::::",
"::::::::::::::::::::::",
":::................:::",
":::.XXXXXXXXXXXXXX.:::",
":::.XXXXXXXXXXXXXX.:::",
":::................:::",
":::.OOOOOOO++++@@$.:::",
":::.Ooooooooooooo%.:::",
":::.OO+++@@@$$%%**.:::",
":::.+            =.:::",
":::.@@@$%%&***====.:::",
":::.$       ==--;-.:::",
":::.%***====--;;;;.:::",
":::.*          ;;;.:::",
":::.===--;;;;;;;;;.:::",
":::.-    ;;;;;;;;;.:::",
":::.;;;;;;;;;;;;;;.:::",
":::................:::",
"::::::::::::::::::::::",
"::::::::::::::::::::::",
"::::::::::::::::::::::"
};
