<?xml version="1.0" encoding="UTF-8" standalone="no"?>
<!-- Created with Inkscape (http://www.inkscape.org/) -->

<svg
   xmlns:dc="http://purl.org/dc/elements/1.1/"
   xmlns:cc="http://creativecommons.org/ns#"
   xmlns:rdf="http://www.w3.org/1999/02/22-rdf-syntax-ns#"
   xmlns:svg="http://www.w3.org/2000/svg"
   xmlns="http://www.w3.org/2000/svg"
   xmlns:sodipodi="http://sodipodi.sourceforge.net/DTD/sodipodi-0.dtd"
   xmlns:inkscape="http://www.inkscape.org/namespaces/inkscape"
   width="16px"
   height="16px"
   id="svg2985"
   version="1.1"
   inkscape:version="0.48.0 r9654"
   sodipodi:docname="New document 2">
  <defs
     id="defs2987" />
  <sodipodi:namedview
     id="base"
     pagecolor="#ffffff"
     bordercolor="#666666"
     borderopacity="1.0"
     inkscape:pageopacity="0.0"
     inkscape:pageshadow="2"
     inkscape:zoom="15.696216"
     inkscape:cx="6.2236238"
     inkscape:cy="14.822154"
     inkscape:current-layer="layer1"
     showgrid="true"
     inkscape:grid-bbox="true"
     inkscape:document-units="px"
     inkscape:window-width="1152"
     inkscape:window-height="793"
     inkscape:window-x="-4"
     inkscape:window-y="-4"
     inkscape:window-maximized="1" />
  <metadata
     id="metadata2990">
    <rdf:RDF>
      <cc:Work
         rdf:about="">
        <dc:format>image/svg+xml</dc:format>
        <dc:type
           rdf:resource="http://purl.org/dc/dcmitype/StillImage" />
        <dc:title></dc:title>
      </cc:Work>
    </rdf:RDF>
  </metadata>
  <g
     id="layer1"
     inkscape:label="Layer 1"
     inkscape:groupmode="layer">
    <path
       inkscape:connector-curvature="0"
       id="path3889"
       d="m 8.5135897,8.5432637 c -0.018352,-4.369e-4 -0.016234,0.02885 -0.032897,0.029513 -0.024989,9.984e-4 -0.041077,-0.00695 -0.062411,-0.00338 -0.030306,0.00506 -0.040834,0.017464 -0.064099,0.027818 -0.00942,0.00381 -0.022354,-0.00655 -0.031207,-0.00168 -0.00657,0.00367 -0.025279,-0.0058 -0.031207,-0.00168 -0.010856,0.00973 -0.023966,0.01924 -0.032897,0.029514 -0.024639,0.025295 -0.057259,0.051472 -0.067484,0.090229 -0.00227,0.0079 -2.93e-4,0.022924 -0.00169,0.031205 -0.00184,0.012432 -9.498e-4,0.017597 -0.00169,0.031205 -7.565e-4,0.013911 0.025984,0.048203 0.027819,0.064101 0.00105,0.00964 -0.00336,0.021679 -0.00169,0.031205 0.00324,0.022326 -0.010853,0.038096 -0.00338,0.062401 0.00126,0.00419 0.027398,0.027731 0.029513,0.032897 0.00331,0.011103 -0.00497,0.020062 -0.00169,0.031205 0.00246,0.00547 0.026416,0.026554 0.029513,0.032897 0.01682,0.03865 0.031096,0.048043 0.057336,0.096989 0.024113,0.03839 0.025239,0.050848 0.057337,0.096989 0.00506,0.00695 -0.0068,0.024301 -0.00169,0.031205 0.029785,0.049215 0.078375,0.1053543 0.1163574,0.1627881 0.066495,0.100548 0.1084479,0.1943596 0.2015103,0.323885 0.032114,0.04867 0.019546,0.07428 0.055641,0.1282 0.3212555,0.4799722 1.1933278,1.8363502 1.9021276,3.0136552 0.228135,0.378926 0.365341,0.581714 0.547199,0.874657 0.188515,0.316011 0.52349,0.886842 0.573325,0.969963 0.0094,0.01558 0.04738,0.04789 0.05903,0.06579 0.01949,0.04458 0.0314,0.08569 0.05564,0.1282 0.02543,0.04191 0.08628,0.06583 0.11974,0.10038 0.0437,0.05832 0.09691,0.101111 0.14756,0.164482 0.0093,0.01201 0.02018,0.02093 0.02951,0.0329 0.01386,0.01817 0.01421,0.04674 0.02782,0.0641 0.06153,0.06953 0.117125,0.126524 0.177075,0.197375 0.01463,0.01699 0.01321,0.04749 0.02782,0.0641 0.0037,0.0042 -0.0053,0.02703 -0.0017,0.03121 0.0235,0.02731 0.03932,0.0099 0.06071,0.03462 0.03473,0.0465 0.08517,0.08348 0.118053,0.131576 0.06633,0.0735 0.130243,0.154485 0.177074,0.197376 0.01516,0.01617 0.01167,0.049 0.02782,0.0641 0.05825,0.04873 0.130867,0.08801 0.182155,0.103754 0.0066,0.0037 0.02476,-0.0014 0.03121,0.0017 0.0092,0.0021 0.02157,8.8e-5 0.03121,0.0017 0.02888,0.01076 0.06598,0.0037 0.09362,0.0051 0.01019,0.0017 0.02106,5.39e-4 0.03121,0.0017 0.0131,1.96e-4 0.01914,0.002 0.03121,0.0017 0.06245,7.9e-5 0.113128,-0.0043 0.157715,-0.02275 0.0398,-0.0133 0.06747,-0.02622 0.09699,-0.05734 0.0098,-0.0082 0.02526,-0.01992 0.0329,-0.02951 0.0038,-0.0048 0.02796,0.0068 0.03121,0.0017 0.0184,-0.0327 0.0355,-0.07789 0.03793,-0.123139 4.06e-4,-0.0067 -0.0285,-0.02431 -0.02951,-0.0329 -6.88e-4,-0.0083 0.0029,-0.02238 0.0017,-0.03121 -1.07e-4,-10e-4 0.0019,-0.03004 0.0017,-0.03121 -0.0037,-0.0062 -0.02757,0.0046 -0.03121,-0.0017 -0.0021,-0.0096 0.0045,-0.02112 0.0017,-0.03121 -0.0072,-0.01253 -0.02239,-0.02028 -0.02951,-0.0329 -0.0071,-0.02132 0.01298,-0.03915 0.0034,-0.06241 -0.0027,-0.0068 -0.08064,-0.117483 -0.08683,-0.129921 -0.01795,-0.03317 -0.03925,-0.0639 -0.05733,-0.09699 -0.02147,-0.04114 -0.128247,-0.280817 -0.168615,-0.353397 -0.01805,-0.03217 -0.09671,-0.12808 -0.116357,-0.162788 -0.03589,-0.06338 -0.128832,-0.249889 -0.170306,-0.322193 -0.137216,-0.238659 -0.424979,-0.699079 -0.602839,-1.002858 -0.07905,-0.135015 -0.170295,-0.304594 -0.257151,-0.452086 -0.06799,-0.1156 -0.103196,-0.17434 -0.171998,-0.290988 -0.142954,-0.242375 -0.201539,-0.375935 -0.342304,-0.613182 -0.524862,-0.882951 -0.920598,-1.502117 -1.236882,-2.00741 -0.03395,-0.05424 -0.05479,-0.07931 -0.08684,-0.129894 -0.0203,-0.03203 -0.0066,-0.06471 -0.02613,-0.09531 C 10.078106,9.8864978 10.022681,9.8211598 9.9522552,9.7166968 9.8682952,9.5921589 9.7972352,9.4605875 9.7212332,9.3599153 9.6945032,9.3269243 9.6611232,9.2928113 9.6326932,9.2612263 9.6024382,9.2203863 9.6035152,9.2001313 9.5753582,9.1642373 9.5356797,9.1159422 9.4935734,9.1058955 9.4555458,9.063778 9.4460208,9.0532846 9.4354333,9.0414889 9.426033,9.0308813 9.3714817,8.9559535 9.3175163,8.8941308 9.248959,8.8335058 9.1306712,8.7313837 8.9963988,8.6597228 8.8846582,8.6259815 c -0.00677,-0.0021 0.00853,-0.029302 0.00169,-0.031208 -0.027709,-0.009 -0.064821,0.00193 -0.093613,-0.00507 -0.055064,-0.01482 -0.1065208,-0.033317 -0.15433,-0.039661 -0.03824,-0.00432 -0.092107,-0.00595 -0.124816,-0.00677 z"
       style="fill:#2e3436;fill-opacity:1;stroke:#2e3436;stroke-width:0;stroke-linecap:round;stroke-linejoin:miter;stroke-miterlimit:4;stroke-opacity:1;stroke-dasharray:none" />
    <path
       style="fill:#2e3436;fill-opacity:1;stroke:#2e3436;stroke-width:0;stroke-linecap:round;stroke-linejoin:miter;stroke-miterlimit:4;stroke-opacity:1;stroke-dasharray:none"
       d="m 7.8701667,9.4514407 c -0.017393,0.00587 -0.00538,0.032664 -0.02081,0.038989 -0.023138,0.00949 -0.040974,0.00753 -0.059799,0.018183 -0.026745,0.015125 -0.032392,0.030384 -0.050708,0.048075 -0.00755,0.0068 -0.023244,0.0015 -0.029898,0.0091 -0.00492,0.0057 -0.025738,0.0032 -0.029898,0.0091 -0.00687,0.01286 -0.015934,0.02628 -0.02081,0.03899 -0.014494,0.0322 -0.036186,0.06796 -0.03253,0.107876 5.73e-4,0.0082 0.00757,0.02164 0.00909,0.0299 0.00253,0.01231 0.00513,0.01686 0.00909,0.0299 0.00405,0.01333 0.040912,0.0364 0.048077,0.05071 0.00429,0.0087 0.00426,0.02152 0.00909,0.0299 0.010682,0.01987 0.00284,0.03951 0.018179,0.05979 0.00262,0.0035 0.035234,0.01668 0.038989,0.02081 0.00691,0.0093 0.0022,0.02055 0.00909,0.0299 0.00418,0.0043 0.033909,0.01591 0.038989,0.02081 0.029032,0.03056 0.04566,0.0345 0.087066,0.07151 0.035795,0.02782 0.041117,0.03914 0.087067,0.07151 0.00713,0.0048 0.00193,0.02516 0.00909,0.0299 0.044829,0.03605 0.1096982,0.07217 0.1650425,0.113137 0.09689,0.07172 0.1684153,0.145509 0.3001859,0.235364 0.046831,0.03474 0.043788,0.06311 0.096155,0.101417 0.4661183,0.341045 1.7497269,1.317068 2.8186379,2.180708 0.34404,0.27797 0.542361,0.421556 0.813492,0.634573 0.285281,0.232412 0.795385,0.654135 0.870658,0.715182 0.01414,0.01143 0.06091,0.02878 0.07798,0.04162 0.03357,0.03522 0.05883,0.06977 0.09615,0.101418 0.03824,0.03068 0.103596,0.03233 0.146863,0.05334 0.06102,0.03984 0.125661,0.06184 0.194941,0.10405 0.01285,0.0081 0.02613,0.01276 0.03899,0.02081 0.01924,0.01233 0.02935,0.03905 0.04808,0.05071 0.08161,0.04427 0.153353,0.0788 0.23393,0.124856 0.01956,0.01096 0.02867,0.0401 0.04808,0.05071 0.0049,0.0027 0.0043,0.0272 0.0091,0.0299 0.03143,0.01762 0.04032,-0.0042 0.06889,0.01175 0.04855,0.03181 0.108592,0.04929 0.155954,0.08323 0.08748,0.04636 0.175248,0.100583 0.23393,0.124857 0.01978,0.01 0.02774,0.04205 0.04808,0.05071 0.07141,0.02585 0.153086,0.03791 0.206664,0.03515 0.0075,0.0012 0.02278,-0.0098 0.0299,-0.0091 0.0094,-0.0012 0.0203,-0.0073 0.0299,-0.0091 0.03082,2.24e-4 0.06327,-0.01908 0.0897,-0.02727 0.01015,-0.0019 0.01997,-0.0067 0.0299,-0.0091 0.01238,-0.0043 0.01866,-0.0047 0.0299,-0.0091 0.05871,-0.0213 0.104831,-0.04274 0.140406,-0.07535 0.03284,-0.02612 0.05442,-0.04773 0.07151,-0.08707 0.0064,-0.01106 0.01692,-0.02736 0.02081,-0.03899 0.0019,-0.0058 0.02859,-0.0032 0.0299,-0.0091 0.0061,-0.03702 0.0067,-0.08534 -0.0065,-0.128685 -0.0019,-0.0064 -0.0351,-0.01309 -0.03899,-0.02081 -0.0035,-0.0076 -0.0049,-0.02203 -0.0091,-0.0299 -4.44e-4,-9.07e-4 -0.0085,-0.02887 -0.0091,-0.0299 -0.0056,-0.0046 -0.02433,0.01377 -0.0299,0.0091 -0.0053,-0.0083 -0.003,-0.02138 -0.0091,-0.0299 -0.01108,-0.0093 -0.02798,-0.01139 -0.03899,-0.02081 -0.01396,-0.01761 -0.0012,-0.04123 -0.01818,-0.0598 -0.0049,-0.0055 -0.11598,-0.08279 -0.126048,-0.09236 -0.02822,-0.02502 -0.05875,-0.04661 -0.08706,-0.07151 -0.03425,-0.03131 -0.216607,-0.21997 -0.279377,-0.274352 -0.02797,-0.02405 -0.134698,-0.08725 -0.165042,-0.113137 -0.05541,-0.04727 -0.206573,-0.190709 -0.270287,-0.244453 -0.210607,-0.177288 -0.638564,-0.511424 -0.909647,-0.73599 -0.120481,-0.09981 -0.264253,-0.227921 -0.396341,-0.336782 -0.103451,-0.08535 -0.156629,-0.128496 -0.261198,-0.214554 -0.21727,-0.178816 -0.318025,-0.284261 -0.531484,-0.459008 -0.795343,-0.65001 -1.37908,-1.096354 -1.849194,-1.462893 -0.05047,-0.03935 -0.07862,-0.05577 -0.1260534,-0.09233 -0.030034,-0.02315 -0.028302,-0.05856 -0.057166,-0.08061 C 9.799806,10.178091 9.7253718,10.135665 9.6234483,10.061611 9.5019355,9.9733276 9.3901397,9.8740196 9.2842742,9.8054366 c -0.036409,-0.02185 -0.079447,-0.04248 -0.116965,-0.06243 -0.042405,-0.02802 -0.048325,-0.04742 -0.087066,-0.07151 -0.053716,-0.03175 -0.096718,-0.02678 -0.1468633,-0.05334 -0.012541,-0.0066 -0.026526,-0.01406 -0.038989,-0.02081 C 8.817491,9.5456125 8.7456266,9.5059916 8.6604613,9.4724899 8.5143668,9.4170162 8.3636777,9.3956348 8.2471372,9.4021722 c -0.00708,3.469e-4 -0.00201,-0.030453 -0.00909,-0.029903 -0.029115,0.00103 -0.060247,0.023995 -0.089697,0.027269 -0.056811,0.00492 -0.1114906,0.00515 -0.1585843,0.01555 -0.037409,0.00903 -0.088582,0.025929 -0.1195955,0.036356 z"
       id="path3887"
       inkscape:connector-curvature="0" />
    <path
       style="fill:#2e3436;fill-opacity:1;stroke:#2e3436;stroke-width:0.1;stroke-linecap:round;stroke-linejoin:miter;stroke-miterlimit:4;stroke-opacity:1;stroke-dasharray:none"
       id="path3820"
       d="m 7.4290874,8.7768547 c 0.089536,0.031956 0.1748143,0.072009 0.2593249,0.1152129 0.092057,0.04531 0.1546152,0.1212917 0.2129315,0.2027967 0.055516,0.083496 0.094835,0.1751551 0.1315984,0.2679855 0.033564,0.088454 0.042782,0.1824126 0.04801,0.2760566 0.00352,0.0904 0.0028,0.180899 0.00255,0.271348 -0.00824,0.09485 -0.030223,0.1869316 -0.063611,0.2758786 -0.034848,0.0923 -0.079695,0.182818 -0.1441695,0.257969 -0.049204,0.05349 -0.1041054,0.101586 -0.158364,0.149885 -0.057983,0.04928 -0.1262082,0.08594 -0.1948889,0.118143 C 7.3483355,10.7756 7.1513871,10.74827 6.9726395,10.74608 6.867575,10.72964 6.7705592,10.67614 6.6816634,10.619811 c -0.07406,-0.04181 -0.1366228,-0.09971 -0.2017652,-0.153699 -0.059554,-0.0561 -0.1188291,-0.113764 -0.172214,-0.175919 -0.06265,-0.0654 -0.1061628,-0.143241 -0.1447036,-0.224428 -0.037526,-0.08185 -0.087953,-0.1560946 -0.1175813,-0.2413986 -0.024216,-0.08397 -0.026249,-0.171777 -0.028153,-0.2585 0.00274,-0.081534 0.029252,-0.1515453 0.06975,-0.2207719 0.041321,-0.06252 0.094592,-0.1154103 0.1382354,-0.1761257 C 6.2766051,9.0951298 6.3492365,9.0414491 6.4216629,8.9898894 6.4978172,8.9372327 6.5804016,8.8933144 6.6646924,8.855087 6.7361134,8.82843 6.8054002,8.799106 6.8802212,8.783368 c 0.18402,-0.017509 0.3857144,-0.0528 0.562232,0.00652 0.1317299,0.056825 0.2108025,0.1770006 0.2931229,0.2882264 0,0 -0.2996128,0.019429 -0.2996128,0.019429 l 0,0 C 7.3531589,8.9904058 7.2707649,8.8748559 7.1369577,8.8297721 c -0.1287925,-0.028677 -0.061982,-0.010225 0.216468,-0.013379 0.014474,-1.64e-4 -0.028946,5.674e-4 -0.043413,0.00104 -0.041258,0.00135 -0.082538,0.00353 -0.1235139,0.00875 -0.075524,0.011883 -0.143746,0.038903 -0.2149649,0.065006 -0.085251,0.033364 -0.1670563,0.078672 -0.2436074,0.1284538 -0.07131,0.047307 -0.1413371,0.099883 -0.1940773,0.1679473 -0.041008,0.062183 -0.093155,0.1145966 -0.1379756,0.173826 -0.037658,0.064855 -0.067181,0.1265905 -0.070213,0.2037495 0.002,0.08345 0.00389,0.168108 0.028511,0.248597 0.030698,0.08323 0.079795,0.157496 0.1165043,0.2381123 0.038981,0.07871 0.08349,0.153056 0.1457528,0.215939 0.05433,0.05965 0.1096388,0.119262 0.1715659,0.171076 0.064199,0.0526 0.1257284,0.109234 0.1988733,0.149637 0.089898,0.05299 0.1851022,0.103123 0.29085,0.111977 -0.5318049,0.007 -0.1829019,0.01498 -0.062637,-0.02429 0.068467,-0.02697 0.1352625,-0.06418 0.1932771,-0.109102 0.056107,-0.04515 0.1080426,-0.09608 0.1597753,-0.146036 0.068099,-0.06763 0.1096721,-0.15759 0.1441893,-0.246188 0.033267,-0.08512 0.054113,-0.173626 0.062906,-0.2647103 2.428e-4,-0.08985 9.739e-4,-0.179738 -0.00253,-0.269536 -0.0051,-0.09036 -0.014037,-0.1810033 -0.047262,-0.2660939 C 7.6890059,9.284128 7.6504539,9.1946135 7.5944284,9.1142081 7.5365618,9.0361563 7.4723178,8.967232 7.3822914,8.9257494 7.2981572,8.8822382 7.211322,8.843972 7.119963,8.8180808 c 0,0 0.3091244,-0.041226 0.3091244,-0.041226 z"
       inkscape:connector-curvature="0" />
    <path
       style="fill:#2e3436;fill-opacity:1;stroke:#2e3436;stroke-width:0.1;stroke-linecap:round;stroke-linejoin:miter;stroke-miterlimit:4;stroke-opacity:1;stroke-dasharray:none"
       id="path3832"
       d="m 5.3568062,12.322593 c 0.133469,-0.13778 0.1815288,-0.328751 0.2348231,-0.507359 0.055386,-0.197767 0.092198,-0.399991 0.1081421,-0.604643 0.00937,-0.09588 -0.0089,-0.189596 -0.041687,-0.279094 -0.022543,-0.06619 -0.056352,-0.127995 -0.088919,-0.189735 -0.041343,-0.04982 -0.065977,-0.109984 -0.1079454,-0.159311 -0.035333,-0.05674 -0.084383,-0.09483 -0.1396598,-0.130037 -0.071609,-0.03028 -0.1454861,-0.05769 -0.220246,-0.07997 0.079252,-0.01176 -0.2011248,-0.01817 -0.1175875,-0.0186 0.4800167,-0.0025 0.2878077,-0.0019 0.1764968,0.01301 -0.089114,0.01483 -0.1619113,0.06206 -0.2317714,0.116391 -0.072816,0.05502 -0.1448267,0.111742 -0.2027565,0.182669 -0.052827,0.06068 -0.096541,0.128287 -0.1414961,0.194787 -0.045448,0.06452 -0.085906,0.13203 -0.1268369,0.199376 -0.038369,0.06095 -0.080067,0.120119 -0.1220579,0.178688 -0.038873,0.06234 -0.091649,0.112914 -0.1415374,0.165952 -0.050602,0.05834 -0.1088797,0.10724 -0.169057,0.155119 -0.065129,0.05596 -0.1412087,0.09335 -0.2188832,0.128206 -0.077296,0.03029 -0.1515432,0.06509 -0.2326875,0.08395 -0.2052945,0.0323 -0.4183402,0.03497 -0.6184594,-0.02283 C 2.842216,11.719922 2.7374939,11.669942 2.6304762,11.626305 2.5452912,11.591575 2.4731982,11.561975 2.3973061,11.509651 2.3037653,11.452389 2.2398462,11.369428 2.1813994,11.279139 2.1301616,11.181131 2.0707965,11.087723 2.0237355,10.987603 1.9452401,10.822885 1.9329673,10.640867 1.9069459,10.462634 1.8506603,10.018461 1.8476052,9.5687668 1.8617529,9.1219097 1.8804494,8.7307402 1.8777588,8.3375891 1.9528608,7.9520625 1.9863677,7.7821762 2.0354403,7.6156654 2.0910572,7.4518363 2.1049338,7.4182676 2.1178083,7.3842669 2.132687,7.3511302 2.1807823,7.2440163 2.2330704,7.1387934 2.2799528,7.0311431 2.3953441,6.7722915 2.4915506,6.5053685 2.6043646,6.2454516 2.6700365,6.0941476 2.926107,5.5428388 2.9982298,5.3869267 3.2074094,4.9505422 3.4111663,4.5104298 3.6502959,4.0893136 3.7072138,3.9922315 3.7566687,3.8900105 3.8242828,3.7996724 3.8745816,3.7333965 3.9279969,3.6695237 3.9815974,3.6059163 4.0410735,3.530398 4.1030825,3.4571534 4.1606045,3.3801233 4.210947,3.3097074 4.255671,3.2361312 4.2996996,3.1616976 4.3464281,3.0991203 4.3873577,3.0326885 4.4316327,2.9684406 4.4949615,2.8788948 4.5719937,2.8007892 4.6524916,2.7268165 4.7380327,2.6430102 4.8298233,2.5659667 4.9179764,2.4849292 4.997379,2.4122212 5.0775433,2.3402846 5.1581294,2.2688757 5.21874,2.2200334 5.281681,2.1742741 5.3424014,2.1254961 5.4056614,2.0787375 5.4689812,2.031721 5.5353908,1.9894486 5.6170215,1.9465357 5.7022246,1.911023 5.7855166,1.871531 5.873735,1.827277 5.9641906,1.7884892 6.0556237,1.7514501 6.147359,1.7134009 6.2366174,1.6699152 6.3262154,1.6271885 6.4013753,1.5862494 6.474497,1.5418591 6.5458197,1.4946108 6.6295272,1.4494783 6.7172141,1.4130115 6.804426,1.37545 6.9061837,1.3300191 7.0089886,1.287116 7.1115435,1.2435379 c 0.074154,-0.039265 0.1511081,-0.073035 0.2286832,-0.1049801 0.099831,-0.032897 0.1905956,-0.087938 0.2886794,-0.1244106 0.062842,-0.016664 0.1263876,-0.029383 0.18934,-0.045709 0.078569,-0.0246988 0.1562035,-0.0521431 0.2348927,-0.0766876 0.099611,-0.0279401 0.1987697,-0.0577038 0.2969338,-0.0903951 0.1150883,-0.0409685 0.2334514,-0.0692223 0.3544802,-0.0847493 0.1121493,-0.00886 0.2222569,-0.0320595 0.3340437,-0.0442486 0.1163989,-0.0206994 0.2327952,-0.0390508 0.3506403,-0.0489649 0.1044442,-0.007742 0.2092003,-0.009013 0.3138812,-0.009667 0.192577,-5.8698e-4 0.385156,-8.79e-5 0.577734,1.4977e-4 0.08993,1.009e-4 0.179865,1.1688e-4 0.269797,1.2824e-4 -0.146801,1.095e-5 0.281836,4.65e-6 0.135079,4.78e-6 -0.583087,5.2e-7 -0.05341,-0.0186665 0.135461,0.0153273 0.089,0.0204491 0.181207,0.0169365 0.270303,0.0347297 0.09872,0.0179977 0.197612,0.0264063 0.294722,0.0518655 0.09039,0.0147416 0.175392,0.0469496 0.261818,0.0756589 0.09927,0.0293098 0.197382,0.0622655 0.29557,0.095054 0.09041,0.019029 0.169928,0.0658064 0.254782,0.099389 0.09271,0.046061 0.191264,0.078063 0.285249,0.12122902 0.118059,0.05483 0.234233,0.1136894 0.352409,0.1682416 0.172974,0.091321 0.335845,0.1992292 0.496642,0.3102564 0.220904,0.1911717 0.42991,0.3962649 0.630192,0.6088625 0.08962,0.095929 0.173328,0.1970091 0.252303,0.3017848 0.04998,0.068141 0.109952,0.1315608 0.151381,0.205169 0.104397,0.1045011 0.158554,0.247185 0.224893,0.3763632 0.127115,0.253493 0.255526,0.5073169 0.362256,0.7702551 0.04736,0.1381642 0.10945,0.2706824 0.157462,0.4086159 0.02322,0.087753 0.04555,0.1758723 0.07692,0.2611976 0.02244,0.080037 0.05252,0.1579018 0.0731,0.2383873 0.02434,0.1106066 0.06753,0.2151118 0.104281,0.3217404 0.0494,0.098944 0.06669,0.208292 0.09974,0.3123711 0.03166,0.077606 0.03528,0.161519 0.05219,0.2424301 0.02463,0.086581 0.02746,0.1769719 0.04444,0.2647932 0.01237,0.085121 0.03701,0.1661941 0.06042,0.2485616 0.02997,0.1229281 0.03585,0.2486826 0.04194,0.3746384 0.01629,0.2634197 0.04422,0.5259098 0.06413,0.7890551 0.02726,0.2361593 -0.01406,0.4696204 -0.04365,0.7033295 -0.03279,0.3185072 -0.08899,0.6332641 -0.164475,0.9442136 -0.01431,0.056049 -0.06813,0.2736507 -0.0869,0.3153056 -0.09088,0.2015785 -0.436009,0.8224171 -0.521022,0.9782091 -0.397437,0.728326 -0.186895,0.35461 -0.583384,1.040424 -0.292672,0.491394 -0.57997,0.991241 -0.937895,1.43916 -0.0808,0.102873 -0.17856,0.188538 -0.282559,0.266682 -0.07011,0.0602 -0.142632,0.117796 -0.213033,0.177787 -0.05661,0.04482 -0.107058,0.09659 -0.161994,0.143326 -0.06063,0.05429 -0.114965,0.11443 -0.171702,0.172564 -0.08984,0.07159 -0.17899,0.143928 -0.268012,0.216581 -0.196973,0.179984 -0.394985,0.358888 -0.591517,0.53939 -0.459314,0.305147 -0.925447,0.600459 -1.397216,0.885999 -0.188961,0.11437 -0.644977,0.386516 -0.8577106,0.488313 -0.1286457,0.06156 -0.2637612,0.108567 -0.3956418,0.162851 -0.3402693,0.118628 -0.6890236,0.227414 -1.0487281,0.267347 -0.1687174,0.01873 -0.3739415,0.0098 -0.5292618,0.01 C 7.3522958,16.066967 7.2479354,16.013497 7.13844,15.972047 7.069482,15.930117 6.9916601,15.906617 6.9227556,15.864968 6.8507086,15.820398 6.7731562,15.784608 6.7027434,15.73757 6.6376364,15.69994 6.5825621,15.64833 6.5246876,15.60075 6.4630236,15.5531 6.395125,15.51346 6.3331875,15.466277 6.2556035,15.399197 6.1848255,15.32466 6.1128387,15.251713 6.0469117,15.171993 5.9784565,15.092033 5.9283895,15.001115 5.8899895,14.926695 5.8537955,14.850036 5.8247588,14.771331 5.7965228,14.695601 5.7626938,14.622162 5.7352688,14.546158 5.6788628,14.446053 5.6478388,14.335093 5.611837,14.226665 5.554513,14.065027 5.5034889,13.901501 5.450907,13.738352 5.418204,13.63425 5.393618,13.527553 5.371052,13.420816 5.35122,13.323876 5.345738,13.225038 5.342747,13.126403 c -0.00189,-0.09067 -0.00142,-0.181365 -0.00125,-0.272048 2.106e-4,-0.09001 3.067e-4,-0.180014 3.616e-4,-0.270022 -0.00167,-0.08953 0.016777,-0.178086 0.045187,-0.262548 0.01606,-0.07084 0.059891,-0.128253 0.094298,-0.190354 0.047576,-0.08228 0.083169,-0.170468 0.1233717,-0.256408 0,0 0.305391,0.01314 0.305391,0.01314 l 0,0 c -0.038917,0.08657 -0.072509,0.175465 -0.1190717,0.258334 -0.031446,0.06224 -0.079548,0.115653 -0.095052,0.185533 -0.028588,0.08111 -0.048329,0.165637 -0.045841,0.25232 -5.22e-5,0.09002 -1.429e-4,0.180043 -3.576e-4,0.270064 -1.839e-4,0.09036 -6.619e-4,0.180734 0.00105,0.271084 0.00273,0.09677 0.0077,0.193782 0.027021,0.288919 0.022379,0.10572 0.048022,0.210968 0.078145,0.314723 0.049084,0.163359 0.096542,0.327017 0.1548771,0.487511 0.039433,0.108483 0.081524,0.215468 0.1335122,0.318592 0.028411,0.07553 0.059828,0.149886 0.089459,0.224932 0.029656,0.07683 0.062959,0.153005 0.1027033,0.225089 0.050624,0.08739 0.1147982,0.166948 0.1814421,0.242544 0.072,0.07211 0.1428458,0.146155 0.2229297,0.209448 0.064361,0.04491 0.1298766,0.08807 0.1920588,0.136084 0.057402,0.04643 0.1121086,0.09684 0.1768062,0.13333 0.072256,0.04388 0.1475609,0.08271 0.2203994,0.125659 0.070236,0.03665 0.1442395,0.06566 0.2142412,0.102881 0.1050344,0.04241 0.2084256,0.08439 0.3247163,0.07964 -0.063301,6.1e-4 -0.1268635,0.0076 -0.1899017,0.0018 -0.046515,-0.0043 0.093446,-0.0024 0.1399852,-0.0064 0.3719257,-0.03195 0.7335212,-0.138325 1.0861555,-0.255457 0.1334946,-0.05323 0.2700655,-0.09931 0.4004837,-0.159682 0.2332545,-0.10798 0.6656978,-0.359019 0.876153,-0.484915 0.457156,-0.273472 0.911405,-0.556513 1.330084,-0.887002 0.192048,-0.183767 0.392346,-0.358478 0.585337,-0.541263 0.08334,-0.07476 0.164035,-0.152276 0.256786,-0.215295 0.05893,-0.05625 0.110188,-0.120253 0.170736,-0.174992 0.05518,-0.04686 0.105775,-0.09827 0.162831,-0.142787 0.06931,-0.06237 0.146384,-0.115611 0.213877,-0.180004 0.104759,-0.07907 0.210782,-0.15706 0.295656,-0.258722 0.385038,-0.439351 0.698989,-0.935339 1.006101,-1.430634 0.291354,-0.488805 0.319545,-0.521484 0.590858,-1.038997 0.194694,-0.3713661 0.312432,-0.5952717 0.452134,-0.9753925 0.03744,-0.1018845 0.04578,-0.2128596 0.08413,-0.3145865 0.07771,-0.308998 0.125594,-0.6250409 0.167944,-0.9406299 0.0266,-0.2321789 0.04734,-0.4643249 0.0289,-0.6980612 -0.0122,-0.2634004 -0.03116,-0.5265022 -0.05892,-0.7887423 -0.01204,-0.1236723 -0.02826,-0.2468754 -0.05532,-0.3681707 -0.02392,-0.083073 -0.04555,-0.165906 -0.05944,-0.2514151 -0.01627,-0.087832 -0.02043,-0.1778272 -0.04487,-0.2642881 -0.01626,-0.080167 -0.022,-0.1626212 -0.05179,-0.2397778 -0.02921,-0.1047273 -0.04973,-0.211981 -0.09737,-0.3109391 C 15.021137,4.9814331 14.981077,4.8750134 14.952758,4.7645872 14.929886,4.685478 14.903813,4.6072988 14.879375,4.5286899 14.849098,4.4430182 14.827791,4.3548433 14.805269,4.2669495 14.758603,4.1296282 14.699133,3.9970131 14.653201,3.8593911 14.554365,3.5959586 14.434667,3.3399808 14.301378,3.092326 14.227644,2.9624261 14.158412,2.8290838 14.056941,2.7181714 14.012412,2.6474236 13.959234,2.5821254 13.907907,2.516221 13.830926,2.4132464 13.751431,2.3121648 13.665012,2.2168592 13.470469,2.0014007 13.266141,1.7928966 13.036461,1.6145275 12.874229,1.5032817 12.708686,1.3967132 12.53173,1.3100411 12.414778,1.2536997 12.298444,1.1960863 12.180229,1.1423941 12.08444,1.1012849 11.985691,1.0673179 11.891554,1.022257 c -0.08292,-0.036451 -0.164534,-0.0756001 -0.253078,-0.0974121 -0.0979,-0.0333534 -0.196617,-0.0642921 -0.29535,-0.095073 -0.08627,-0.0294818 -0.173313,-0.0550761 -0.262788,-0.0731119 -0.09683,-0.0234398 -0.196267,-0.030271 -0.293991,-0.0494398 -0.09,-0.0121413 -0.18114,-0.0159018 -0.270296,-0.0346604 -0.01499,-0.002252 -0.06011,-0.006027 -0.04497,-0.006755 0.08647,-0.004158 0.346195,-1.3232e-4 0.259692,-0.00357 -0.161272,-0.00641 -0.323152,0.001851 -0.484613,-8.41e-6 -0.08994,-1.661e-5 -0.179871,-4.178e-5 -0.269807,-1.6341e-4 -0.04508,-6.425e-5 -0.09015,-1.4598e-4 -0.13523,-2.0854e-4 -0.01516,-2.103e-5 -0.06064,-4.699e-5 -0.04548,-5.388e-5 0.111607,-5.077e-5 0.373791,-3.92e-5 0.211572,-4.444e-5 -0.105197,2.5126e-4 -0.210461,7.7275e-4 -0.315502,0.00715 -0.1176677,0.008331 -0.2345672,0.0229999 -0.3499171,0.0483318 -0.1122379,0.010566 -0.2222957,0.0340668 -0.3344463,0.0437491 -0.1201736,0.0124451 -0.2386008,0.0365104 -0.3521577,0.0787576 -0.098513,0.0323138 -0.1971555,0.0644425 -0.29738,0.0910061 -0.077853,0.0234785 -0.15446,0.0505662 -0.2309393,0.0773035 -0.062051,0.021523 -0.1266889,0.029968 -0.1903987,0.04575 C 7.83386,1.0769382 7.7455117,1.1451872 7.6444025,1.17497 7.5662515,1.205073 7.4910192,1.242733 7.4156231,1.279005 7.3140468,1.32406 7.2104523,1.364679 7.1093373,1.4107957 c -0.085097,0.038694 -0.1718079,0.073928 -0.25594,0.1145536 -0.073368,0.046439 -0.1458236,0.093903 -0.2216129,0.1366322 -0.090519,0.041414 -0.1789519,0.087183 -0.270622,0.1261329 -0.091747,0.035385 -0.1818114,0.074065 -0.2699372,0.1176685 -0.081576,0.041154 -0.165973,0.076259 -0.248586,0.1152226 -0.067298,0.039167 -0.1283943,0.087769 -0.191699,0.1326891 C 5.5886526,2.2002233 5.5289136,2.2500661 5.4658005,2.295538 5.3821943,2.3641692 5.3029859,2.4384845 5.2218951,2.5100629 5.1343522,2.5912911 5.0436089,2.6691507 4.9580686,2.7523831 4.8780897,2.8237783 4.8014185,2.8992713 4.7391389,2.9870398 4.6952657,3.0505073 4.6583135,3.1186359 4.6087816,3.1780908 4.5646626,3.2541281 4.5172018,3.3274685 4.4671492,3.3997176 4.409817,3.4774897 4.3483965,3.5516844 4.2890692,3.6279421 4.2340213,3.6893924 4.1838792,3.7554955 4.1331705,3.8206137 4.0588846,3.9064126 4.011289,4.0120485 3.9475276,4.1053885 3.6850116,4.5206642 3.4578303,4.9570334 3.2409401,5.3975289 2.9242637,6.0705069 2.6245525,6.7531324 2.3967727,7.462132 2.3382288,7.6245409 2.2833229,7.7889089 2.2469113,7.9579025 2.1672959,8.3411571 2.1483863,8.7321458 2.1314134,9.1225478 c -0.00697,0.4458316 0.00474,0.8934562 0.066868,1.3356402 0.02844,0.176 0.056266,0.352681 0.1315469,0.51586 0.047231,0.09884 0.1064296,0.191091 0.1587828,0.287252 0.057223,0.08628 0.1223454,0.162946 0.2113553,0.218642 0.1668432,0.109495 0.3641788,0.168799 0.5525819,0.22961 0.031527,0.007 0.062794,0.01527 0.09458,0.02096 0.018424,0.0033 0.074531,0.0051 0.055833,0.006 -0.5064907,0.02314 -0.249233,0.004 -0.1359457,-0.0067 0.082182,-0.01459 0.1556135,-0.04701 0.2326361,-0.07755 0.076833,-0.03196 0.1519514,-0.06693 0.2170179,-0.119713 0.057628,-0.04887 0.1196208,-0.09194 0.1685638,-0.150517 0.047076,-0.05448 0.1039345,-0.100507 0.1412803,-0.163136 0.043811,-0.0561 0.08125,-0.117985 0.1216906,-0.176367 0.043775,-0.06572 0.080505,-0.136058 0.1272887,-0.200022 0.044463,-0.06761 0.089053,-0.135896 0.1422483,-0.19705 0.056318,-0.07535 0.1292461,-0.134303 0.2048178,-0.189623 0.070241,-0.05848 0.1419266,-0.11094 0.2324042,-0.132958 0.1828323,-0.02726 0.3741099,-0.04045 0.5532302,0.01062 0.075067,0.02556 0.1522471,0.04908 0.2214567,0.08809 0.056661,0.03719 0.1027524,0.08405 0.141201,0.140126 0.039052,0.05304 0.069602,0.1114 0.1080341,0.164883 0.033569,0.06263 0.065562,0.126898 0.088151,0.194335 0.03234,0.09391 0.048701,0.192933 0.037572,0.292387 -0.021217,0.206889 -0.065405,0.410257 -0.1223025,0.610233 -0.05265,0.180787 -0.092138,0.375083 -0.2147006,0.523484 0,0 -0.3107992,-0.02446 -0.3107992,-0.02446 z"
       inkscape:connector-curvature="0" />
    <path
       style="fill:#73d216;fill-opacity:1;stroke:#2e3436;stroke-width:0.1;stroke-linecap:round;stroke-linejoin:miter;stroke-miterlimit:4;stroke-opacity:1;stroke-dasharray:none"
       d="m 8.8163572,13.392089 c -0.130543,-0.02036 -0.2660778,-0.06085 -0.3011885,-0.08999 -0.1014911,-0.08423 -0.1261078,-0.292592 -0.054746,-0.463385 0.1070689,-0.256252 0.1325851,-0.515516 0.074546,-0.757449 -0.073603,-0.30681 -0.020067,-0.418808 0.3833767,-0.80204 0.3300614,-0.313527 0.7414683,-0.576444 1.0998756,-0.702898 0.193255,-0.06818 0.195341,-0.06779 0.3692,0.06991 0.09617,0.07617 0.251003,0.158984 0.344082,0.184043 0.292306,0.0787 0.809056,0.695372 0.887423,1.059028 0.02109,0.09788 0.0064,0.190448 -0.04655,0.292822 -0.173766,0.336127 -0.330725,0.471267 -0.843237,0.726013 -0.8715871,0.433227 -1.3926509,0.56506 -1.9127852,0.483949 l 0,0 z"
       id="path3836"
       inkscape:connector-curvature="0" />
    <path
       style="fill:#729fcf;fill-opacity:1;stroke:#2e3436;stroke-width:0.1;stroke-linecap:round;stroke-linejoin:miter;stroke-miterlimit:4;stroke-opacity:1;stroke-dasharray:none"
       d="m 11.908053,10.249224 c -0.0258,-0.09291 -0.04703,-0.233265 -0.04717,-0.3118905 -2.91e-4,-0.165677 -0.137127,-0.346669 -0.39962,-0.5285771 -0.200651,-0.1390513 -0.33853,-0.3799586 -0.290119,-0.5069079 0.0174,-0.045621 0.116234,-0.1869755 0.219638,-0.3141219 0.118809,-0.1460888 0.207953,-0.3143177 0.242198,-0.4570693 0.06499,-0.2709133 0.203412,-0.4137873 0.489809,-0.5055674 0.210799,-0.067554 0.210898,-0.067682 0.325644,-0.4246619 0.147453,-0.4587321 0.281466,-0.6114767 0.536489,-0.6114767 0.249204,0 0.541758,0.1739667 0.702887,0.4179696 0.06908,0.1046093 0.242368,0.2982789 0.385087,0.4303767 0.318418,0.2947211 0.401258,0.5060672 0.399011,1.0179709 -0.0017,0.3923839 -0.04216,0.5047787 -0.236407,0.6571155 -0.06896,0.05408 -0.175682,0.1975958 -0.237164,0.3189243 -0.165632,0.3268592 -0.376668,0.4480922 -0.864364,0.4965492 -0.574871,0.05712 -0.618382,0.0718 -0.862072,0.2908995 -0.121981,0.109672 -0.243192,0.199403 -0.269359,0.199403 -0.02617,0 -0.06869,-0.07602 -0.09449,-0.168936 z"
       id="path3838"
       inkscape:connector-curvature="0" />
    <path
       style="fill:#fce94f;fill-opacity:1;stroke:#2e3436;stroke-width:0.1;stroke-linecap:round;stroke-linejoin:miter;stroke-miterlimit:4;stroke-opacity:1;stroke-dasharray:none"
       d="M 5.45454,6.633266 C 5.3184182,6.488371 5.2242254,6.1544874 5.2242254,5.816874 c 0,-0.1612841 -0.037942,-0.3888888 -0.090099,-0.5404868 C 4.9804285,4.8296567 5.0279084,4.5297431 5.3022441,4.2144475 5.3761307,4.1295292 5.4620152,3.9789614 5.4930984,3.8798525 5.5968801,3.5489448 5.6516887,3.4969317 5.8965995,3.4969317 c 0.2037108,0 0.2232503,-0.00989 0.2669044,-0.1351178 0.06628,-0.1901317 0.2539346,-0.3525375 0.5801531,-0.5020945 0.4870623,-0.2232969 0.727195,-0.1434623 0.7940558,0.263992 0.044039,0.268378 0.181825,0.4480518 0.4441706,0.5792023 0.3167816,0.158364 0.4775252,0.3163838 0.5335739,0.5245326 0.052885,0.1964007 0.032053,0.2466867 -0.1731717,0.4180206 -0.1860402,0.1553172 -0.2799414,0.33441 -0.2799414,0.5339173 0,0.1201742 -0.034629,0.1856483 -0.1532937,0.2898374 C 7.6953233,5.6568765 7.6477848,5.7653064 7.6099864,6.1513531 7.5837302,6.4195152 7.556844,6.5044606 7.4780223,6.5682866 7.3852026,6.6434474 7.3687386,6.6438477 7.2138814,6.5747078 6.5333836,6.2708827 6.0889621,6.2126031 5.8683249,6.398257 5.7975647,6.4577978 5.7114946,6.5591592 5.677058,6.6235046 5.600128,6.7672495 5.5811913,6.7680802 5.45454,6.633266 l 0,0 z"
       id="path3842"
       inkscape:connector-curvature="0" />
    <path
       inkscape:connector-curvature="0"
       id="path3846"
       d="M 9.9779231,5.9961698 C 9.8418013,5.8512748 9.7476085,5.5173912 9.7476085,5.1797778 9.7476085,5.0184937 9.7096665,4.790889 9.6575095,4.639291 9.5038116,4.1925605 9.5512915,3.8926469 9.8256272,3.5773513 9.8995138,3.492433 9.9853983,3.3418652 10.016482,3.2427563 c 0.103781,-0.3309077 0.15859,-0.3829208 0.403501,-0.3829208 0.20371,0 0.22325,-0.00989 0.266904,-0.1351178 0.06628,-0.1901317 0.253935,-0.3525375 0.580153,-0.5020945 0.487062,-0.2232969 0.727195,-0.1434623 0.794056,0.263992 0.04404,0.268378 0.181825,0.4480518 0.444171,0.5792023 0.316781,0.158364 0.477525,0.3163838 0.533573,0.5245326 0.05288,0.1964007 0.03205,0.2466867 -0.173171,0.4180206 -0.18604,0.1553172 -0.279942,0.33441 -0.279942,0.5339173 0,0.1201742 -0.03463,0.1856483 -0.153293,0.2898374 -0.213728,0.1876549 -0.261266,0.2960848 -0.299064,0.6821315 -0.02626,0.2681621 -0.05314,0.3531075 -0.131965,0.4169335 -0.09282,0.075161 -0.109283,0.075561 -0.26414,0.00642 -0.680498,-0.3038251 -1.12492,-0.3621047 -1.345557,-0.1764508 -0.07076,0.059541 -0.15683,0.1609022 -0.191267,0.2252476 -0.07693,0.1437449 -0.09587,0.1445756 -0.2225179,0.00976 l 0,0 z"
       style="fill:#ef2929;fill-opacity:1;stroke:#2e3436;stroke-width:0.10000000000000001;stroke-linecap:round;stroke-linejoin:miter;stroke-miterlimit:4;stroke-opacity:1;stroke-dasharray:none" />
    <path
       style="fill:#e9b96e;fill-opacity:1;stroke:#2e3436;stroke-width:0;stroke-linecap:round;stroke-linejoin:miter;stroke-miterlimit:4;stroke-opacity:1;stroke-dasharray:none"
       d="M 7.5555196,15.902428 C 7.1490009,15.749183 6.5938292,15.35098 6.3702756,15.052299 6.2674712,14.914946 6.0156316,14.315277 5.8715726,13.86481 5.7466607,13.474216 5.7004187,13.142528 5.7146351,12.739122 c 0.010234,-0.290401 0.020132,-0.330394 0.1466781,-0.592668 0.074637,-0.15469 0.1277451,-0.29413 0.1180185,-0.309868 -0.00973,-0.01574 0.00446,-0.135843 0.031534,-0.266899 0.075854,-0.367234 0.06514,-0.573616 -0.04145,-0.79843 C 5.8397223,10.49771 5.7343434,10.386876 5.5319637,10.311156 5.307463,10.227159 4.8951759,10.220457 4.7444924,10.298354 4.5364547,10.405902 4.3898348,10.557736 4.1437806,10.920431 3.8603441,11.338229 3.7362933,11.46161 3.4831359,11.57751 L 3.3083177,11.65754 3.0875111,11.58237 C 2.5657423,11.404736 2.3531571,11.079381 2.2502192,10.300923 2.1853094,9.8100488 2.2044923,8.5683008 2.2836402,8.1375221 2.4755159,7.0931994 3.6335658,4.5597704 4.2997732,3.7268918 4.3959135,3.6066991 4.5539553,3.3894499 4.650977,3.2441158 4.8373036,2.9650071 5.2766946,2.5243019 5.6424298,2.2496973 5.7582593,2.1627292 6.0322123,2.0113425 6.2512141,1.9132824 6.470216,1.8152223 6.6999895,1.7022666 6.7618219,1.6622697 6.9757757,1.5238716 7.893703,1.1450277 8.369559,0.99872959 8.9117295,0.83204369 9.6062902,0.72094393 10.104265,0.72125153 c 0.741545,4.5808e-4 1.48954,0.2013282 2.34271,0.62912257 0.406921,0.2040372 0.599393,0.3431797 0.920078,0.6651454 0.602745,0.605152 1.003031,1.2491197 1.304153,2.0980816 0.183359,0.5169478 0.458347,1.4444459 0.514721,1.7360872 0.163888,0.8478425 0.211128,1.6627583 0.130185,2.2457641 -0.07697,0.5543957 -0.198149,1.0674436 -0.318336,1.3477803 -0.279014,0.6507983 -0.759573,1.5150043 -1.278735,2.2995953 -0.439956,0.66489 -0.62815,0.893443 -0.983617,1.194556 -0.165462,0.140161 -0.488511,0.426854 -0.717886,0.637096 -0.773307,0.708802 -1.075858,0.935536 -1.946319,1.458593 -0.5954555,0.357807 -1.0299114,0.572456 -1.3847113,0.684136 -0.6456492,0.203231 -0.9506874,0.253186 -1.1309881,0.185219 l 0,0 z M 9.8030255,13.36871 c 0.4071015,-0.129878 1.1959545,-0.500655 1.4134375,-0.664344 0.223189,-0.167983 0.3868,-0.387401 0.452579,-0.606951 0.03064,-0.102267 0.02999,-0.158867 -0.0032,-0.27734 -0.09921,-0.354347 -0.571703,-0.9018 -0.905866,-1.049583 -0.09671,-0.04277 -0.254649,-0.130091 -0.350972,-0.194045 -0.144148,-0.09571 -0.194667,-0.113111 -0.285558,-0.09836 -0.1710427,0.02776 -0.6393811,0.269767 -0.9069261,0.468647 -0.26486,0.196884 -0.7317665,0.674558 -0.7418145,0.758921 -0.00348,0.02921 -0.00706,0.246621 -0.00796,0.483143 -0.00126,0.329479 -0.01619,0.479497 -0.063863,0.641539 -0.099759,0.33908 -0.013124,0.530154 0.2731919,0.602525 0.059169,0.01496 0.2867634,0.02265 0.5057652,0.01709 0.3031142,-0.0077 0.4514251,-0.02709 0.6211688,-0.08124 l -3e-7,0 z M 7.6590072,10.714943 C 8.0308453,10.497031 8.2026704,10.0836 8.1338694,9.5723692 8.094919,9.282945 7.988882,9.0505138 7.8377965,8.9233838 7.3363049,8.5014066 6.4390158,8.6850337 6.0547353,9.2882807 5.8593054,9.5950683 5.9728283,10.028922 6.3517998,10.423582 c 0.1202551,0.125233 0.271512,0.242466 0.3903174,0.302518 0.1819314,0.09196 0.2118743,0.09732 0.4822439,0.08634 0.2428075,-0.0099 0.3113524,-0.02524 0.4346461,-0.09749 z m 4.6314968,-0.423902 c 0.229234,-0.193854 0.323548,-0.228367 0.815073,-0.2982628 0.5839,-0.083032 0.718484,-0.1547052 0.935891,-0.4984141 0.06555,-0.1036358 0.18807,-0.2621246 0.27226,-0.3521973 0.08419,-0.090073 0.164488,-0.20475 0.178441,-0.2548385 0.01395,-0.050088 0.02516,-0.2774207 0.02491,-0.5051826 C 14.516512,7.8692938 14.47596,7.764673 14.142296,7.4152057 14.014405,7.2812572 13.838831,7.0856549 13.752133,6.9805341 13.560135,6.7477391 13.539273,6.7297762 13.33891,6.6247279 13.128828,6.5145855 12.859422,6.5042081 12.728233,6.6012054 c -0.134412,0.09938 -0.218238,0.239939 -0.330862,0.5547881 -0.05578,0.1559258 -0.124772,0.3037016 -0.153323,0.328391 -0.02855,0.024689 -0.123152,0.071504 -0.210224,0.104033 -0.224658,0.08393 -0.372853,0.2453062 -0.465022,0.5063857 -0.04232,0.119877 -0.166077,0.3463262 -0.27617,0.5053317 -0.109718,0.1584637 -0.199487,0.3217434 -0.199487,0.3628441 0,0.1374911 0.120444,0.3129767 0.36509,0.5319343 0.279372,0.2500363 0.319066,0.3151785 0.347892,0.5709237 0.02148,0.190536 0.05481,0.280987 0.139274,0.377883 0.05872,0.06737 0.113612,0.04308 0.345103,-0.152679 l 0,0 z M 5.6619629,6.7495867 c 0.026315,-0.03066 0.099563,-0.1165644 0.1627727,-0.1908983 0.2156519,-0.2536028 0.5067724,-0.2555526 1.1408478,-0.00764 0.1784657,0.069777 0.3637514,0.1268666 0.4117461,0.1268666 0.1472711,0 0.2313506,-0.1184678 0.273256,-0.3850177 C 7.725859,5.8140988 7.7491608,5.7495884 7.908151,5.5798299 8.0884888,5.3872784 8.130648,5.3118603 8.130648,5.1818082 8.130648,5.0205009 8.215863,4.8639141 8.3998571,4.6871256 8.5953459,4.4992921 8.6281341,4.4164196 8.5790627,4.2341821 8.5256623,4.035868 8.4176477,3.9018822 8.1938145,3.7563034 7.7758911,3.4844904 7.7474406,3.4603051 7.68669,3.3252067 7.6532036,3.2507394 7.5994263,3.1051967 7.5671845,3.0017786 7.4909495,2.7572488 7.3942077,2.680974 7.1660958,2.6855459 6.809255,2.6926979 6.2975326,2.9786129 6.1495498,3.2535212 l -0.085737,0.1592741 -0.1938247,0.01912 c -0.23556,0.023237 -0.3266061,0.096746 -0.4023763,0.3248679 -0.029162,0.0878 -0.1292146,0.2715311 -0.222338,0.4082918 -0.2883922,0.4235313 -0.317511,0.5886947 -0.19055,1.0808105 0.042736,0.1656501 0.091822,0.4516958 0.1090794,0.6356573 0.0396,0.4221202 0.112406,0.6459158 0.2609244,0.802041 0.1295137,0.1361472 0.1678729,0.1468195 0.2372355,0.066003 z M 10.185346,6.1124905 c 0.02632,-0.03066 0.09956,-0.1165644 0.162773,-0.1908983 0.215652,-0.2536028 0.506772,-0.2555526 1.140848,-0.00764 0.178465,0.069777 0.363751,0.1268665 0.411746,0.1268665 0.147271,0 0.23135,-0.1184677 0.273256,-0.3850176 0.07527,-0.4787969 0.09858,-0.5433074 0.257565,-0.7130658 0.180338,-0.1925515 0.222497,-0.2679697 0.222497,-0.3980217 0,-0.1613074 0.08521,-0.3178941 0.269209,-0.4946826 0.195489,-0.1878335 0.228277,-0.270706 0.179206,-0.4529437 -0.0534,-0.1983139 -0.161415,-0.3322998 -0.385248,-0.4778786 -0.417924,-0.2718129 -0.446374,-0.2959982 -0.507125,-0.4310966 -0.03349,-0.074467 -0.08726,-0.22001 -0.119505,-0.3234282 -0.07623,-0.2445298 -0.172977,-0.3208045 -0.401089,-0.3162326 -0.356841,0.00715 -0.868563,0.293067 -1.016546,0.5679753 l -0.08574,0.159274 -0.193825,0.01912 c -0.23556,0.023237 -0.326606,0.096746 -0.4023763,0.3248679 -0.029162,0.0878 -0.1292146,0.2715312 -0.222338,0.4082919 -0.2883921,0.4235312 -0.3175109,0.5886946 -0.19055,1.0808103 0.042736,0.1656501 0.091822,0.4516958 0.1090794,0.6356574 0.039599,0.4221202 0.1124061,0.6459158 0.2609244,0.802041 0.1295135,0.1361472 0.1678725,0.1468195 0.2372355,0.066003 l 0,0 z"
       id="path3848"
       inkscape:connector-curvature="0" />
    <path
       style="fill:#2e3436;fill-opacity:1;stroke:#2e3436;stroke-width:0.1;stroke-linecap:round;stroke-linejoin:miter;stroke-miterlimit:4;stroke-opacity:1;stroke-dasharray:none"
       d=""
       id="path3862"
       inkscape:connector-curvature="0" />
    <path
       style="fill:#2e3436;fill-opacity:1;stroke:#2e3436;stroke-width:0;stroke-linecap:round;stroke-linejoin:miter;stroke-miterlimit:4;stroke-opacity:1;stroke-dasharray:none"
       d="m 2.3907164,2.7503916 c -0.018337,5.35e-4 -0.014651,0.029687 -0.03125,0.03125 -0.024898,0.00235 -0.041395,-0.00471 -0.0625,0 -0.029987,0.00669 -0.039827,0.019645 -0.0625,0.03125 -0.00919,0.00427 -0.02266,-0.00537 -0.03125,0 -0.00634,0.00395 -0.025555,-0.00442 -0.03125,0 -0.010307,0.010307 -0.022887,0.020504 -0.03125,0.03125 -0.023232,0.026592 -0.05439,0.054502 -0.0625,0.09375 -0.00181,0.00795 9.471e-4,0.022898 0,0.03125 -0.00116,0.012513 0,0.017619 0,0.03125 0,0.013928 0.028558,0.04672 0.03125,0.0625 0.0016,0.00952 -0.00219,0.021825 0,0.03125 0.00444,0.022121 -0.00877,0.03863 0,0.0625 0.0015,0.00409 0.028877,0.026172 0.03125,0.03125 0.0039,0.010924 -0.00387,0.020299 0,0.03125 0.00273,0.00534 0.027801,0.02511 0.03125,0.03125 0.018891,0.037675 0.033648,0.046296 0.0625,0.09375 0.026157,0.037028 0.027957,0.049401 0.0625,0.09375 0.00542,0.00665 -0.00547,0.024634 0,0.03125 0.032406,0.047531 0.083964,0.1009586 0.125,0.15625 0.071841,0.096798 0.1188114,0.1882034 0.21875,0.3125 0.034702,0.04686 0.023541,0.07311 0.0625,0.125 0.3467716,0.4618726 1.2909997,1.7690477 2.0625,2.90625 0.2483153,0.3660201 0.3962994,0.5610808 0.59375,0.84375 0.2053486,0.3053398 0.5707368,0.8571993 0.625,0.9375 0.010187,0.015075 0.0499,0.045254 0.0625,0.0625 0.021875,0.043472 0.035998,0.08387 0.0625,0.125 0.027663,0.040466 0.089715,0.061063 0.125,0.09375 0.046798,0.055868 0.102243,0.095714 0.15625,0.15625 0.00991,0.011542 0.021291,0.019787 0.03125,0.03125 0.014841,0.017363 0.016722,0.045903 0.03125,0.0625 0.065209,0.06609 0.1238028,0.1199971 0.1875,0.1875 0.015523,0.016188 0.015767,0.046709 0.03125,0.0625 0.00385,0.00405 -0.00381,0.027283 0,0.03125 0.024951,0.025998 0.0398,0.00774 0.0625,0.03125 0.0372,0.044548 0.089558,0.078753 0.125,0.125 0.070221,0.069801 0.1384175,0.147203 0.1875,0.1875 0.016014,0.015311 0.014308,0.048301 0.03125,0.0625 0.060805,0.045504 0.1354548,0.080767 0.1875,0.09375 0.00684,0.0033 0.024662,-0.0028 0.03125,0 0.00933,0.0016 0.021553,-0.0011 0.03125,0 0.029418,0.0092 0.066088,1.47e-4 0.09375,0 0.010261,0.0011 0.021071,-6.28e-4 0.03125,0 0.013085,-4.99e-4 0.01921,9.56e-4 0.03125,0 0.062367,-0.0033 0.1127308,-0.0104 0.15625,-0.03125 0.039021,-0.01544 0.065947,-0.02983 0.09375,-0.0625 0.00939,-0.00871 0.024148,-0.021248 0.03125,-0.03125 0.00355,-0.005 0.028269,0.00533 0.03125,0 0.016621,-0.033647 0.03125,-0.079686 0.03125,-0.125 0,-0.00671 -0.029758,-0.022768 -0.03125,-0.03125 -0.00111,-0.00833 0.00174,-0.022513 0,-0.03125 -1.608e-4,-9.964e-4 2.746e-4,-0.03009 0,-0.03125 -0.004,-0.00603 -0.02728,0.00605 -0.03125,0 -0.00264,-0.00947 0.0033,-0.021345 0,-0.03125 -0.00789,-0.012134 -0.023453,-0.019046 -0.03125,-0.03125 -0.00823,-0.020909 0.010823,-0.039804 0,-0.0625 -0.00315,-0.00661 -0.0869,-0.112915 -0.09375,-0.125 -0.019731,-0.032144 -0.042654,-0.061694 -0.0625,-0.09375 -0.02367,-0.03992 -0.1432627,-0.2734619 -0.1875,-0.34375 -0.01977,-0.031153 -0.1034981,-0.1226537 -0.125,-0.15625 -0.039264,-0.06135 -0.1421728,-0.2425474 -0.1875,-0.3125 -0.1499356,-0.2308802 -0.4622035,-0.6750457 -0.65625,-0.96875 -0.086243,-0.1305353 -0.186535,-0.2949265 -0.28125,-0.4375 -0.074152,-0.1117522 -0.112484,-0.1684953 -0.1875,-0.28125 -0.1558665,-0.2342793 -0.2215959,-0.3644721 -0.375,-0.59375 -0.5718956,-0.8532402 -1.0005725,-1.4500716 -1.34375,-1.9375 -0.03684,-0.052325 -0.058998,-0.076229 -0.09375,-0.125 -0.022004,-0.03088 -0.010048,-0.064253 -0.03125,-0.09375 -0.083895,-0.1185127 -0.1427729,-0.1807512 -0.21875,-0.28125 -0.090579,-0.1198139 -0.168659,-0.247341 -0.25,-0.34375 -0.028478,-0.031498 -0.063655,-0.063754 -0.09375,-0.09375 -0.032424,-0.039137 -0.032446,-0.059418 -0.0625,-0.09375 -0.042159,-0.046001 -0.084724,-0.053795 -0.125,-0.09375 -0.010076,-0.00998 -0.021301,-0.021144 -0.03125,-0.03125 -0.058526,-0.071869 -0.1157597,-0.130678 -0.1875,-0.1875 -0.1236433,-0.095568 -0.2616002,-0.159851 -0.375,-0.1875 -0.0069,-0.00168 0.00694,-0.029721 0,-0.03125 -0.028142,-0.00751 -0.06462,0.00543 -0.09375,0 -0.055784,-0.01182 -0.1081699,-0.027497 -0.15625,-0.03125 -0.038419,-0.00224 -0.092295,-9.54e-4 -0.125,0 z"
       id="path3868"
       inkscape:connector-curvature="0" />
    <path
       style="fill:#2e3436;fill-opacity:1;stroke:#2e3436;stroke-width:0.1;stroke-linecap:round;stroke-linejoin:miter;stroke-miterlimit:4;stroke-opacity:1;stroke-dasharray:none"
       d=""
       id="path3870"
       inkscape:connector-curvature="0" />
    <path
       inkscape:connector-curvature="0"
       id="path3885"
       d="m -0.2364419,6.3552346 c -0.0159421,0.00908 9.9141e-4,0.033091 -0.0129336,0.042259 -0.0208844,0.013758 -0.0387653,0.015264 -0.0551928,0.029326 -0.0233421,0.019978 -0.025953,0.036036 -0.04053,0.056922 -0.006112,0.00808 -0.0225304,0.00589 -0.0275964,0.014663 -0.003745,0.00646 -0.0246412,0.00809 -0.0275964,0.014663 -0.004266,0.013938 -0.0105904,0.028846 -0.0129335,0.042259 -0.008039,0.034384 -0.022458,0.07365 -0.0112042,0.1121151 0.002132,0.00787 0.0115804,0.019776 0.0146629,0.027596 0.004847,0.011594 0.008267,0.015559 0.0146629,0.027596 0.006535,0.0123 0.0471407,0.027858 0.0569222,0.04053 0.00588,0.00766 0.008307,0.020301 0.0146629,0.027596 0.0143003,0.017451 0.010381,0.038229 0.0293258,0.055193 0.003244,0.00291 0.0377811,0.00956 0.0422593,0.012933 0.00857,0.00782 0.006107,0.019742 0.0146629,0.027596 0.004916,0.00343 0.0363326,0.00913 0.0422593,0.012934 0.0343599,0.024406 0.0514367,0.025095 0.09918148,0.053464 0.04047285,0.020426 0.04786797,0.030507 0.09918147,0.053463 0.007907,0.00333 0.006728,0.02432 0.0146629,0.027596 0.0509194,0.026769 0.12151839,0.049758 0.18370008,0.079331 0.10886053,0.051772 0.19322793,0.110452 0.33980372,0.1733241 0.0526321,0.025099 0.0550928,0.053517 0.11384435,0.08106 0.522945,0.2451654 1.9701214,0.9564696 3.1850112,1.5987192 0.3910247,0.2067146 0.6132321,0.3095339 0.9202297,0.4665088 0.3246095,0.1732891 0.9062177,0.4891837 0.9918148,0.5346351 0.016069,0.00853 0.0653,0.016549 0.084519,0.025867 0.039715,0.028125 0.071142,0.057174 0.1138442,0.08106 0.043418,0.02276 0.1078761,0.01183 0.1543743,0.02414 0.067542,0.02738 0.1351976,0.03655 0.2112965,0.06467 0.014166,0.0055 0.028087,0.0075 0.042259,0.01293 0.021251,0.0084 0.036304,0.03269 0.056922,0.04053 0.088595,0.02777 0.1656325,0.04788 0.2535558,0.0776 0.021305,0.007 0.03584,0.03385 0.056922,0.04053 0.00528,0.0017 0.00944,0.02588 0.014663,0.0276 0.034233,0.01125 0.03876,-0.01187 0.069856,-0.0017 0.053754,0.02189 0.1160378,0.02752 0.1690372,0.05173 0.094762,0.02869 0.1913039,0.06505 0.2535558,0.0776 0.021325,0.006 0.035298,0.03594 0.056922,0.04053 0.075045,0.01165 0.1575164,0.0078 0.2095671,-0.0052 0.00759,-2.95e-4 0.020465,-0.01404 0.027596,-0.01466 0.00899,-0.003 0.018517,-0.01108 0.027597,-0.01466 0.030295,-0.0057 0.05843,-0.03088 0.082789,-0.04399 0.00958,-0.0038 0.018313,-0.01044 0.027597,-0.01466 0.011321,-0.0066 0.017413,-0.0082 0.027596,-0.01466 0.053527,-0.03218 0.094671,-0.06208 0.1233192,-0.100911 0.027214,-0.03194 0.04424,-0.05729 0.053464,-0.09918 0.00421,-0.01209 0.011354,-0.0301 0.012934,-0.04226 7.889e-4,-0.0061 0.027451,-0.0086 0.027596,-0.01466 -0.00111,-0.03751 -0.0098,-0.08504 -0.031055,-0.125048 -0.00314,-0.0059 -0.036963,-0.0061 -0.042259,-0.01293 -0.00487,-0.0068 -0.00903,-0.02069 -0.014663,-0.0276 -6.093e-4,-8.046e-4 -0.013876,-0.026701 -0.014663,-0.027596 -0.00635,-0.00342 -0.021228,0.018187 -0.027597,0.014663 -0.00679,-0.00715 -0.0071,-0.020402 -0.014663,-0.027596 -0.012659,-0.00701 -0.029649,-0.00582 -0.042259,-0.012934 -0.017079,-0.014604 -0.00912,-0.040225 -0.029326,-0.055193 C 7.6878378,9.8871487 7.5639951,9.83256 7.5522755,9.825102 7.5197709,9.8059777 7.4856627,9.7906383 7.4530941,9.7716385 7.4134605,9.747492 7.1982692,9.5973688 7.1262239,9.5560551 7.0941493,9.5378233 6.9772757,9.4963041 6.9425239,9.4767247 6.8790643,9.4409705 6.703167,9.3292438 6.6303166,9.2887377 6.3895789,9.1552024 5.9054118,8.9094861 5.5962425,8.741169 5.4588339,8.6663614 5.2931331,8.5682482 5.1425945,8.486785 5.0246764,8.4228913 4.9642015,8.3907681 4.84505,8.3263944 4.5974799,8.1926402 4.4783472,8.1085099 4.2352983,7.9780169 3.329915,7.4928732 2.6713162,7.1669604 2.1395538,6.8975424 2.0824694,6.8686207 2.0516859,6.8579083 1.998113,6.8311454 1.9641923,6.8142002 1.9590915,6.7791191 1.926528,6.763019 1.7968339,6.6977267 1.7156366,6.670391 1.6013871,6.6172913 1.46518,6.5539861 1.3363914,6.4780049 1.2193241,6.4310337 1.1793963,6.4165804 1.1331971,6.4046011 1.0925462,6.392233 1.0455495,6.3728854 1.036014,6.3549859 0.99336466,6.3387695 c -0.0588142,-0.020841 -0.1000598,-0.00775 -0.15437431,-0.024138 -0.0135807,-0.00409 -0.0287316,-0.00868 -0.0422593,-0.012933 -0.0854053,-0.036005 -0.16354141,-0.061084 -0.2535558,-0.077601 -0.15402927,-0.02638 -0.30601937,-0.018416 -0.41913433,0.010376 -0.006882,0.00175 -0.007817,-0.029502 -0.0146629,-0.027596 -0.0283756,0.00657 -0.0545172,0.035116 -0.0827893,0.043989 -0.05480813,0.015737 -0.1084252,0.026472 -0.15264499,0.045718 -0.0349783,0.016049 -0.081952,0.042463 -0.11038569,0.058651 z"
       style="fill:#2e3436;fill-opacity:1;stroke:#2e3436;stroke-width:0;stroke-linecap:round;stroke-linejoin:miter;stroke-miterlimit:4;stroke-opacity:1;stroke-dasharray:none" />
  </g>
</svg>
