<?xml version="1.0" encoding="UTF-8" standalone="no"?>
<!-- Created with Inkscape (http://www.inkscape.org/) -->

<svg
   xmlns:osb="http://www.openswatchbook.org/uri/2009/osb"
   xmlns:dc="http://purl.org/dc/elements/1.1/"
   xmlns:cc="http://creativecommons.org/ns#"
   xmlns:rdf="http://www.w3.org/1999/02/22-rdf-syntax-ns#"
   xmlns:svg="http://www.w3.org/2000/svg"
   xmlns="http://www.w3.org/2000/svg"
   xmlns:xlink="http://www.w3.org/1999/xlink"
   xmlns:sodipodi="http://sodipodi.sourceforge.net/DTD/sodipodi-0.dtd"
   xmlns:inkscape="http://www.inkscape.org/namespaces/inkscape"
   width="48px"
   height="48px"
   id="svg4908"
   sodipodi:version="0.32"
   inkscape:version="0.48.0 r9654"
   sodipodi:docname="glade-3 (1).svg"
   inkscape:output_extension="org.inkscape.output.svg.inkscape"
   inkscape:export-filename="/home/andreas/project/application icons/48x48/glade5.png"
   inkscape:export-xdpi="90"
   inkscape:export-ydpi="90"
   sodipodi:modified="true"
   version="1.1">
  <defs
     id="defs4910">
    <linearGradient
       id="linearGradient22140">
      <stop
         style="stop-color:black;stop-opacity:0;"
         offset="0"
         id="stop22142" />
      <stop
         id="stop22148"
         offset="0.5"
         style="stop-color:black;stop-opacity:1;" />
      <stop
         style="stop-color:black;stop-opacity:0;"
         offset="1"
         id="stop22144" />
    </linearGradient>
    <linearGradient
       inkscape:collect="always"
       xlink:href="#linearGradient22140"
       id="linearGradient23044"
       gradientUnits="userSpaceOnUse"
       x1="18.142136"
       y1="35"
       x2="18.142136"
       y2="42.040661"
       gradientTransform="matrix(0.9665695,0,0,0.93011993,0.01823481,2.8860465)" />
    <radialGradient
       inkscape:collect="always"
       xlink:href="#linearGradient22122"
       id="radialGradient23042"
       gradientUnits="userSpaceOnUse"
       gradientTransform="matrix(0,-0.93012086,1.1046498,0,-86.142081,-32.184815)"
       cx="7"
       cy="39.464806"
       fx="7"
       fy="39.464806"
       r="3.5" />
    <linearGradient
       inkscape:collect="always"
       id="linearGradient22122">
      <stop
         style="stop-color:black;stop-opacity:1;"
         offset="0"
         id="stop22124" />
      <stop
         style="stop-color:black;stop-opacity:0;"
         offset="1"
         id="stop22126" />
    </linearGradient>
    <radialGradient
       inkscape:collect="always"
       xlink:href="#linearGradient22122"
       id="radialGradient23040"
       gradientUnits="userSpaceOnUse"
       gradientTransform="matrix(0,-0.93012086,1.1046498,0,-39.710275,45.206513)"
       cx="7"
       cy="39.464806"
       fx="7"
       fy="39.464806"
       r="3.5" />
    <linearGradient
       inkscape:collect="always"
       id="linearGradient7025">
      <stop
         style="stop-color:#e6ce46;stop-opacity:1"
         offset="0"
         id="stop7027" />
      <stop
         style="stop-color:#d6ba1c;stop-opacity:1"
         offset="1"
         id="stop7029" />
    </linearGradient>
    <linearGradient
       inkscape:collect="always"
       xlink:href="#linearGradient7025"
       id="linearGradient10840"
       gradientUnits="userSpaceOnUse"
       gradientTransform="matrix(0.9665695,0,0,0.93011993,53.083576,4.6081115)"
       x1="13.630114"
       y1="28.5"
       x2="25.208096"
       y2="41.180992" />
    <linearGradient
       inkscape:collect="always"
       id="linearGradient7780">
      <stop
         style="stop-color:#888a85;stop-opacity:1;"
         offset="0"
         id="stop7782" />
      <stop
         style="stop-color:#888a85;stop-opacity:0;"
         offset="1"
         id="stop7784" />
    </linearGradient>
    <linearGradient
       inkscape:collect="always"
       id="linearGradient7752">
      <stop
         style="stop-color:#888a85;stop-opacity:1"
         offset="0"
         id="stop7754" />
      <stop
         style="stop-color:#888a85;stop-opacity:0"
         offset="1"
         id="stop7756" />
    </linearGradient>
    <linearGradient
       inkscape:collect="always"
       id="linearGradient7744">
      <stop
         style="stop-color:#888a85;stop-opacity:1"
         offset="0"
         id="stop7746" />
      <stop
         style="stop-color:#888a85;stop-opacity:0"
         offset="1"
         id="stop7748" />
    </linearGradient>
    <linearGradient
       inkscape:collect="always"
       id="linearGradient7736">
      <stop
         style="stop-color:#c1c7bc;stop-opacity:1;"
         offset="0"
         id="stop7738" />
      <stop
         style="stop-color:#e8eae6;stop-opacity:1"
         offset="1"
         id="stop7740" />
    </linearGradient>
    <linearGradient
       inkscape:collect="always"
       id="linearGradient7728">
      <stop
         style="stop-color:#d3d7cf;stop-opacity:1"
         offset="0"
         id="stop7730" />
      <stop
         style="stop-color:#eeeeec;stop-opacity:1"
         offset="1"
         id="stop7732" />
    </linearGradient>
    <linearGradient
       inkscape:collect="always"
       id="linearGradient7720">
      <stop
         style="stop-color:#555753;stop-opacity:1;"
         offset="0"
         id="stop7722" />
      <stop
         style="stop-color:#555753;stop-opacity:0;"
         offset="1"
         id="stop7724" />
    </linearGradient>
    <linearGradient
       inkscape:collect="always"
       id="linearGradient7686">
      <stop
         style="stop-color:#555753;stop-opacity:1;"
         offset="0"
         id="stop7688" />
      <stop
         style="stop-color:#555753;stop-opacity:0;"
         offset="1"
         id="stop7690" />
    </linearGradient>
    <linearGradient
       inkscape:collect="always"
       id="linearGradient6997">
      <stop
         style="stop-color:#babdb6;stop-opacity:1;"
         offset="0"
         id="stop6999" />
      <stop
         style="stop-color:#d7d9d5;stop-opacity:1"
         offset="1"
         id="stop7001" />
    </linearGradient>
    <linearGradient
       inkscape:collect="always"
       id="linearGradient6905">
      <stop
         style="stop-color:#ffffff;stop-opacity:1;"
         offset="0"
         id="stop6907" />
      <stop
         style="stop-color:#ffffff;stop-opacity:0;"
         offset="1"
         id="stop6909" />
    </linearGradient>
    <linearGradient
       inkscape:collect="always"
       id="linearGradient4790">
      <stop
         style="stop-color:#000000;stop-opacity:1;"
         offset="0"
         id="stop4792" />
      <stop
         style="stop-color:#000000;stop-opacity:0;"
         offset="1"
         id="stop4794" />
    </linearGradient>
    <radialGradient
       inkscape:collect="always"
       xlink:href="#linearGradient4790"
       id="radialGradient4796"
       cx="37.030354"
       cy="12.98915"
       fx="37.030354"
       fy="12.98915"
       r="4.2929163"
       gradientTransform="matrix(-2.1313511,0,0,1.283833,86.543976,-0.12779841)"
       gradientUnits="userSpaceOnUse" />
    <linearGradient
       id="linearGradient269">
      <stop
         id="stop270"
         offset="0.0000000"
         style="stop-color:#a3a3a3;stop-opacity:1.0000000;" />
      <stop
         id="stop271"
         offset="1"
         style="stop-color:#8a8a8a;stop-opacity:1;" />
    </linearGradient>
    <linearGradient
       id="linearGradient259">
      <stop
         id="stop260"
         offset="0.0000000"
         style="stop-color:#729fcf;stop-opacity:1" />
      <stop
         id="stop261"
         offset="1.0000000"
         style="stop-color:#204a87;stop-opacity:1.0000000" />
    </linearGradient>
    <linearGradient
       inkscape:collect="always"
       id="linearGradient2251">
      <stop
         style="stop-color:#ffffff;stop-opacity:1;"
         offset="0"
         id="stop2253" />
      <stop
         style="stop-color:#ffffff;stop-opacity:0;"
         offset="1"
         id="stop2255" />
    </linearGradient>
    <linearGradient
       inkscape:collect="always"
       xlink:href="#linearGradient2251"
       id="linearGradient8166"
       gradientUnits="userSpaceOnUse"
       gradientTransform="matrix(0.03277938,-1.0071302,-0.99946296,-0.03303084,45.620227,49.233342)"
       x1="32.862488"
       y1="36.028366"
       x2="38.624496"
       y2="41.400166" />
    <linearGradient
       inkscape:collect="always"
       xlink:href="#linearGradient6905"
       id="linearGradient6959"
       gradientUnits="userSpaceOnUse"
       gradientTransform="translate(11.30501,19.746952)"
       x1="-15.909902"
       y1="16.003418"
       x2="-23"
       y2="16.091806" />
    <linearGradient
       inkscape:collect="always"
       xlink:href="#linearGradient6905"
       id="linearGradient6962"
       gradientUnits="userSpaceOnUse"
       gradientTransform="translate(-35,-4.5078057)"
       x1="-15.909902"
       y1="16.003418"
       x2="-23"
       y2="16.091806" />
    <linearGradient
       inkscape:collect="always"
       xlink:href="#linearGradient6997"
       id="linearGradient7003"
       x1="-17.235727"
       y1="17.947962"
       x2="-17.324116"
       y2="32.53204"
       gradientUnits="userSpaceOnUse" />
    <linearGradient
       inkscape:collect="always"
       xlink:href="#linearGradient7686"
       id="linearGradient7692"
       x1="35.47406"
       y1="36.912945"
       x2="35.47406"
       y2="39.351414"
       gradientUnits="userSpaceOnUse"
       gradientTransform="matrix(0.99999995,0,0,1.0045696,0,-0.1855194)" />
    <linearGradient
       inkscape:collect="always"
       xlink:href="#linearGradient7720"
       id="linearGradient7726"
       x1="-8.28125"
       y1="12.475584"
       x2="-8.28125"
       y2="6.2509766"
       gradientUnits="userSpaceOnUse"
       gradientTransform="matrix(0.2909091,0,0,0.3497268,-33.090909,9.2513665)" />
    <radialGradient
       inkscape:collect="always"
       xlink:href="#linearGradient7728"
       id="radialGradient7734"
       cx="8.3376141"
       cy="40.582108"
       fx="8.3376141"
       fy="40.582108"
       r="20.500002"
       gradientTransform="matrix(-0.99598565,6.9120709e-8,1.181422e-6,0.87804873,46.845966,3.0487798)"
       gradientUnits="userSpaceOnUse" />
    <linearGradient
       inkscape:collect="always"
       xlink:href="#linearGradient7736"
       id="linearGradient7742"
       x1="38.944931"
       y1="12.11484"
       x2="37.306168"
       y2="13.392819"
       gradientUnits="userSpaceOnUse"
       gradientTransform="matrix(-0.99999995,0,0,1,47.000002,1.793812e-8)" />
    <linearGradient
       inkscape:collect="always"
       xlink:href="#linearGradient7744"
       id="linearGradient7750"
       x1="18.384777"
       y1="22"
       x2="23.292892"
       y2="22"
       gradientUnits="userSpaceOnUse" />
    <linearGradient
       inkscape:collect="always"
       xlink:href="#linearGradient7752"
       id="linearGradient7758"
       x1="15.114408"
       y1="27"
       x2="20.019962"
       y2="27"
       gradientUnits="userSpaceOnUse" />
    <linearGradient
       inkscape:collect="always"
       xlink:href="#linearGradient7780"
       id="linearGradient7786"
       x1="21.051777"
       y1="5.4111629"
       x2="19.991116"
       y2="25.86212"
       gradientUnits="userSpaceOnUse" />
    <radialGradient
       inkscape:collect="always"
       xlink:href="#linearGradient22122"
       id="radialGradient5157"
       gradientUnits="userSpaceOnUse"
       gradientTransform="matrix(0,-0.93012086,1.1046498,0,-39.745952,45.500007)"
       cx="7"
       cy="39.464806"
       fx="7"
       fy="39.464806"
       r="3.5" />
    <radialGradient
       inkscape:collect="always"
       xlink:href="#linearGradient22122"
       id="radialGradient5159"
       gradientUnits="userSpaceOnUse"
       gradientTransform="matrix(0,-0.93012086,1.1046498,0,-86.106404,-32.478309)"
       cx="7"
       cy="39.464806"
       fx="7"
       fy="39.464806"
       r="3.5" />
    <linearGradient
       inkscape:collect="always"
       xlink:href="#linearGradient22140"
       id="linearGradient5161"
       gradientUnits="userSpaceOnUse"
       x1="18.142136"
       y1="35"
       x2="18.142136"
       y2="42.040661"
       gradientTransform="matrix(0.9665695,0,0,0.93011993,-0.017442,3.1795408)" />
    <linearGradient
       gradientUnits="userSpaceOnUse"
       y2="-12.855585"
       x2="-121.72885"
       y1="-49.872047"
       x1="-83.123009"
       id="linearGradient5820"
       xlink:href="#linearGradient5814"
       inkscape:collect="always"
       gradientTransform="matrix(0.55622202,0,0,0.62127753,72.432615,52.162366)" />
    <linearGradient
       gradientUnits="userSpaceOnUse"
       y2="353.11588"
       x2="-172.01982"
       y1="121.73309"
       x1="-176.22293"
       id="linearGradient5810"
       xlink:href="#linearGradient5804"
       inkscape:collect="always"
       gradientTransform="matrix(0.55622202,0,0,0.62127753,448.91458,392.94951)" />
    <linearGradient
       gradientUnits="userSpaceOnUse"
       y2="-6.4977531"
       x2="-40.217014"
       y1="-30.497757"
       x1="-39.092014"
       id="linearGradient5800"
       xlink:href="#linearGradient5794"
       inkscape:collect="always"
       gradientTransform="matrix(0.55622202,0,0,0.62127753,29.763497,19.343372)" />
    <linearGradient
       id="linearGradient7197">
      <stop
         style="stop-color:#97ab34;stop-opacity:0.7589286;"
         offset="0"
         id="stop7199" />
      <stop
         style="stop-color:#2e3436;stop-opacity:0;"
         offset="1"
         id="stop7201" />
    </linearGradient>
    <inkscape:path-effect
       effect="spiro"
       id="path-effect4293"
       is_visible="true" />
    <inkscape:path-effect
       effect="spiro"
       id="path-effect4233"
       is_visible="true" />
    <linearGradient
       gradientUnits="userSpaceOnUse"
       y2="4.2137203"
       x2="15.035471"
       y1="9.8201666"
       x1="21.661272"
       id="linearGradient3952"
       xlink:href="#linearGradient3946"
       inkscape:collect="always" />
    <linearGradient
       id="linearGradient3946"
       inkscape:collect="always">
      <stop
         id="stop3948"
         offset="0"
         style="stop-color:#888a85;stop-opacity:0" />
      <stop
         style="stop-color:#babdb6;stop-opacity:1"
         offset="0.40869948"
         id="stop3954" />
      <stop
         id="stop3950"
         offset="1"
         style="stop-color:#888a85;stop-opacity:0;" />
    </linearGradient>
    <linearGradient
       osb:paint="solid"
       id="linearGradient5402">
      <stop
         id="stop5404"
         offset="0"
         style="stop-color:#0001cf;stop-opacity:1;" />
    </linearGradient>
    <linearGradient
       id="linearGradient5794">
      <stop
         id="stop5796"
         offset="0"
         style="stop-color:#729fcf;stop-opacity:1" />
      <stop
         style="stop-color:#204a87;stop-opacity:1"
         offset="0.49771041"
         id="stop5802" />
      <stop
         id="stop5798"
         offset="1"
         style="stop-color:#729fcf;stop-opacity:1" />
    </linearGradient>
    <linearGradient
       id="linearGradient5804"
       inkscape:collect="always">
      <stop
         id="stop5806"
         offset="0"
         style="stop-color:#729fcf;stop-opacity:1" />
      <stop
         style="stop-color:#204a87;stop-opacity:1"
         offset="0.43162137"
         id="stop5812" />
      <stop
         id="stop5808"
         offset="1"
         style="stop-color:#729fcf;stop-opacity:1" />
    </linearGradient>
    <linearGradient
       id="linearGradient5814"
       inkscape:collect="always">
      <stop
         id="stop5816"
         offset="0"
         style="stop-color:#eeeeec;stop-opacity:1;" />
      <stop
         id="stop5818"
         offset="1"
         style="stop-color:#babdb6;stop-opacity:1" />
    </linearGradient>
  </defs>
  <sodipodi:namedview
     id="base"
     pagecolor="#ffffff"
     bordercolor="#666666"
     borderopacity="1.0"
     inkscape:pageopacity="0.0"
     inkscape:pageshadow="2"
     inkscape:zoom="5.6568539"
     inkscape:cx="-13.712574"
     inkscape:cy="23.089244"
     inkscape:current-layer="layer1"
     showgrid="true"
     inkscape:grid-bbox="true"
     inkscape:document-units="px"
     inkscape:window-width="1152"
     inkscape:window-height="793"
     inkscape:window-x="-4"
     inkscape:window-y="-4"
     showguides="true"
     inkscape:guide-bbox="true"
     inkscape:window-maximized="1" />
  <metadata
     id="metadata4913">
    <rdf:RDF>
      <cc:Work
         rdf:about="">
        <dc:format>image/svg+xml</dc:format>
        <dc:type
           rdf:resource="http://purl.org/dc/dcmitype/StillImage" />
        <dc:title></dc:title>
      </cc:Work>
    </rdf:RDF>
  </metadata>
  <g
     id="layer1"
     inkscape:label="Layer 1"
     inkscape:groupmode="layer">
    <g
       id="g5149"
       style="opacity:0.3"
       transform="matrix(-0.99147893,0,0,0.76794613,46.982707,12.55844)">
      <rect
         y="35"
         x="0"
         height="7"
         width="4"
         id="rect5151"
         style="fill:url(#radialGradient5157);fill-opacity:1;stroke:none" />
      <rect
         transform="scale(-1,-1)"
         y="-42"
         x="-48"
         height="7"
         width="4"
         id="rect5153"
         style="fill:url(#radialGradient5159);fill-opacity:1;stroke:none" />
      <rect
         y="35"
         x="4"
         height="7"
         width="40"
         id="rect5155"
         style="fill:url(#linearGradient5161);fill-opacity:1;stroke:none" />
    </g>
    <path
       style="fill:url(#radialGradient7734);fill-opacity:1;stroke:#888a85;stroke-width:1;stroke-linecap:round;stroke-linejoin:round;stroke-miterlimit:4;stroke-opacity:1;stroke-dashoffset:0"
       d="m 43.067823,4.4947962 -30.773249,0 c -0.162783,0 -10.3163911,10.5515088 -10.3163911,10.7206698 l 0,26.603542 c 0,0.169161 0.1310491,0.305345 0.293832,0.305345 l 40.7958081,0 c 0.162783,0 0.293832,-0.136184 0.293832,-0.305345 l 0,-37.0188658 c 0,-0.1691616 -0.131049,-0.305346 -0.293832,-0.305346 z"
       id="rect4916"
       sodipodi:nodetypes="ccccccccc"
       inkscape:connector-curvature="0" />
    <path
       style="fill:none;stroke:url(#linearGradient7692);stroke-width:1px;stroke-linecap:butt;stroke-linejoin:miter;stroke-opacity:1"
       d="m 35.118185,40.080314 0,-28.059606 -28.9881954,0 0,34.263554 17.4642254,-10.562501"
       id="path4974"
       sodipodi:nodetypes="ccccc"
       inkscape:connector-curvature="0" />
    <path
       style="opacity:0.64130435;fill:none;stroke:#ffffff;stroke-width:1;stroke-linecap:round;stroke-linejoin:round;stroke-miterlimit:4;stroke-opacity:1;stroke-dashoffset:0"
       d="m 3.0127697,14.574143 8.8586473,-9.0042166 30.455647,0 0,35.4792966 -39.3142943,0 0,-26.47508 z"
       id="rect5887"
       sodipodi:nodetypes="cccccc"
       inkscape:connector-curvature="0" />
    <path
       style="fill:none;stroke:#555753;stroke-width:0.99999994px;stroke-linecap:butt;stroke-linejoin:miter;stroke-opacity:1"
       d="m 4.631706,16.392917 30.386194,0"
       id="path4976"
       inkscape:connector-curvature="0" />
    <path
       inkscape:r_cy="true"
       inkscape:r_cx="true"
       style="opacity:0.35714285;color:#000000;fill:url(#radialGradient4796);fill-opacity:1;fill-rule:evenodd;stroke:none;stroke-width:1.00000024;marker:none;visibility:visible;display:inline;overflow:visible"
       d="m 2.4954765,14.936467 c 0.920577,-1.447801 7.7135445,-4.010785 11.2494145,-4.87038 -0.214241,1.691122 0.155181,6.792706 0.155181,6.792706 C 11.293277,15.380489 3.4822085,14.762173 2.4954765,14.936467 z"
       id="path5348"
       sodipodi:nodetypes="cccc"
       inkscape:connector-curvature="0" />
    <rect
       style="opacity:0.64130434999999997;fill:url(#linearGradient7786);fill-opacity:1;stroke:none"
       id="rect7778"
       width="27.933842"
       height="3.2253904"
       x="6.6338234"
       y="12.558272" />
    <path
       style="color:#000000;fill:url(#linearGradient7742);fill-opacity:1;fill-rule:nonzero;stroke:#888a85;stroke-width:1;stroke-linecap:butt;stroke-linejoin:round;stroke-miterlimit:4;stroke-opacity:1;stroke-dasharray:none;stroke-dashoffset:0;marker:none;visibility:visible;display:block;overflow:visible"
       d="M 1.9782078,15.358643 C 1.9645874,13.837181 8.550456,4.3845167 12.567326,4.4957703 c -1.006692,0.2504999 -1.810894,6.6314357 -0.373108,9.6552387 -2.8451138,0 -9.2188083,-0.790145 -10.2160102,1.207634 z"
       id="path2210"
       sodipodi:nodetypes="cccc"
       inkscape:r_cx="true"
       inkscape:r_cy="true"
       inkscape:connector-curvature="0" />
    <path
       sodipodi:nodetypes="cccc"
       id="path2247"
       d="M 4.3463726,13.095837 C 5.0999262,11.63693 8.6487397,7.6035986 10.637822,6.2634325 c -0.247205,1.5447333 -0.55563,3.9894615 0.0813,6.7654855 0,0 -5.5650456,-0.108711 -6.3727516,0.06692 z"
       style="color:#000000;fill:none;stroke:url(#linearGradient8166);stroke-width:1.00000024000000010;stroke-linecap:butt;stroke-linejoin:miter;stroke-miterlimit:4;stroke-opacity:1;stroke-dasharray:none;stroke-dashoffset:0;marker:none;visibility:visible;display:inline;overflow:visible"
       inkscape:r_cx="true"
       inkscape:r_cy="true"
       inkscape:connector-curvature="0" />
    <rect
       style="fill:#555753;fill-opacity:1;stroke:#555753;stroke-width:1.00000012;stroke-linecap:butt;stroke-linejoin:miter;stroke-miterlimit:4;stroke-opacity:1;stroke-dasharray:none;stroke-dashoffset:0"
       id="rect5963"
       width="0.17149743"
       height="3.10376"
       x="-12.192205"
       y="-38.188717"
       transform="matrix(0,-1,-1,0,0,0)" />
    <rect
       style="fill:url(#linearGradient7726);fill-opacity:1;stroke:none"
       id="rect7718"
       width="1.0345868"
       height="4.3005209"
       x="-35.602253"
       y="8.2577515"
       transform="scale(-1,1)" />
    <g
       inkscape:label="Layer 1"
       id="layer1-7"
       transform="matrix(1.7978432,0,0,1.6095866,5.831913,16.237921)">
      <path
         inkscape:connector-curvature="0"
         id="path3862"
         d=""
         style="fill:#2e3436;fill-opacity:1;stroke:#2e3436;stroke-width:0.05878505;stroke-linecap:round;stroke-linejoin:miter;stroke-miterlimit:4;stroke-opacity:1;stroke-dasharray:none" />
      <path
         inkscape:connector-curvature="0"
         id="path3870"
         d=""
         style="fill:#2e3436;fill-opacity:1;stroke:#2e3436;stroke-width:0.05878505;stroke-linecap:round;stroke-linejoin:miter;stroke-miterlimit:4;stroke-opacity:1;stroke-dasharray:none" />
      <path
         inkscape:connector-curvature="0"
         d="m 15.692607,15.763194 c -0.02841,-0.06288 -0.05275,-0.127894 -0.08288,-0.189871 -0.02381,-0.05682 -0.0631,-0.103927 -0.09976,-0.152253 -0.04151,-0.06317 -0.08075,-0.127883 -0.123296,-0.190325 -0.05409,-0.06674 -0.101902,-0.137846 -0.146912,-0.211262 -0.03991,-0.0601 -0.07729,-0.122385 -0.123961,-0.177277 -0.03472,-0.04544 -0.07552,-0.08505 -0.111964,-0.129025 -0.04823,-0.05366 -0.0894,-0.113418 -0.13798,-0.166688 -0.04294,-0.04991 -0.09026,-0.09616 -0.136903,-0.142508 -0.04649,-0.04866 -0.08867,-0.101266 -0.132578,-0.152429 -0.05327,-0.05156 -0.102607,-0.107032 -0.157951,-0.156301 -0.0417,-0.04421 -0.08678,-0.08449 -0.131947,-0.124924 -0.0553,-0.04557 -0.11218,-0.09062 -0.163344,-0.141182 -0.04521,-0.04299 -0.09116,-0.08585 -0.132526,-0.132835 -0.05072,-0.0413 -0.08792,-0.09596 -0.134459,-0.14161 -0.05662,-0.05655 -0.103265,-0.121564 -0.1514,-0.185511 -0.04176,-0.0699 -0.09677,-0.129507 -0.141527,-0.19718 -0.047,-0.05836 -0.09438,-0.116548 -0.136691,-0.178677 -0.05038,-0.07116 -0.09584,-0.145608 -0.147993,-0.215436 -0.04776,-0.06242 -0.09043,-0.128955 -0.137332,-0.191975 -0.04302,-0.05928 -0.08001,-0.12342 -0.126556,-0.179828 -0.04596,-0.06011 -0.09364,-0.118688 -0.138575,-0.179571 -0.03288,-0.06367 -0.08518,-0.112449 -0.128991,-0.16767 -0.04616,-0.05515 -0.09427,-0.108282 -0.140857,-0.163084 -0.04695,-0.06212 -0.0992,-0.118922 -0.15339,-0.174439 -0.06196,-0.05788 -0.114134,-0.125375 -0.172872,-0.186391 -0.04958,-0.05459 -0.09039,-0.116115 -0.133685,-0.175818 -0.03789,-0.06795 -0.08976,-0.124801 -0.138608,-0.184099 -0.04351,-0.05527 -0.09119,-0.107791 -0.126609,-0.169077 -0.03727,-0.05422 -0.07002,-0.111644 -0.09949,-0.170677 -0.0389,-0.06832 -0.06352,-0.143628 -0.09528,-0.215456 -0.02829,-0.07644 -0.06033,-0.151517 -0.08776,-0.22828 -0.02628,-0.08407 -0.05213,-0.16823 -0.07922,-0.252033 C 11.51664,10.063152 11.49178,9.9875044 11.46656,9.911992 11.44365,9.839142 11.4366,9.7629051 11.42045,9.6884177 11.40499,9.6081897 11.38947,9.5277403 11.36863,9.4487571 11.34747,9.3675251 11.32545,9.2863262 11.2985,9.2068876 11.27036,9.1319716 11.24634,9.0548996 11.21132,8.9829748 11.17491,8.9054288 11.13047,8.8317125 11.083034,8.7607975 c -0.02337,-0.027239 -0.04836,-0.061529 -0.08416,-0.072716 -0.0086,-0.0027 -0.03592,-0.0028 -0.02694,-0.00218 0.09159,0.00634 0.105593,-0.008 0.05851,0.019958 -0.05905,0.048977 -0.09687,0.1189784 -0.1321,0.1868113 -0.04208,0.068783 -0.06597,0.1440611 -0.07869,0.2236281 -0.02166,0.08554 -0.03266,0.1729112 -0.03911,0.2608629 5.41e-4,0.090466 -0.01685,0.1789983 -0.02778,0.2683673 -0.01253,0.092848 -0.02753,0.1857801 -0.04444,0.2779743 -0.01585,0.1037526 -0.03606,0.2065236 -0.05457,0.3097816 -0.01113,0.08954 -0.03595,0.176151 -0.06964,0.259262 -0.02502,0.06886 -0.06094,0.130756 -0.114469,0.179596 -0.04579,0.04259 -0.09466,0.08144 -0.142766,0.121229 -0.05533,0.04395 -0.111419,0.08615 -0.170383,0.124827 -0.06034,0.05154 -0.117438,0.106787 -0.1773932,0.158989 -0.080529,0.06124 -0.1710462,0.103775 -0.2622151,0.144838 -0.07476,0.03857 -0.1569618,0.04914 -0.2376408,0.06593 -0.071273,0.02043 -0.1452838,0.02461 -0.2177838,0.03755 -0.071353,0.01742 -0.1438092,0.02742 -0.2168497,0.03295 -0.073885,0.0022 -0.146197,0.01968 -0.2169174,0.04055 -0.068094,0.02348 -0.1337581,0.0544 -0.1905873,0.09989 -0.058997,0.05718 -0.1161078,0.116977 -0.1608752,0.186694 -0.03608,0.06056 -0.080643,0.129285 -0.066527,0.203169 0.030265,0.05988 0.096474,0.08438 0.1469227,0.12292 0.062858,0.04523 0.1228718,0.09403 0.1887918,0.134609 0.073931,0.03577 0.1524135,0.06073 0.2298365,0.08737 0.090421,0.03011 0.177935,0.06762 0.2655623,0.105165 0.084538,0.02986 0.169898,0.05676 0.2549038,0.08514 0.07426,0.01889 0.1488271,0.03661 0.223612,0.05352 0.080143,0.01289 0.160237,0.01991 0.2385039,0.04302 0.074668,0.02909 0.1525095,0.05077 0.2268585,0.08057 0.06485,0.02197 0.127112,0.05026 0.189914,0.07758 0.07685,0.03778 0.152965,0.07708 0.228636,0.117309 0.100005,0.0615 0.195808,0.13037 0.289742,0.201237 0.122673,0.09364 0.250891,0.178311 0.383608,0.255879 0.105003,0.05771 0.211268,0.112707 0.314712,0.173438 0.07148,0.03542 0.134743,0.085 0.201017,0.129176 0.0531,0.03905 0.10037,0.08553 0.155049,0.122317 0.05167,0.04786 0.108069,0.08855 0.1662,0.127561 0.07712,0.05723 0.151606,0.118352 0.225752,0.179629 0.07807,0.0719 0.168555,0.126686 0.257848,0.182135 0.09117,0.05874 0.176325,0.124787 0.254143,0.201052 0.08586,0.0814 0.176748,0.157367 0.256953,0.244789 0.06647,0.07297 0.131042,0.147739 0.19652,0.221709 0.06901,0.0774 0.140654,0.15225 0.212462,0.226893 0.06217,0.07496 0.123144,0.150826 0.18757,0.223776 0.04891,0.0588 0.09564,0.120217 0.149321,0.174564 0.05031,0.05145 0.09867,0.105083 0.14631,0.159298 0.05051,0.07562 0.109613,0.142106 0.174339,0.204842 0.06657,0.05768 0.139919,0.105725 0.210573,0.157691 0.07786,0.05731 0.143915,0.128985 0.21725,0.191779 0.05248,0.05883 0.118606,0.09702 0.183619,0.138076 0.05769,0.03257 0.11841,0.05851 0.182349,0.07469 -0.07543,0.01074 0.184652,0.01266 0.104696,0.01357 -0.146008,0.0016 -0.0549,-0.003 -0.01822,-0.01592 0.05897,-0.02175 0.09521,-0.07469 0.134392,-0.121635 0.03276,-0.04254 0.06534,-0.08491 0.100097,-0.125711 0.03504,-0.04599 0.07008,-0.09197 0.105513,-0.137711 0.03877,-0.03808 0.06411,-0.08701 0.09725,-0.129792 0.0338,-0.04041 0.06399,-0.08297 0.0923,-0.127645 0.0055,-0.007 0.01079,-0.01407 0.01624,-0.0211 0,0 0.106547,0.0075 0.106547,0.0075 l 0,0 c -0.0055,0.0067 -0.01079,0.01325 -0.01619,0.01987 -0.02798,0.04539 -0.05838,0.08821 -0.09236,0.128905 -0.03431,0.04188 -0.05772,0.09226 -0.09737,0.129579 -0.03501,0.04617 -0.07146,0.0911 -0.105253,0.13821 -0.03417,0.04144 -0.06885,0.08222 -0.100789,0.125689 -0.04013,0.04719 -0.0754,0.103239 -0.134469,0.127062 -0.09294,0.03987 -0.200974,0.02097 -0.297664,0.0035 -0.06397,-0.01764 -0.125259,-0.04407 -0.182799,-0.07788 -0.0656,-0.04052 -0.129568,-0.08211 -0.182832,-0.139835 -0.07254,-0.0635 -0.139365,-0.134081 -0.217381,-0.190878 -0.07117,-0.05175 -0.144538,-0.100483 -0.210676,-0.159195 -0.06471,-0.06305 -0.122729,-0.130859 -0.17449,-0.20565 -0.04803,-0.0539 -0.09669,-0.107371 -0.147161,-0.158754 -0.0524,-0.0555 -0.09951,-0.116128 -0.148087,-0.175146 -0.06422,-0.07292 -0.124909,-0.148843 -0.187372,-0.223325 -0.07186,-0.07476 -0.143532,-0.149773 -0.21256,-0.227334 -0.06539,-0.07391 -0.13029,-0.148278 -0.196374,-0.221505 -0.08035,-0.08694 -0.170817,-0.163014 -0.256507,-0.244237 -0.07797,-0.07543 -0.163646,-0.140368 -0.254487,-0.198694 -0.08949,-0.05565 -0.179358,-0.111703 -0.257714,-0.183578 -0.07435,-0.06105 -0.148891,-0.122212 -0.226723,-0.17847 -0.05829,-0.03899 -0.113697,-0.08123 -0.166597,-0.127655 -0.05378,-0.03782 -0.101436,-0.0836 -0.154658,-0.122249 -0.0656,-0.04464 -0.129571,-0.09233 -0.200183,-0.128585 -0.103185,-0.06029 -0.208774,-0.115695 -0.313184,-0.173615 -0.132649,-0.07826 -0.260741,-0.163848 -0.384009,-0.257048 -0.09412,-0.07061 -0.190335,-0.138952 -0.290957,-0.199411 -0.07593,-0.03985 -0.151939,-0.07955 -0.229274,-0.116443 -0.06264,-0.0276 -0.125515,-0.05428 -0.189979,-0.07712 -0.07473,-0.02819 -0.1509959,-0.05283 -0.2261851,-0.07964 -0.078621,-0.02146 -0.1589515,-0.02795 -0.2388252,-0.04244 -0.074669,-0.01744 -0.1496278,-0.0338 -0.2234372,-0.05459 -0.084981,-0.02865 -0.1706441,-0.05495 -0.2548508,-0.08604 -0.087366,-0.03787 -0.1751743,-0.07433 -0.265446,-0.104394 -0.077724,-0.02706 -0.1572026,-0.05118 -0.2304169,-0.08973 -0.065527,-0.04158 -0.12618,-0.08999 -0.1891019,-0.135486 -0.053126,-0.03896 -0.120982,-0.06575 -0.1480526,-0.131247 -0.012026,-0.0773 0.028959,-0.147866 0.067696,-0.211376 0.044552,-0.07095 0.1020497,-0.131257 0.1606141,-0.190167 0.056294,-0.04783 0.1228638,-0.07892 0.1912936,-0.104137 0.070785,-0.02117 0.143041,-0.04063 0.2171354,-0.04285 0.072966,-0.0049 0.1455519,-0.01373 0.2167073,-0.0317 0.072148,-0.01477 0.1466755,-0.01604 0.217832,-0.03728 0.080211,-0.0182 0.1633033,-0.02488 0.2381007,-0.06363 0.090534,-0.04088 0.1808536,-0.08165 0.2614803,-0.14175 0.060042,-0.05255 0.1180839,-0.106927 0.1771353,-0.160487 0.05862,-0.03868 0.115075,-0.07975 0.170102,-0.123617 0.04771,-0.04021 0.0969,-0.07843 0.142635,-0.120943 0.05419,-0.04617 0.08991,-0.107044 0.11474,-0.174515 0.03393,-0.08223 0.05885,-0.16813 0.0701,-0.25691 0.01858,-0.103262 0.03918,-0.205975 0.05468,-0.3098219 0.01689,-0.091949 0.03082,-0.1848158 0.04401,-0.2773089 0.01079,-0.089217 0.02813,-0.1775589 0.02791,-0.267828 0.0064,-0.088213 0.01673,-0.1760061 0.03847,-0.261819 0.01275,-0.080683 0.03637,-0.1573829 0.07904,-0.2271614 0.03548,-0.069323 0.07397,-0.1399884 0.131665,-0.1924295 0.09756,-0.071557 0.20289,-0.024499 0.2641,0.059341 0.04746,0.071504 0.09212,0.1455972 0.128596,0.2236819 0.03475,0.072546 0.05928,0.1498574 0.0873,0.2252974 0.02666,0.079773 0.04887,0.1611175 0.06985,0.2426342 0.02069,0.079224 0.03703,0.1596558 0.05227,0.2401323 0.01602,0.074099 0.02301,0.1499601 0.04599,0.2223601 0.02526,0.075523 0.04993,0.1512588 0.07259,0.2276308 0.02696,0.0837 0.05234,0.167849 0.07903,0.25164 0.02811,0.0763 0.05934,0.151443 0.08799,0.227529 0.0315,0.07179 0.05655,0.146761 0.09552,0.214867 0.02988,0.05865 0.06309,0.115462 0.09969,0.169958 0.036,0.0603 0.0829,0.112788 0.126493,0.167315 0.04915,0.05918 0.09916,0.11764 0.138104,0.18483 0.04313,0.05941 0.0844,0.120223 0.133964,0.174369 0.05765,0.06192 0.110613,0.128423 0.172408,0.186254 0.05445,0.05566 0.106195,0.113267 0.1539,0.175137 0.04681,0.05461 0.09467,0.108071 0.140621,0.163438 0.04449,0.05491 0.09597,0.104429 0.12929,0.168068 0.04509,0.06056 0.09215,0.119437 0.13835,0.17911 0.04569,0.05739 0.08389,0.120749 0.126813,0.180349 0.04588,0.06367 0.0896,0.129056 0.136591,0.191936 0.05206,0.07012 0.09777,0.144662 0.148423,0.215826 0.04287,0.0618 0.09072,0.119631 0.136835,0.178817 0.04514,0.06702 0.09902,0.127288 0.141144,0.196578 0.04798,0.06363 0.09506,0.12786 0.151644,0.183942 0.04598,0.04655 0.08518,0.09972 0.13516,0.142178 0.04194,0.04603 0.08663,0.08957 0.131856,0.132134 0.05193,0.04971 0.108171,0.0951 0.163509,0.140677 0.04544,0.04014 0.08988,0.0812 0.131974,0.125024 0.05467,0.05039 0.105036,0.105141 0.157701,0.15768 0.04393,0.05091 0.08643,0.10304 0.132807,0.151618 0.04629,0.04706 0.09471,0.09222 0.137039,0.14308 0.04766,0.0543 0.08976,0.113442 0.138258,0.167032 0.03677,0.04354 0.07736,0.08348 0.111794,0.129074 0.04568,0.05624 0.08403,0.118182 0.123778,0.178867 0.04498,0.0732 0.0925,0.144169 0.146458,0.210773 0.04244,0.06249 0.08182,0.127072 0.124088,0.189693 0.03711,0.04873 0.07581,0.09698 0.0995,0.154533 0.02965,0.06323 0.05566,0.128323 0.08415,0.192147 0,0 -0.107296,0.0027 -0.107296,0.0027 z"
         id="path3934"
         style="fill:none;stroke:none" />
      <g
         transform="matrix(0.40194675,0,0,0.40194675,1.4634444,-4.285785)"
         id="layer1-1"
         inkscape:label="Layer 1">
        <rect
           transform="matrix(2.4878917,0,0,2.4878917,-3.6408912,10.662569)"
           y="0.13630426"
           x="0.2548385"
           height="15.608857"
           width="15.863696"
           id="rect5792"
           style="fill:url(#linearGradient5800);fill-opacity:1;stroke:#2e3436;stroke-width:0.11757011000000001;stroke-linecap:round;stroke-linejoin:bevel;stroke-miterlimit:4;stroke-opacity:1;stroke-dasharray:none" />
        <path
           sodipodi:type="arc"
           style="fill:#eeeeec;fill-opacity:0.99465182;stroke:#555753;stroke-width:1.34747231;stroke-linecap:round;stroke-linejoin:miter;stroke-miterlimit:4;stroke-opacity:0.94652411;stroke-dasharray:none"
           id="path4377"
           sodipodi:cx="353.74329"
           sodipodi:cy="534.61609"
           sodipodi:rx="31.12462"
           sodipodi:ry="31.12462"
           d="m 384.86791,534.61609 c 0,17.18965 -13.93497,31.12462 -31.12462,31.12462 -17.18966,0 -31.12462,-13.93497 -31.12462,-31.12462 0,-17.18965 13.93496,-31.12462 31.12462,-31.12462 17.18965,0 31.12462,13.93497 31.12462,31.12462 z"
           transform="matrix(0.22340126,0,0,0.21092664,-62.768934,-81.117849)" />
        <path
           style="fill:#555753;fill-opacity:0.99465182;stroke:#2e3436;stroke-width:0.29250169;stroke-linecap:round;stroke-linejoin:bevel;stroke-miterlimit:4;stroke-opacity:1;stroke-dasharray:none"
           d=""
           id="path7366"
           inkscape:connector-curvature="0" />
        <path
           id="path5772"
           d="m 14.222844,14.682775 0,4.61679 c -1.784397,0.245897 -3.457207,0.828594 -4.9429426,1.659302 L 4.7118553,16.927725 1.061394,20.978411 5.1361084,24.570319 c -0.9625441,1.285383 -1.6749512,2.739822 -2.0718838,4.31423 l -4.6864417,-0.02952 -0.029321,5.417174 4.6173703,0.02952 c 0.34845,1.610046 1.0266171,3.107023 1.9633662,4.431346 l -3.0585023,2.967236 3.8379133,3.874988 3.236095,-3.152709 c 1.5682676,0.93627 3.3578116,1.580086 5.2783956,1.844782 l 0,3.494308 5.485596,0 0,-3.77736 c 1.604971,-0.400294 3.089427,-1.078356 4.400293,-1.961905 l 4.173391,3.670007 3.64061,-4.050687 -4.015528,-3.53334 c 0.655975,-1.056661 1.153801,-2.213669 1.460203,-3.435768 l 5.623692,0.02952 0.02933,-5.417182 -5.574365,-0.03935 c -0.313282,-1.43037 -0.883487,-2.772943 -1.667276,-3.98235 l 4.479225,-4.343514 -3.837938,-3.865213 -4.508834,4.363016 c -1.262704,-0.819831 -2.677031,-1.444623 -4.202973,-1.825211 l 0,-4.909618 -5.485597,0 z"
           style="fill:url(#linearGradient5820);fill-opacity:1;stroke:#555753;stroke-width:0.29250168999999998;stroke-linecap:round;stroke-linejoin:miter;stroke-miterlimit:4;stroke-opacity:0.94652411000000003;stroke-dasharray:none"
           inkscape:connector-curvature="0" />
        <path
           transform="matrix(0.22340126,0,0,0.21092664,-62.768934,-81.117849)"
           d="m 384.86791,534.61609 c 0,17.18965 -13.93497,31.12462 -31.12462,31.12462 -17.18966,0 -31.12462,-13.93497 -31.12462,-31.12462 0,-17.18965 13.93496,-31.12462 31.12462,-31.12462 17.18965,0 31.12462,13.93497 31.12462,31.12462 z"
           sodipodi:ry="31.12462"
           sodipodi:rx="31.12462"
           sodipodi:cy="534.61609"
           sodipodi:cx="353.74329"
           id="path5774"
           style="fill:url(#linearGradient5810);fill-opacity:1;stroke:#555753;stroke-width:1.34747230999999990;stroke-linecap:round;stroke-linejoin:miter;stroke-miterlimit:4;stroke-opacity:0.94652411000000003;stroke-dasharray:none"
           sodipodi:type="arc" />
      </g>
    </g>
    <g
       id="g22150"
       style="opacity:0.3"
       transform="matrix(-0.94837153,0,0,0.76794613,48.017293,15.783792)">
      <rect
         y="35"
         x="0"
         height="7"
         width="4"
         id="rect22120"
         style="fill:url(#radialGradient23040);fill-opacity:1;stroke:none" />
      <rect
         transform="scale(-1,-1)"
         y="-42"
         x="-48"
         height="7"
         width="4"
         id="rect22134"
         style="fill:url(#radialGradient23042);fill-opacity:1;stroke:none" />
      <rect
         y="35"
         x="4"
         height="7"
         width="40"
         id="rect22138"
         style="fill:url(#linearGradient23044);fill-opacity:1;stroke:none" />
    </g>
    <g
       id="g10824"
       transform="matrix(-1.0345867,0,0,1.0751302,104.91956,-2.9543196)">
      <path
         id="path4319"
         d="m 57.5,14.928571 0,30 39,0 -39,-30 z m 6,13 15,11 -15,0 0,-11 z"
         style="fill:url(#linearGradient10840);fill-opacity:1;fill-rule:evenodd;stroke:#a38503;stroke-width:0.94816983px;stroke-linecap:butt;stroke-linejoin:miter;stroke-opacity:1"
         inkscape:connector-curvature="0" />
      <path
         sodipodi:nodetypes="cc"
         id="path4326"
         d="m 61.5,44.928571 0,-3"
         style="fill:none;stroke:#a38503;stroke-width:0.94816959px;stroke-linecap:round;stroke-linejoin:miter;stroke-opacity:1"
         inkscape:connector-curvature="0" />
      <path
         sodipodi:nodetypes="cc"
         id="path4328"
         d="m 67.5,44.928571 0,-3"
         style="fill:none;stroke:#a38503;stroke-width:0.94816959px;stroke-linecap:round;stroke-linejoin:miter;stroke-opacity:1"
         inkscape:connector-curvature="0" />
      <path
         sodipodi:nodetypes="cc"
         id="path4330"
         d="m 73.5,44.928571 0,-2.964286"
         style="fill:none;stroke:#a38503;stroke-width:0.94816959px;stroke-linecap:round;stroke-linejoin:miter;stroke-opacity:1"
         inkscape:connector-curvature="0" />
      <path
         sodipodi:nodetypes="cc"
         id="path4332"
         d="m 79.5,44.928571 0,-3"
         style="fill:none;stroke:#a38503;stroke-width:0.94816959px;stroke-linecap:round;stroke-linejoin:miter;stroke-opacity:1"
         inkscape:connector-curvature="0" />
      <path
         sodipodi:nodetypes="cc"
         id="path4334"
         d="m 85.5,44.928571 0,-3"
         style="fill:none;stroke:#a38503;stroke-width:0.94816959px;stroke-linecap:round;stroke-linejoin:miter;stroke-opacity:1"
         inkscape:connector-curvature="0" />
      <path
         id="path6126"
         d="m 58.500002,16.928575 0,27.000011 35.000012,0 -35.000012,-27.000011 z"
         style="opacity:0.4;fill:none;stroke:#ffffff;stroke-width:0.94817013px;stroke-linecap:butt;stroke-linejoin:miter;stroke-opacity:1"
         inkscape:connector-curvature="0" />
    </g>
    <path
       style="opacity:0.4;fill:none;stroke:#ffffff;stroke-width:1px;stroke-linecap:butt;stroke-linejoin:miter;stroke-opacity:1"
       d="m 40.256082,40.019728 0.04573,-15.062093 -19.744093,15.084473 19.69837,-0.02238 z"
       id="path12221"
       sodipodi:nodetypes="cccc"
       inkscape:connector-curvature="0" />
  </g>
</svg>
