/* XPM */
static char *anjuta_pcmark_16_xpm[] = {
/* columns rows colors chars-per-pixel */
"16 16 68 1",
"  c #8F5902",
". c #905A02",
"X c #905B02",
"o c #915C02",
"O c #915C03",
"+ c #925D02",
"@ c #945F02",
"# c #946002",
"$ c #956004",
"% c #9F6E07",
"& c #946008",
"* c #97630A",
"= c #966409",
"- c #976409",
"; c #94600D",
": c #95610F",
"> c #97650C",
", c #98650D",
"< c #9A680C",
"1 c #976515",
"2 c #EDD400",
"3 c #EDD401",
"4 c #EED60B",
"5 c #EED60D",
"6 c #EED710",
"7 c #EED713",
"8 c #EED815",
"9 c #EFD816",
"0 c #EFD817",
"q c #EFD818",
"w c #F3E359",
"e c #D9C161",
"r c #E9D770",
"t c #EBDB7E",
"y c #F4E668",
"u c #F5E56A",
"i c #F5E66B",
"p c #F5E66C",
"a c #F5E76E",
"s c #F6E97F",
"d c #E9D884",
"f c #ECDF94",
"g c #ECDF96",
"h c #F6EA87",
"j c #F7EB89",
"k c #F7EB8C",
"l c #EDE099",
"z c #F7ED91",
"x c #F7EC93",
"c c #F7ED94",
"v c #F8ED95",
"b c #F8ED97",
"n c #F8EE9B",
"m c #F9EEA0",
"M c #F9EFA6",
"N c #F9F0A6",
"B c #F9F0A9",
"V c #F9F0AA",
"C c #FAF2B9",
"Z c #FBF6C9",
"A c #FBF6CB",
"S c #FCF6D0",
"D c #FCF8D9",
"F c #FDF9D9",
"G c #FCFAE0",
"H c #FDFAE1",
"J c #FDFBE6",
"K c None",
/* pixels */
"KKKKKKKKKKKKKKKK",
"KKKKKKKK$KKKKKKK",
"KKKKKKKK :KKKKKK",
"KKKKKKKK d,KKKKK",
"KKKKKKKK Cl,KKKK",
"KK+ XX@@<Zzl,KKK",
"KK1FHJJHFAykl=KK",
"KK:Ahxbcjhiwjl,K",
"KKOV055678qq0be@",
"KK1n22222222it=K",
"KK:VVVVVVn2at=KK",
"KK+ X ++%Nat=KKK",
"KKKKKKKKXNt=KKKK",
"KKKKKKKK r=KKKKK",
"KKKKKKKK @KKKKKK",
"KKKKKKKK#KKKKKKK"
};
